<?xml version="1.0" encoding="UTF-8"?>
<!DOCTYPE svg PUBLIC "-//W3C//DTD SVG 1.1//EN" "http://www.w3.org/Graphics/SVG/1.1/DTD/svg11.dtd">
<!-- Creator: CorelDRAW 2020 (64-Bit) -->
<svg xmlns="http://www.w3.org/2000/svg" xml:space="preserve" width="60px" height="36px" version="1.1" style="shape-rendering:geometricPrecision; text-rendering:geometricPrecision; image-rendering:optimizeQuality; fill-rule:evenodd; clip-rule:evenodd"
viewBox="0 0 0.78 0.46"
 xmlns:xlink="http://www.w3.org/1999/xlink"
 xmlns:xodm="http://www.corel.com/coreldraw/odm/2003">
 <defs>
  <style type="text/css">
   <![CDATA[
    .fil0 {fill:black}
    .fil1 {fill:#B3B3B3}
    .fil2 {fill:white;fill-rule:nonzero}
   ]]>
  </style>
 </defs>
 <g id="Слой_x0020_1">
  <metadata id="CorelCorpID_0Corel-Layer"/>
  <path class="fil0" d="M0 0.45l0.52 0c0.03,-0.13 0.13,-0.24 0.26,-0.3l0 -0.15 -0.78 0 0 0.45z"/>
  <path class="fil1" d="M0.58 0.08c-0.03,-0.05 -0.08,-0.08 -0.15,-0.08l0 0c-0.08,0.01 -0.14,0.08 -0.13,0.16l0 0c0.01,0.06 0.05,0.11 0.11,0.13l0 0c0.08,0.02 0.13,0.09 0.11,0.17l0 0c0.03,-0.13 0.12,-0.24 0.25,-0.3 -0.08,0.03 -0.16,0 -0.19,-0.08l0 0z"/>
  <path class="fil0" d="M0.46 0.26l0 0c0.06,0 0.11,-0.06 0.1,-0.13l0 0c0,-0.06 -0.06,-0.11 -0.12,-0.1l0 0c-0.07,0 -0.12,0.06 -0.11,0.12l0 0c0.01,0.07 0.06,0.12 0.13,0.11z"/>
  <polygon class="fil2" points="0.43,0.15 0.36,0.16 0.39,0.11 "/>
  <path class="fil2" d="M0.48 0.16l0 0.05 -0.03 0 0 -0.12 0.05 0c0.01,0 0.01,0 0.02,0 0.01,0 0.01,0.01 0.02,0.02 0,0 0,0.01 0,0.02 0,0.01 0,0.02 -0.01,0.02 -0.01,0.01 -0.02,0.01 -0.03,0.01l-0.02 0zm0 -0.02l0.02 0c0,0 0.01,0 0.01,0 0.01,0 0.01,-0.01 0.01,-0.01 0,-0.01 0,-0.01 -0.01,-0.02 0,0 -0.01,0 -0.01,0l-0.02 0 0 0.03z"/>
 </g>
</svg>
