<?xml version="1.0" encoding="UTF-8"?>
<!DOCTYPE svg PUBLIC "-//W3C//DTD SVG 1.1//EN" "http://www.w3.org/Graphics/SVG/1.1/DTD/svg11.dtd">
<!-- Creator: CorelDRAW 2019 (64-Bit) -->
<svg xmlns="http://www.w3.org/2000/svg" xml:space="preserve" width="759px" height="152px" version="1.1" style="shape-rendering:geometricPrecision; text-rendering:geometricPrecision; image-rendering:optimizeQuality; fill-rule:evenodd; clip-rule:evenodd"
viewBox="0 0 101.2 20.31"
 xmlns:xlink="http://www.w3.org/1999/xlink">
 <defs>
  <style type="text/css">
   <![CDATA[
    .fil1 {fill:black}
    .fil0 {fill:#1A1A1A}
   ]]>
  </style>
 </defs>
 <g id="Слой_x0020_1">
  <metadata id="CorelCorpID_0Corel-Layer"/>
  <rect class="fil0" transform="matrix(-1.35881E-12 1.33897 -44.8278 -1.10423E-12 97.9924 16.6529)" width="1.84" height="2.19"/>
  <rect class="fil0" transform="matrix(-1.35881E-12 1.33897 -44.8278 -1.10423E-12 97.9924 1.18133)" width="1.84" height="2.19"/>
  <rect class="fil0" x="29.77" y="11.42" width="2.47" height="5.6"/>
  <rect class="fil0" x="29.77" y="3.35" width="2.47" height="4.73"/>
  <rect class="fil0" x="42.97" y="11.42" width="2.47" height="5.6"/>
  <rect class="fil0" x="42.97" y="3.35" width="2.47" height="4.73"/>
  <rect class="fil0" x="56.04" y="11.42" width="2.47" height="5.6"/>
  <rect class="fil0" x="56.04" y="3.35" width="2.47" height="4.73"/>
  <rect class="fil0" x="69.25" y="11.42" width="2.47" height="5.6"/>
  <rect class="fil0" x="69.25" y="3.35" width="2.47" height="4.73"/>
  <circle class="fil0" cx="70.48" cy="10.22" r="4.44"/>
  <g id="_1027507184">
   <circle class="fil1" cx="70.48" cy="10.22" r="4"/>
   <circle class="fil0" cx="70.48" cy="10.22" r="0.93"/>
   <path class="fil0" d="M71.84 9.61c0.15,-0.87 -0.07,-1.53 -0.73,-1.94 -0.18,-0.12 -0.44,-0.18 -0.36,-0.47 0.04,-0.16 0.21,-0.26 0.38,-0.22 0.07,0.02 0.24,0.13 0.31,0.18 1.01,0.65 1.3,1.63 0.93,2.93 -0.05,0.17 -0.22,0.27 -0.39,0.23 -0.17,-0.04 -0.27,-0.22 -0.22,-0.39 0.03,-0.11 0.06,-0.2 0.08,-0.32z"/>
   <path class="fil0" d="M71.8 10.99c0.84,-0.29 1.31,-0.81 1.35,-1.58 0.01,-0.22 -0.07,-0.47 0.22,-0.54 0.17,-0.05 0.34,0.05 0.39,0.22 0.02,0.07 0,0.28 -0.01,0.36 -0.07,1.2 -0.79,1.93 -2.11,2.24 -0.17,0.04 -0.34,-0.06 -0.38,-0.22 -0.05,-0.18 0.06,-0.35 0.22,-0.39 0.12,-0.03 0.21,-0.04 0.32,-0.09z"/>
   <path class="fil0" d="M70.42 11.71c0.71,0.53 1.4,0.63 2.07,0.23 0.18,-0.11 0.35,-0.31 0.57,-0.11 0.13,0.11 0.14,0.31 0.03,0.44 -0.05,0.06 -0.23,0.16 -0.31,0.2 -1.03,0.61 -2.04,0.41 -3.03,-0.51 -0.13,-0.12 -0.14,-0.31 -0.03,-0.44 0.12,-0.14 0.32,-0.14 0.45,-0.03 0.09,0.08 0.15,0.14 0.25,0.22z"/>
   <path class="fil0" d="M69.15 10.97c-0.15,0.87 0.08,1.53 0.75,1.94 0.18,0.11 0.44,0.16 0.37,0.45 -0.05,0.17 -0.22,0.28 -0.38,0.23 -0.08,-0.01 -0.25,-0.13 -0.32,-0.17 -1.02,-0.64 -1.32,-1.62 -0.96,-2.93 0.05,-0.17 0.21,-0.27 0.38,-0.23 0.18,0.04 0.27,0.22 0.23,0.39 -0.03,0.11 -0.05,0.2 -0.07,0.32z"/>
   <path class="fil0" d="M69.17 9.43c-0.84,0.29 -1.3,0.81 -1.34,1.59 -0.01,0.21 0.06,0.46 -0.23,0.54 -0.17,0.04 -0.34,-0.06 -0.38,-0.23 -0.02,-0.07 -0.01,-0.28 0,-0.36 0.08,-1.2 0.8,-1.93 2.12,-2.23 0.17,-0.05 0.34,0.05 0.38,0.22 0.05,0.17 -0.06,0.34 -0.23,0.38 -0.11,0.03 -0.2,0.05 -0.32,0.09z"/>
   <path class="fil0" d="M70.6 8.73c-0.68,-0.57 -1.36,-0.7 -2.05,-0.34 -0.19,0.1 -0.37,0.3 -0.58,0.09 -0.13,-0.12 -0.13,-0.32 -0.01,-0.45 0.06,-0.05 0.24,-0.14 0.32,-0.18 1.06,-0.55 2.06,-0.31 3,0.67 0.13,0.12 0.13,0.32 0.01,0.44 -0.13,0.13 -0.33,0.12 -0.45,0 -0.08,-0.08 -0.14,-0.15 -0.24,-0.23z"/>
  </g>
  <rect class="fil0" x="82.45" y="11.42" width="2.47" height="5.6"/>
  <rect class="fil0" x="82.45" y="3.35" width="2.47" height="4.73"/>
  <rect class="fil0" x="95.52" y="11.42" width="2.47" height="5.6"/>
  <rect class="fil0" x="95.52" y="3.35" width="2.47" height="4.73"/>
  <path class="fil0" d="M94.22 2.47l0.09 1.18c0.61,0.01 1.18,0.48 1.21,1.2l1.36 0.18 0.04 -2.1 -2.7 -0.46z"/>
  <path class="fil0" d="M81.15 2.47l0.09 1.18c0.61,0.01 1.18,0.48 1.21,1.2l1.36 0.18 0.04 -2.1 -2.7 -0.46z"/>
  <path class="fil0" d="M86.22 2.47l-0.09 1.18c-0.6,0.01 -1.18,0.48 -1.21,1.2l-1.36 0.18 -0.04 -2.1 2.7 -0.46z"/>
  <path class="fil0" d="M67.96 2.47l0.08 1.18c0.61,0.01 1.19,0.48 1.22,1.2l1.35 0.18 0.05 -2.1 -2.7 -0.46z"/>
  <path class="fil0" d="M73.02 2.47l-0.08 1.18c-0.61,0.01 -1.19,0.48 -1.22,1.2l-1.35 0.18 -0.05 -2.1 2.7 -0.46z"/>
  <path class="fil0" d="M54.75 2.47l0.08 1.18c0.61,0.01 1.19,0.48 1.21,1.2l1.36 0.18 0.05 -2.1 -2.7 -0.46z"/>
  <path class="fil0" d="M59.81 2.47l-0.09 1.18c-0.6,0.01 -1.18,0.48 -1.21,1.2l-1.36 0.18 -0.04 -2.1 2.7 -0.46z"/>
  <path class="fil0" d="M41.68 2.47l0.08 1.18c0.61,0.01 1.18,0.48 1.21,1.2l1.36 0.18 0.04 -2.1 -2.69 -0.46z"/>
  <path class="fil0" d="M46.74 2.47l-0.09 1.18c-0.6,0.01 -1.18,0.48 -1.21,1.2l-1.36 0.18 -0.04 -2.1 2.7 -0.46z"/>
  <path class="fil0" d="M28.47 2.47l0.09 1.18c0.6,0.01 1.18,0.48 1.21,1.2l1.36 0.18 0.04 -2.1 -2.7 -0.46z"/>
  <path class="fil0" d="M33.53 2.47l-0.08 1.18c-0.61,0.01 -1.18,0.48 -1.21,1.2l-1.36 0.18 -0.04 -2.1 2.69 -0.46z"/>
  <path class="fil0" d="M28.47 17.83l0.09 -1.18c0.6,-0.01 1.18,-0.47 1.21,-1.19l1.36 -0.19 0.04 2.1 -2.7 0.46z"/>
  <path class="fil0" d="M33.53 17.83l-0.08 -1.18c-0.61,-0.01 -1.19,-0.47 -1.22,-1.19l-1.35 -0.19 -0.05 2.1 2.7 0.46z"/>
  <path class="fil0" d="M41.68 17.84l0.08 -1.19c0.61,0 1.18,-0.47 1.21,-1.19l1.36 -0.19 0.04 2.1 -2.69 0.47z"/>
  <path class="fil0" d="M46.74 17.83l-0.09 -1.18c-0.6,-0.01 -1.18,-0.47 -1.21,-1.19l-1.36 -0.19 -0.04 2.1 2.7 0.46z"/>
  <path class="fil0" d="M54.75 17.83l0.08 -1.18c0.61,-0.01 1.19,-0.47 1.22,-1.19l1.35 -0.19 0.05 2.1 -2.7 0.46z"/>
  <path class="fil0" d="M59.81 17.83l-0.08 -1.18c-0.61,-0.01 -1.19,-0.47 -1.22,-1.19l-1.35 -0.19 -0.05 2.1 2.7 0.46z"/>
  <path class="fil0" d="M67.95 17.83l0.09 -1.18c0.61,-0.01 1.18,-0.47 1.21,-1.19l1.36 -0.19 0.04 2.1 -2.7 0.46z"/>
  <path class="fil0" d="M73.02 17.83l-0.09 -1.18c-0.61,-0.01 -1.18,-0.47 -1.21,-1.19l-1.36 -0.19 -0.04 2.1 2.7 0.46z"/>
  <path class="fil0" d="M81.15 17.83l0.09 -1.18c0.61,-0.01 1.18,-0.47 1.21,-1.19l1.36 -0.19 0.04 2.1 -2.7 0.46z"/>
  <path class="fil0" d="M86.22 17.83l-0.09 -1.18c-0.6,-0.01 -1.18,-0.47 -1.21,-1.19l-1.36 -0.19 -0.04 2.1 2.7 0.46z"/>
  <path class="fil0" d="M94.22 17.83l0.09 -1.18c0.61,-0.01 1.18,-0.47 1.21,-1.19l1.36 -0.19 0.04 2.1 -2.7 0.46z"/>
  <path class="fil1" d="M96.69 0l-2.58 1.18c2.64,-0.1 3.98,0.7 3.88,3.6l1.36 -2.22 0.04 -2.1 -2.7 -0.46z"/>
  <path class="fil1" d="M96.69 20.31l-2.58 -1.18c2.64,0.1 3.98,-0.7 3.88,-3.61l1.36 2.23 0.04 2.09 -2.7 0.47z"/>
  <path class="fil1" d="M96.72 20.25l-2.59 -1.18c2.64,0.11 3.98,-0.69 3.89,-3.6l1.36 2.22 0.04 2.1 -2.7 0.46z"/>
  <circle class="fil0" cx="44.21" cy="10.22" r="4.44"/>
  <g id="_1027524208">
   <circle class="fil1" cx="44.21" cy="10.22" r="4"/>
   <circle class="fil0" cx="44.21" cy="10.22" r="0.93"/>
   <path class="fil0" d="M45.56 9.61c0.16,-0.87 -0.07,-1.53 -0.73,-1.94 -0.18,-0.12 -0.43,-0.18 -0.36,-0.47 0.04,-0.16 0.21,-0.26 0.38,-0.22 0.08,0.02 0.25,0.13 0.32,0.18 1.01,0.65 1.3,1.63 0.92,2.93 -0.04,0.17 -0.21,0.27 -0.38,0.23 -0.18,-0.04 -0.27,-0.22 -0.23,-0.39 0.03,-0.11 0.06,-0.2 0.08,-0.32z"/>
   <path class="fil0" d="M45.53 10.99c0.84,-0.29 1.3,-0.81 1.34,-1.58 0.01,-0.22 -0.06,-0.47 0.23,-0.54 0.16,-0.05 0.34,0.05 0.38,0.22 0.02,0.07 0,0.28 0,0.36 -0.08,1.2 -0.8,1.93 -2.12,2.24 -0.16,0.04 -0.34,-0.06 -0.38,-0.22 -0.05,-0.18 0.06,-0.35 0.23,-0.39 0.11,-0.03 0.2,-0.04 0.32,-0.09z"/>
   <path class="fil0" d="M44.14 11.71c0.71,0.53 1.4,0.63 2.07,0.23 0.18,-0.11 0.35,-0.31 0.58,-0.11 0.13,0.11 0.14,0.31 0.02,0.44 -0.05,0.06 -0.23,0.16 -0.3,0.2 -1.04,0.61 -2.05,0.41 -3.04,-0.51 -0.13,-0.12 -0.14,-0.31 -0.02,-0.44 0.12,-0.14 0.32,-0.14 0.44,-0.03 0.09,0.08 0.15,0.14 0.25,0.22z"/>
   <path class="fil0" d="M42.87 10.97c-0.14,0.87 0.09,1.53 0.75,1.94 0.18,0.11 0.44,0.16 0.37,0.45 -0.04,0.17 -0.21,0.28 -0.38,0.23 -0.07,-0.01 -0.24,-0.13 -0.32,-0.17 -1.01,-0.64 -1.31,-1.62 -0.95,-2.93 0.04,-0.17 0.21,-0.27 0.38,-0.23 0.17,0.04 0.27,0.22 0.23,0.39 -0.03,0.11 -0.06,0.2 -0.08,0.32z"/>
   <path class="fil0" d="M42.9 9.43c-0.84,0.29 -1.31,0.81 -1.35,1.59 -0.01,0.21 0.06,0.46 -0.23,0.54 -0.16,0.04 -0.33,-0.06 -0.38,-0.23 -0.02,-0.07 0,-0.28 0.01,-0.36 0.07,-1.2 0.79,-1.93 2.11,-2.23 0.17,-0.05 0.34,0.05 0.39,0.22 0.04,0.17 -0.07,0.34 -0.23,0.38 -0.12,0.03 -0.21,0.05 -0.32,0.09z"/>
   <path class="fil0" d="M44.33 8.73c-0.68,-0.57 -1.37,-0.7 -2.06,-0.34 -0.18,0.1 -0.36,0.3 -0.58,0.09 -0.12,-0.12 -0.12,-0.32 0,-0.45 0.05,-0.05 0.24,-0.14 0.31,-0.18 1.07,-0.55 2.07,-0.31 3.01,0.67 0.12,0.12 0.12,0.32 0,0.44 -0.12,0.13 -0.33,0.12 -0.44,0 -0.09,-0.08 -0.15,-0.15 -0.24,-0.23z"/>
  </g>
  <circle class="fil0" cx="57.28" cy="10.22" r="4.44"/>
  <g id="_1027529296">
   <circle class="fil1" cx="57.28" cy="10.22" r="4"/>
   <circle class="fil0" cx="57.28" cy="10.22" r="0.93"/>
   <path class="fil0" d="M58.63 9.61c0.16,-0.87 -0.07,-1.53 -0.73,-1.94 -0.18,-0.12 -0.43,-0.18 -0.36,-0.47 0.04,-0.16 0.21,-0.26 0.38,-0.22 0.08,0.02 0.25,0.13 0.32,0.18 1.01,0.65 1.3,1.63 0.92,2.93 -0.04,0.17 -0.21,0.27 -0.38,0.23 -0.17,-0.04 -0.27,-0.22 -0.23,-0.39 0.04,-0.11 0.06,-0.2 0.08,-0.32z"/>
   <path class="fil0" d="M58.6 10.99c0.84,-0.29 1.3,-0.81 1.34,-1.58 0.01,-0.22 -0.06,-0.47 0.23,-0.54 0.17,-0.05 0.34,0.05 0.38,0.22 0.02,0.07 0,0.28 0,0.36 -0.07,1.2 -0.8,1.93 -2.12,2.24 -0.16,0.04 -0.33,-0.06 -0.38,-0.22 -0.04,-0.18 0.06,-0.35 0.23,-0.39 0.11,-0.03 0.2,-0.04 0.32,-0.09z"/>
   <path class="fil0" d="M57.21 11.71c0.71,0.53 1.4,0.63 2.07,0.23 0.18,-0.11 0.35,-0.31 0.58,-0.11 0.13,0.11 0.14,0.31 0.02,0.44 -0.05,0.06 -0.23,0.16 -0.3,0.2 -1.04,0.61 -2.05,0.41 -3.03,-0.51 -0.13,-0.12 -0.15,-0.31 -0.03,-0.44 0.12,-0.14 0.32,-0.14 0.44,-0.03 0.09,0.08 0.15,0.14 0.25,0.22z"/>
   <path class="fil0" d="M55.94 10.97c-0.14,0.87 0.09,1.53 0.75,1.94 0.19,0.11 0.44,0.16 0.37,0.45 -0.04,0.17 -0.21,0.28 -0.38,0.23 -0.07,-0.01 -0.24,-0.13 -0.32,-0.17 -1.01,-0.64 -1.31,-1.62 -0.95,-2.93 0.04,-0.17 0.21,-0.27 0.38,-0.23 0.17,0.04 0.27,0.22 0.23,0.39 -0.03,0.11 -0.06,0.2 -0.08,0.32z"/>
   <path class="fil0" d="M55.97 9.43c-0.84,0.29 -1.31,0.81 -1.35,1.59 -0.01,0.21 0.06,0.46 -0.23,0.54 -0.16,0.04 -0.33,-0.06 -0.38,-0.23 -0.02,-0.07 0,-0.28 0.01,-0.36 0.07,-1.2 0.79,-1.93 2.11,-2.23 0.17,-0.05 0.34,0.05 0.39,0.22 0.04,0.17 -0.07,0.34 -0.23,0.38 -0.12,0.03 -0.2,0.05 -0.32,0.09z"/>
   <path class="fil0" d="M57.4 8.73c-0.68,-0.57 -1.37,-0.7 -2.06,-0.34 -0.18,0.1 -0.36,0.3 -0.58,0.09 -0.12,-0.12 -0.12,-0.32 0,-0.45 0.05,-0.05 0.24,-0.14 0.31,-0.18 1.07,-0.55 2.07,-0.31 3.01,0.67 0.12,0.12 0.12,0.32 0,0.44 -0.12,0.13 -0.32,0.12 -0.44,0 -0.09,-0.08 -0.15,-0.15 -0.24,-0.23z"/>
  </g>
  <circle class="fil0" cx="83.69" cy="10.22" r="4.44"/>
  <g id="_1027532112">
   <circle class="fil1" cx="83.69" cy="10.22" r="4"/>
   <circle class="fil0" cx="83.69" cy="10.22" r="0.93"/>
   <path class="fil0" d="M85.04 9.61c0.16,-0.87 -0.07,-1.53 -0.73,-1.94 -0.18,-0.12 -0.43,-0.18 -0.36,-0.47 0.04,-0.16 0.21,-0.26 0.38,-0.22 0.08,0.02 0.25,0.13 0.32,0.18 1.01,0.65 1.3,1.63 0.92,2.93 -0.04,0.17 -0.21,0.27 -0.38,0.23 -0.18,-0.04 -0.27,-0.22 -0.23,-0.39 0.03,-0.11 0.06,-0.2 0.08,-0.32z"/>
   <path class="fil0" d="M85.01 10.99c0.84,-0.29 1.3,-0.81 1.34,-1.58 0.01,-0.22 -0.06,-0.47 0.23,-0.54 0.16,-0.05 0.34,0.05 0.38,0.22 0.02,0.07 0,0.28 0,0.36 -0.08,1.2 -0.8,1.93 -2.12,2.24 -0.16,0.04 -0.34,-0.06 -0.38,-0.22 -0.05,-0.18 0.06,-0.35 0.23,-0.39 0.11,-0.03 0.2,-0.04 0.32,-0.09z"/>
   <path class="fil0" d="M83.62 11.71c0.71,0.53 1.4,0.63 2.07,0.23 0.18,-0.11 0.35,-0.31 0.57,-0.11 0.13,0.11 0.15,0.31 0.03,0.44 -0.05,0.06 -0.23,0.16 -0.3,0.2 -1.04,0.61 -2.05,0.41 -3.04,-0.51 -0.13,-0.12 -0.14,-0.31 -0.02,-0.44 0.11,-0.14 0.32,-0.14 0.44,-0.03 0.09,0.08 0.15,0.14 0.25,0.22z"/>
   <path class="fil0" d="M82.35 10.97c-0.14,0.87 0.09,1.53 0.75,1.94 0.18,0.11 0.44,0.16 0.37,0.45 -0.04,0.17 -0.21,0.28 -0.38,0.23 -0.07,-0.01 -0.25,-0.13 -0.32,-0.17 -1.01,-0.64 -1.31,-1.62 -0.95,-2.93 0.04,-0.17 0.21,-0.27 0.38,-0.23 0.17,0.04 0.27,0.22 0.23,0.39 -0.03,0.11 -0.06,0.2 -0.08,0.32z"/>
   <path class="fil0" d="M82.38 9.43c-0.84,0.29 -1.31,0.81 -1.35,1.59 -0.01,0.21 0.06,0.46 -0.23,0.54 -0.16,0.04 -0.34,-0.06 -0.38,-0.23 -0.02,-0.07 0,-0.28 0,-0.36 0.08,-1.2 0.8,-1.93 2.12,-2.23 0.17,-0.05 0.34,0.05 0.38,0.22 0.05,0.17 -0.06,0.34 -0.22,0.38 -0.12,0.03 -0.21,0.05 -0.32,0.09z"/>
   <path class="fil0" d="M83.81 8.73c-0.69,-0.57 -1.37,-0.7 -2.06,-0.34 -0.18,0.1 -0.36,0.3 -0.58,0.09 -0.12,-0.12 -0.12,-0.32 0,-0.45 0.05,-0.05 0.24,-0.14 0.31,-0.18 1.07,-0.55 2.07,-0.31 3.01,0.67 0.12,0.12 0.12,0.32 0,0.44 -0.13,0.13 -0.33,0.12 -0.45,0 -0.08,-0.08 -0.14,-0.15 -0.23,-0.23z"/>
  </g>
  <circle class="fil0" cx="31" cy="10.22" r="4.44"/>
  <g id="_1027533456">
   <circle class="fil1" cx="31" cy="10.22" r="4"/>
   <circle class="fil0" cx="31" cy="10.22" r="0.93"/>
   <path class="fil0" d="M32.36 9.61c0.15,-0.87 -0.07,-1.53 -0.73,-1.94 -0.18,-0.12 -0.44,-0.18 -0.36,-0.47 0.04,-0.16 0.21,-0.26 0.38,-0.22 0.07,0.02 0.24,0.13 0.31,0.18 1.01,0.65 1.3,1.63 0.93,2.93 -0.05,0.17 -0.22,0.27 -0.39,0.23 -0.17,-0.04 -0.26,-0.22 -0.22,-0.39 0.03,-0.11 0.06,-0.2 0.08,-0.32z"/>
   <path class="fil0" d="M32.32 10.99c0.84,-0.29 1.31,-0.81 1.35,-1.58 0.01,-0.22 -0.07,-0.47 0.22,-0.54 0.17,-0.05 0.34,0.05 0.39,0.22 0.02,0.07 0,0.28 -0.01,0.36 -0.07,1.2 -0.79,1.93 -2.11,2.24 -0.17,0.04 -0.34,-0.06 -0.38,-0.22 -0.05,-0.18 0.06,-0.35 0.22,-0.39 0.12,-0.03 0.21,-0.04 0.32,-0.09z"/>
   <path class="fil0" d="M30.94 11.71c0.71,0.53 1.4,0.63 2.07,0.23 0.18,-0.11 0.35,-0.31 0.57,-0.11 0.13,0.11 0.14,0.31 0.03,0.44 -0.05,0.06 -0.23,0.16 -0.3,0.2 -1.04,0.61 -2.05,0.41 -3.04,-0.51 -0.13,-0.12 -0.14,-0.31 -0.03,-0.44 0.12,-0.14 0.32,-0.14 0.45,-0.03 0.09,0.08 0.15,0.14 0.25,0.22z"/>
   <path class="fil0" d="M29.67 10.97c-0.15,0.87 0.09,1.53 0.75,1.94 0.18,0.11 0.44,0.16 0.37,0.45 -0.04,0.17 -0.21,0.28 -0.38,0.23 -0.08,-0.01 -0.25,-0.13 -0.32,-0.17 -1.02,-0.64 -1.32,-1.62 -0.96,-2.93 0.05,-0.17 0.22,-0.27 0.38,-0.23 0.18,0.04 0.28,0.22 0.23,0.39 -0.03,0.11 -0.05,0.2 -0.07,0.32z"/>
   <path class="fil0" d="M29.69 9.43c-0.84,0.29 -1.3,0.81 -1.34,1.59 -0.01,0.21 0.06,0.46 -0.23,0.54 -0.17,0.04 -0.34,-0.06 -0.38,-0.23 -0.02,-0.07 0,-0.28 0,-0.36 0.08,-1.2 0.8,-1.93 2.12,-2.23 0.17,-0.05 0.34,0.05 0.38,0.22 0.05,0.17 -0.06,0.34 -0.23,0.38 -0.11,0.03 -0.2,0.05 -0.32,0.09z"/>
   <path class="fil0" d="M31.12 8.73c-0.68,-0.57 -1.36,-0.7 -2.05,-0.34 -0.19,0.1 -0.37,0.3 -0.58,0.09 -0.12,-0.12 -0.13,-0.32 -0.01,-0.45 0.06,-0.05 0.24,-0.14 0.32,-0.18 1.06,-0.55 2.06,-0.31 3,0.67 0.13,0.12 0.13,0.32 0.01,0.44 -0.13,0.13 -0.33,0.12 -0.45,0 -0.08,-0.08 -0.14,-0.15 -0.24,-0.23z"/>
  </g>
  <circle class="fil0" cx="96.76" cy="10.22" r="4.44"/>
  <g id="_1027473968">
   <circle class="fil1" cx="96.76" cy="10.22" r="4"/>
   <circle class="fil0" cx="96.76" cy="10.22" r="0.93"/>
   <path class="fil0" d="M98.11 9.61c0.16,-0.87 -0.07,-1.53 -0.73,-1.94 -0.18,-0.12 -0.43,-0.18 -0.36,-0.47 0.04,-0.16 0.21,-0.26 0.38,-0.22 0.08,0.02 0.25,0.13 0.32,0.18 1.01,0.65 1.3,1.63 0.92,2.93 -0.04,0.17 -0.21,0.27 -0.38,0.23 -0.18,-0.04 -0.27,-0.22 -0.23,-0.39 0.03,-0.11 0.06,-0.2 0.08,-0.32z"/>
   <path class="fil0" d="M98.08 10.99c0.84,-0.29 1.3,-0.81 1.34,-1.58 0.01,-0.22 -0.06,-0.47 0.23,-0.54 0.16,-0.05 0.34,0.05 0.38,0.22 0.02,0.07 0,0.28 0,0.36 -0.08,1.2 -0.8,1.93 -2.12,2.24 -0.16,0.04 -0.34,-0.06 -0.38,-0.22 -0.05,-0.18 0.06,-0.35 0.23,-0.39 0.11,-0.03 0.2,-0.04 0.32,-0.09z"/>
   <path class="fil0" d="M96.69 11.71c0.71,0.53 1.4,0.63 2.07,0.23 0.18,-0.11 0.35,-0.31 0.58,-0.11 0.13,0.11 0.14,0.31 0.02,0.44 -0.05,0.06 -0.23,0.16 -0.3,0.2 -1.04,0.61 -2.05,0.41 -3.04,-0.51 -0.13,-0.12 -0.14,-0.31 -0.02,-0.44 0.12,-0.14 0.32,-0.14 0.44,-0.03 0.09,0.08 0.15,0.14 0.25,0.22z"/>
   <path class="fil0" d="M95.42 10.97c-0.14,0.87 0.09,1.53 0.75,1.94 0.18,0.11 0.44,0.16 0.37,0.45 -0.04,0.17 -0.21,0.28 -0.38,0.23 -0.07,-0.01 -0.24,-0.13 -0.32,-0.17 -1.01,-0.64 -1.31,-1.62 -0.95,-2.93 0.04,-0.17 0.21,-0.27 0.38,-0.23 0.17,0.04 0.27,0.22 0.23,0.39 -0.03,0.11 -0.06,0.2 -0.08,0.32z"/>
   <path class="fil0" d="M95.45 9.43c-0.84,0.29 -1.31,0.81 -1.35,1.59 -0.01,0.21 0.06,0.46 -0.23,0.54 -0.16,0.04 -0.33,-0.06 -0.38,-0.23 -0.02,-0.07 0,-0.28 0,-0.36 0.08,-1.2 0.8,-1.93 2.12,-2.23 0.17,-0.05 0.34,0.05 0.39,0.22 0.04,0.17 -0.07,0.34 -0.23,0.38 -0.12,0.03 -0.21,0.05 -0.32,0.09z"/>
   <path class="fil0" d="M96.88 8.73c-0.68,-0.57 -1.37,-0.7 -2.06,-0.34 -0.18,0.1 -0.36,0.3 -0.58,0.09 -0.12,-0.12 -0.12,-0.32 0,-0.45 0.05,-0.05 0.24,-0.14 0.31,-0.18 1.07,-0.55 2.07,-0.31 3.01,0.67 0.12,0.12 0.12,0.32 0,0.44 -0.12,0.13 -0.33,0.12 -0.44,0 -0.09,-0.08 -0.15,-0.15 -0.24,-0.23z"/>
  </g>
 </g>
</svg>
