<?xml version="1.0" encoding="UTF-8"?>
<!DOCTYPE svg PUBLIC "-//W3C//DTD SVG 1.1//EN" "http://www.w3.org/Graphics/SVG/1.1/DTD/svg11.dtd">
<!-- Creator: CorelDRAW 2019 (64-Bit) -->
<svg xmlns="http://www.w3.org/2000/svg" xml:space="preserve" width="800px" height="271px" version="1.1" style="shape-rendering:geometricPrecision; text-rendering:geometricPrecision; image-rendering:optimizeQuality; fill-rule:evenodd; clip-rule:evenodd"
viewBox="0 0 405.52 137.37"
 xmlns:xlink="http://www.w3.org/1999/xlink">
 <defs>
  <style type="text/css">
   <![CDATA[
    .str1 {stroke:#FEFEFE;stroke-width:2.03;stroke-miterlimit:22.9256}
    .str2 {stroke:#FEFEFE;stroke-width:0.51;stroke-miterlimit:22.9256}
    .str3 {stroke:black;stroke-width:0.51;stroke-miterlimit:22.9256}
    .str0 {stroke:#FEFEFE;stroke-width:1.01;stroke-miterlimit:22.9256}
    .str4 {stroke:#FEFEFE;stroke-width:0.46;stroke-miterlimit:22.9256}
    .fil6 {fill:none}
    .fil8 {fill:none;fill-rule:nonzero}
    .fil1 {fill:#FEFEFE}
    .fil5 {fill:#EBECEC}
    .fil7 {fill:#C5C6C6}
    .fil2 {fill:#00A0E3}
    .fil3 {fill:#009846}
    .fil0 {fill:black}
    .fil4 {fill:#898989;fill-rule:nonzero}
    .fil9 {fill:black;fill-rule:nonzero}
   ]]>
  </style>
 </defs>
 <g id="Слой_x0020_1">
  <metadata id="CorelCorpID_0Corel-Layer"/>
  <rect class="fil0" width="405.52" height="137.37"/>
  <rect class="fil1" transform="matrix(1.24213E-12 -1.91243 46.7477 5.04849E-14 -0.000218178 116.534)" width="7.01" height="8.31"/>
  <rect class="fil2" transform="matrix(7.63223E-13 -1.24706 46.467 5.32556E-14 -6.7633E-05 114.201)" width="7.01" height="8.31"/>
  <rect class="fil2 str0" transform="matrix(7.63223E-13 -1.24706 46.467 5.32556E-14 2.53545 40.164)" width="7.01" height="8.31"/>
  <rect class="fil1" x="375.12" y="92.2" width="13.41" height="15.84"/>
  <rect class="fil2" x="377.45" y="91.33" width="8.74" height="19.53"/>
  <rect class="fil1" x="375.12" y="39.97" width="13.41" height="15.84"/>
  <circle class="fil1" cx="381.83" cy="72.81" r="21.6"/>
  <circle class="fil2" cx="381.83" cy="72.81" r="19.43"/>
  <rect class="fil2" x="377.45" y="39.1" width="8.74" height="16.71"/>
  <g>
   <path class="fil3" d="M381.83 57.6c8.39,0 15.2,6.81 15.2,15.21 0,8.4 -6.81,15.21 -15.2,15.21 -8.4,0 -15.21,-6.81 -15.21,-15.21 0,-8.4 6.81,-15.21 15.21,-15.21z"/>
   <path id="1" class="fil4" d="M397.29 72.81l-0.51 0 0 0 -0.02 -0.77 -0.06 -0.76 -0.09 -0.75 -0.13 -0.73 -0.17 -0.73 -0.2 -0.71 -0.24 -0.69 -0.27 -0.68 -0.3 -0.66 -0.33 -0.65 -0.36 -0.62 -0.38 -0.61 -0.42 -0.59 -0.45 -0.56 -0.46 -0.54 -0.5 -0.52 -0.52 -0.5 -0.54 -0.47 -0.57 -0.44 -0.58 -0.42 -0.61 -0.39 -0.63 -0.36 -0.64 -0.33 -0.66 -0.3 -0.68 -0.27 -0.7 -0.23 -0.71 -0.2 -0.72 -0.17 -0.74 -0.13 -0.75 -0.1 -0.75 -0.05 -0.77 -0.02 0 -0.51 0.79 0.02 0.79 0.06 0.77 0.1 0.76 0.13 0.75 0.18 0.73 0.21 0.72 0.24 0.7 0.27 0.69 0.31 0.67 0.35 0.64 0.37 0.63 0.4 0.61 0.43 0.58 0.46 0.56 0.49 0.54 0.51 0.51 0.54 0.49 0.56 0.45 0.58 0.44 0.61 0.4 0.62 0.37 0.65 0.34 0.67 0.31 0.68 0.28 0.7 0.24 0.72 0.21 0.74 0.17 0.74 0.14 0.77 0.1 0.77 0.06 0.79 0.02 0.79 0 0zm-15.46 15.46l0 -0.51 0 0 0.77 -0.02 0.75 -0.05 0.75 -0.1 0.74 -0.13 0.72 -0.17 0.71 -0.2 0.7 -0.23 0.68 -0.27 0.66 -0.3 0.64 -0.33 0.63 -0.36 0.61 -0.39 0.58 -0.42 0.57 -0.44 0.54 -0.47 0.52 -0.5 0.5 -0.52 0.46 -0.54 0.45 -0.56 0.42 -0.59 0.38 -0.61 0.36 -0.62 0.33 -0.65 0.3 -0.66 0.27 -0.68 0.24 -0.69 0.2 -0.71 0.17 -0.73 0.13 -0.73 0.09 -0.75 0.06 -0.76 0.02 -0.77 0.51 0 -0.02 0.8 -0.06 0.78 -0.1 0.77 -0.14 0.77 -0.17 0.74 -0.21 0.74 -0.24 0.72 -0.28 0.7 -0.31 0.68 -0.34 0.67 -0.37 0.65 -0.4 0.62 -0.44 0.61 -0.45 0.59 -0.49 0.56 -0.51 0.53 -0.54 0.51 -0.56 0.49 -0.58 0.46 -0.61 0.43 -0.63 0.4 -0.64 0.37 -0.67 0.35 -0.69 0.31 -0.7 0.27 -0.72 0.25 -0.73 0.2 -0.75 0.18 -0.76 0.13 -0.77 0.1 -0.79 0.06 -0.79 0.02 0 0zm-15.46 -15.46l0.5 0 0 0 0.02 0.77 0.06 0.76 0.09 0.75 0.14 0.73 0.16 0.73 0.2 0.71 0.24 0.69 0.27 0.68 0.3 0.66 0.33 0.65 0.36 0.62 0.39 0.61 0.41 0.59 0.45 0.56 0.47 0.54 0.49 0.52 0.52 0.5 0.54 0.47 0.57 0.44 0.59 0.42 0.6 0.39 0.63 0.36 0.64 0.33 0.67 0.3 0.67 0.27 0.7 0.23 0.71 0.2 0.72 0.17 0.74 0.13 0.75 0.1 0.76 0.05 0.77 0.02 0 0.51 -0.8 -0.02 -0.78 -0.06 -0.78 -0.1 -0.76 -0.13 -0.75 -0.18 -0.73 -0.2 -0.72 -0.25 -0.7 -0.27 -0.69 -0.31 -0.66 -0.35 -0.65 -0.37 -0.63 -0.4 -0.6 -0.43 -0.59 -0.46 -0.56 -0.49 -0.54 -0.51 -0.51 -0.53 -0.48 -0.56 -0.46 -0.59 -0.43 -0.61 -0.41 -0.62 -0.37 -0.65 -0.34 -0.67 -0.31 -0.68 -0.28 -0.7 -0.24 -0.72 -0.21 -0.74 -0.17 -0.74 -0.14 -0.77 -0.1 -0.77 -0.05 -0.78 -0.02 -0.8 0 0zm15.46 -15.46l0 0.51 0 0 -0.77 0.02 -0.76 0.05 -0.75 0.1 -0.74 0.13 -0.72 0.17 -0.71 0.2 -0.7 0.23 -0.67 0.27 -0.67 0.3 -0.64 0.33 -0.63 0.36 -0.6 0.39 -0.59 0.42 -0.57 0.44 -0.54 0.47 -0.52 0.5 -0.49 0.52 -0.47 0.54 -0.45 0.56 -0.41 0.59 -0.39 0.61 -0.36 0.62 -0.33 0.65 -0.3 0.66 -0.27 0.68 -0.24 0.69 -0.2 0.71 -0.16 0.73 -0.14 0.73 -0.09 0.75 -0.06 0.76 -0.02 0.77 -0.5 0 0.02 -0.79 0.05 -0.79 0.1 -0.77 0.14 -0.77 0.17 -0.74 0.21 -0.74 0.24 -0.72 0.28 -0.7 0.31 -0.68 0.34 -0.67 0.37 -0.65 0.41 -0.62 0.43 -0.61 0.46 -0.58 0.48 -0.56 0.51 -0.54 0.54 -0.51 0.56 -0.49 0.59 -0.46 0.6 -0.43 0.63 -0.4 0.65 -0.37 0.66 -0.35 0.69 -0.31 0.7 -0.27 0.72 -0.24 0.73 -0.21 0.75 -0.18 0.76 -0.13 0.78 -0.1 0.78 -0.06 0.8 -0.02 0 0z"/>
  </g>
  <circle class="fil5" cx="381.83" cy="72.81" r="3.53"/>
  <path class="fil1" d="M386.98 70.51c0.59,-3.33 -0.27,-5.84 -2.78,-7.41 -0.68,-0.42 -1.66,-0.65 -1.38,-1.75 0.17,-0.64 0.82,-1.02 1.45,-0.86 0.29,0.07 0.93,0.51 1.2,0.68 3.84,2.47 4.94,6.22 3.51,11.17 -0.16,0.64 -0.81,1.02 -1.45,0.86 -0.66,-0.17 -1.02,-0.85 -0.85,-1.47 0.11,-0.43 0.22,-0.76 0.3,-1.22z"/>
  <path class="fil1" d="M386.84 75.76c3.19,-1.11 4.97,-3.08 5.11,-6.04 0.04,-0.8 -0.23,-1.76 0.86,-2.05 0.64,-0.17 1.29,0.21 1.46,0.84 0.07,0.29 0.01,1.06 -0.01,1.38 -0.28,4.56 -3.02,7.35 -8.04,8.51 -0.64,0.17 -1.29,-0.21 -1.46,-0.85 -0.17,-0.66 0.24,-1.3 0.87,-1.46 0.43,-0.11 0.77,-0.18 1.21,-0.33z"/>
  <path class="fil1" d="M381.58 78.47c2.7,2.04 5.32,2.42 7.86,0.89 0.69,-0.41 1.33,-1.17 2.19,-0.42 0.49,0.43 0.54,1.19 0.1,1.68 -0.19,0.22 -0.87,0.6 -1.15,0.76 -3.94,2.3 -7.79,1.57 -11.54,-1.95 -0.5,-0.44 -0.54,-1.19 -0.11,-1.69 0.45,-0.51 1.22,-0.52 1.7,-0.09 0.33,0.3 0.57,0.54 0.95,0.82z"/>
  <path class="fil1" d="M376.74 75.66c-0.55,3.33 0.34,5.83 2.87,7.37 0.68,0.42 1.66,0.64 1.39,1.74 -0.16,0.64 -0.8,1.03 -1.44,0.88 -0.29,-0.07 -0.94,-0.5 -1.21,-0.67 -3.87,-2.42 -5,-6.17 -3.63,-11.13 0.16,-0.64 0.8,-1.03 1.44,-0.87 0.67,0.16 1.03,0.83 0.87,1.45 -0.11,0.44 -0.21,0.77 -0.29,1.23z"/>
  <path class="fil1" d="M376.85 69.81c-3.2,1.11 -4.97,3.08 -5.12,6.03 -0.05,0.81 0.23,1.77 -0.87,2.05 -0.63,0.17 -1.29,-0.21 -1.45,-0.85 -0.08,-0.28 -0.01,-1.05 0.01,-1.38 0.29,-4.55 3.03,-7.33 8.05,-8.49 0.64,-0.17 1.29,0.21 1.46,0.85 0.17,0.66 -0.24,1.31 -0.87,1.46 -0.43,0.11 -0.77,0.18 -1.21,0.33z"/>
  <path class="fil1" d="M382.28 67.17c-2.59,-2.17 -5.19,-2.69 -7.81,-1.3 -0.71,0.38 -1.39,1.11 -2.2,0.32 -0.47,-0.46 -0.48,-1.22 -0.02,-1.69 0.2,-0.21 0.9,-0.55 1.19,-0.7 4.05,-2.09 7.85,-1.16 11.42,2.55 0.47,0.46 0.48,1.21 0.02,1.68 -0.48,0.49 -1.24,0.47 -1.7,0.01 -0.31,-0.32 -0.54,-0.57 -0.9,-0.87z"/>
  <g>
   <g id="_1561852800">
    <circle class="fil1" cx="381.86" cy="47.46" r="3.02"/>
    <g>
     <path class="fil6 str1" d="M381.32 99.07l-18.96 0c-5.93,0 -10.77,-4.85 -10.77,-10.77l0 -30.07c0,-5.92 4.84,-10.77 10.77,-10.77l18.96 0"/>
     <circle class="fil1" cx="381.86" cy="99.27" r="3.02"/>
    </g>
   </g>
   <rect class="fil7 str2" x="345.95" y="68.33" width="11.28" height="11.28" rx="1.71" ry="1.71"/>
   <path class="fil8 str3" d="M350.98 75.08l-2.67 0 1.34 -1.78 1.33 1.78zm-1.33 0m-0.67 -0.89m1.33 0"/>
   <path class="fil9" d="M352.1 76.96l0 -4.9 1.85 0c0.32,0 0.57,0.02 0.74,0.05 0.24,0.04 0.45,0.12 0.61,0.23 0.16,0.11 0.29,0.27 0.39,0.47 0.1,0.2 0.15,0.43 0.15,0.67 0,0.41 -0.13,0.76 -0.4,1.05 -0.26,0.29 -0.74,0.43 -1.43,0.43l-1.26 0 0 2 -0.65 0zm0.65 -2.57l1.26 0c0.42,0 0.72,-0.08 0.9,-0.23 0.17,-0.16 0.26,-0.38 0.26,-0.66 0,-0.21 -0.05,-0.38 -0.16,-0.53 -0.1,-0.14 -0.24,-0.24 -0.4,-0.29 -0.11,-0.03 -0.32,-0.04 -0.61,-0.04l-1.25 0 0 1.75z"/>
  </g>
  <rect class="fil1" x="314.78" y="92.2" width="13.41" height="15.84"/>
  <rect class="fil2" x="317.11" y="91.33" width="8.74" height="19.53"/>
  <rect class="fil1" x="314.78" y="39.97" width="13.41" height="15.84"/>
  <circle class="fil1" cx="321.48" cy="72.81" r="21.6"/>
  <circle class="fil2" cx="321.48" cy="72.81" r="19.43"/>
  <rect class="fil2" x="317.11" y="39.1" width="8.74" height="16.71"/>
  <g>
   <path class="fil3" d="M321.48 57.6c8.4,0 15.21,6.81 15.21,15.21 0,8.4 -6.81,15.21 -15.21,15.21 -8.4,0 -15.21,-6.81 -15.21,-15.21 0,-8.4 6.81,-15.21 15.21,-15.21z"/>
   <path id="1" class="fil4" d="M336.94 72.81l-0.51 0 0 0 -0.02 -0.77 -0.05 -0.76 -0.1 -0.75 -0.13 -0.73 -0.17 -0.73 -0.2 -0.71 -0.23 -0.69 -0.27 -0.68 -0.3 -0.66 -0.33 -0.65 -0.36 -0.62 -0.39 -0.61 -0.42 -0.59 -0.44 -0.56 -0.47 -0.54 -0.5 -0.52 -0.52 -0.5 -0.54 -0.47 -0.56 -0.44 -0.59 -0.42 -0.61 -0.39 -0.62 -0.36 -0.65 -0.33 -0.66 -0.3 -0.68 -0.27 -0.69 -0.23 -0.71 -0.2 -0.73 -0.17 -0.73 -0.13 -0.75 -0.1 -0.76 -0.05 -0.77 -0.02 0 -0.51 0.8 0.02 0.78 0.06 0.77 0.1 0.77 0.13 0.74 0.18 0.74 0.21 0.72 0.24 0.7 0.27 0.68 0.31 0.67 0.35 0.65 0.37 0.62 0.4 0.61 0.43 0.59 0.46 0.56 0.49 0.53 0.51 0.51 0.54 0.49 0.56 0.46 0.58 0.43 0.61 0.4 0.62 0.37 0.65 0.35 0.67 0.31 0.68 0.27 0.7 0.25 0.72 0.2 0.74 0.18 0.74 0.13 0.77 0.1 0.77 0.06 0.79 0.02 0.79 0 0zm-15.46 15.46l0 -0.51 0 0 0.77 -0.02 0.76 -0.05 0.75 -0.1 0.73 -0.13 0.73 -0.17 0.71 -0.2 0.69 -0.23 0.68 -0.27 0.66 -0.3 0.65 -0.33 0.62 -0.36 0.61 -0.39 0.59 -0.42 0.56 -0.44 0.54 -0.47 0.52 -0.5 0.5 -0.52 0.47 -0.54 0.44 -0.56 0.42 -0.59 0.39 -0.61 0.36 -0.62 0.33 -0.65 0.3 -0.66 0.27 -0.68 0.23 -0.69 0.2 -0.71 0.17 -0.73 0.13 -0.73 0.1 -0.75 0.05 -0.76 0.02 -0.77 0.51 0 -0.02 0.8 -0.06 0.78 -0.1 0.77 -0.13 0.77 -0.18 0.74 -0.2 0.74 -0.25 0.72 -0.27 0.7 -0.31 0.68 -0.35 0.67 -0.37 0.65 -0.4 0.62 -0.43 0.61 -0.46 0.59 -0.49 0.56 -0.51 0.53 -0.53 0.51 -0.56 0.49 -0.59 0.46 -0.61 0.43 -0.62 0.4 -0.65 0.37 -0.67 0.35 -0.68 0.31 -0.7 0.27 -0.72 0.25 -0.74 0.2 -0.74 0.18 -0.77 0.13 -0.77 0.1 -0.78 0.06 -0.8 0.02 0 0zm-15.46 -15.46l0.51 0 0 0 0.02 0.77 0.05 0.76 0.1 0.75 0.13 0.73 0.17 0.73 0.2 0.71 0.23 0.69 0.27 0.68 0.3 0.66 0.33 0.65 0.36 0.62 0.39 0.61 0.42 0.59 0.44 0.56 0.47 0.54 0.5 0.52 0.52 0.5 0.54 0.47 0.56 0.44 0.59 0.42 0.61 0.39 0.62 0.36 0.65 0.33 0.66 0.3 0.68 0.27 0.69 0.23 0.71 0.2 0.73 0.17 0.73 0.13 0.75 0.1 0.76 0.05 0.77 0.02 0 0.51 -0.79 -0.02 -0.79 -0.06 -0.77 -0.1 -0.77 -0.13 -0.74 -0.18 -0.74 -0.2 -0.72 -0.25 -0.7 -0.27 -0.68 -0.31 -0.67 -0.35 -0.65 -0.37 -0.62 -0.4 -0.61 -0.43 -0.58 -0.46 -0.56 -0.49 -0.54 -0.51 -0.51 -0.53 -0.49 -0.56 -0.46 -0.59 -0.43 -0.61 -0.4 -0.62 -0.37 -0.65 -0.35 -0.67 -0.31 -0.68 -0.27 -0.7 -0.24 -0.72 -0.21 -0.74 -0.18 -0.74 -0.13 -0.77 -0.1 -0.77 -0.06 -0.78 -0.02 -0.8 0 0zm15.46 -15.46l0 0.51 0 0 -0.77 0.02 -0.76 0.05 -0.75 0.1 -0.73 0.13 -0.73 0.17 -0.71 0.2 -0.69 0.23 -0.68 0.27 -0.66 0.3 -0.65 0.33 -0.62 0.36 -0.61 0.39 -0.59 0.42 -0.56 0.44 -0.54 0.47 -0.52 0.5 -0.5 0.52 -0.47 0.54 -0.44 0.56 -0.42 0.59 -0.39 0.61 -0.36 0.62 -0.33 0.65 -0.3 0.66 -0.27 0.68 -0.23 0.69 -0.2 0.71 -0.17 0.73 -0.13 0.73 -0.1 0.75 -0.05 0.76 -0.02 0.77 -0.51 0 0.02 -0.79 0.06 -0.79 0.1 -0.77 0.13 -0.77 0.18 -0.74 0.21 -0.74 0.24 -0.72 0.27 -0.7 0.31 -0.68 0.35 -0.67 0.37 -0.65 0.4 -0.62 0.43 -0.61 0.46 -0.58 0.49 -0.56 0.51 -0.54 0.54 -0.51 0.56 -0.49 0.58 -0.46 0.61 -0.43 0.62 -0.4 0.65 -0.37 0.67 -0.35 0.68 -0.31 0.7 -0.27 0.72 -0.24 0.74 -0.21 0.74 -0.18 0.77 -0.13 0.77 -0.1 0.79 -0.06 0.79 -0.02 0 0z"/>
  </g>
  <circle class="fil5" cx="321.48" cy="72.81" r="3.53"/>
  <path class="fil1" d="M326.64 70.51c0.58,-3.33 -0.28,-5.84 -2.79,-7.41 -0.68,-0.42 -1.65,-0.65 -1.37,-1.75 0.16,-0.64 0.81,-1.02 1.45,-0.86 0.28,0.07 0.93,0.51 1.2,0.68 3.84,2.47 4.94,6.22 3.51,11.17 -0.17,0.64 -0.81,1.02 -1.45,0.86 -0.66,-0.17 -1.03,-0.85 -0.86,-1.47 0.12,-0.43 0.22,-0.76 0.31,-1.22z"/>
  <path class="fil1" d="M326.5 75.76c3.19,-1.11 4.96,-3.08 5.11,-6.04 0.04,-0.8 -0.24,-1.76 0.86,-2.05 0.63,-0.17 1.29,0.21 1.45,0.84 0.08,0.29 0.01,1.06 -0.01,1.38 -0.28,4.56 -3.02,7.35 -8.04,8.51 -0.63,0.17 -1.28,-0.21 -1.45,-0.85 -0.18,-0.66 0.24,-1.3 0.86,-1.46 0.44,-0.11 0.77,-0.18 1.22,-0.33z"/>
  <path class="fil1" d="M321.23 78.47c2.7,2.04 5.33,2.42 7.86,0.89 0.7,-0.41 1.34,-1.17 2.19,-0.42 0.49,0.43 0.54,1.19 0.11,1.68 -0.2,0.22 -0.88,0.6 -1.16,0.76 -3.94,2.3 -7.78,1.57 -11.54,-1.95 -0.49,-0.44 -0.54,-1.19 -0.1,-1.69 0.45,-0.51 1.21,-0.52 1.69,-0.09 0.34,0.3 0.58,0.54 0.95,0.82z"/>
  <path class="fil1" d="M316.4 75.66c-0.55,3.33 0.33,5.83 2.86,7.37 0.69,0.42 1.66,0.64 1.39,1.74 -0.15,0.64 -0.8,1.03 -1.44,0.88 -0.28,-0.07 -0.93,-0.5 -1.2,-0.67 -3.87,-2.42 -5.01,-6.17 -3.63,-11.13 0.15,-0.64 0.8,-1.03 1.44,-0.87 0.66,0.16 1.03,0.83 0.87,1.45 -0.11,0.44 -0.22,0.77 -0.29,1.23z"/>
  <path class="fil1" d="M316.5 69.81c-3.19,1.11 -4.97,3.08 -5.12,6.03 -0.04,0.81 0.23,1.77 -0.86,2.05 -0.64,0.17 -1.29,-0.21 -1.46,-0.85 -0.07,-0.28 -0.01,-1.05 0.02,-1.38 0.28,-4.55 3.03,-7.33 8.05,-8.49 0.63,-0.17 1.29,0.21 1.45,0.85 0.18,0.66 -0.24,1.31 -0.86,1.46 -0.44,0.11 -0.77,0.18 -1.22,0.33z"/>
  <path class="fil1" d="M321.93 67.17c-2.59,-2.17 -5.19,-2.69 -7.8,-1.3 -0.72,0.38 -1.4,1.11 -2.21,0.32 -0.47,-0.46 -0.48,-1.22 -0.02,-1.69 0.21,-0.21 0.91,-0.55 1.19,-0.7 4.06,-2.09 7.86,-1.16 11.43,2.55 0.47,0.46 0.48,1.21 0.02,1.68 -0.48,0.49 -1.25,0.47 -1.7,0.01 -0.32,-0.32 -0.55,-0.57 -0.91,-0.87z"/>
  <g>
   <g>
    <circle class="fil1" cx="321.51" cy="47.46" r="3.02"/>
    <g id="_1855811632">
     <path class="fil6 str1" d="M320.97 99.07l-18.96 0c-5.92,0 -10.77,-4.85 -10.77,-10.77l0 -30.07c0,-5.92 4.85,-10.77 10.77,-10.77l18.96 0"/>
     <circle class="fil1" cx="321.51" cy="99.27" r="3.02"/>
    </g>
   </g>
   <rect class="fil7 str2" x="285.6" y="68.33" width="11.28" height="11.28" rx="1.71" ry="1.71"/>
   <path class="fil8 str3" d="M290.64 75.08l-2.68 0 1.34 -1.78 1.34 1.78zm-1.34 0m-0.67 -0.89m1.34 0"/>
   <path class="fil9" d="M291.75 76.96l0 -4.9 1.85 0c0.33,0 0.58,0.02 0.75,0.05 0.24,0.04 0.44,0.12 0.6,0.23 0.17,0.11 0.3,0.27 0.4,0.47 0.1,0.2 0.14,0.43 0.14,0.67 0,0.41 -0.13,0.76 -0.39,1.05 -0.27,0.29 -0.75,0.43 -1.44,0.43l-1.26 0 0 2 -0.65 0zm0.65 -2.57l1.27 0c0.42,0 0.71,-0.08 0.89,-0.23 0.18,-0.16 0.26,-0.38 0.26,-0.66 0,-0.21 -0.05,-0.38 -0.15,-0.53 -0.1,-0.14 -0.24,-0.24 -0.41,-0.29 -0.11,-0.03 -0.31,-0.04 -0.6,-0.04l-1.26 0 0 1.75z"/>
  </g>
  <rect class="fil1" x="254.94" y="92.2" width="13.41" height="15.84"/>
  <rect class="fil2" x="257.27" y="91.33" width="8.74" height="19.53"/>
  <rect class="fil1" x="254.94" y="39.97" width="13.41" height="15.84"/>
  <circle class="fil1 str4" cx="261.64" cy="72.81" r="21.6"/>
  <circle class="fil2" cx="261.64" cy="72.81" r="19.43"/>
  <rect class="fil2" x="257.27" y="39.1" width="8.74" height="16.71"/>
  <g>
   <path class="fil3" d="M261.64 57.6c8.4,0 15.21,6.81 15.21,15.21 0,8.4 -6.81,15.21 -15.21,15.21 -8.4,0 -15.2,-6.81 -15.2,-15.21 0,-8.4 6.8,-15.21 15.2,-15.21z"/>
   <path id="1" class="fil4" d="M277.1 72.81l-0.5 0 0 0 -0.02 -0.77 -0.06 -0.76 -0.1 -0.75 -0.13 -0.73 -0.17 -0.73 -0.2 -0.71 -0.23 -0.69 -0.27 -0.68 -0.3 -0.66 -0.33 -0.65 -0.36 -0.62 -0.39 -0.61 -0.41 -0.59 -0.45 -0.56 -0.47 -0.54 -0.49 -0.52 -0.52 -0.5 -0.55 -0.47 -0.56 -0.44 -0.59 -0.42 -0.6 -0.39 -0.63 -0.36 -0.65 -0.33 -0.66 -0.3 -0.68 -0.27 -0.69 -0.23 -0.71 -0.2 -0.72 -0.17 -0.74 -0.13 -0.75 -0.1 -0.76 -0.05 -0.77 -0.02 0 -0.51 0.8 0.02 0.78 0.06 0.78 0.1 0.76 0.13 0.75 0.18 0.73 0.21 0.72 0.24 0.7 0.27 0.69 0.31 0.66 0.35 0.65 0.37 0.63 0.4 0.6 0.43 0.59 0.46 0.56 0.49 0.53 0.51 0.52 0.54 0.48 0.56 0.46 0.58 0.43 0.61 0.4 0.62 0.38 0.65 0.34 0.67 0.31 0.68 0.27 0.7 0.25 0.72 0.21 0.74 0.17 0.74 0.13 0.77 0.1 0.77 0.06 0.79 0.02 0.79 0 0zm-15.46 15.46l0 -0.51 0 0 0.77 -0.02 0.76 -0.05 0.75 -0.1 0.74 -0.13 0.72 -0.17 0.71 -0.2 0.69 -0.23 0.68 -0.27 0.66 -0.3 0.65 -0.33 0.63 -0.36 0.6 -0.39 0.59 -0.42 0.56 -0.44 0.55 -0.47 0.52 -0.5 0.49 -0.52 0.47 -0.54 0.45 -0.56 0.41 -0.59 0.39 -0.61 0.36 -0.62 0.33 -0.65 0.3 -0.66 0.27 -0.68 0.23 -0.69 0.2 -0.71 0.17 -0.73 0.13 -0.73 0.1 -0.75 0.06 -0.76 0.02 -0.77 0.5 0 -0.02 0.8 -0.06 0.78 -0.1 0.77 -0.13 0.77 -0.17 0.74 -0.21 0.74 -0.25 0.72 -0.27 0.7 -0.31 0.68 -0.34 0.67 -0.38 0.65 -0.4 0.62 -0.43 0.61 -0.46 0.59 -0.48 0.56 -0.52 0.53 -0.53 0.51 -0.56 0.49 -0.59 0.46 -0.6 0.43 -0.63 0.4 -0.65 0.37 -0.66 0.35 -0.69 0.31 -0.7 0.27 -0.72 0.25 -0.73 0.2 -0.75 0.18 -0.76 0.13 -0.78 0.1 -0.78 0.06 -0.8 0.02 0 0zm-15.46 -15.46l0.51 0 0 0 0.02 0.77 0.06 0.76 0.09 0.75 0.13 0.73 0.17 0.73 0.2 0.71 0.24 0.69 0.26 0.68 0.3 0.66 0.33 0.65 0.36 0.62 0.39 0.61 0.42 0.59 0.44 0.56 0.47 0.54 0.5 0.52 0.52 0.5 0.54 0.47 0.57 0.44 0.58 0.42 0.61 0.39 0.62 0.36 0.65 0.33 0.66 0.3 0.68 0.27 0.7 0.23 0.7 0.2 0.73 0.17 0.73 0.13 0.75 0.1 0.76 0.05 0.77 0.02 0 0.51 -0.79 -0.02 -0.79 -0.06 -0.77 -0.1 -0.76 -0.13 -0.75 -0.18 -0.74 -0.2 -0.71 -0.25 -0.71 -0.27 -0.68 -0.31 -0.67 -0.35 -0.65 -0.37 -0.62 -0.4 -0.61 -0.43 -0.58 -0.46 -0.56 -0.49 -0.54 -0.51 -0.51 -0.53 -0.49 -0.56 -0.46 -0.59 -0.43 -0.61 -0.4 -0.62 -0.37 -0.65 -0.34 -0.67 -0.31 -0.68 -0.28 -0.7 -0.24 -0.72 -0.21 -0.74 -0.17 -0.74 -0.14 -0.77 -0.1 -0.77 -0.06 -0.78 -0.02 -0.8 0 0zm15.46 -15.46l0 0.51 0 0 -0.77 0.02 -0.76 0.05 -0.75 0.1 -0.73 0.13 -0.73 0.17 -0.7 0.2 -0.7 0.23 -0.68 0.27 -0.66 0.3 -0.65 0.33 -0.62 0.36 -0.61 0.39 -0.58 0.42 -0.57 0.44 -0.54 0.47 -0.52 0.5 -0.5 0.52 -0.47 0.54 -0.44 0.56 -0.42 0.59 -0.39 0.61 -0.36 0.62 -0.33 0.65 -0.3 0.66 -0.26 0.68 -0.24 0.69 -0.2 0.71 -0.17 0.73 -0.13 0.73 -0.09 0.75 -0.06 0.76 -0.02 0.77 -0.51 0 0.02 -0.79 0.06 -0.79 0.1 -0.77 0.14 -0.77 0.17 -0.74 0.21 -0.74 0.24 -0.72 0.28 -0.7 0.31 -0.68 0.34 -0.67 0.37 -0.65 0.4 -0.62 0.43 -0.61 0.46 -0.58 0.49 -0.56 0.51 -0.54 0.54 -0.51 0.56 -0.49 0.58 -0.46 0.61 -0.43 0.62 -0.4 0.65 -0.37 0.67 -0.35 0.68 -0.31 0.71 -0.27 0.71 -0.24 0.74 -0.21 0.75 -0.18 0.76 -0.13 0.77 -0.1 0.79 -0.06 0.79 -0.02 0 0z"/>
  </g>
  <circle class="fil5" cx="261.64" cy="72.81" r="3.53"/>
  <path class="fil1" d="M266.8 70.51c0.58,-3.33 -0.27,-5.84 -2.78,-7.41 -0.69,-0.42 -1.66,-0.65 -1.38,-1.75 0.16,-0.64 0.81,-1.02 1.45,-0.86 0.28,0.07 0.93,0.51 1.2,0.68 3.84,2.47 4.94,6.22 3.51,11.17 -0.16,0.64 -0.81,1.02 -1.45,0.86 -0.66,-0.17 -1.02,-0.85 -0.86,-1.47 0.12,-0.43 0.23,-0.76 0.31,-1.22z"/>
  <path class="fil1" d="M266.66 75.76c3.19,-1.11 4.96,-3.08 5.11,-6.04 0.04,-0.8 -0.24,-1.76 0.86,-2.05 0.64,-0.17 1.29,0.21 1.46,0.84 0.07,0.29 0,1.06 -0.02,1.38 -0.27,4.56 -3.02,7.35 -8.03,8.51 -0.64,0.17 -1.29,-0.21 -1.46,-0.85 -0.18,-0.66 0.24,-1.3 0.86,-1.46 0.44,-0.11 0.77,-0.18 1.22,-0.33z"/>
  <path class="fil1" d="M261.39 78.47c2.7,2.04 5.33,2.42 7.87,0.89 0.69,-0.41 1.33,-1.17 2.18,-0.42 0.5,0.43 0.54,1.19 0.11,1.68 -0.2,0.22 -0.88,0.6 -1.16,0.76 -3.94,2.3 -7.78,1.57 -11.54,-1.95 -0.49,-0.44 -0.54,-1.19 -0.1,-1.69 0.45,-0.51 1.22,-0.52 1.69,-0.09 0.34,0.3 0.58,0.54 0.95,0.82z"/>
  <path class="fil1" d="M256.56 75.66c-0.55,3.33 0.33,5.83 2.86,7.37 0.69,0.42 1.67,0.64 1.4,1.74 -0.16,0.64 -0.81,1.03 -1.45,0.88 -0.28,-0.07 -0.93,-0.5 -1.2,-0.67 -3.87,-2.42 -5.01,-6.17 -3.63,-11.13 0.15,-0.64 0.8,-1.03 1.44,-0.87 0.66,0.16 1.03,0.83 0.87,1.45 -0.11,0.44 -0.21,0.77 -0.29,1.23z"/>
  <path class="fil1" d="M256.66 69.81c-3.19,1.11 -4.97,3.08 -5.12,6.03 -0.04,0.81 0.24,1.77 -0.86,2.05 -0.64,0.17 -1.29,-0.21 -1.46,-0.85 -0.07,-0.28 0,-1.05 0.02,-1.38 0.28,-4.55 3.03,-7.33 8.05,-8.49 0.64,-0.17 1.29,0.21 1.45,0.85 0.18,0.66 -0.24,1.31 -0.86,1.46 -0.44,0.11 -0.77,0.18 -1.22,0.33z"/>
  <path class="fil1" d="M262.09 67.17c-2.59,-2.17 -5.19,-2.69 -7.8,-1.3 -0.71,0.38 -1.4,1.11 -2.21,0.32 -0.47,-0.46 -0.48,-1.22 -0.02,-1.69 0.21,-0.21 0.91,-0.55 1.2,-0.7 4.05,-2.09 7.85,-1.16 11.42,2.55 0.47,0.46 0.48,1.21 0.02,1.68 -0.48,0.49 -1.24,0.47 -1.7,0.01 -0.32,-0.32 -0.55,-0.57 -0.91,-0.87z"/>
  <g>
   <g>
    <circle class="fil1" cx="261.68" cy="47.46" r="3.02"/>
    <g>
     <path class="fil6 str1" d="M261.13 99.07l-18.95 0c-5.93,0 -10.77,-4.85 -10.77,-10.77l0 -30.07c0,-5.92 4.84,-10.77 10.77,-10.77l18.95 0"/>
     <circle class="fil1" cx="261.68" cy="99.27" r="3.02"/>
    </g>
   </g>
   <rect class="fil7 str2" x="225.77" y="68.33" width="11.28" height="11.28" rx="1.71" ry="1.71"/>
   <path class="fil8 str3" d="M230.8 75.08l-2.68 0 1.34 -1.78 1.34 1.78zm-1.34 0m-0.67 -0.89m1.34 0"/>
   <path class="fil9" d="M231.92 76.96l0 -4.9 1.84 0c0.33,0 0.58,0.02 0.75,0.05 0.24,0.04 0.44,0.12 0.6,0.23 0.17,0.11 0.3,0.27 0.4,0.47 0.1,0.2 0.15,0.43 0.15,0.67 0,0.41 -0.14,0.76 -0.4,1.05 -0.27,0.29 -0.75,0.43 -1.44,0.43l-1.25 0 0 2 -0.65 0zm0.65 -2.57l1.26 0c0.42,0 0.72,-0.08 0.89,-0.23 0.18,-0.16 0.27,-0.38 0.27,-0.66 0,-0.21 -0.06,-0.38 -0.16,-0.53 -0.1,-0.14 -0.24,-0.24 -0.41,-0.29 -0.11,-0.03 -0.31,-0.04 -0.6,-0.04l-1.25 0 0 1.75z"/>
  </g>
  <rect class="fil1" x="194.59" y="92.2" width="13.41" height="15.84"/>
  <rect class="fil2" x="196.92" y="91.33" width="8.74" height="19.53"/>
  <rect class="fil1" x="194.59" y="39.97" width="13.41" height="15.84"/>
  <circle class="fil1" cx="201.3" cy="72.81" r="21.6"/>
  <circle class="fil2" cx="201.3" cy="72.81" r="19.43"/>
  <rect class="fil2" x="196.92" y="39.1" width="8.74" height="16.71"/>
  <g>
   <path class="fil3" d="M201.3 57.6c8.4,0 15.2,6.81 15.2,15.21 0,8.4 -6.8,15.21 -15.2,15.21 -8.4,0 -15.21,-6.81 -15.21,-15.21 0,-8.4 6.81,-15.21 15.21,-15.21z"/>
   <path id="1" class="fil4" d="M216.76 72.81l-0.51 0 0 0 -0.02 -0.77 -0.06 -0.76 -0.09 -0.75 -0.13 -0.73 -0.17 -0.73 -0.2 -0.71 -0.24 -0.69 -0.26 -0.68 -0.3 -0.66 -0.33 -0.65 -0.36 -0.62 -0.39 -0.61 -0.42 -0.59 -0.44 -0.56 -0.47 -0.54 -0.5 -0.52 -0.52 -0.5 -0.54 -0.47 -0.57 -0.44 -0.58 -0.42 -0.61 -0.39 -0.63 -0.36 -0.64 -0.33 -0.66 -0.3 -0.68 -0.27 -0.7 -0.23 -0.71 -0.2 -0.72 -0.17 -0.74 -0.13 -0.74 -0.1 -0.76 -0.05 -0.77 -0.02 0 -0.51 0.79 0.02 0.79 0.06 0.77 0.1 0.76 0.13 0.75 0.18 0.73 0.21 0.72 0.24 0.7 0.27 0.69 0.31 0.67 0.35 0.64 0.37 0.63 0.4 0.61 0.43 0.58 0.46 0.56 0.49 0.54 0.51 0.51 0.54 0.49 0.56 0.46 0.58 0.43 0.61 0.4 0.62 0.37 0.65 0.34 0.67 0.31 0.68 0.28 0.7 0.24 0.72 0.21 0.74 0.17 0.74 0.14 0.77 0.1 0.77 0.06 0.79 0.02 0.79 0 0zm-15.46 15.46l0 -0.51 0 0 0.77 -0.02 0.76 -0.05 0.74 -0.1 0.74 -0.13 0.72 -0.17 0.71 -0.2 0.7 -0.23 0.68 -0.27 0.66 -0.3 0.64 -0.33 0.63 -0.36 0.61 -0.39 0.58 -0.42 0.57 -0.44 0.54 -0.47 0.52 -0.5 0.5 -0.52 0.47 -0.54 0.44 -0.56 0.42 -0.59 0.39 -0.61 0.36 -0.62 0.33 -0.65 0.3 -0.66 0.26 -0.68 0.24 -0.69 0.2 -0.71 0.17 -0.73 0.13 -0.73 0.09 -0.75 0.06 -0.76 0.02 -0.77 0.51 0 -0.02 0.8 -0.06 0.78 -0.1 0.77 -0.14 0.77 -0.17 0.74 -0.21 0.74 -0.24 0.72 -0.28 0.7 -0.31 0.68 -0.34 0.67 -0.37 0.65 -0.4 0.62 -0.43 0.61 -0.46 0.59 -0.49 0.56 -0.51 0.53 -0.54 0.51 -0.56 0.49 -0.58 0.46 -0.61 0.43 -0.63 0.4 -0.64 0.37 -0.67 0.35 -0.69 0.31 -0.7 0.27 -0.72 0.25 -0.73 0.2 -0.75 0.18 -0.76 0.13 -0.77 0.1 -0.79 0.06 -0.79 0.02 0 0zm-15.46 -15.46l0.5 0 0 0 0.02 0.77 0.06 0.76 0.1 0.75 0.13 0.73 0.16 0.73 0.21 0.71 0.23 0.69 0.27 0.68 0.3 0.66 0.33 0.65 0.36 0.62 0.39 0.61 0.41 0.59 0.45 0.56 0.47 0.54 0.49 0.52 0.52 0.5 0.55 0.47 0.56 0.44 0.59 0.42 0.6 0.39 0.63 0.36 0.64 0.33 0.67 0.3 0.68 0.27 0.69 0.23 0.71 0.2 0.72 0.17 0.74 0.13 0.75 0.1 0.76 0.05 0.77 0.02 0 0.51 -0.8 -0.02 -0.78 -0.06 -0.78 -0.1 -0.76 -0.13 -0.75 -0.18 -0.73 -0.2 -0.72 -0.25 -0.7 -0.27 -0.69 -0.31 -0.66 -0.35 -0.65 -0.37 -0.63 -0.4 -0.6 -0.43 -0.59 -0.46 -0.56 -0.49 -0.54 -0.51 -0.51 -0.53 -0.48 -0.56 -0.46 -0.59 -0.43 -0.61 -0.41 -0.62 -0.37 -0.65 -0.34 -0.67 -0.31 -0.68 -0.28 -0.7 -0.24 -0.72 -0.21 -0.74 -0.17 -0.74 -0.14 -0.77 -0.09 -0.77 -0.06 -0.78 -0.02 -0.8 0 0zm15.46 -15.46l0 0.51 0 0 -0.77 0.02 -0.76 0.05 -0.75 0.1 -0.74 0.13 -0.72 0.17 -0.71 0.2 -0.69 0.23 -0.68 0.27 -0.67 0.3 -0.64 0.33 -0.63 0.36 -0.6 0.39 -0.59 0.42 -0.56 0.44 -0.55 0.47 -0.52 0.5 -0.49 0.52 -0.47 0.54 -0.45 0.56 -0.41 0.59 -0.39 0.61 -0.36 0.62 -0.33 0.65 -0.3 0.66 -0.27 0.68 -0.23 0.69 -0.21 0.71 -0.16 0.73 -0.13 0.73 -0.1 0.75 -0.06 0.76 -0.02 0.77 -0.5 0 0.02 -0.79 0.06 -0.79 0.09 -0.77 0.14 -0.77 0.17 -0.74 0.21 -0.74 0.24 -0.72 0.28 -0.7 0.31 -0.68 0.34 -0.67 0.37 -0.65 0.41 -0.62 0.43 -0.61 0.46 -0.58 0.48 -0.56 0.51 -0.54 0.54 -0.51 0.56 -0.49 0.59 -0.46 0.6 -0.43 0.63 -0.4 0.65 -0.37 0.66 -0.35 0.69 -0.31 0.7 -0.27 0.72 -0.24 0.73 -0.21 0.75 -0.18 0.76 -0.13 0.78 -0.1 0.78 -0.06 0.8 -0.02 0 0z"/>
  </g>
  <circle class="fil5" cx="201.3" cy="72.81" r="3.53"/>
  <path class="fil1" d="M206.45 70.51c0.59,-3.33 -0.27,-5.84 -2.78,-7.41 -0.68,-0.42 -1.66,-0.65 -1.37,-1.75 0.16,-0.64 0.81,-1.02 1.45,-0.86 0.28,0.07 0.92,0.51 1.2,0.68 3.84,2.47 4.93,6.22 3.5,11.17 -0.16,0.64 -0.81,1.02 -1.45,0.86 -0.66,-0.17 -1.02,-0.85 -0.85,-1.47 0.12,-0.43 0.22,-0.76 0.3,-1.22z"/>
  <path class="fil1" d="M206.31 75.76c3.19,-1.11 4.97,-3.08 5.11,-6.04 0.04,-0.8 -0.23,-1.76 0.86,-2.05 0.64,-0.17 1.29,0.21 1.46,0.84 0.08,0.29 0.01,1.06 -0.01,1.38 -0.28,4.56 -3.02,7.35 -8.04,8.51 -0.64,0.17 -1.29,-0.21 -1.46,-0.85 -0.17,-0.66 0.24,-1.3 0.87,-1.46 0.43,-0.11 0.77,-0.18 1.21,-0.33z"/>
  <path class="fil1" d="M201.05 78.47c2.7,2.04 5.32,2.42 7.86,0.89 0.69,-0.41 1.34,-1.17 2.19,-0.42 0.49,0.43 0.54,1.19 0.1,1.68 -0.19,0.22 -0.87,0.6 -1.15,0.76 -3.94,2.3 -7.78,1.57 -11.54,-1.95 -0.49,-0.44 -0.54,-1.19 -0.11,-1.69 0.46,-0.51 1.22,-0.52 1.7,-0.09 0.33,0.3 0.57,0.54 0.95,0.82z"/>
  <path class="fil1" d="M196.21 75.66c-0.54,3.33 0.34,5.83 2.87,7.37 0.69,0.42 1.66,0.64 1.39,1.74 -0.16,0.64 -0.8,1.03 -1.44,0.88 -0.28,-0.07 -0.93,-0.5 -1.21,-0.67 -3.86,-2.42 -5,-6.17 -3.63,-11.13 0.16,-0.64 0.8,-1.03 1.44,-0.87 0.67,0.16 1.04,0.83 0.87,1.45 -0.11,0.44 -0.21,0.77 -0.29,1.23z"/>
  <path class="fil1" d="M196.32 69.81c-3.2,1.11 -4.97,3.08 -5.12,6.03 -0.04,0.81 0.23,1.77 -0.87,2.05 -0.63,0.17 -1.29,-0.21 -1.45,-0.85 -0.08,-0.28 -0.01,-1.05 0.01,-1.38 0.29,-4.55 3.04,-7.33 8.05,-8.49 0.64,-0.17 1.29,0.21 1.46,0.85 0.17,0.66 -0.24,1.31 -0.87,1.46 -0.43,0.11 -0.77,0.18 -1.21,0.33z"/>
  <path class="fil1" d="M201.75 67.17c-2.59,-2.17 -5.19,-2.69 -7.81,-1.3 -0.71,0.38 -1.39,1.11 -2.2,0.32 -0.47,-0.46 -0.48,-1.22 -0.02,-1.69 0.2,-0.21 0.9,-0.55 1.19,-0.7 4.05,-2.09 7.85,-1.16 11.42,2.55 0.47,0.46 0.48,1.21 0.02,1.68 -0.48,0.49 -1.24,0.47 -1.69,0.01 -0.32,-0.32 -0.55,-0.57 -0.91,-0.87z"/>
  <g>
   <g>
    <circle class="fil1" cx="201.33" cy="47.46" r="3.02"/>
    <g>
     <path class="fil6 str1" d="M200.79 99.07l-18.96 0c-5.92,0 -10.77,-4.85 -10.77,-10.77l0 -30.07c0,-5.92 4.85,-10.77 10.77,-10.77l18.96 0"/>
     <circle class="fil1" cx="201.33" cy="99.27" r="3.02"/>
    </g>
   </g>
   <rect class="fil7 str2" x="165.42" y="68.33" width="11.28" height="11.28" rx="1.71" ry="1.71"/>
   <path class="fil8 str3" d="M170.45 75.08l-2.67 0 1.34 -1.78 1.33 1.78zm-1.33 0m-0.67 -0.89m1.34 0"/>
   <path class="fil9" d="M171.57 76.96l0 -4.9 1.85 0c0.32,0 0.57,0.02 0.74,0.05 0.24,0.04 0.45,0.12 0.61,0.23 0.16,0.11 0.29,0.27 0.39,0.47 0.1,0.2 0.15,0.43 0.15,0.67 0,0.41 -0.13,0.76 -0.4,1.05 -0.26,0.29 -0.74,0.43 -1.43,0.43l-1.26 0 0 2 -0.65 0zm0.65 -2.57l1.27 0c0.41,0 0.71,-0.08 0.89,-0.23 0.17,-0.16 0.26,-0.38 0.26,-0.66 0,-0.21 -0.05,-0.38 -0.15,-0.53 -0.11,-0.14 -0.25,-0.24 -0.41,-0.29 -0.11,-0.03 -0.31,-0.04 -0.61,-0.04l-1.25 0 0 1.75z"/>
  </g>
  <rect class="fil1" x="134.25" y="92.2" width="13.41" height="15.84"/>
  <rect class="fil2" x="136.58" y="91.33" width="8.74" height="20.2"/>
  <rect class="fil1" x="134.25" y="39.97" width="13.41" height="15.84"/>
  <circle class="fil1" cx="140.95" cy="72.81" r="21.6"/>
  <circle class="fil2" cx="140.95" cy="72.81" r="19.43"/>
  <rect class="fil2" x="136.58" y="39.1" width="8.74" height="16.71"/>
  <g>
   <path class="fil3" d="M140.95 57.6c8.4,0 15.21,6.81 15.21,15.21 0,8.4 -6.81,15.21 -15.21,15.21 -8.4,0 -15.21,-6.81 -15.21,-15.21 0,-8.4 6.81,-15.21 15.21,-15.21z"/>
   <path id="1" class="fil4" d="M156.41 72.81l-0.5 0 0 0 -0.02 -0.77 -0.06 -0.76 -0.1 -0.75 -0.13 -0.73 -0.17 -0.73 -0.2 -0.71 -0.23 -0.69 -0.27 -0.68 -0.3 -0.66 -0.33 -0.65 -0.36 -0.62 -0.39 -0.61 -0.42 -0.59 -0.44 -0.56 -0.47 -0.54 -0.49 -0.52 -0.52 -0.5 -0.55 -0.47 -0.56 -0.44 -0.59 -0.42 -0.6 -0.39 -0.63 -0.36 -0.65 -0.33 -0.66 -0.3 -0.68 -0.27 -0.69 -0.23 -0.71 -0.2 -0.72 -0.17 -0.74 -0.13 -0.75 -0.1 -0.76 -0.05 -0.77 -0.02 0 -0.51 0.8 0.02 0.78 0.06 0.78 0.1 0.76 0.13 0.74 0.18 0.74 0.21 0.72 0.24 0.7 0.27 0.68 0.31 0.67 0.35 0.65 0.37 0.63 0.4 0.6 0.43 0.59 0.46 0.56 0.49 0.53 0.51 0.52 0.54 0.48 0.56 0.46 0.58 0.43 0.61 0.4 0.62 0.38 0.65 0.34 0.67 0.31 0.68 0.27 0.7 0.25 0.72 0.21 0.74 0.17 0.74 0.13 0.77 0.1 0.77 0.06 0.79 0.02 0.79 0 0zm-15.46 15.46l0 -0.51 0 0 0.77 -0.02 0.76 -0.05 0.75 -0.1 0.74 -0.13 0.72 -0.17 0.71 -0.2 0.69 -0.23 0.68 -0.27 0.66 -0.3 0.65 -0.33 0.63 -0.36 0.6 -0.39 0.59 -0.42 0.56 -0.44 0.55 -0.47 0.52 -0.5 0.49 -0.52 0.47 -0.54 0.44 -0.56 0.42 -0.59 0.39 -0.61 0.36 -0.62 0.33 -0.65 0.3 -0.66 0.27 -0.68 0.23 -0.69 0.2 -0.71 0.17 -0.73 0.13 -0.73 0.1 -0.75 0.06 -0.76 0.02 -0.77 0.5 0 -0.02 0.8 -0.06 0.78 -0.1 0.77 -0.13 0.77 -0.17 0.74 -0.21 0.74 -0.25 0.72 -0.27 0.7 -0.31 0.68 -0.34 0.67 -0.38 0.65 -0.4 0.62 -0.43 0.61 -0.46 0.59 -0.48 0.56 -0.52 0.53 -0.53 0.51 -0.56 0.49 -0.59 0.46 -0.6 0.43 -0.63 0.4 -0.65 0.37 -0.67 0.35 -0.68 0.31 -0.7 0.27 -0.72 0.25 -0.74 0.2 -0.74 0.18 -0.76 0.13 -0.78 0.1 -0.78 0.06 -0.8 0.02 0 0zm-15.46 -15.46l0.51 0 0 0 0.02 0.77 0.05 0.76 0.1 0.75 0.13 0.73 0.17 0.73 0.2 0.71 0.24 0.69 0.26 0.68 0.3 0.66 0.33 0.65 0.36 0.62 0.39 0.61 0.42 0.59 0.44 0.56 0.47 0.54 0.5 0.52 0.52 0.5 0.54 0.47 0.57 0.44 0.58 0.42 0.61 0.39 0.62 0.36 0.65 0.33 0.66 0.3 0.68 0.27 0.69 0.23 0.71 0.2 0.73 0.17 0.73 0.13 0.75 0.1 0.76 0.05 0.77 0.02 0 0.51 -0.79 -0.02 -0.79 -0.06 -0.77 -0.1 -0.76 -0.13 -0.75 -0.18 -0.74 -0.2 -0.71 -0.25 -0.71 -0.27 -0.68 -0.31 -0.67 -0.35 -0.65 -0.37 -0.62 -0.4 -0.61 -0.43 -0.58 -0.46 -0.56 -0.49 -0.54 -0.51 -0.51 -0.53 -0.49 -0.56 -0.46 -0.59 -0.43 -0.61 -0.4 -0.62 -0.37 -0.65 -0.34 -0.67 -0.31 -0.68 -0.28 -0.7 -0.24 -0.72 -0.21 -0.74 -0.18 -0.74 -0.13 -0.77 -0.1 -0.77 -0.06 -0.78 -0.02 -0.8 0 0zm15.46 -15.46l0 0.51 0 0 -0.77 0.02 -0.76 0.05 -0.75 0.1 -0.73 0.13 -0.73 0.17 -0.71 0.2 -0.69 0.23 -0.68 0.27 -0.66 0.3 -0.65 0.33 -0.62 0.36 -0.61 0.39 -0.58 0.42 -0.57 0.44 -0.54 0.47 -0.52 0.5 -0.5 0.52 -0.47 0.54 -0.44 0.56 -0.42 0.59 -0.39 0.61 -0.36 0.62 -0.33 0.65 -0.3 0.66 -0.26 0.68 -0.24 0.69 -0.2 0.71 -0.17 0.73 -0.13 0.73 -0.1 0.75 -0.05 0.76 -0.02 0.77 -0.51 0 0.02 -0.79 0.06 -0.79 0.1 -0.77 0.13 -0.77 0.18 -0.74 0.21 -0.74 0.24 -0.72 0.28 -0.7 0.31 -0.68 0.34 -0.67 0.37 -0.65 0.4 -0.62 0.43 -0.61 0.46 -0.58 0.49 -0.56 0.51 -0.54 0.54 -0.51 0.56 -0.49 0.58 -0.46 0.61 -0.43 0.62 -0.4 0.65 -0.37 0.67 -0.35 0.68 -0.31 0.71 -0.27 0.71 -0.24 0.74 -0.21 0.75 -0.18 0.76 -0.13 0.77 -0.1 0.79 -0.06 0.79 -0.02 0 0z"/>
  </g>
  <circle class="fil5" cx="140.95" cy="72.81" r="3.53"/>
  <path class="fil1" d="M146.11 70.51c0.58,-3.33 -0.27,-5.84 -2.79,-7.41 -0.68,-0.42 -1.65,-0.65 -1.37,-1.75 0.16,-0.64 0.81,-1.02 1.45,-0.86 0.28,0.07 0.93,0.51 1.2,0.68 3.84,2.47 4.94,6.22 3.51,11.17 -0.16,0.64 -0.81,1.02 -1.45,0.86 -0.66,-0.17 -1.02,-0.85 -0.86,-1.47 0.12,-0.43 0.23,-0.76 0.31,-1.22z"/>
  <path class="fil1" d="M145.97 75.76c3.19,-1.11 4.96,-3.08 5.11,-6.04 0.04,-0.8 -0.24,-1.76 0.86,-2.05 0.64,-0.17 1.29,0.21 1.46,0.84 0.07,0.29 0,1.06 -0.02,1.38 -0.27,4.56 -3.02,7.35 -8.03,8.51 -0.64,0.17 -1.29,-0.21 -1.46,-0.85 -0.18,-0.66 0.24,-1.3 0.86,-1.46 0.44,-0.11 0.77,-0.18 1.22,-0.33z"/>
  <path class="fil1" d="M140.7 78.47c2.7,2.04 5.33,2.42 7.87,0.89 0.69,-0.41 1.33,-1.17 2.18,-0.42 0.5,0.43 0.54,1.19 0.11,1.68 -0.2,0.22 -0.88,0.6 -1.16,0.76 -3.94,2.3 -7.78,1.57 -11.54,-1.95 -0.49,-0.44 -0.54,-1.19 -0.1,-1.69 0.45,-0.51 1.22,-0.52 1.69,-0.09 0.34,0.3 0.58,0.54 0.95,0.82z"/>
  <path class="fil1" d="M135.87 75.66c-0.55,3.33 0.33,5.83 2.86,7.37 0.69,0.42 1.66,0.64 1.4,1.74 -0.16,0.64 -0.81,1.03 -1.45,0.88 -0.28,-0.07 -0.93,-0.5 -1.2,-0.67 -3.87,-2.42 -5.01,-6.17 -3.63,-11.13 0.15,-0.64 0.8,-1.03 1.44,-0.87 0.66,0.16 1.03,0.83 0.87,1.45 -0.11,0.44 -0.21,0.77 -0.29,1.23z"/>
  <path class="fil1" d="M135.97 69.81c-3.19,1.11 -4.97,3.08 -5.12,6.03 -0.04,0.81 0.24,1.77 -0.86,2.05 -0.64,0.17 -1.29,-0.21 -1.46,-0.85 -0.07,-0.28 0,-1.05 0.02,-1.38 0.28,-4.55 3.03,-7.33 8.05,-8.49 0.64,-0.17 1.29,0.21 1.45,0.85 0.18,0.66 -0.24,1.31 -0.86,1.46 -0.44,0.11 -0.77,0.18 -1.22,0.33z"/>
  <path class="fil1" d="M141.4 67.17c-2.59,-2.17 -5.19,-2.69 -7.8,-1.3 -0.71,0.38 -1.4,1.11 -2.21,0.32 -0.47,-0.46 -0.48,-1.22 -0.02,-1.69 0.21,-0.21 0.91,-0.55 1.19,-0.7 4.06,-2.09 7.86,-1.16 11.43,2.55 0.47,0.46 0.48,1.21 0.02,1.68 -0.48,0.49 -1.25,0.47 -1.7,0.01 -0.32,-0.32 -0.55,-0.57 -0.91,-0.87z"/>
  <g>
   <g>
    <circle class="fil1" cx="140.99" cy="47.46" r="3.02"/>
    <g>
     <path class="fil6 str1" d="M140.44 99.07l-18.96 0c-5.92,0 -10.77,-4.85 -10.77,-10.77l0 -30.07c0,-5.92 4.85,-10.77 10.77,-10.77l18.96 0"/>
     <circle class="fil1" cx="140.99" cy="99.27" r="3.02"/>
    </g>
   </g>
   <rect class="fil7 str2" x="105.07" y="68.33" width="11.28" height="11.28" rx="1.71" ry="1.71"/>
   <path class="fil8 str3" d="M110.11 75.08l-2.68 0 1.34 -1.78 1.34 1.78zm-1.34 0m-0.67 -0.89m1.34 0"/>
   <path class="fil9" d="M111.23 76.96l0 -4.9 1.84 0c0.33,0 0.58,0.02 0.75,0.05 0.24,0.04 0.44,0.12 0.6,0.23 0.17,0.11 0.3,0.27 0.4,0.47 0.1,0.2 0.15,0.43 0.15,0.67 0,0.41 -0.14,0.76 -0.4,1.05 -0.27,0.29 -0.75,0.43 -1.44,0.43l-1.26 0 0 2 -0.64 0zm0.64 -2.57l1.27 0c0.42,0 0.72,-0.08 0.89,-0.23 0.18,-0.16 0.27,-0.38 0.27,-0.66 0,-0.21 -0.06,-0.38 -0.16,-0.53 -0.1,-0.14 -0.24,-0.24 -0.41,-0.29 -0.11,-0.03 -0.31,-0.04 -0.6,-0.04l-1.26 0 0 1.75z"/>
  </g>
  <rect class="fil1" x="73.9" y="92.2" width="13.41" height="15.84"/>
  <rect class="fil2" x="76.23" y="91.33" width="8.74" height="19.53"/>
  <rect class="fil1" x="73.9" y="39.97" width="13.41" height="15.84"/>
  <circle class="fil1" cx="80.61" cy="72.81" r="21.6"/>
  <circle class="fil2" cx="80.61" cy="72.81" r="19.43"/>
  <rect class="fil2" x="76.23" y="39.1" width="8.74" height="16.71"/>
  <g>
   <path class="fil3" d="M80.61 57.6c8.39,0 15.2,6.81 15.2,15.21 0,8.4 -6.81,15.21 -15.2,15.21 -8.4,0 -15.21,-6.81 -15.21,-15.21 0,-8.4 6.81,-15.21 15.21,-15.21z"/>
   <path id="1" class="fil4" d="M96.07 72.81l-0.51 0 0 0 -0.02 -0.77 -0.06 -0.76 -0.09 -0.75 -0.13 -0.73 -0.17 -0.73 -0.2 -0.71 -0.24 -0.69 -0.27 -0.68 -0.29 -0.66 -0.34 -0.65 -0.35 -0.62 -0.39 -0.61 -0.42 -0.59 -0.45 -0.56 -0.46 -0.54 -0.5 -0.52 -0.52 -0.5 -0.54 -0.47 -0.57 -0.44 -0.58 -0.42 -0.61 -0.39 -0.63 -0.36 -0.64 -0.33 -0.66 -0.3 -0.68 -0.27 -0.7 -0.23 -0.71 -0.2 -0.72 -0.17 -0.74 -0.13 -0.74 -0.1 -0.76 -0.05 -0.77 -0.02 0 -0.51 0.79 0.02 0.79 0.06 0.77 0.1 0.76 0.13 0.75 0.18 0.73 0.21 0.72 0.24 0.7 0.27 0.69 0.31 0.67 0.35 0.64 0.37 0.63 0.4 0.61 0.43 0.58 0.46 0.56 0.49 0.54 0.51 0.51 0.54 0.49 0.56 0.46 0.58 0.43 0.61 0.4 0.62 0.37 0.65 0.34 0.67 0.31 0.68 0.28 0.7 0.24 0.72 0.21 0.74 0.17 0.74 0.14 0.77 0.1 0.77 0.06 0.79 0.02 0.79 0 0zm-15.46 15.46l0 -0.51 0 0 0.77 -0.02 0.76 -0.05 0.74 -0.1 0.74 -0.13 0.72 -0.17 0.71 -0.2 0.7 -0.23 0.68 -0.27 0.66 -0.3 0.64 -0.33 0.63 -0.36 0.61 -0.39 0.58 -0.42 0.57 -0.44 0.54 -0.47 0.52 -0.5 0.5 -0.52 0.46 -0.54 0.45 -0.56 0.42 -0.59 0.39 -0.61 0.35 -0.62 0.34 -0.65 0.29 -0.66 0.27 -0.68 0.24 -0.69 0.2 -0.71 0.17 -0.73 0.13 -0.73 0.09 -0.75 0.06 -0.76 0.02 -0.77 0.51 0 -0.02 0.8 -0.06 0.78 -0.1 0.77 -0.14 0.77 -0.17 0.74 -0.21 0.74 -0.24 0.72 -0.28 0.7 -0.31 0.68 -0.34 0.67 -0.37 0.65 -0.4 0.62 -0.43 0.61 -0.46 0.59 -0.49 0.56 -0.51 0.53 -0.54 0.51 -0.56 0.49 -0.58 0.46 -0.61 0.43 -0.63 0.4 -0.64 0.37 -0.67 0.35 -0.69 0.31 -0.7 0.27 -0.72 0.25 -0.73 0.2 -0.75 0.18 -0.76 0.13 -0.77 0.1 -0.79 0.06 -0.79 0.02 0 0zm-15.46 -15.46l0.5 0 0 0 0.02 0.77 0.06 0.76 0.1 0.75 0.13 0.73 0.16 0.73 0.2 0.71 0.24 0.69 0.27 0.68 0.3 0.66 0.33 0.65 0.36 0.62 0.39 0.61 0.41 0.59 0.45 0.56 0.47 0.54 0.49 0.52 0.52 0.5 0.54 0.47 0.57 0.44 0.59 0.42 0.6 0.39 0.63 0.36 0.64 0.33 0.67 0.3 0.68 0.27 0.69 0.23 0.71 0.2 0.72 0.17 0.74 0.13 0.75 0.1 0.76 0.05 0.77 0.02 0 0.51 -0.8 -0.02 -0.78 -0.06 -0.78 -0.1 -0.76 -0.13 -0.75 -0.18 -0.73 -0.2 -0.72 -0.25 -0.7 -0.27 -0.69 -0.31 -0.66 -0.35 -0.65 -0.37 -0.63 -0.4 -0.6 -0.43 -0.59 -0.46 -0.56 -0.49 -0.54 -0.51 -0.51 -0.53 -0.48 -0.56 -0.46 -0.59 -0.43 -0.61 -0.41 -0.62 -0.37 -0.65 -0.34 -0.67 -0.31 -0.68 -0.28 -0.7 -0.24 -0.72 -0.21 -0.74 -0.17 -0.74 -0.14 -0.77 -0.09 -0.77 -0.06 -0.78 -0.02 -0.8 0 0zm15.46 -15.46l0 0.51 0 0 -0.77 0.02 -0.76 0.05 -0.75 0.1 -0.74 0.13 -0.72 0.17 -0.71 0.2 -0.69 0.23 -0.68 0.27 -0.67 0.3 -0.64 0.33 -0.63 0.36 -0.6 0.39 -0.59 0.42 -0.57 0.44 -0.54 0.47 -0.52 0.5 -0.49 0.52 -0.47 0.54 -0.45 0.56 -0.41 0.59 -0.39 0.61 -0.36 0.62 -0.33 0.65 -0.3 0.66 -0.27 0.68 -0.24 0.69 -0.2 0.71 -0.16 0.73 -0.13 0.73 -0.1 0.75 -0.06 0.76 -0.02 0.77 -0.5 0 0.02 -0.79 0.06 -0.79 0.09 -0.77 0.14 -0.77 0.17 -0.74 0.21 -0.74 0.24 -0.72 0.28 -0.7 0.31 -0.68 0.34 -0.67 0.37 -0.65 0.41 -0.62 0.43 -0.61 0.46 -0.58 0.48 -0.56 0.51 -0.54 0.54 -0.51 0.56 -0.49 0.59 -0.46 0.6 -0.43 0.63 -0.4 0.65 -0.37 0.66 -0.35 0.69 -0.31 0.7 -0.27 0.72 -0.24 0.73 -0.21 0.75 -0.18 0.76 -0.13 0.78 -0.1 0.78 -0.06 0.8 -0.02 0 0z"/>
  </g>
  <circle class="fil5" cx="80.61" cy="72.81" r="3.53"/>
  <path class="fil1" d="M85.76 70.51c0.59,-3.33 -0.27,-5.84 -2.78,-7.41 -0.68,-0.42 -1.66,-0.65 -1.38,-1.75 0.17,-0.64 0.82,-1.02 1.46,-0.86 0.28,0.07 0.92,0.51 1.19,0.68 3.84,2.47 4.94,6.22 3.51,11.17 -0.16,0.64 -0.81,1.02 -1.45,0.86 -0.66,-0.17 -1.02,-0.85 -0.85,-1.47 0.12,-0.43 0.22,-0.76 0.3,-1.22z"/>
  <path class="fil1" d="M85.62 75.76c3.19,-1.11 4.97,-3.08 5.11,-6.04 0.04,-0.8 -0.23,-1.76 0.86,-2.05 0.64,-0.17 1.29,0.21 1.46,0.84 0.08,0.29 0.01,1.06 -0.01,1.38 -0.28,4.56 -3.02,7.35 -8.04,8.51 -0.64,0.17 -1.29,-0.21 -1.46,-0.85 -0.17,-0.66 0.24,-1.3 0.87,-1.46 0.43,-0.11 0.77,-0.18 1.21,-0.33z"/>
  <path class="fil1" d="M80.36 78.47c2.7,2.04 5.32,2.42 7.86,0.89 0.69,-0.41 1.33,-1.17 2.19,-0.42 0.49,0.43 0.54,1.19 0.1,1.68 -0.19,0.22 -0.87,0.6 -1.15,0.76 -3.94,2.3 -7.79,1.57 -11.54,-1.95 -0.5,-0.44 -0.54,-1.19 -0.11,-1.69 0.46,-0.51 1.22,-0.52 1.7,-0.09 0.33,0.3 0.57,0.54 0.95,0.82z"/>
  <path class="fil1" d="M75.52 75.66c-0.55,3.33 0.34,5.83 2.87,7.37 0.68,0.42 1.66,0.64 1.39,1.74 -0.16,0.64 -0.8,1.03 -1.44,0.88 -0.29,-0.07 -0.94,-0.5 -1.21,-0.67 -3.86,-2.42 -5,-6.17 -3.63,-11.13 0.16,-0.64 0.8,-1.03 1.44,-0.87 0.67,0.16 1.04,0.83 0.87,1.45 -0.11,0.44 -0.21,0.77 -0.29,1.23z"/>
  <path class="fil1" d="M75.63 69.81c-3.2,1.11 -4.97,3.08 -5.12,6.03 -0.04,0.81 0.23,1.77 -0.87,2.05 -0.63,0.17 -1.29,-0.21 -1.45,-0.85 -0.08,-0.28 -0.01,-1.05 0.01,-1.38 0.29,-4.55 3.03,-7.33 8.05,-8.49 0.64,-0.17 1.29,0.21 1.46,0.85 0.17,0.66 -0.24,1.31 -0.87,1.46 -0.43,0.11 -0.77,0.18 -1.21,0.33z"/>
  <path class="fil1" d="M81.06 67.17c-2.59,-2.17 -5.19,-2.69 -7.81,-1.3 -0.71,0.38 -1.39,1.11 -2.2,0.32 -0.47,-0.46 -0.48,-1.22 -0.02,-1.69 0.2,-0.21 0.9,-0.55 1.19,-0.7 4.05,-2.09 7.85,-1.16 11.42,2.55 0.47,0.46 0.48,1.21 0.02,1.68 -0.48,0.49 -1.24,0.47 -1.69,0.01 -0.32,-0.32 -0.55,-0.57 -0.91,-0.87z"/>
  <g>
   <g>
    <circle class="fil1" cx="80.64" cy="47.46" r="3.02"/>
    <g>
     <path class="fil6 str1" d="M80.1 99.07l-18.96 0c-5.92,0 -10.77,-4.85 -10.77,-10.77l0 -30.07c0,-5.92 4.85,-10.77 10.77,-10.77l18.96 0"/>
     <circle class="fil1" cx="80.64" cy="99.27" r="3.02"/>
    </g>
   </g>
   <rect class="fil7 str2" x="44.73" y="68.33" width="11.28" height="11.28" rx="1.71" ry="1.71"/>
   <path class="fil8 str3" d="M49.76 75.08l-2.67 0 1.34 -1.78 1.33 1.78zm-1.33 0m-0.67 -0.89m1.34 0"/>
   <path class="fil9" d="M50.88 76.96l0 -4.9 1.85 0c0.32,0 0.57,0.02 0.74,0.05 0.24,0.04 0.45,0.12 0.61,0.23 0.16,0.11 0.29,0.27 0.39,0.47 0.1,0.2 0.15,0.43 0.15,0.67 0,0.41 -0.13,0.76 -0.4,1.05 -0.26,0.29 -0.74,0.43 -1.43,0.43l-1.26 0 0 2 -0.65 0zm0.65 -2.57l1.26 0c0.42,0 0.72,-0.08 0.9,-0.23 0.17,-0.16 0.26,-0.38 0.26,-0.66 0,-0.21 -0.05,-0.38 -0.16,-0.53 -0.1,-0.14 -0.24,-0.24 -0.4,-0.29 -0.11,-0.03 -0.32,-0.04 -0.61,-0.04l-1.25 0 0 1.75z"/>
  </g>
 </g>
</svg>
