<?xml version="1.0" encoding="UTF-8"?>
<!DOCTYPE svg PUBLIC "-//W3C//DTD SVG 1.1//EN" "http://www.w3.org/Graphics/SVG/1.1/DTD/svg11.dtd">
<!-- Creator: CorelDRAW 2019 (64-Bit) -->
<svg xmlns="http://www.w3.org/2000/svg" xml:space="preserve" width="75px" height="75px" version="1.1" style="shape-rendering:geometricPrecision; text-rendering:geometricPrecision; image-rendering:optimizeQuality; fill-rule:evenodd; clip-rule:evenodd"
viewBox="0 0 75 75"
 xmlns:xlink="http://www.w3.org/1999/xlink">
 <defs>
  <style type="text/css">
   <![CDATA[
    .fil0 {fill:none}
    .fil1 {fill:#FEFEFE}
   ]]>
  </style>
 </defs>
 <g id="Слой_x0020_1">
  <metadata id="CorelCorpID_0Corel-Layer"/>
  <polygon class="fil0" points="0,0 75,0 75,75 0,75 "/>
  <path class="fil1" d="M37.5 6.25c-17.25,0 -31.25,14 -31.25,31.25 0,17.25 14,31.25 31.25,31.25 17.25,0 31.25,-14 31.25,-31.25 0,-17.25 -14,-31.25 -31.25,-31.25zm3.13 53.13l-6.26 0 0 -6.26 6.26 0 0 6.26zm6.46 -24.22l-2.81 2.87c-2.25,2.28 -3.65,4.16 -3.65,8.85l-6.26 0 0 -1.57c0,-3.43 1.41,-6.56 3.66,-8.84l3.88 -3.94c1.15,-1.12 1.84,-2.69 1.84,-4.41 0,-3.43 -2.81,-6.25 -6.25,-6.25 -3.44,0 -6.25,2.82 -6.25,6.25l-6.25 0c0,-6.9 5.59,-12.5 12.5,-12.5 6.91,0 12.5,5.6 12.5,12.5 0,2.75 -1.13,5.25 -2.91,7.04l0 0z"/>
 </g>
</svg>
