<?xml version="1.0" encoding="UTF-8"?>
<!DOCTYPE svg PUBLIC "-//W3C//DTD SVG 1.1//EN" "http://www.w3.org/Graphics/SVG/1.1/DTD/svg11.dtd">
<!-- Creator: CorelDRAW 2019 (64-Bit) -->
<svg xmlns="http://www.w3.org/2000/svg" xml:space="preserve" width="75px" height="75px" version="1.1" style="shape-rendering:geometricPrecision; text-rendering:geometricPrecision; image-rendering:optimizeQuality; fill-rule:evenodd; clip-rule:evenodd"
viewBox="0 0 75 75"
 xmlns:xlink="http://www.w3.org/1999/xlink">
 <defs>
  <style type="text/css">
   <![CDATA[
    .fil0 {fill:none}
    .fil1 {fill:#FEFEFE}
   ]]>
  </style>
 </defs>
 <g id="Слой_x0020_1">
  <metadata id="CorelCorpID_0Corel-Layer"/>
  <polygon class="fil0" points="0,0 75,0 75,75 0,75 "/>
  <path class="fil1" d="M59.38 9.37l-13.07 0c-1.31,-3.62 -4.75,-6.24 -8.81,-6.24 -4.06,0 -7.5,2.62 -8.81,6.25l-13.07 -0.01c-3.43,0 -6.25,2.82 -6.25,6.25l0 43.76c0,3.43 2.82,6.25 6.25,6.25l43.76 0c3.43,0 6.25,-2.82 6.25,-6.25l0 -43.76c0,-3.43 -2.82,-6.25 -6.25,-6.25zm-21.88 0c1.72,0 3.13,1.41 3.13,3.13 0,1.72 -1.41,3.12 -3.13,3.12 -1.72,0 -3.13,-1.4 -3.13,-3.12 0,-1.72 1.41,-3.13 3.13,-3.13zm6.25 43.75l-21.87 0 0 -6.25 21.87 0.01 0 6.25 0 -0.01zm9.37 -12.49l-31.24 0 0 -6.26 31.24 0 0 6.26zm0 -12.51l-31.24 0 0 -6.24 31.24 0 0 6.25 0 -0.01z"/>
 </g>
</svg>
