<?xml version="1.0" encoding="UTF-8"?>
<!DOCTYPE svg PUBLIC "-//W3C//DTD SVG 1.1//EN" "http://www.w3.org/Graphics/SVG/1.1/DTD/svg11.dtd">
<!-- Creator: CorelDRAW 2019 (64-Bit) -->
<svg xmlns="http://www.w3.org/2000/svg" xml:space="preserve" width="67px" height="67px" version="1.1" style="shape-rendering:geometricPrecision; text-rendering:geometricPrecision; image-rendering:optimizeQuality; fill-rule:evenodd; clip-rule:evenodd"
viewBox="0 0 6.77 6.77"
 xmlns:xlink="http://www.w3.org/1999/xlink">
 <defs>
  <style type="text/css">
   <![CDATA[
    .fil2 {fill:#FEFEFE}
    .fil1 {fill:#009846}
    .fil0 {fill:white}
   ]]>
  </style>
 </defs>
 <g id="Слой_x0020_1">
  <metadata id="CorelCorpID_0Corel-Layer"/>
  <g id="_1325960144">
   <circle class="fil0" transform="matrix(0.134421 0.071473 -0.071473 0.134421 3.38705 3.3871)" r="22.24"/>
   <g>
    <circle class="fil1" transform="matrix(0.121096 0.0643878 -0.0643878 0.121096 3.38705 3.3871)" r="22.24"/>
    <circle class="fil2" transform="matrix(0.0882419 0.046919 -0.046919 0.0882419 3.38705 3.3871)" r="7.08"/>
    <path class="fil2" d="M4.52 3.47c0.41,-0.54 0.5,-1.06 0.2,-1.58 -0.08,-0.14 -0.23,-0.27 -0.08,-0.44 0.09,-0.1 0.24,-0.1 0.34,-0.01 0.04,0.04 0.12,0.17 0.15,0.23 0.45,0.8 0.29,1.57 -0.43,2.31 -0.09,0.1 -0.24,0.1 -0.34,0.01 -0.1,-0.09 -0.1,-0.24 -0.01,-0.34 0.06,-0.06 0.11,-0.11 0.17,-0.18z"/>
    <path class="fil2" d="M4 4.38c0.67,0.11 1.17,-0.08 1.47,-0.59 0.08,-0.14 0.13,-0.33 0.35,-0.28 0.13,0.03 0.21,0.16 0.18,0.29 -0.02,0.06 -0.1,0.19 -0.14,0.24 -0.47,0.78 -1.22,1.02 -2.22,0.75 -0.13,-0.03 -0.21,-0.16 -0.18,-0.29 0.03,-0.13 0.17,-0.21 0.29,-0.17 0.09,0.02 0.15,0.04 0.25,0.05z"/>
    <path class="fil2" d="M2.81 4.37c0.29,0.61 0.72,0.93 1.31,0.89 0.16,0 0.35,-0.08 0.43,0.14 0.04,0.12 -0.02,0.26 -0.14,0.3 -0.06,0.02 -0.21,0.03 -0.28,0.03 -0.91,0.04 -1.53,-0.46 -1.86,-1.43 -0.05,-0.13 0.02,-0.27 0.14,-0.31 0.13,-0.05 0.27,0.02 0.31,0.14 0.03,0.09 0.05,0.15 0.09,0.24z"/>
    <path class="fil2" d="M2.22 3.41c-0.41,0.54 -0.49,1.07 -0.19,1.58 0.08,0.14 0.24,0.27 0.08,0.44 -0.08,0.1 -0.23,0.11 -0.33,0.02 -0.05,-0.04 -0.12,-0.18 -0.15,-0.24 -0.46,-0.79 -0.31,-1.56 0.4,-2.31 0.09,-0.1 0.24,-0.1 0.34,-0.02 0.1,0.09 0.1,0.25 0.02,0.34 -0.07,0.07 -0.11,0.12 -0.17,0.19z"/>
    <path class="fil2" d="M2.79 2.39c-0.67,-0.11 -1.17,0.07 -1.48,0.58 -0.08,0.14 -0.12,0.34 -0.34,0.29 -0.13,-0.04 -0.21,-0.16 -0.18,-0.29 0.01,-0.06 0.1,-0.19 0.13,-0.25 0.48,-0.78 1.23,-1.01 2.23,-0.74 0.13,0.03 0.21,0.16 0.17,0.29 -0.03,0.13 -0.16,0.2 -0.29,0.17 -0.08,-0.02 -0.15,-0.04 -0.24,-0.05z"/>
    <path class="fil2" d="M4 2.43c-0.26,-0.63 -0.67,-0.96 -1.26,-0.96 -0.16,0 -0.35,0.06 -0.42,-0.16 -0.04,-0.12 0.03,-0.26 0.15,-0.3 0.06,-0.01 0.22,-0.01 0.28,-0.01 0.91,0.01 1.5,0.53 1.78,1.53 0.04,0.12 -0.03,0.26 -0.15,0.3 -0.13,0.04 -0.27,-0.04 -0.3,-0.16 -0.03,-0.09 -0.05,-0.15 -0.08,-0.24z"/>
   </g>
  </g>
 </g>
</svg>
