<?xml version="1.0" encoding="UTF-8"?>
<!DOCTYPE svg PUBLIC "-//W3C//DTD SVG 1.1//EN" "http://www.w3.org/Graphics/SVG/1.1/DTD/svg11.dtd">
<!-- Creator: CorelDRAW 2019 (64-Bit) -->
<svg xmlns="http://www.w3.org/2000/svg" xml:space="preserve" width="67px" height="67px" version="1.1" style="shape-rendering:geometricPrecision; text-rendering:geometricPrecision; image-rendering:optimizeQuality; fill-rule:evenodd; clip-rule:evenodd"
viewBox="0 0 0.9 0.9"
 xmlns:xlink="http://www.w3.org/1999/xlink">
 <defs>
  <style type="text/css">
   <![CDATA[
    .fil2 {fill:#FEFEFE}
    .fil1 {fill:blue}
    .fil0 {fill:white}
   ]]>
  </style>
 </defs>
 <g id="Слой_x0020_1">
  <metadata id="CorelCorpID_0Corel-Layer"/>
  <g id="_1063347632">
   <circle class="fil0" transform="matrix(0.147711 0.0368285 -0.0368285 0.147711 0.450989 0.450996)" r="2.96"/>
   <g>
    <circle class="fil1" transform="matrix(0.133068 0.0331777 -0.0331777 0.133068 0.450989 0.450995)" r="2.96"/>
    <circle class="fil2" transform="matrix(0.0969663 0.0241764 -0.0241764 0.0969663 0.450989 0.450995)" r="0.94"/>
    <path class="fil2" d="M0.6 0.42c0.04,-0.08 0.03,-0.15 -0.02,-0.21 -0.02,-0.01 -0.04,-0.02 -0.03,-0.05 0.01,-0.02 0.03,-0.02 0.04,-0.01 0.01,0 0.02,0.02 0.03,0.02 0.08,0.09 0.09,0.2 0.02,0.32 -0.01,0.01 -0.03,0.02 -0.04,0.01 -0.02,-0.01 -0.02,-0.03 -0.02,-0.05 0.01,-0.01 0.01,-0.01 0.02,-0.03z"/>
    <path class="fil2" d="M0.56 0.56c0.09,-0.01 0.15,-0.05 0.17,-0.12 0.01,-0.02 0.01,-0.05 0.04,-0.05 0.02,0 0.03,0.01 0.03,0.03 0,0.01 -0.01,0.03 -0.01,0.04 -0.03,0.11 -0.12,0.17 -0.26,0.16 -0.02,0 -0.03,-0.01 -0.03,-0.03 0,-0.02 0.01,-0.03 0.03,-0.03 0.01,0 0.02,0 0.03,0z"/>
    <path class="fil2" d="M0.41 0.6c0.05,0.07 0.12,0.09 0.2,0.07 0.02,-0.01 0.04,-0.02 0.06,0 0.01,0.02 0,0.04 -0.01,0.05 -0.01,0 -0.03,0.01 -0.04,0.01 -0.11,0.03 -0.21,-0.01 -0.28,-0.13 -0.01,-0.01 -0.01,-0.03 0,-0.04 0.02,-0.01 0.04,-0.01 0.05,0.01 0.01,0.01 0.01,0.02 0.02,0.03z"/>
    <path class="fil2" d="M0.3 0.49c-0.03,0.08 -0.03,0.16 0.03,0.21 0.01,0.02 0.04,0.03 0.02,0.06 -0.01,0.01 -0.03,0.02 -0.04,0.01 -0.01,0 -0.02,-0.02 -0.03,-0.03 -0.08,-0.08 -0.09,-0.19 -0.02,-0.31 0.01,-0.01 0.03,-0.02 0.04,-0.01 0.02,0.01 0.02,0.03 0.02,0.04 -0.01,0.01 -0.01,0.02 -0.02,0.03z"/>
    <path class="fil2" d="M0.34 0.34c-0.09,0.01 -0.15,0.05 -0.17,0.12 -0.01,0.02 -0.01,0.05 -0.04,0.05 -0.01,0 -0.03,-0.01 -0.03,-0.03 0,-0.01 0.01,-0.03 0.01,-0.04 0.04,-0.11 0.13,-0.17 0.26,-0.16 0.02,0 0.04,0.01 0.04,0.03 0,0.02 -0.02,0.03 -0.03,0.03 -0.02,0 -0.03,0 -0.04,0z"/>
    <path class="fil2" d="M0.5 0.31c-0.05,-0.08 -0.12,-0.11 -0.19,-0.09 -0.03,0.01 -0.05,0.02 -0.06,0 -0.01,-0.02 -0.01,-0.04 0.01,-0.05 0,0 0.02,0 0.03,-0.01 0.12,-0.02 0.21,0.02 0.28,0.14 0.01,0.02 0.01,0.04 -0.01,0.05 -0.01,0.01 -0.03,0 -0.04,-0.01 -0.01,-0.01 -0.01,-0.02 -0.02,-0.03z"/>
   </g>
  </g>
 </g>
</svg>
