<?xml version="1.0" encoding="UTF-8"?>
<!DOCTYPE svg PUBLIC "-//W3C//DTD SVG 1.1//EN" "http://www.w3.org/Graphics/SVG/1.1/DTD/svg11.dtd">
<!-- Creator: CorelDRAW 2019 (64-Bit) -->
<svg xmlns="http://www.w3.org/2000/svg" xml:space="preserve" width="67px" height="67px" version="1.1" style="shape-rendering:geometricPrecision; text-rendering:geometricPrecision; image-rendering:optimizeQuality; fill-rule:evenodd; clip-rule:evenodd"
viewBox="0 0 0.9 0.9"
 xmlns:xlink="http://www.w3.org/1999/xlink">
 <defs>
  <style type="text/css">
   <![CDATA[
    .fil2 {fill:#FEFEFE}
    .fil1 {fill:blue}
    .fil0 {fill:white}
   ]]>
  </style>
 </defs>
 <g id="Слой_x0020_1">
  <metadata id="CorelCorpID_0Corel-Layer"/>
  <g id="_1061592816">
   <circle class="fil0" transform="matrix(0.151117 0.0185552 -0.0185549 0.15112 0.45099 0.450996)" r="2.96"/>
   <g>
    <circle class="fil1" transform="matrix(0.136137 0.0167158 -0.0167155 0.136139 0.45099 0.450995)" r="2.96"/>
    <circle class="fil2" transform="matrix(0.0992022 0.0121807 -0.0121805 0.099204 0.45099 0.450995)" r="0.94"/>
    <path class="fil2" d="M0.6 0.41c0.02,-0.09 0.01,-0.16 -0.05,-0.21 -0.02,-0.01 -0.05,-0.02 -0.04,-0.05 0.01,-0.02 0.03,-0.02 0.05,-0.02 0,0.01 0.02,0.02 0.03,0.02 0.09,0.08 0.11,0.19 0.05,0.31 0,0.02 -0.02,0.03 -0.04,0.02 -0.02,-0.01 -0.02,-0.03 -0.02,-0.04 0.01,-0.01 0.01,-0.02 0.02,-0.03z"/>
    <path class="fil2" d="M0.57 0.55c0.09,-0.02 0.15,-0.07 0.16,-0.15 0,-0.02 0,-0.05 0.03,-0.05 0.02,0 0.03,0.01 0.03,0.03 0.01,0.01 0,0.03 0,0.03 -0.02,0.12 -0.1,0.19 -0.24,0.2 -0.02,0.01 -0.03,-0.01 -0.04,-0.02 0,-0.02 0.01,-0.04 0.03,-0.04 0.01,0 0.02,0 0.03,0z"/>
    <path class="fil2" d="M0.43 0.6c0.06,0.06 0.13,0.08 0.2,0.05 0.02,-0.01 0.04,-0.03 0.06,0 0.01,0.01 0.01,0.03 0,0.04 -0.01,0.01 -0.03,0.01 -0.03,0.02 -0.12,0.04 -0.22,0.01 -0.3,-0.09 -0.02,-0.02 -0.01,-0.04 0,-0.05 0.01,-0.01 0.03,-0.01 0.04,0.01 0.01,0 0.02,0.01 0.03,0.02z"/>
    <path class="fil2" d="M0.31 0.51c-0.03,0.09 -0.01,0.16 0.05,0.2 0.02,0.02 0.04,0.03 0.03,0.06 -0.01,0.01 -0.02,0.02 -0.04,0.01 -0.01,0 -0.02,-0.01 -0.03,-0.02 -0.1,-0.07 -0.11,-0.18 -0.06,-0.3 0.01,-0.02 0.02,-0.03 0.04,-0.02 0.02,0 0.02,0.02 0.02,0.04 -0.01,0.01 -0.01,0.02 -0.01,0.03z"/>
    <path class="fil2" d="M0.33 0.36c-0.09,0.01 -0.14,0.06 -0.16,0.14 0,0.02 0,0.05 -0.03,0.05 -0.01,0 -0.03,-0.01 -0.03,-0.03 0,0 0,-0.03 0,-0.03 0.03,-0.12 0.11,-0.19 0.24,-0.2 0.02,-0.01 0.04,0.01 0.04,0.02 0,0.02 -0.01,0.04 -0.03,0.04 -0.01,0 -0.02,0 -0.03,0.01z"/>
    <path class="fil2" d="M0.48 0.3c-0.06,-0.06 -0.13,-0.09 -0.2,-0.06 -0.02,0.01 -0.04,0.03 -0.06,0 -0.01,-0.01 -0.01,-0.03 0,-0.04 0.01,-0.01 0.03,-0.01 0.04,-0.02 0.11,-0.04 0.21,0 0.29,0.11 0.01,0.01 0.01,0.03 0,0.04 -0.02,0.02 -0.04,0.01 -0.05,0 0,-0.01 -0.01,-0.02 -0.02,-0.03z"/>
   </g>
  </g>
 </g>
</svg>
