<?xml version="1.0" encoding="UTF-8"?>
<!DOCTYPE svg PUBLIC "-//W3C//DTD SVG 1.1//EN" "http://www.w3.org/Graphics/SVG/1.1/DTD/svg11.dtd">
<!-- Creator: CorelDRAW 2019 (64-Bit) -->
<svg xmlns="http://www.w3.org/2000/svg" xml:space="preserve" width="735px" height="35px" version="1.1" style="shape-rendering:geometricPrecision; text-rendering:geometricPrecision; image-rendering:optimizeQuality; fill-rule:evenodd; clip-rule:evenodd"
viewBox="0 0 721.92 34.17"
 xmlns:xlink="http://www.w3.org/1999/xlink">
 <defs>
  <style type="text/css">
   <![CDATA[
    .fil1 {fill:#FEFEFE}
    .fil0 {fill:#00A0E3}
    .fil2 {fill:#1A1A1A}
   ]]>
  </style>
 </defs>
 <g id="Слой_x0020_1">
  <metadata id="CorelCorpID_0Corel-Layer"/>
  <path class="fil0" d="M505.74 34.17l-6.01 0 -499.73 0 0 -18.19 210.37 0c4.47,-0.07 8.73,-3.51 8.94,-8.81l0 0 0 -7.17c2.89,0.84 5.94,1.28 9.1,1.28 3.15,0 6.2,-0.44 9.09,-1.28l0 7.45c0.35,5.13 4.53,8.46 8.92,8.52l0 0.01 61.46 0c4.39,-0.18 8.5,-3.6 8.71,-8.8l0 -7.18c2.88,0.84 5.94,1.28 9.09,1.28 3.16,0 6.21,-0.44 9.1,-1.28l0 7.38c0.3,5.13 4.43,8.47 8.8,8.6l60.37 0c4.42,-0.07 8.62,-3.42 8.93,-8.6l0 -7.38c2.89,0.84 5.94,1.28 9.1,1.28 3.15,0 6.21,-0.44 9.09,-1.28l0 7.17c0.21,5.3 4.46,8.74 8.94,8.8l0 0.01 61.23 0c4.37,-0.07 8.53,-3.35 8.92,-8.44l0 -7.54c2.88,0.84 5.94,1.28 9.09,1.28 3.16,0 6.21,-0.44 9.1,-1.28l0 7.17 0 0.47 0 4.09c-0.58,15.96 -8.3,21.79 -22.61,22.44z"/>
  <circle class="fil1" cx="176.24" cy="19.49" r="0.9"/>
  <circle class="fil1" cx="172.16" cy="26.25" r="1.33"/>
  <circle class="fil1" cx="187.17" cy="29.9" r="1.33"/>
  <circle class="fil1" cx="179.63" cy="24.86" r="2.31"/>
  <circle class="fil1" cx="191.78" cy="19.94" r="2.3"/>
  <circle class="fil1" cx="196.89" cy="27.23" r="0.64"/>
  <circle class="fil1" cx="201.18" cy="20.32" r="1.33"/>
  <circle class="fil1" cx="206.53" cy="28.5" r="1.68"/>
  <circle class="fil1" cx="233.64" cy="14.35" r="1.33"/>
  <circle class="fil1" cx="223.54" cy="15.61" r="1.33"/>
  <circle class="fil1" cx="229.47" cy="21.26" r="2.3"/>
  <circle class="fil1" cx="214.83" cy="19.04" r="0.64"/>
  <circle class="fil1" cx="241.34" cy="20.92" r="0.9"/>
  <circle class="fil1" cx="244.85" cy="27.52" r="2.31"/>
  <circle class="fil1" cx="223.93" cy="28.5" r="1.33"/>
  <circle class="fil1" cx="214.11" cy="26.25" r="1.33"/>
  <circle class="fil1" cx="233.67" cy="29.53" r="1.33"/>
  <circle class="fil1" cx="256.98" cy="20.01" r="1.68"/>
  <circle class="fil1" cx="249.58" cy="19.83" r="0.64"/>
  <circle class="fil1" cx="253.98" cy="29.96" r="1.33"/>
  <circle class="fil1" cx="270.48" cy="27.28" r="2.3"/>
  <circle class="fil1" cx="261.77" cy="27.67" r="0.64"/>
  <circle class="fil1" cx="273.53" cy="20.28" r="0.9"/>
  <circle class="fil1" cx="269.45" cy="27.04" r="1.33"/>
  <circle class="fil1" cx="280.2" cy="28.5" r="1.33"/>
  <circle class="fil1" cx="290.85" cy="23.8" r="2.3"/>
  <circle class="fil1" cx="291.99" cy="29.2" r="0.64"/>
  <circle class="fil1" cx="298.36" cy="18.84" r="1.33"/>
  <circle class="fil1" cx="303.83" cy="29.29" r="1.68"/>
  <circle class="fil1" cx="319.49" cy="8.86" r="1.33"/>
  <circle class="fil1" cx="320.83" cy="16.4" r="1.33"/>
  <circle class="fil1" cx="329.77" cy="6.5" r="0.64"/>
  <circle class="fil1" cx="310.07" cy="20.8" r="1.33"/>
  <circle class="fil1" cx="331.28" cy="17.27" r="2.3"/>
  <circle class="fil1" cx="317.17" cy="23.4" r="0.64"/>
  <circle class="fil1" cx="339.12" cy="20.32" r="0.9"/>
  <circle class="fil1" cx="336.34" cy="29.28" r="2.31"/>
  <circle class="fil1" cx="321.22" cy="29.29" r="1.33"/>
  <circle class="fil1" cx="328.22" cy="26.91" r="1.33"/>
  <circle class="fil1" cx="356.04" cy="22.2" r="1.68"/>
  <circle class="fil1" cx="349.06" cy="18.63" r="0.64"/>
  <circle class="fil1" cx="351.27" cy="30.75" r="1.33"/>
  <circle class="fil1" cx="365.28" cy="26.16" r="2.3"/>
  <circle class="fil1" cx="358.79" cy="31.88" r="0.64"/>
  <circle class="fil1" cx="285.01" cy="18.96" r="0.64"/>
  <circle class="fil1" cx="345.37" cy="26.25" r="1.33"/>
  <circle class="fil1" cx="369.02" cy="19.11" r="0.9"/>
  <circle class="fil1" cx="377.96" cy="22.2" r="1.33"/>
  <circle class="fil1" cx="372.4" cy="30.53" r="1.33"/>
  <circle class="fil1" cx="387.7" cy="20.59" r="2.3"/>
  <circle class="fil1" cx="389.68" cy="26.84" r="0.64"/>
  <circle class="fil1" cx="398.06" cy="26.25" r="1.33"/>
  <circle class="fil1" cx="423.05" cy="18.69" r="1.33"/>
  <circle class="fil1" cx="422.96" cy="8.89" r="1.68"/>
  <circle class="fil1" cx="417.24" cy="9.9" r="0.64"/>
  <circle class="fil1" cx="405.56" cy="19.63" r="1.33"/>
  <circle class="fil1" cx="414.18" cy="21.59" r="0.64"/>
  <circle class="fil1" cx="434.12" cy="20.53" r="0.9"/>
  <circle class="fil1" cx="437.73" cy="28.71" r="2.31"/>
  <circle class="fil1" cx="409.22" cy="29.83" r="1.33"/>
  <circle class="fil1" cx="425.16" cy="29.82" r="1.33"/>
  <circle class="fil1" cx="449.76" cy="19.63" r="1.68"/>
  <circle class="fil1" cx="442.37" cy="19.45" r="0.64"/>
  <circle class="fil1" cx="457.42" cy="25.83" r="0.9"/>
  <circle class="fil1" cx="382.49" cy="31.09" r="1.68"/>
  <circle class="fil1" cx="469.39" cy="22.27" r="1.33"/>
  <circle class="fil1" cx="476.68" cy="29.56" r="2.3"/>
  <circle class="fil1" cx="491.99" cy="18.84" r="1.33"/>
  <circle class="fil1" cx="497.45" cy="29.29" r="1.68"/>
  <circle class="fil1" cx="513.11" cy="8.86" r="1.33"/>
  <circle class="fil1" cx="518.12" cy="17.32" r="1.33"/>
  <circle class="fil1" cx="522.81" cy="4.64" r="0.64"/>
  <circle class="fil1" cx="503.69" cy="20.8" r="1.33"/>
  <circle class="fil1" cx="509.15" cy="29.94" r="1.33"/>
  <circle class="fil1" cx="478.64" cy="18.96" r="0.64"/>
  <circle class="fil1" cx="229" cy="5.87" r="1.68"/>
  <path class="fil2" d="M598.54 15.98c4.46,-0.09 8.69,-3.53 8.89,-8.8l0 -7.18c2.89,0.84 5.94,1.28 9.1,1.28 3.16,0 6.21,-0.44 9.1,-1.28l0 7.37c0.3,5.18 4.5,8.54 8.92,8.6l0 0.01 60.23 0c4.47,-0.07 8.72,-3.51 8.93,-8.81l0.02 0 0 -7.17c2.88,0.84 5.94,1.28 9.09,1.28 3.16,0 6.21,-0.44 9.1,-1.28l0 7.66 0 4.1c-0.06,1.49 -0.17,2.9 -0.35,4.22l-0.01 0.07 -0.02 0.11 -0.01 0.1 -0.02 0.11 -0.01 0.1 -0.01 0.09 -0.01 0.02 -0.01 0.1 -0.02 0.11 -0.02 0.1 -0.01 0.1 -0.02 0.11 -0.01 0.04 -0.01 0.06 -0.02 0.1 -0.01 0.1 -0.02 0.1 -0.02 0.1 -0.02 0.1 -0.02 0.1 -0.02 0.1 -0.02 0.1 -0.02 0.1 -0.02 0.1 -0.01 0.06 -0.01 0.04 -0.02 0.1 -0.02 0.1 -0.02 0.09 -0.02 0.1c-2.38,10.64 -9.61,14.86 -21.38,15.48l-193.97 0c14.31,-0.65 22.03,-6.48 22.61,-22.44l0 -4.09 0 -0.47 0.01 0c0.21,5.3 4.46,8.74 8.94,8.8l0 0.01 61.24 0z"/>
 </g>
</svg>
