<?xml version="1.0" encoding="UTF-8"?>
<!DOCTYPE svg PUBLIC "-//W3C//DTD SVG 1.1//EN" "http://www.w3.org/Graphics/SVG/1.1/DTD/svg11.dtd">
<!-- Creator: CorelDRAW 2019 (64-Bit) -->
<svg xmlns="http://www.w3.org/2000/svg" xml:space="preserve" width="735px" height="35px" version="1.1" style="shape-rendering:geometricPrecision; text-rendering:geometricPrecision; image-rendering:optimizeQuality; fill-rule:evenodd; clip-rule:evenodd"
viewBox="0 0 628.44 29.75"
 xmlns:xlink="http://www.w3.org/1999/xlink">
 <defs>
  <style type="text/css">
   <![CDATA[
    .fil3 {fill:#FEFEFE}
    .fil2 {fill:#00A0E3}
    .fil1 {fill:#1A1A1A}
    .fil0 {fill:#FF6600}
   ]]>
  </style>
 </defs>
 <g id="Слой_x0020_1">
  <metadata id="CorelCorpID_0Corel-Layer"/>
  <path class="fil0" d="M440.22 29.75l-5.23 0 -434.99 0 0 -15.84 183.12 0c3.89,-0.05 7.59,-3.05 7.78,-7.66l0 0 0 -6.24c2.51,0.72 5.17,1.11 7.92,1.11 2.75,0 5.4,-0.39 7.92,-1.11l0 6.48c0.29,4.47 3.93,7.36 7.76,7.42l0 0 53.5 0c3.82,-0.15 7.4,-3.13 7.57,-7.65l0 -6.25c2.52,0.72 5.17,1.11 7.92,1.11 2.75,0 5.41,-0.39 7.92,-1.11l0 6.42c0.27,4.46 3.85,7.37 7.66,7.48l52.55 0c3.85,-0.05 7.51,-2.98 7.77,-7.48l0 -6.42c2.52,0.72 5.17,1.11 7.92,1.11 2.75,0 5.41,-0.39 7.92,-1.11l0 6.24c0.18,4.61 3.88,7.6 7.78,7.66l0 0 53.3 0c3.8,-0.05 7.42,-2.91 7.76,-7.34l0 -6.56c2.51,0.72 5.17,1.11 7.92,1.11 2.74,0 5.4,-0.39 7.91,-1.11l0 6.24 0 0.4 0 3.57c-0.5,13.89 -7.22,18.96 -19.68,19.53z"/>
  <path class="fil1" d="M521.04 13.91c3.88,-0.08 7.56,-3.07 7.74,-7.66l0 -6.25c2.52,0.73 5.17,1.12 7.92,1.12 2.75,0 5.4,-0.39 7.92,-1.12l0 6.42c0.27,4.51 3.92,7.43 7.77,7.48l0 0.01 52.42 0c3.9,-0.06 7.6,-3.06 7.78,-7.67l0.01 0 0 -6.24c2.52,0.73 5.17,1.12 7.92,1.12 2.75,0 5.4,-0.39 7.92,-1.12l0 6.67 0 3.56c-0.05,1.3 -0.15,2.53 -0.31,3.68l-0.01 0.06 -0.01 0.1 -0.01 0.09 -0.01 0.09 -0.02 0.09 -0.01 0.08 0 0.01 -0.02 0.09 -0.01 0.09 -0.02 0.09 -0.01 0.09 -0.01 0.09 -0.01 0.04 -0.01 0.05 -0.01 0.09 -0.02 0.09 -0.02 0.08 -0.01 0.09 -0.02 0.09 -0.02 0.09 -0.01 0.08 -0.02 0.09 -0.02 0.09 -0.01 0.08 -0.01 0.05 -0.01 0.04 -0.02 0.08 -0.02 0.09 -0.02 0.08 -0.02 0.09c-2.06,9.26 -8.36,12.93 -18.6,13.47l-168.85 0c12.46,-0.57 19.18,-5.64 19.68,-19.53l0 -3.56 0 -0.41 0.01 0c0.19,4.61 3.89,7.61 7.78,7.66l0 0.01 53.31 0z"/>
  <path class="fil2" d="M452.89 26.3c-2.29,-0.28 -4.87,-1.33 -8.31,-3.56 -6.1,-3.97 -12.8,-3.32 -23.68,0.91 -9.76,3.79 -18.33,4.15 -29.66,-0.65 -6.93,-2.94 -19.01,-3.43 -27.78,0.45 -6.24,2.75 -14.61,5.21 -25.39,-0.09 -5.85,-2.88 -14.64,-4.51 -25.51,-0.09 -7.27,2.96 -16.44,4.01 -27.12,-0.09 -6.85,-2.63 -16.15,-5.39 -26.58,-0.09 -5.88,2.98 -14.5,6.33 -22.71,-0.08 -4.85,-3.78 -12.53,-4.94 -22.05,-0.08 -6.25,3.2 -14.39,4.06 -21.91,-0.07 -5.87,-3.22 -13.33,-4.65 -20.3,-0.07 -4.75,3.12 -11.77,3.84 -18.7,-0.07 -5.84,-3.28 -14.38,-5.1 -23.25,-0.08 -4.21,2.39 -13.33,5.2 -22.17,-0.07 -2.37,-1.41 -8.92,-4.54 -18.71,-0.07 -6.17,2.82 -13.95,5.95 -21.5,-0.07 -4.11,-3.27 -10.44,-5.79 -21.91,-0.08 -7.93,3.95 -16.08,2.29 -22.5,-0.07 -8.1,-3.34 -15.94,-4.41 -23.15,-0.08l0 7.55 5.8 0 138.21 0 39.11 0 31.39 0 53.29 0 31.38 0 52.43 0 31.39 0 51.99 0 1.35 0 3.88 0c5.26,-0.24 9.5,-1.28 12.67,-3.45z"/>
  <circle class="fil3" cx="153.25" cy="26.37" r="0.79"/>
  <circle class="fil3" cx="181.57" cy="23.49" r="2"/>
  <circle class="fil3" cx="174.96" cy="25.65" r="1.16"/>
  <circle class="fil3" cx="202.15" cy="28.01" r="1.16"/>
  <circle class="fil3" cx="191.21" cy="26.91" r="1.16"/>
  <circle class="fil3" cx="186.84" cy="26.77" r="0.55"/>
  <circle class="fil3" cx="210.25" cy="27.8" r="0.79"/>
  <circle class="fil3" cx="223.53" cy="25.92" r="1.46"/>
  <circle class="fil3" cx="217.09" cy="26.07" r="0.55"/>
  <circle class="fil3" cx="237.48" cy="26.63" r="0.79"/>
  <circle class="fil3" cx="259.55" cy="26.94" r="1.16"/>
  <circle class="fil3" cx="277.89" cy="26.63" r="1.16"/>
  <circle class="fil3" cx="269.74" cy="25.23" r="1.16"/>
  <circle class="fil3" cx="283.52" cy="26.43" r="2"/>
  <circle class="fil3" cx="228.86" cy="24.15" r="0.79"/>
  <circle class="fil3" cx="313.69" cy="27.14" r="1.46"/>
  <circle class="fil3" cx="300.8" cy="27.84" r="0.55"/>
  <circle class="fil3" cx="247.46" cy="28.1" r="0.55"/>
  <circle class="fil3" cx="321.06" cy="26.71" r="0.79"/>
  <circle class="fil3" cx="324.74" cy="23.53" r="1.16"/>
  <circle class="fil3" cx="330.27" cy="25.45" r="2"/>
  <circle class="fil3" cx="351.85" cy="28.03" r="0.55"/>
  <circle class="fil3" cx="368.89" cy="27.83" r="1.16"/>
  <circle class="fil3" cx="362.83" cy="27.52" r="1.46"/>
  <circle class="fil3" cx="343.17" cy="27.9" r="1.16"/>
  <circle class="fil3" cx="337.16" cy="27.52" r="0.55"/>
  <circle class="fil3" cx="372.03" cy="24.15" r="0.79"/>
  <circle class="fil3" cx="391.34" cy="26.26" r="1.46"/>
  <circle class="fil3" cx="384.9" cy="26.41" r="0.55"/>
  <circle class="fil3" cx="379.93" cy="24.6" r="0.79"/>
  <circle class="fil3" cx="403.41" cy="28.07" r="0.55"/>
  <circle class="fil3" cx="428.1" cy="26.94" r="1.16"/>
  <circle class="fil3" cx="443.49" cy="25.83" r="1.16"/>
  <circle class="fil3" cx="436.03" cy="23.8" r="2"/>
  <circle class="fil3" cx="416.47" cy="26.83" r="0.55"/>
  <circle class="fil3" cx="161.89" cy="27.57" r="0.55"/>
 </g>
</svg>
