<?xml version="1.0" encoding="UTF-8"?>
<!DOCTYPE svg PUBLIC "-//W3C//DTD SVG 1.1//EN" "http://www.w3.org/Graphics/SVG/1.1/DTD/svg11.dtd">
<!-- Creator: CorelDRAW 2019 (64-Bit) -->
<svg xmlns="http://www.w3.org/2000/svg" xml:space="preserve" width="67px" height="67px" version="1.1" style="shape-rendering:geometricPrecision; text-rendering:geometricPrecision; image-rendering:optimizeQuality; fill-rule:evenodd; clip-rule:evenodd"
viewBox="0 0 6.77 6.77"
 xmlns:xlink="http://www.w3.org/1999/xlink">
 <defs>
  <style type="text/css">
   <![CDATA[
    .fil2 {fill:#FEFEFE}
    .fil1 {fill:#009846}
    .fil0 {fill:white}
   ]]>
  </style>
 </defs>
 <g id="Слой_x0020_1">
  <metadata id="CorelCorpID_0Corel-Layer"/>
  <g id="_2274622496">
   <circle class="fil0" cx="3.39" cy="3.39" r="3.39"/>
   <g>
    <circle class="fil1" cx="3.39" cy="3.39" r="3.05"/>
    <circle class="fil2" cx="3.39" cy="3.39" r="0.71"/>
    <path class="fil2" d="M4.42 2.93c0.12,-0.67 -0.05,-1.18 -0.56,-1.49 -0.13,-0.09 -0.33,-0.13 -0.27,-0.35 0.03,-0.13 0.16,-0.21 0.29,-0.17 0.05,0.01 0.18,0.1 0.24,0.13 0.77,0.5 0.99,1.25 0.7,2.24 -0.03,0.13 -0.16,0.21 -0.29,0.17 -0.13,-0.03 -0.2,-0.16 -0.17,-0.29 0.02,-0.09 0.04,-0.15 0.06,-0.24z"/>
    <path class="fil2" d="M4.39 3.98c0.64,-0.22 1,-0.62 1.03,-1.21 0.01,-0.16 -0.05,-0.36 0.17,-0.42 0.13,-0.03 0.26,0.05 0.29,0.17 0.02,0.06 0,0.22 0,0.28 -0.06,0.92 -0.61,1.47 -1.61,1.71 -0.13,0.03 -0.26,-0.04 -0.29,-0.17 -0.04,-0.13 0.04,-0.26 0.17,-0.3 0.09,-0.02 0.15,-0.03 0.24,-0.06z"/>
    <path class="fil2" d="M3.34 4.52c0.54,0.41 1.06,0.49 1.57,0.18 0.14,-0.08 0.27,-0.24 0.44,-0.08 0.1,0.08 0.11,0.23 0.02,0.33 -0.04,0.05 -0.17,0.12 -0.23,0.16 -0.79,0.46 -1.56,0.31 -2.31,-0.4 -0.1,-0.08 -0.11,-0.23 -0.02,-0.33 0.09,-0.11 0.24,-0.11 0.34,-0.02 0.06,0.06 0.11,0.11 0.19,0.16z"/>
    <path class="fil2" d="M2.37 3.96c-0.11,0.67 0.06,1.17 0.57,1.48 0.14,0.08 0.33,0.13 0.28,0.35 -0.03,0.12 -0.16,0.2 -0.29,0.17 -0.06,-0.01 -0.19,-0.1 -0.24,-0.13 -0.78,-0.49 -1,-1.24 -0.73,-2.23 0.03,-0.13 0.16,-0.21 0.29,-0.18 0.13,0.03 0.21,0.17 0.18,0.29 -0.03,0.09 -0.05,0.16 -0.06,0.25z"/>
    <path class="fil2" d="M2.39 2.78c-0.64,0.23 -1,0.62 -1.03,1.21 -0.01,0.17 0.05,0.36 -0.17,0.42 -0.13,0.03 -0.26,-0.05 -0.29,-0.17 -0.02,-0.06 -0.01,-0.22 0,-0.28 0.06,-0.91 0.61,-1.47 1.61,-1.7 0.13,-0.04 0.26,0.04 0.3,0.17 0.03,0.13 -0.05,0.26 -0.18,0.29 -0.09,0.02 -0.15,0.03 -0.24,0.06z"/>
    <path class="fil2" d="M3.48 2.25c-0.52,-0.43 -1.04,-0.53 -1.57,-0.26 -0.14,0.08 -0.28,0.23 -0.44,0.07 -0.1,-0.09 -0.1,-0.25 -0.01,-0.34 0.05,-0.04 0.19,-0.11 0.24,-0.14 0.82,-0.42 1.58,-0.23 2.3,0.51 0.09,0.09 0.09,0.24 0,0.34 -0.1,0.1 -0.25,0.09 -0.34,0 -0.06,-0.06 -0.11,-0.12 -0.18,-0.18z"/>
   </g>
  </g>
 </g>
</svg>
