<?xml version="1.0" encoding="UTF-8"?>
<!DOCTYPE svg PUBLIC "-//W3C//DTD SVG 1.1//EN" "http://www.w3.org/Graphics/SVG/1.1/DTD/svg11.dtd">
<!-- Creator: CorelDRAW 2019 (64-Bit) -->
<svg xmlns="http://www.w3.org/2000/svg" xml:space="preserve" width="67px" height="67px" version="1.1" style="shape-rendering:geometricPrecision; text-rendering:geometricPrecision; image-rendering:optimizeQuality; fill-rule:evenodd; clip-rule:evenodd"
viewBox="0 0 10.28 10.22"
 xmlns:xlink="http://www.w3.org/1999/xlink">
 <defs>
  <style type="text/css">
   <![CDATA[
    .fil2 {fill:#FEFEFE}
    .fil1 {fill:red}
    .fil0 {fill:white}
   ]]>
  </style>
 </defs>
 <g id="Слой_x0020_1">
  <metadata id="CorelCorpID_0Corel-Layer"/>
  <g id="_1062761712">
   <ellipse class="fil0" cx="5.14" cy="5.11" rx="5.14" ry="5.11"/>
   <g>
    <ellipse class="fil1" cx="5.14" cy="5.11" rx="4.63" ry="4.6"/>
    <circle class="fil2" cx="5.14" cy="5.11" r="1.07"/>
    <path class="fil2" d="M6.71 4.41c0.18,-1 -0.08,-1.76 -0.85,-2.24 -0.2,-0.13 -0.5,-0.2 -0.42,-0.53 0.05,-0.19 0.25,-0.31 0.45,-0.26 0.08,0.02 0.28,0.15 0.36,0.21 1.17,0.74 1.51,1.88 1.07,3.38 -0.05,0.19 -0.25,0.31 -0.44,0.26 -0.2,-0.05 -0.31,-0.26 -0.26,-0.45 0.03,-0.13 0.07,-0.23 0.09,-0.37z"/>
    <path class="fil2" d="M6.67 6c0.97,-0.33 1.51,-0.93 1.55,-1.82 0.02,-0.25 -0.07,-0.54 0.27,-0.63 0.19,-0.05 0.39,0.07 0.44,0.26 0.02,0.09 0,0.32 0,0.42 -0.09,1.38 -0.92,2.22 -2.45,2.57 -0.19,0.05 -0.39,-0.06 -0.44,-0.25 -0.06,-0.2 0.07,-0.4 0.26,-0.45 0.13,-0.03 0.23,-0.05 0.37,-0.1z"/>
    <path class="fil2" d="M5.07 6.82c0.82,0.62 1.62,0.74 2.39,0.27 0.21,-0.12 0.41,-0.35 0.67,-0.12 0.15,0.13 0.16,0.35 0.03,0.5 -0.06,0.07 -0.27,0.18 -0.35,0.23 -1.2,0.7 -2.37,0.48 -3.52,-0.59 -0.15,-0.13 -0.16,-0.36 -0.03,-0.51 0.14,-0.15 0.37,-0.16 0.52,-0.03 0.1,0.1 0.17,0.17 0.29,0.25z"/>
    <path class="fil2" d="M3.59 5.97c-0.16,1.01 0.11,1.77 0.87,2.24 0.21,0.12 0.51,0.19 0.43,0.52 -0.05,0.2 -0.24,0.31 -0.44,0.27 -0.09,-0.02 -0.28,-0.15 -0.37,-0.21 -1.17,-0.73 -1.52,-1.86 -1.1,-3.36 0.04,-0.2 0.24,-0.32 0.44,-0.27 0.2,0.05 0.31,0.25 0.26,0.44 -0.03,0.13 -0.06,0.23 -0.09,0.37z"/>
    <path class="fil2" d="M3.62 4.2c-0.97,0.34 -1.51,0.93 -1.56,1.83 -0.01,0.24 0.08,0.53 -0.26,0.62 -0.19,0.05 -0.39,-0.06 -0.44,-0.26 -0.02,-0.08 0,-0.32 0,-0.42 0.09,-1.37 0.93,-2.22 2.46,-2.57 0.19,-0.05 0.39,0.07 0.44,0.26 0.05,0.2 -0.07,0.4 -0.27,0.44 -0.13,0.04 -0.23,0.06 -0.37,0.1z"/>
    <path class="fil2" d="M5.28 3.4c-0.79,-0.66 -1.58,-0.81 -2.38,-0.39 -0.22,0.11 -0.42,0.34 -0.67,0.1 -0.14,-0.14 -0.15,-0.37 -0.01,-0.52 0.07,-0.06 0.28,-0.16 0.37,-0.21 1.23,-0.63 2.39,-0.35 3.48,0.77 0.14,0.14 0.14,0.37 0,0.51 -0.14,0.15 -0.38,0.14 -0.52,0.01 -0.09,-0.1 -0.16,-0.18 -0.27,-0.27z"/>
   </g>
  </g>
 </g>
</svg>
