<?xml version="1.0" encoding="UTF-8"?>
<!DOCTYPE svg PUBLIC "-//W3C//DTD SVG 1.1//EN" "http://www.w3.org/Graphics/SVG/1.1/DTD/svg11.dtd">
<!-- Creator: CorelDRAW 2019 (64-Bit) -->
<svg xmlns="http://www.w3.org/2000/svg" xml:space="preserve" width="735px" height="35px" version="1.1" style="shape-rendering:geometricPrecision; text-rendering:geometricPrecision; image-rendering:optimizeQuality; fill-rule:evenodd; clip-rule:evenodd"
viewBox="0 0 213.37 10.1"
 xmlns:xlink="http://www.w3.org/1999/xlink">
 <defs>
  <style type="text/css">
   <![CDATA[
    .fil2 {fill:#FEFEFE}
    .fil1 {fill:#00A0E3}
    .fil0 {fill:red}
   ]]>
  </style>
 </defs>
 <g id="Слой_x0020_1">
  <metadata id="CorelCorpID_0Corel-Layer"/>
  <path class="fil0" d="M176.91 4.72c1.32,-0.02 2.56,-1.04 2.63,-2.6l0 -2.12c0.85,0.25 1.75,0.38 2.68,0.38 0.94,0 1.84,-0.13 2.69,-0.38l0 2.18c0.09,1.53 1.34,2.52 2.64,2.54l0 0 17.8 0c1.32,-0.02 2.58,-1.03 2.64,-2.6l0.01 0 0 -2.12c0.85,0.25 1.75,0.38 2.69,0.38 0.93,0 1.83,-0.13 2.68,-0.38l0 2.26 0 1.21c-0.01,0.45 -0.05,0.86 -0.1,1.25l0 0.02 -0.01 0.04 0 0.03 -0.01 0.03 0 0.03 0 0.03 0 0 -0.01 0.03 0 0.03 -0.01 0.03 0 0.03 -0.01 0.03 0 0.02 0 0.01 -0.01 0.03 -0.01 0.03 0 0.03 -0.01 0.03 0 0.03 -0.01 0.03 0 0.03 -0.01 0.03 0 0.03 -0.01 0.03 0 0.02 -0.01 0.01 0 0.03 -0.01 0.03 -0.01 0.02 0 0.03c-0.7,3.15 -2.84,4.4 -6.32,4.58l-206.81 0 0 -5.38 62.18 0c1.32,-0.02 2.58,-1.03 2.64,-2.6l0 0 0 -2.12c0.85,0.25 1.76,0.38 2.69,0.38 0.93,0 1.83,-0.13 2.69,-0.38l0 2.2c0.1,1.52 1.33,2.5 2.63,2.52l0 0 18.17 0c1.3,-0.05 2.51,-1.06 2.57,-2.6l0 -2.12c0.86,0.25 1.76,0.38 2.69,0.38 0.93,0 1.84,-0.13 2.69,-0.38l0 2.18c0.09,1.52 1.31,2.51 2.6,2.54l17.84 0c1.31,-0.02 2.55,-1.01 2.64,-2.54l0 -2.18c0.86,0.25 1.76,0.38 2.69,0.38 0.93,0 1.84,-0.13 2.69,-0.38l0 2.12c0.06,1.56 1.32,2.58 2.64,2.6l0 0 18.1 0c1.29,-0.02 2.52,-0.99 2.63,-2.49l0 -2.23c0.86,0.25 1.76,0.38 2.69,0.38 0.94,0 1.84,-0.13 2.69,-0.38l0 2.12 0 0c0.07,1.56 1.32,2.58 2.65,2.6l0 0 18.1 0z"/>
  <path class="fil1" d="M158.82 10.1l18.11 0 10.62 0 17.81 0 1.45 0c2.5,-0.13 4.31,-0.81 5.39,-2.35l0 0c-1.09,-1.07 -2.64,-0.6 -4.12,0.11 -2.66,1.27 -6.02,0.76 -7.24,-0.15 -3.4,-2.54 -5.83,-0.67 -7.79,0.01 -3.21,1.11 -4.21,1.44 -7.25,0 -3.07,-1.46 -5.71,-1.59 -8.71,0 -2.84,1.5 -7.19,1.19 -10.16,0 -2.18,-0.87 -5.2,-1.75 -8.71,0 -2.1,1.04 -4.01,2.11 -7.26,0 -2.07,-1.35 -4.35,-1.13 -8.04,0.31 -3.32,1.29 -6.23,1.41 -10.07,-0.22 -2.36,-1 -6.46,-1.17 -9.44,0.15 -2.11,0.94 -4.96,1.77 -8.62,-0.03 -1.98,-0.98 -4.97,-1.53 -8.66,-0.03 -2.47,1 -5.58,1.36 -9.21,-0.03 -2.32,-0.89 -5.48,-1.83 -9.03,-0.03 -1.99,1.01 -4.92,2.15 -7.71,-0.03 -1.64,-1.28 -4.25,-1.68 -7.48,-0.02 -2.12,1.08 -4.89,1.37 -7.44,-0.03 -1.99,-1.09 -4.53,-1.58 -6.89,-0.02 -1.62,1.06 -4,1.3 -6.36,-0.03 -1.98,-1.11 -4.88,-1.73 -7.89,-0.02 -1.43,0.81 -4.53,1.76 -7.53,-0.03 -0.8,-0.48 -3.03,-1.54 -6.35,-0.02 -2.09,0.96 -4.73,2.02 -7.3,-0.03 -1.39,-1.11 -3.55,-1.96 -7.44,-0.02 -2.69,1.34 -5.46,0.77 -7.64,-0.03 -2.75,-1.13 -5.41,-1.49 -7.86,-0.02l0 2.56 1.97 0 46.93 0 13.28 0 10.66 0 18.09 0 10.66 0 17.8 0 10.66 0 18.11 0 10.66 0z"/>
  <circle class="fil2" cx="52.04" cy="8.95" r="0.27"/>
  <circle class="fil2" cx="61.65" cy="7.98" r="0.68"/>
  <circle class="fil2" cx="59.41" cy="8.71" r="0.39"/>
  <circle class="fil2" cx="65.32" cy="9" r="0.39"/>
  <circle class="fil2" cx="63.44" cy="9.09" r="0.19"/>
  <circle class="fil2" cx="71.39" cy="9.44" r="0.27"/>
  <circle class="fil2" cx="75.9" cy="8.8" r="0.5"/>
  <circle class="fil2" cx="73.71" cy="8.85" r="0.19"/>
  <circle class="fil2" cx="80.64" cy="9.04" r="0.27"/>
  <circle class="fil2" cx="88.13" cy="9.15" r="0.39"/>
  <circle class="fil2" cx="91.59" cy="8.57" r="0.39"/>
  <circle class="fil2" cx="94.59" cy="8.57" r="0.68"/>
  <circle class="fil2" cx="77.71" cy="8.2" r="0.27"/>
  <circle class="fil2" cx="106.51" cy="9.21" r="0.5"/>
  <circle class="fil2" cx="102.14" cy="9.45" r="0.19"/>
  <circle class="fil2" cx="84.03" cy="9.54" r="0.19"/>
  <circle class="fil2" cx="109.02" cy="9.07" r="0.27"/>
  <circle class="fil2" cx="110.27" cy="7.99" r="0.39"/>
  <circle class="fil2" cx="114.21" cy="8.82" r="0.68"/>
  <circle class="fil2" cx="111.58" cy="8.98" r="0.19"/>
  <circle class="fil2" cx="127.51" cy="9.11" r="0.5"/>
  <circle class="fil2" cx="123.5" cy="9.2" r="0.39"/>
  <circle class="fil2" cx="116.98" cy="9.42" r="0.19"/>
  <circle class="fil2" cx="125.81" cy="8.25" r="0.27"/>
  <circle class="fil2" cx="132.88" cy="8.91" r="0.5"/>
  <circle class="fil2" cx="130.69" cy="8.97" r="0.19"/>
  <circle class="fil2" cx="129.01" cy="8.35" r="0.27"/>
  <circle class="fil2" cx="136.98" cy="9.53" r="0.19"/>
  <circle class="fil2" cx="145.36" cy="9.15" r="0.39"/>
  <circle class="fil2" cx="152.02" cy="9.4" r="0.39"/>
  <circle class="fil2" cx="148.18" cy="8.47" r="0.68"/>
  <circle class="fil2" cx="163.95" cy="8.3" r="0.5"/>
  <circle class="fil2" cx="160.34" cy="9.21" r="0.19"/>
  <circle class="fil2" cx="141.41" cy="9.11" r="0.19"/>
  <circle class="fil2" cx="157.15" cy="9.14" r="0.39"/>
  <circle class="fil2" cx="166.24" cy="9.07" r="0.27"/>
  <circle class="fil2" cx="168.38" cy="9.17" r="0.39"/>
  <circle class="fil2" cx="161.12" cy="7.72" r="0.39"/>
  <circle class="fil2" cx="180.67" cy="8.49" r="0.68"/>
  <circle class="fil2" cx="178.15" cy="8.8" r="0.19"/>
  <circle class="fil2" cx="183.64" cy="8.26" r="0.27"/>
  <circle class="fil2" cx="175" cy="9.35" r="0.39"/>
  <circle class="fil2" cx="191.12" cy="9.31" r="0.5"/>
  <circle class="fil2" cx="186.31" cy="9.15" r="0.19"/>
  <circle class="fil2" cx="171.47" cy="9.36" r="0.19"/>
  <circle class="fil2" cx="200.73" cy="8.8" r="0.39"/>
  <circle class="fil2" cx="206.01" cy="9.17" r="0.39"/>
  <circle class="fil2" cx="208.39" cy="8.23" r="0.19"/>
  <circle class="fil2" cx="194.51" cy="8.46" r="0.68"/>
  <circle class="fil2" cx="210.09" cy="8.08" r="0.39"/>
  <circle class="fil2" cx="188.1" cy="9.28" r="0.39"/>
  <circle class="fil2" cx="197.77" cy="7.42" r="0.5"/>
  <circle class="fil2" cx="203.21" cy="9.17" r="0.19"/>
  <circle class="fil2" cx="197.43" cy="9.19" r="0.39"/>
  <circle class="fil2" cx="54.97" cy="9.36" r="0.19"/>
  <circle class="fil2" cx="121.34" cy="9.54" r="0.19"/>
 </g>
</svg>
