<?xml version="1.0" encoding="UTF-8"?>
<!DOCTYPE svg PUBLIC "-//W3C//DTD SVG 1.1//EN" "http://www.w3.org/Graphics/SVG/1.1/DTD/svg11.dtd">
<!-- Creator: CorelDRAW 2019 (64-Bit) -->
<svg xmlns="http://www.w3.org/2000/svg" xml:space="preserve" width="735px" height="35px" version="1.1" style="shape-rendering:geometricPrecision; text-rendering:geometricPrecision; image-rendering:optimizeQuality; fill-rule:evenodd; clip-rule:evenodd"
viewBox="0 0 213.37 10.1"
 xmlns:xlink="http://www.w3.org/1999/xlink">
 <defs>
  <style type="text/css">
   <![CDATA[
    .fil3 {fill:#FEFEFE}
    .fil2 {fill:#00A0E3}
    .fil0 {fill:#1A1A1A}
    .fil1 {fill:red}
   ]]>
  </style>
 </defs>
 <g id="Слой_x0020_1">
  <metadata id="CorelCorpID_0Corel-Layer"/>
  <path class="fil0" d="M176.91 4.72c1.32,-0.02 2.56,-1.04 2.63,-2.6l0 -2.12c0.85,0.25 1.75,0.38 2.68,0.38 0.94,0 1.84,-0.13 2.69,-0.38l0 2.18c0.09,1.53 1.34,2.52 2.64,2.54l0 0 17.8 0c1.32,-0.02 2.58,-1.03 2.64,-2.6l0.01 0 0 -2.12c0.85,0.25 1.75,0.38 2.69,0.38 0.93,0 1.83,-0.13 2.68,-0.38l0 2.26 0 1.21c-0.01,0.45 -0.05,0.86 -0.1,1.25l0 0.02 -0.01 0.04 0 0.03 -0.01 0.03 0 0.03 0 0.03 0 0 -0.01 0.03 0 0.03 -0.01 0.03 0 0.03 -0.01 0.03 0 0.02 0 0.01 -0.01 0.03 -0.01 0.03 0 0.03 -0.01 0.03 0 0.03 -0.01 0.03 0 0.03 -0.01 0.03 0 0.03 -0.01 0.03 0 0.02 -0.01 0.01 0 0.03 -0.01 0.03 -0.01 0.02 0 0.03c-0.7,3.15 -2.84,4.4 -6.32,4.58l-143.21 0c4.18,-0.21 6.43,-1.94 6.6,-6.63l0 -1.21 0 -0.06c0.1,1.52 1.33,2.5 2.63,2.52l0 0 18.17 0c1.3,-0.05 2.51,-1.06 2.57,-2.6l0 -2.12c0.86,0.25 1.76,0.38 2.69,0.38 0.93,0 1.84,-0.13 2.69,-0.38l0 2.18c0.09,1.52 1.31,2.51 2.6,2.54l17.84 0c1.31,-0.02 2.55,-1.01 2.64,-2.54l0 -2.18c0.86,0.25 1.76,0.38 2.69,0.38 0.93,0 1.84,-0.13 2.69,-0.38l0 2.12c0.06,1.56 1.32,2.58 2.64,2.6l0 0 18.1 0c1.29,-0.02 2.52,-0.99 2.63,-2.49l0 -2.23c0.86,0.25 1.76,0.38 2.69,0.38 0.94,0 1.84,-0.13 2.69,-0.38l0 2.12 0 0c0.07,1.56 1.32,2.58 2.65,2.6l0 0 18.1 0z"/>
  <path class="fil1" d="M63.6 10.1l-63.6 0 0 -5.38 62.18 0c1.32,-0.02 2.58,-1.03 2.64,-2.6l0 0 0 -2.12c0.85,0.25 1.76,0.38 2.69,0.38 0.93,0 1.83,-0.13 2.69,-0.38l0 2.2 0 0.06 0 1.21c-0.17,4.69 -2.42,6.42 -6.6,6.63z"/>
  <path class="fil2" d="M68.09 8.73c-0.91,-0.1 -1.81,-0.41 -2.83,-0.97 -1.99,-1.09 -4.53,-1.58 -6.89,-0.02 -1.62,1.06 -4,1.3 -6.36,-0.03 -1.98,-1.11 -4.88,-1.73 -7.89,-0.02 -1.43,0.81 -4.53,1.76 -7.53,-0.03 -0.8,-0.48 -3.03,-1.54 -6.35,-0.02 -2.09,0.96 -4.73,2.02 -7.3,-0.03 -1.39,-1.11 -3.55,-1.96 -7.44,-0.02 -2.69,1.34 -5.46,0.77 -7.64,-0.03 -2.75,-1.13 -5.41,-1.49 -7.86,-0.02l0 2.56 61.74 0 0 0 0.01 0 0.43 0 1.33 0c1.94,-0.09 3.47,-0.5 4.58,-1.37z"/>
  <circle class="fil3" cx="52.04" cy="8.95" r="0.27"/>
  <circle class="fil3" cx="61.65" cy="7.98" r="0.68"/>
  <circle class="fil3" cx="59.41" cy="8.71" r="0.39"/>
  <circle class="fil3" cx="63.44" cy="9.09" r="0.19"/>
  <circle class="fil3" cx="54.97" cy="9.36" r="0.19"/>
 </g>
</svg>
