<?xml version="1.0" encoding="UTF-8"?>
<!DOCTYPE svg PUBLIC "-//W3C//DTD SVG 1.1//EN" "http://www.w3.org/Graphics/SVG/1.1/DTD/svg11.dtd">
<!-- Creator: CorelDRAW 2019 (64-Bit) -->
<svg xmlns="http://www.w3.org/2000/svg" xml:space="preserve" width="735px" height="36px" version="1.1" style="shape-rendering:geometricPrecision; text-rendering:geometricPrecision; image-rendering:optimizeQuality; fill-rule:evenodd; clip-rule:evenodd"
viewBox="0 0 721.87 35.16"
 xmlns:xlink="http://www.w3.org/1999/xlink">
 <defs>
  <style type="text/css">
   <![CDATA[
    .fil1 {fill:#FEFEFE}
    .fil0 {fill:#00A0E3}
    .fil2 {fill:#1A1A1A}
   ]]>
  </style>
 </defs>
 <g id="Слой_x0020_1">
  <metadata id="CorelCorpID_0Corel-Layer"/>
  <path class="fil0" d="M510.16 26.27l0 8.88c2.88,-0.83 5.94,-1.28 9.09,-1.28 3.16,0 6.21,0.45 9.1,1.28l0 -8.15 0 -0.48 0 -4.09c-0.58,-15.91 -8.26,-21.75 -22.49,-22.43l-505.86 0 0 18.19 210.37 0c4.48,0.07 8.73,3.51 8.94,8.81l0 8.15c2.89,-0.83 5.94,-1.28 9.1,-1.28 3.15,0 6.2,0.45 9.09,1.28l0 -8.35c0.31,-5.18 4.51,-8.54 8.93,-8.6l0 -0.01 61.22 0c4.48,0.07 8.73,3.51 8.94,8.81l0 8.15c2.88,-0.83 5.94,-1.28 9.09,-1.28 3.16,0 6.21,0.45 9.1,1.28l0 -8.35c0.31,-5.18 4.51,-8.54 8.93,-8.6l0 -0.01 60.23 0c4.48,0.07 8.73,3.51 8.94,8.81l0 8.15c2.89,-0.83 5.94,-1.28 9.1,-1.28 3.15,0 6.21,0.45 9.09,1.28l0 -8.35c0.31,-5.18 4.51,-8.54 8.93,-8.6l0 -0.01 61.27 0c4.27,0.06 8.34,3.2 8.89,8.08z"/>
  <circle class="fil1" cx="176.05" cy="14.31" r="0.9"/>
  <circle class="fil1" cx="171.97" cy="7.55" r="1.33"/>
  <circle class="fil1" cx="186.99" cy="3.91" r="1.33"/>
  <circle class="fil1" cx="179.44" cy="8.94" r="2.31"/>
  <circle class="fil1" cx="191.59" cy="13.87" r="2.3"/>
  <circle class="fil1" cx="196.71" cy="6.58" r="0.64"/>
  <circle class="fil1" cx="200.99" cy="13.48" r="1.33"/>
  <circle class="fil1" cx="206.35" cy="5.3" r="1.68"/>
  <circle class="fil1" cx="233.46" cy="19.45" r="1.33"/>
  <circle class="fil1" cx="223.35" cy="18.19" r="1.33"/>
  <circle class="fil1" cx="229.28" cy="12.55" r="2.3"/>
  <circle class="fil1" cx="214.65" cy="14.77" r="0.64"/>
  <circle class="fil1" cx="241.15" cy="12.89" r="0.9"/>
  <circle class="fil1" cx="244.66" cy="6.28" r="2.31"/>
  <circle class="fil1" cx="223.74" cy="5.3" r="1.33"/>
  <circle class="fil1" cx="213.92" cy="7.55" r="1.33"/>
  <circle class="fil1" cx="233.49" cy="4.28" r="1.33"/>
  <circle class="fil1" cx="256.79" cy="13.79" r="1.68"/>
  <circle class="fil1" cx="249.4" cy="13.97" r="0.64"/>
  <circle class="fil1" cx="253.79" cy="3.84" r="1.33"/>
  <circle class="fil1" cx="270.29" cy="6.53" r="2.3"/>
  <circle class="fil1" cx="261.58" cy="6.13" r="0.64"/>
  <circle class="fil1" cx="273.35" cy="13.53" r="0.9"/>
  <circle class="fil1" cx="269.27" cy="6.76" r="1.33"/>
  <circle class="fil1" cx="280.01" cy="5.3" r="1.33"/>
  <circle class="fil1" cx="290.66" cy="10.01" r="2.3"/>
  <circle class="fil1" cx="291.8" cy="4.61" r="0.64"/>
  <circle class="fil1" cx="298.18" cy="14.97" r="1.33"/>
  <circle class="fil1" cx="303.64" cy="4.52" r="1.68"/>
  <circle class="fil1" cx="319.3" cy="24.95" r="1.33"/>
  <circle class="fil1" cx="463.01" cy="5.01" r="1.68"/>
  <circle class="fil1" cx="320.65" cy="17.4" r="1.33"/>
  <circle class="fil1" cx="327.7" cy="23.27" r="0.64"/>
  <circle class="fil1" cx="309.88" cy="13.01" r="1.33"/>
  <circle class="fil1" cx="331.09" cy="16.54" r="2.3"/>
  <circle class="fil1" cx="316.98" cy="10.41" r="0.64"/>
  <circle class="fil1" cx="338.93" cy="13.49" r="0.9"/>
  <circle class="fil1" cx="336.16" cy="4.53" r="2.31"/>
  <circle class="fil1" cx="321.04" cy="4.52" r="1.33"/>
  <circle class="fil1" cx="328.04" cy="6.89" r="1.33"/>
  <circle class="fil1" cx="355.86" cy="11.61" r="1.68"/>
  <circle class="fil1" cx="348.87" cy="15.18" r="0.64"/>
  <circle class="fil1" cx="351.09" cy="3.05" r="1.33"/>
  <circle class="fil1" cx="365.09" cy="7.65" r="2.3"/>
  <circle class="fil1" cx="358.61" cy="1.92" r="0.64"/>
  <circle class="fil1" cx="284.83" cy="14.84" r="0.64"/>
  <circle class="fil1" cx="345.19" cy="7.55" r="1.33"/>
  <circle class="fil1" cx="368.84" cy="14.7" r="0.9"/>
  <circle class="fil1" cx="377.77" cy="11.61" r="1.33"/>
  <circle class="fil1" cx="372.22" cy="3.28" r="1.33"/>
  <circle class="fil1" cx="387.52" cy="13.22" r="2.3"/>
  <circle class="fil1" cx="389.49" cy="6.96" r="0.64"/>
  <circle class="fil1" cx="397.88" cy="7.55" r="1.33"/>
  <circle class="fil1" cx="430.68" cy="18.92" r="1.33"/>
  <circle class="fil1" cx="423.09" cy="18.19" r="1.68"/>
  <circle class="fil1" cx="417.06" cy="23.91" r="0.64"/>
  <circle class="fil1" cx="405.38" cy="14.18" r="1.33"/>
  <circle class="fil1" cx="413.99" cy="12.21" r="0.64"/>
  <circle class="fil1" cx="433.94" cy="13.27" r="0.9"/>
  <circle class="fil1" cx="437.55" cy="5.1" r="2.31"/>
  <circle class="fil1" cx="420.19" cy="10.21" r="1.33"/>
  <circle class="fil1" cx="409.03" cy="3.97" r="1.33"/>
  <circle class="fil1" cx="424.97" cy="3.99" r="1.33"/>
  <circle class="fil1" cx="449.58" cy="14.18" r="1.68"/>
  <circle class="fil1" cx="442.18" cy="14.36" r="0.64"/>
  <circle class="fil1" cx="448.83" cy="2.71" r="1.33"/>
  <circle class="fil1" cx="457.24" cy="7.98" r="0.9"/>
  <circle class="fil1" cx="382.3" cy="2.71" r="1.68"/>
  <circle class="fil1" cx="469.21" cy="11.54" r="1.33"/>
  <circle class="fil1" cx="476.5" cy="4.25" r="2.3"/>
  <circle class="fil1" cx="485.55" cy="9.16" r="0.64"/>
  <circle class="fil1" cx="491.81" cy="14.97" r="1.33"/>
  <circle class="fil1" cx="497.27" cy="4.52" r="1.68"/>
  <circle class="fil1" cx="512.93" cy="24.95" r="1.33"/>
  <circle class="fil1" cx="523.32" cy="20.04" r="1.33"/>
  <circle class="fil1" cx="522.62" cy="29.16" r="0.64"/>
  <circle class="fil1" cx="503.51" cy="13.01" r="1.33"/>
  <circle class="fil1" cx="516.54" cy="14.74" r="2.3"/>
  <circle class="fil1" cx="508.96" cy="3.86" r="1.33"/>
  <circle class="fil1" cx="515.66" cy="7.72" r="1.33"/>
  <circle class="fil1" cx="478.45" cy="14.84" r="0.64"/>
  <circle class="fil1" cx="223.74" cy="29.86" r="1.33"/>
  <circle class="fil1" cx="233.53" cy="29.33" r="1.68"/>
  <circle class="fil1" cx="425.1" cy="29.86" r="1.33"/>
  <circle class="fil1" cx="522.62" cy="29.16" r="0.64"/>
  <path class="fil2" d="M528.3 27.01l0.05 -0.01c0.21,-5.29 4.46,-8.73 8.94,-8.8l0 0 61.29 0c4.42,0.12 8.58,3.53 8.81,8.75l0 8.21c2.89,-0.84 5.94,-1.28 9.09,-1.28 3.16,0 6.21,0.44 9.1,1.28l0 -8.32c0.29,-5.2 4.5,-8.58 8.93,-8.64l60.24 0c4.47,0.06 8.72,3.51 8.93,8.8l0 8.16c2.89,-0.84 5.94,-1.28 9.1,-1.28 3.16,0 6.21,0.44 9.09,1.28l0 -8.62 0 -4.1c-0.05,-1.5 -0.17,-2.91 -0.35,-4.24l0 -0.03 -0.02 -0.1 -0.01 -0.1 -0.01 -0.09 -0.04 -0.27 -0.01 -0.02 -0.01 -0.1 -0.02 -0.09 -0.04 -0.29 -0.02 -0.09 0 0 -0.02 -0.09c-0.05,-0.32 -0.11,-0.62 -0.17,-0.93l0 0c-2.28,-11.12 -9.69,-15.44 -21.88,-15.99l-6.02 0 -187.44 0c14.24,0.68 21.92,6.51 22.49,22.42l0 4.1 0 0.48z"/>
 </g>
</svg>
