<?xml version="1.0" encoding="UTF-8"?>
<!DOCTYPE svg PUBLIC "-//W3C//DTD SVG 1.1//EN" "http://www.w3.org/Graphics/SVG/1.1/DTD/svg11.dtd">
<!-- Creator: CorelDRAW 2019 (64-Bit) -->
<svg xmlns="http://www.w3.org/2000/svg" xml:space="preserve" width="735px" height="35px" version="1.1" style="shape-rendering:geometricPrecision; text-rendering:geometricPrecision; image-rendering:optimizeQuality; fill-rule:evenodd; clip-rule:evenodd"
viewBox="0 0 230.78 10.92"
 xmlns:xlink="http://www.w3.org/1999/xlink">
 <defs>
  <style type="text/css">
   <![CDATA[
    .fil0 {fill:#1A1A1A}
    .fil1 {fill:#B3B3B3}
   ]]>
  </style>
 </defs>
 <g id="Слой_x0020_1">
  <metadata id="CorelCorpID_0Corel-Layer"/>
  <path class="fil0" d="M191.33 5.11c1.43,-0.03 2.78,-1.13 2.85,-2.82l0 -2.29c0.92,0.27 1.9,0.41 2.91,0.41 1,0 1.98,-0.14 2.9,-0.41l0 2.36c0.1,1.65 1.44,2.73 2.86,2.75l0 0 19.25 0c1.43,-0.02 2.79,-1.12 2.86,-2.82l0 0 0 -2.29c0.92,0.27 1.9,0.41 2.91,0.41 1.01,0 1.98,-0.14 2.91,-0.41l0 2.45 0 1.31c-0.02,0.48 -0.06,0.92 -0.12,1.35l0 0.02 0 0.04 -0.01 0.03 0 0.03 -0.01 0.04 0 0.02 0 0.01 -0.01 0.03 0 0.04 -0.01 0.03 0 0.03 -0.01 0.04 0 0.01 -0.01 0.02 0 0.03 -0.01 0.03 0 0.03 -0.01 0.04 0 0.03 -0.01 0.03 -0.01 0.03 0 0.04 -0.01 0.03 -0.01 0.03 0 0.02 0 0.01 -0.01 0.03 -0.01 0.03 0 0.03 -0.01 0.03c-0.76,3.41 -3.07,4.75 -6.83,4.95l-93.1 0c4.51,-0.2 6.98,-2.01 7.22,-6.95l0 -1.68c0.07,1.69 1.43,2.8 2.86,2.82l0 0 19.57 0c1.4,-0.02 2.73,-1.07 2.85,-2.7l0 -2.41c0.92,0.27 1.9,0.41 2.91,0.41 1.01,0 1.98,-0.14 2.91,-0.41l0 2.29 0 0c0.07,1.69 1.43,2.8 2.86,2.82l0 0 19.57 0z"/>
  <path class="fil1" d="M130.58 10.92l-1.92 0 -128.66 0 0 -5.81 67.25 0c1.43,-0.02 2.79,-1.12 2.86,-2.82l0 0 0 -2.29c0.92,0.27 1.9,0.41 2.9,0.41 1.01,0 1.99,-0.14 2.91,-0.41l0 2.38c0.11,1.64 1.45,2.71 2.85,2.73l0 0 19.65 0c1.4,-0.06 2.72,-1.15 2.78,-2.81l0 -2.3c0.93,0.27 1.9,0.41 2.91,0.41 1.01,0 1.99,-0.14 2.91,-0.41l0 2.36c0.1,1.64 1.41,2.71 2.81,2.75l19.3 0c1.41,-0.02 2.76,-1.1 2.86,-2.75l0 -2.36c0.92,0.27 1.89,0.41 2.9,0.41 1.01,0 1.99,-0.14 2.91,-0.41l0 2.29 0 1.68c-0.24,4.94 -2.71,6.75 -7.22,6.95z"/>
 </g>
</svg>
