<?xml version="1.0" encoding="UTF-8"?>
<!DOCTYPE svg PUBLIC "-//W3C//DTD SVG 1.1//EN" "http://www.w3.org/Graphics/SVG/1.1/DTD/svg11.dtd">
<!-- Creator: CorelDRAW 2019 (64-Bit) -->
<svg xmlns="http://www.w3.org/2000/svg" xml:space="preserve" width="56px" height="361px" version="1.1" style="shape-rendering:geometricPrecision; text-rendering:geometricPrecision; image-rendering:optimizeQuality; fill-rule:evenodd; clip-rule:evenodd"
viewBox="0 0 1.78 11.47"
 xmlns:xlink="http://www.w3.org/1999/xlink">
 <defs>
  <style type="text/css">
   <![CDATA[
    .fil1 {fill:#EB671F}
    .fil0 {fill:black}
   ]]>
  </style>
 </defs>
 <g id="Слой_x0020_1">
  <metadata id="CorelCorpID_0Corel-Layer"/>
  <rect class="fil0" width="1.78" height="11.47"/>
  <path class="fil1" d="M0 10.55l0.05 0 0.31 0 0.05 0c0.03,0 0.06,0.03 0.06,0.08l0 0c0,0.04 -0.03,0.08 -0.06,0.08l-0.05 0 -0.31 0 -0.05 0 0 -0.08 0 0 0 -0.08z"/>
  <path class="fil1" d="M0 8.41l0.05 0 0.31 0 0.05 0c0.03,0 0.06,0.04 0.06,0.08l0 0c0,0.05 -0.03,0.08 -0.06,0.08l-0.05 0 -0.31 0 -0.05 0 0 -0.08 0 0 0 -0.08z"/>
  <path class="fil1" d="M0 0l0.05 0 0.31 0 0.05 0c0.03,0 0.06,0.04 0.06,0.08l0 0c0,0.04 -0.03,0.08 -0.06,0.08l-0.05 0 -0.31 0 -0.05 0 0 -0.08 0 0 0 -0.08z"/>
  <path class="fil1" d="M0 6.32l0.05 0 0.31 0 0.05 0c0.03,0 0.06,0.03 0.06,0.08l0 0c0,0.04 -0.03,0.08 -0.06,0.08l-0.05 0 -0.31 0 -0.05 0 0 -0.08 0 0 0 -0.08z"/>
  <path class="fil1" d="M0 4.22l0.05 0 0.31 0 0.05 0c0.03,0 0.06,0.04 0.06,0.08l0 0c0,0.04 -0.03,0.08 -0.06,0.08l-0.05 0 -0.31 0 -0.05 0 0 -0.08 0 0 0 -0.08z"/>
  <path class="fil1" d="M0 2.12l0.05 0 0.31 0 0.05 0c0.03,0 0.06,0.04 0.06,0.08l0 0c0,0.05 -0.03,0.08 -0.06,0.08l-0.05 0 -0.31 0 -0.05 0 0 -0.08 0 0 0 -0.08z"/>
 </g>
</svg>
