<?xml version="1.0" encoding="UTF-8"?>
<!DOCTYPE svg PUBLIC "-//W3C//DTD SVG 1.1//EN" "http://www.w3.org/Graphics/SVG/1.1/DTD/svg11.dtd">
<!-- Creator: CorelDRAW 2019 (64-Bit) -->
<svg xmlns="http://www.w3.org/2000/svg" xml:space="preserve" width="67px" height="67px" version="1.1" style="shape-rendering:geometricPrecision; text-rendering:geometricPrecision; image-rendering:optimizeQuality; fill-rule:evenodd; clip-rule:evenodd"
viewBox="0 0 6.77 6.77"
 xmlns:xlink="http://www.w3.org/1999/xlink">
 <defs>
  <style type="text/css">
   <![CDATA[
    .fil2 {fill:#FEFEFE}
    .fil1 {fill:#009846}
    .fil0 {fill:white}
   ]]>
  </style>
 </defs>
 <g id="Слой_x0020_1">
  <metadata id="CorelCorpID_0Corel-Layer"/>
  <g id="_2196745040">
   <circle class="fil0" transform="matrix(0.099897 0.114918 -0.114918 0.099897 3.3869 3.38696)" r="22.24"/>
   <g>
    <circle class="fil1" transform="matrix(0.0899941 0.103526 -0.103526 0.0899941 3.38691 3.38696)" r="22.24"/>
    <circle class="fil2" transform="matrix(0.0655782 0.0754391 -0.0754391 0.0655782 3.38691 3.38696)" r="7.08"/>
    <path class="fil2" d="M4.41 3.86c0.59,-0.34 0.85,-0.8 0.76,-1.39 -0.03,-0.16 -0.12,-0.34 0.08,-0.44 0.12,-0.06 0.27,-0.01 0.32,0.11 0.03,0.05 0.05,0.2 0.06,0.27 0.13,0.9 -0.29,1.56 -1.23,2 -0.12,0.06 -0.26,0.01 -0.32,-0.11 -0.06,-0.12 -0.01,-0.26 0.11,-0.32 0.08,-0.04 0.14,-0.07 0.22,-0.12z"/>
    <path class="fil2" d="M3.6 4.53c0.59,0.34 1.12,0.35 1.59,-0.02 0.12,-0.1 0.23,-0.26 0.42,-0.14 0.11,0.08 0.14,0.23 0.07,0.34 -0.04,0.04 -0.16,0.14 -0.22,0.18 -0.72,0.55 -1.5,0.5 -2.34,-0.1 -0.11,-0.08 -0.14,-0.22 -0.06,-0.33 0.07,-0.12 0.22,-0.14 0.33,-0.07 0.07,0.06 0.13,0.1 0.21,0.14z"/>
    <path class="fil2" d="M2.5 4.09c0.04,0.68 0.33,1.13 0.9,1.31 0.15,0.05 0.35,0.05 0.35,0.28 0,0.13 -0.11,0.24 -0.24,0.23 -0.06,0 -0.21,-0.05 -0.27,-0.07 -0.87,-0.29 -1.26,-0.97 -1.22,-2 0,-0.14 0.11,-0.24 0.24,-0.24 0.14,0 0.24,0.11 0.24,0.24 -0.01,0.09 -0.01,0.16 0,0.25z"/>
    <path class="fil2" d="M2.29 2.99c-0.58,0.36 -0.84,0.82 -0.74,1.41 0.02,0.16 0.12,0.33 -0.08,0.44 -0.12,0.06 -0.26,0.01 -0.33,-0.11 -0.02,-0.05 -0.04,-0.2 -0.05,-0.27 -0.15,-0.9 0.27,-1.57 1.2,-2.01 0.12,-0.06 0.27,-0.02 0.33,0.1 0.06,0.12 0.01,0.27 -0.11,0.32 -0.08,0.05 -0.14,0.07 -0.22,0.12z"/>
    <path class="fil2" d="M3.19 2.24c-0.59,-0.34 -1.12,-0.35 -1.59,0.02 -0.13,0.1 -0.24,0.26 -0.43,0.14 -0.11,-0.08 -0.13,-0.23 -0.06,-0.34 0.03,-0.04 0.16,-0.14 0.21,-0.18 0.73,-0.55 1.51,-0.5 2.35,0.11 0.11,0.07 0.14,0.22 0.06,0.33 -0.08,0.11 -0.23,0.13 -0.33,0.06 -0.08,-0.05 -0.13,-0.1 -0.21,-0.14z"/>
    <path class="fil2" d="M4.3 2.71c-0.01,-0.68 -0.28,-1.14 -0.83,-1.35 -0.15,-0.06 -0.35,-0.07 -0.34,-0.29 0.01,-0.13 0.12,-0.23 0.25,-0.23 0.06,0.01 0.21,0.07 0.27,0.09 0.85,0.34 1.21,1.04 1.12,2.07 -0.01,0.13 -0.13,0.23 -0.26,0.22 -0.13,-0.01 -0.23,-0.13 -0.22,-0.26 0,-0.09 0.01,-0.15 0.01,-0.25z"/>
   </g>
  </g>
 </g>
</svg>
