<?xml version="1.0" encoding="UTF-8"?>
<!DOCTYPE svg PUBLIC "-//W3C//DTD SVG 1.1//EN" "http://www.w3.org/Graphics/SVG/1.1/DTD/svg11.dtd">
<!-- Creator: CorelDRAW 2019 (64-Bit) -->
<svg xmlns="http://www.w3.org/2000/svg" xml:space="preserve" width="67px" height="67px" version="1.1" style="shape-rendering:geometricPrecision; text-rendering:geometricPrecision; image-rendering:optimizeQuality; fill-rule:evenodd; clip-rule:evenodd"
viewBox="0 0 0.87 0.87"
 xmlns:xlink="http://www.w3.org/1999/xlink">
 <defs>
  <style type="text/css">
   <![CDATA[
    .fil2 {fill:#FEFEFE}
    .fil1 {fill:#FF6600}
    .fil0 {fill:white}
   ]]>
  </style>
 </defs>
 <g id="Слой_x0020_1">
  <metadata id="CorelCorpID_0Corel-Layer"/>
  <g id="_1063364592">
   <circle class="fil0" cx="0.43" cy="0.43" r="0.43"/>
   <g>
    <circle class="fil1" cx="0.43" cy="0.43" r="0.39"/>
    <circle class="fil2" cx="0.43" cy="0.43" r="0.09"/>
    <path class="fil2" d="M0.57 0.37c0.01,-0.08 -0.01,-0.15 -0.07,-0.19 -0.02,-0.01 -0.05,-0.01 -0.04,-0.04 0,-0.02 0.02,-0.03 0.04,-0.02 0,0 0.02,0.01 0.03,0.01 0.1,0.07 0.12,0.16 0.09,0.29 -0.01,0.02 -0.02,0.03 -0.04,0.02 -0.02,0 -0.03,-0.02 -0.02,-0.03 0,-0.01 0,-0.02 0.01,-0.04z"/>
    <path class="fil2" d="M0.56 0.51c0.09,-0.03 0.13,-0.08 0.13,-0.16 0.01,-0.02 0,-0.04 0.03,-0.05 0.01,0 0.03,0.01 0.03,0.02 0.01,0.01 0,0.03 0,0.04 0,0.12 -0.07,0.19 -0.2,0.22 -0.02,0 -0.04,-0.01 -0.04,-0.02 0,-0.02 0.01,-0.04 0.02,-0.04 0.01,0 0.02,-0.01 0.03,-0.01z"/>
    <path class="fil2" d="M0.43 0.58c0.07,0.05 0.13,0.06 0.2,0.02 0.02,-0.01 0.03,-0.03 0.06,-0.01 0.01,0.01 0.01,0.03 0,0.04 -0.01,0.01 -0.02,0.02 -0.03,0.02 -0.1,0.06 -0.2,0.04 -0.3,-0.05 -0.01,-0.01 -0.01,-0.03 0,-0.04 0.01,-0.01 0.03,-0.01 0.04,0 0.01,0.01 0.02,0.01 0.03,0.02z"/>
    <path class="fil2" d="M0.3 0.51c-0.01,0.08 0.01,0.15 0.08,0.19 0.01,0.01 0.04,0.01 0.03,0.04 0,0.02 -0.02,0.03 -0.03,0.02 -0.01,0 -0.03,-0.01 -0.04,-0.01 -0.09,-0.07 -0.12,-0.16 -0.09,-0.29 0.01,-0.02 0.02,-0.03 0.04,-0.02 0.02,0 0.02,0.02 0.02,0.04 0,0.01 0,0.02 -0.01,0.03z"/>
    <path class="fil2" d="M0.31 0.36c-0.09,0.03 -0.13,0.08 -0.14,0.15 0,0.02 0.01,0.05 -0.02,0.05 -0.01,0.01 -0.03,0 -0.04,-0.02 0,0 0,-0.02 0.01,-0.03 0,-0.12 0.07,-0.19 0.2,-0.22 0.02,-0.01 0.04,0 0.04,0.02 0,0.02 -0.01,0.03 -0.02,0.04 -0.01,0 -0.02,0 -0.03,0.01z"/>
    <path class="fil2" d="M0.45 0.29c-0.07,-0.06 -0.14,-0.07 -0.21,-0.03 -0.01,0.01 -0.03,0.02 -0.05,0 -0.01,-0.01 -0.01,-0.03 0,-0.04 0,0 0.02,-0.01 0.03,-0.02 0.1,-0.05 0.2,-0.03 0.29,0.07 0.01,0.01 0.01,0.03 0,0.04 -0.01,0.01 -0.03,0.01 -0.04,0 -0.01,-0.01 -0.02,-0.01 -0.02,-0.02z"/>
   </g>
  </g>
 </g>
</svg>
