<?xml version="1.0" encoding="UTF-8"?>
<!DOCTYPE svg PUBLIC "-//W3C//DTD SVG 1.1//EN" "http://www.w3.org/Graphics/SVG/1.1/DTD/svg11.dtd">
<!-- Creator: CorelDRAW 2019 (64-Bit) -->
<svg xmlns="http://www.w3.org/2000/svg" xml:space="preserve" width="67px" height="67px" version="1.1" style="shape-rendering:geometricPrecision; text-rendering:geometricPrecision; image-rendering:optimizeQuality; fill-rule:evenodd; clip-rule:evenodd"
viewBox="0 0 6.77 6.77"
 xmlns:xlink="http://www.w3.org/1999/xlink">
 <defs>
  <style type="text/css">
   <![CDATA[
    .fil2 {fill:#FEFEFE}
    .fil1 {fill:#009846}
    .fil0 {fill:white}
   ]]>
  </style>
 </defs>
 <g id="Слой_x0020_1">
  <metadata id="CorelCorpID_0Corel-Layer"/>
  <g id="_1063579792">
   <circle class="fil0" transform="matrix(0.142119 0.0545545 -0.0545545 0.142119 3.38705 3.3871)" r="22.24"/>
   <g>
    <circle class="fil1" transform="matrix(0.128031 0.0491465 -0.0491465 0.128031 3.38705 3.3871)" r="22.24"/>
    <circle class="fil2" transform="matrix(0.0932955 0.0358128 -0.0358128 0.0932955 3.38705 3.3871)" r="7.08"/>
    <path class="fil2" d="M4.52 3.33c0.35,-0.58 0.37,-1.12 0.01,-1.59 -0.1,-0.13 -0.26,-0.24 -0.13,-0.43 0.07,-0.1 0.22,-0.13 0.33,-0.05 0.05,0.03 0.14,0.16 0.18,0.21 0.54,0.74 0.47,1.52 -0.15,2.34 -0.08,0.11 -0.22,0.14 -0.33,0.06 -0.11,-0.08 -0.13,-0.23 -0.06,-0.34 0.06,-0.07 0.1,-0.12 0.15,-0.2z"/>
    <path class="fil2" d="M4.11 4.3c0.68,0.02 1.16,-0.22 1.4,-0.76 0.06,-0.15 0.08,-0.35 0.3,-0.33 0.14,0.02 0.23,0.14 0.22,0.27 -0.01,0.06 -0.08,0.2 -0.11,0.25 -0.37,0.84 -1.09,1.16 -2.11,1.02 -0.13,-0.01 -0.23,-0.13 -0.21,-0.26 0.01,-0.14 0.13,-0.23 0.26,-0.22 0.09,0.02 0.16,0.03 0.25,0.03z"/>
    <path class="fil2" d="M2.93 4.43c0.36,0.57 0.83,0.83 1.41,0.73 0.16,-0.03 0.34,-0.12 0.44,0.08 0.06,0.12 0.02,0.26 -0.1,0.32 -0.05,0.03 -0.21,0.05 -0.27,0.06 -0.9,0.15 -1.57,-0.26 -2.02,-1.19 -0.06,-0.12 -0.02,-0.27 0.1,-0.33 0.12,-0.06 0.27,-0.01 0.32,0.11 0.05,0.08 0.07,0.14 0.12,0.22z"/>
    <path class="fil2" d="M2.23 3.56c-0.34,0.58 -0.36,1.11 0.01,1.58 0.1,0.13 0.26,0.24 0.13,0.43 -0.07,0.11 -0.22,0.13 -0.33,0.06 -0.05,-0.04 -0.14,-0.16 -0.18,-0.21 -0.55,-0.74 -0.49,-1.52 0.12,-2.35 0.08,-0.11 0.23,-0.13 0.33,-0.06 0.12,0.08 0.14,0.23 0.06,0.34 -0.05,0.07 -0.09,0.12 -0.14,0.21z"/>
    <path class="fil2" d="M2.67 2.47c-0.68,-0.03 -1.15,0.22 -1.39,0.76 -0.07,0.15 -0.09,0.35 -0.31,0.32 -0.13,-0.01 -0.23,-0.13 -0.21,-0.26 0,-0.06 0.07,-0.2 0.1,-0.26 0.38,-0.83 1.09,-1.16 2.12,-1.01 0.13,0.01 0.22,0.13 0.21,0.26 -0.02,0.14 -0.14,0.23 -0.27,0.21 -0.09,-0.01 -0.16,-0.02 -0.25,-0.02z"/>
    <path class="fil2" d="M3.88 2.36c-0.33,-0.59 -0.78,-0.87 -1.37,-0.8 -0.16,0.02 -0.34,0.11 -0.44,-0.1 -0.05,-0.12 0,-0.26 0.12,-0.32 0.05,-0.02 0.21,-0.04 0.27,-0.04 0.91,-0.1 1.56,0.34 1.96,1.3 0.06,0.12 0,0.26 -0.12,0.31 -0.12,0.06 -0.26,0 -0.32,-0.12 -0.03,-0.08 -0.06,-0.15 -0.1,-0.23z"/>
   </g>
  </g>
 </g>
</svg>
