<?xml version="1.0" encoding="UTF-8"?>
<!DOCTYPE svg PUBLIC "-//W3C//DTD SVG 1.1//EN" "http://www.w3.org/Graphics/SVG/1.1/DTD/svg11.dtd">
<!-- Creator: CorelDRAW 2019 (64-Bit) -->
<svg xmlns="http://www.w3.org/2000/svg" xml:space="preserve" width="67px" height="67px" version="1.1" style="shape-rendering:geometricPrecision; text-rendering:geometricPrecision; image-rendering:optimizeQuality; fill-rule:evenodd; clip-rule:evenodd"
viewBox="0 0 6.77 6.77"
 xmlns:xlink="http://www.w3.org/1999/xlink">
 <defs>
  <style type="text/css">
   <![CDATA[
    .fil2 {fill:#FEFEFE}
    .fil1 {fill:#009846}
    .fil0 {fill:white}
   ]]>
  </style>
 </defs>
 <g id="Слой_x0020_1">
  <metadata id="CorelCorpID_0Corel-Layer"/>
  <g id="_2275234144">
   <circle class="fil0" transform="matrix(0.124722 0.0873313 -0.0873313 0.124722 3.38704 3.3871)" r="22.24"/>
   <g>
    <circle class="fil1" transform="matrix(0.112358 0.0786741 -0.0786741 0.112358 3.38705 3.3871)" r="22.24"/>
    <circle class="fil2" transform="matrix(0.0818749 0.0573294 -0.0573294 0.0818749 3.38705 3.3871)" r="7.08"/>
    <path class="fil2" d="M4.5 3.6c0.48,-0.48 0.63,-0.99 0.39,-1.54 -0.06,-0.14 -0.19,-0.29 -0.02,-0.44 0.1,-0.09 0.25,-0.08 0.34,0.02 0.04,0.05 0.09,0.19 0.12,0.25 0.34,0.85 0.09,1.59 -0.71,2.24 -0.1,0.09 -0.25,0.08 -0.34,-0.02 -0.09,-0.11 -0.07,-0.26 0.03,-0.34 0.07,-0.06 0.12,-0.1 0.19,-0.17z"/>
    <path class="fil2" d="M3.87 4.45c0.65,0.18 1.17,0.06 1.54,-0.41 0.1,-0.12 0.16,-0.31 0.37,-0.23 0.13,0.04 0.19,0.18 0.15,0.3 -0.02,0.06 -0.12,0.18 -0.16,0.23 -0.57,0.71 -1.35,0.86 -2.3,0.47 -0.13,-0.04 -0.19,-0.18 -0.15,-0.31 0.05,-0.12 0.19,-0.18 0.31,-0.14 0.09,0.04 0.15,0.06 0.24,0.09z"/>
    <path class="fil2" d="M2.69 4.29c0.21,0.64 0.6,1.01 1.19,1.05 0.17,0.01 0.36,-0.04 0.41,0.18 0.03,0.13 -0.05,0.26 -0.17,0.29 -0.06,0.01 -0.22,0 -0.28,-0.01 -0.91,-0.07 -1.46,-0.64 -1.67,-1.65 -0.03,-0.13 0.05,-0.25 0.17,-0.29 0.14,-0.03 0.26,0.06 0.29,0.18 0.02,0.09 0.04,0.16 0.06,0.25z"/>
    <path class="fil2" d="M2.22 3.27c-0.47,0.49 -0.61,1 -0.37,1.54 0.06,0.15 0.2,0.3 0.02,0.45 -0.09,0.08 -0.25,0.08 -0.33,-0.02 -0.04,-0.05 -0.1,-0.19 -0.12,-0.25 -0.36,-0.85 -0.12,-1.59 0.68,-2.25 0.1,-0.09 0.25,-0.08 0.34,0.02 0.09,0.11 0.07,0.26 -0.03,0.34 -0.07,0.06 -0.12,0.1 -0.19,0.17z"/>
    <path class="fil2" d="M2.91 2.32c-0.65,-0.18 -1.17,-0.07 -1.53,0.4 -0.1,0.13 -0.17,0.32 -0.38,0.24 -0.12,-0.04 -0.19,-0.18 -0.14,-0.31 0.02,-0.05 0.12,-0.17 0.16,-0.22 0.57,-0.72 1.34,-0.86 2.3,-0.47 0.12,0.05 0.19,0.18 0.14,0.31 -0.05,0.13 -0.19,0.18 -0.31,0.14 -0.08,-0.04 -0.15,-0.06 -0.24,-0.09z"/>
    <path class="fil2" d="M4.11 2.51c-0.18,-0.65 -0.54,-1.04 -1.13,-1.11 -0.16,-0.02 -0.36,0.02 -0.4,-0.2 -0.03,-0.13 0.06,-0.26 0.19,-0.28 0.06,-0.01 0.21,0.01 0.28,0.02 0.9,0.12 1.42,0.71 1.58,1.73 0.02,0.13 -0.06,0.26 -0.19,0.28 -0.14,0.03 -0.26,-0.06 -0.28,-0.19 -0.02,-0.09 -0.02,-0.16 -0.05,-0.25z"/>
   </g>
  </g>
 </g>
</svg>
