<?xml version="1.0" encoding="UTF-8"?>
<!DOCTYPE svg PUBLIC "-//W3C//DTD SVG 1.1//EN" "http://www.w3.org/Graphics/SVG/1.1/DTD/svg11.dtd">
<!-- Creator: CorelDRAW 2019 (64-Bit) -->
<svg xmlns="http://www.w3.org/2000/svg" xml:space="preserve" width="67px" height="67px" version="1.1" style="shape-rendering:geometricPrecision; text-rendering:geometricPrecision; image-rendering:optimizeQuality; fill-rule:evenodd; clip-rule:evenodd"
viewBox="0 0 0.9 0.9"
 xmlns:xlink="http://www.w3.org/1999/xlink">
 <defs>
  <style type="text/css">
   <![CDATA[
    .fil2 {fill:#FEFEFE}
    .fil1 {fill:blue}
    .fil0 {fill:white}
   ]]>
  </style>
 </defs>
 <g id="Слой_x0020_1">
  <metadata id="CorelCorpID_0Corel-Layer"/>
  <g id="_1166473680">
   <circle class="fil0" transform="matrix(0.099897 0.114918 -0.114918 0.099897 0.451002 0.450994)" r="2.96"/>
   <g>
    <circle class="fil1" transform="matrix(0.0899941 0.103526 -0.103526 0.0899941 0.451003 0.450994)" r="2.96"/>
    <circle class="fil2" transform="matrix(0.0655782 0.0754391 -0.0754391 0.0655782 0.451003 0.450994)" r="0.94"/>
    <path class="fil2" d="M0.59 0.51c0.08,-0.04 0.11,-0.1 0.1,-0.18 -0.01,-0.02 -0.02,-0.05 0.01,-0.06 0.02,-0.01 0.03,0 0.04,0.01 0.01,0.01 0.01,0.03 0.01,0.04 0.02,0.12 -0.04,0.21 -0.16,0.27 -0.02,0 -0.04,0 -0.05,-0.02 0,-0.01 0,-0.03 0.02,-0.04 0.01,-0.01 0.02,-0.01 0.03,-0.02z"/>
    <path class="fil2" d="M0.48 0.6c0.08,0.05 0.15,0.05 0.21,0 0.02,-0.01 0.03,-0.03 0.06,-0.02 0.01,0.01 0.02,0.03 0.01,0.05 -0.01,0 -0.03,0.02 -0.03,0.02 -0.1,0.07 -0.2,0.07 -0.31,-0.01 -0.02,-0.01 -0.02,-0.03 -0.01,-0.05 0.01,-0.01 0.03,-0.01 0.04,0 0.01,0 0.02,0.01 0.03,0.01z"/>
    <path class="fil2" d="M0.33 0.55c0.01,0.09 0.05,0.14 0.12,0.17 0.02,0.01 0.05,0.01 0.05,0.04 0,0.01 -0.02,0.03 -0.03,0.03 -0.01,0 -0.03,-0.01 -0.04,-0.01 -0.11,-0.04 -0.17,-0.13 -0.16,-0.27 0,-0.02 0.01,-0.03 0.03,-0.03 0.02,0 0.03,0.01 0.03,0.03 0,0.01 0,0.02 0,0.04z"/>
    <path class="fil2" d="M0.3 0.4c-0.07,0.05 -0.11,0.11 -0.09,0.19 0,0.02 0.01,0.04 -0.01,0.05 -0.02,0.01 -0.04,0.01 -0.05,-0.01 0,-0.01 0,-0.03 -0.01,-0.04 -0.01,-0.12 0.04,-0.2 0.17,-0.26 0.01,-0.01 0.03,-0.01 0.04,0.01 0.01,0.02 0,0.04 -0.02,0.04 -0.01,0.01 -0.01,0.01 -0.03,0.02z"/>
    <path class="fil2" d="M0.42 0.3c-0.07,-0.05 -0.14,-0.05 -0.21,0 -0.01,0.01 -0.03,0.04 -0.05,0.02 -0.02,-0.01 -0.02,-0.03 -0.01,-0.05 0,0 0.02,-0.01 0.03,-0.02 0.09,-0.07 0.2,-0.07 0.31,0.01 0.01,0.01 0.02,0.03 0.01,0.05 -0.01,0.01 -0.03,0.02 -0.05,0.01 -0.01,-0.01 -0.01,-0.02 -0.03,-0.02z"/>
    <path class="fil2" d="M0.57 0.36c0,-0.09 -0.03,-0.15 -0.11,-0.18 -0.02,-0.01 -0.04,-0.01 -0.04,-0.04 0,-0.02 0.01,-0.03 0.03,-0.03 0.01,0 0.03,0.01 0.04,0.01 0.11,0.05 0.16,0.14 0.14,0.28 0,0.02 -0.01,0.03 -0.03,0.03 -0.02,0 -0.03,-0.02 -0.03,-0.04 0,-0.01 0,-0.02 0,-0.03z"/>
   </g>
  </g>
 </g>
</svg>
