<?xml version="1.0" encoding="UTF-8"?>
<!DOCTYPE svg PUBLIC "-//W3C//DTD SVG 1.1//EN" "http://www.w3.org/Graphics/SVG/1.1/DTD/svg11.dtd">
<!-- Creator: CorelDRAW 2019 (64-Bit) -->
<svg xmlns="http://www.w3.org/2000/svg" xml:space="preserve" width="67px" height="67px" version="1.1" style="shape-rendering:geometricPrecision; text-rendering:geometricPrecision; image-rendering:optimizeQuality; fill-rule:evenodd; clip-rule:evenodd"
viewBox="0 0 0.87 0.86"
 xmlns:xlink="http://www.w3.org/1999/xlink">
 <defs>
  <style type="text/css">
   <![CDATA[
    .fil2 {fill:#FEFEFE}
    .fil1 {fill:#FF6600}
    .fil0 {fill:white}
   ]]>
  </style>
 </defs>
 <g id="Слой_x0020_1">
  <metadata id="CorelCorpID_0Corel-Layer"/>
  <g id="_1311513328">
   <circle class="fil0" transform="matrix(0.113157 0.101286 -0.101887 0.112489 0.43406 0.431512)" r="2.85"/>
   <g>
    <circle class="fil1" transform="matrix(0.10194 0.0912451 -0.0917872 0.101338 0.43406 0.431511)" r="2.85"/>
    <circle class="fil2" transform="matrix(0.0742832 0.0664899 -0.0668848 0.0738445 0.43406 0.431511)" r="0.91"/>
    <path class="fil2" d="M0.57 0.48c0.07,-0.06 0.1,-0.12 0.08,-0.19 -0.01,-0.02 -0.02,-0.04 0,-0.06 0.01,-0.01 0.03,0 0.04,0.01 0.01,0.01 0.01,0.02 0.01,0.03 0.04,0.12 -0.01,0.21 -0.12,0.27 -0.02,0.01 -0.03,0.01 -0.04,0 -0.01,-0.02 -0.01,-0.04 0.01,-0.05 0.01,0 0.01,-0.01 0.02,-0.01z"/>
    <path class="fil2" d="M0.48 0.57c0.08,0.04 0.15,0.03 0.2,-0.02 0.02,-0.02 0.03,-0.04 0.05,-0.03 0.02,0.01 0.02,0.03 0.02,0.04 -0.01,0.01 -0.02,0.02 -0.03,0.03 -0.08,0.08 -0.18,0.09 -0.3,0.02 -0.01,0 -0.02,-0.02 -0.01,-0.04 0.01,-0.01 0.03,-0.02 0.04,-0.01 0.01,0 0.02,0.01 0.03,0.01z"/>
    <path class="fil2" d="M0.33 0.53c0.02,0.09 0.06,0.14 0.14,0.16 0.02,0 0.04,0 0.05,0.03 0,0.01 -0.01,0.03 -0.03,0.03 -0.01,0 -0.03,0 -0.04,-0.01 -0.11,-0.02 -0.17,-0.1 -0.18,-0.23 0,-0.02 0.01,-0.03 0.02,-0.03 0.02,-0.01 0.04,0.01 0.04,0.02 0,0.01 0,0.02 0,0.03z"/>
    <path class="fil2" d="M0.29 0.4c-0.07,0.05 -0.1,0.12 -0.07,0.19 0,0.02 0.02,0.04 -0.01,0.05 -0.01,0.01 -0.03,0.01 -0.04,0 0,-0.01 -0.01,-0.03 -0.01,-0.04 -0.03,-0.11 0.01,-0.2 0.12,-0.27 0.01,-0.01 0.03,-0.01 0.04,0.01 0.01,0.01 0.01,0.03 -0.01,0.04 -0.01,0.01 -0.01,0.01 -0.02,0.02z"/>
    <path class="fil2" d="M0.39 0.29c-0.08,-0.03 -0.15,-0.03 -0.2,0.03 -0.02,0.01 -0.03,0.03 -0.05,0.02 -0.02,-0.01 -0.02,-0.03 -0.02,-0.04 0.01,-0.01 0.02,-0.02 0.03,-0.03 0.08,-0.08 0.18,-0.08 0.3,-0.02 0.01,0.01 0.02,0.03 0.01,0.04 -0.01,0.02 -0.03,0.02 -0.04,0.01 -0.01,0 -0.02,-0.01 -0.03,-0.01z"/>
    <path class="fil2" d="M0.54 0.33c-0.01,-0.08 -0.05,-0.14 -0.13,-0.16 -0.02,0 -0.04,0 -0.04,-0.03 -0.01,-0.01 0.01,-0.03 0.02,-0.03 0.01,0 0.03,0 0.04,0.01 0.11,0.03 0.17,0.11 0.17,0.24 0,0.02 -0.01,0.03 -0.03,0.03 -0.01,0 -0.03,-0.01 -0.03,-0.03 0,-0.01 0,-0.02 0,-0.03z"/>
   </g>
  </g>
 </g>
</svg>
