<?xml version="1.0" encoding="UTF-8"?>
<!DOCTYPE svg PUBLIC "-//W3C//DTD SVG 1.1//EN" "http://www.w3.org/Graphics/SVG/1.1/DTD/svg11.dtd">
<!-- Creator: CorelDRAW 2019 (64-Bit) -->
<svg xmlns="http://www.w3.org/2000/svg" xml:space="preserve" width="162px" height="29px" version="1.1" style="shape-rendering:geometricPrecision; text-rendering:geometricPrecision; image-rendering:optimizeQuality; fill-rule:evenodd; clip-rule:evenodd"
viewBox="0 0 4.04 0.72"
 xmlns:xlink="http://www.w3.org/1999/xlink">
 <defs>
  <style type="text/css">
   <![CDATA[
    .fil0 {fill:#00A0E3}
    .fil1 {fill:black}
   ]]>
  </style>
 </defs>
 <g id="Слой_x0020_1">
  <metadata id="CorelCorpID_0Corel-Layer"/>
  <path class="fil0" d="M0 0.14l0 0.44c0,0.08 0.05,0.14 0.11,0.14l3.81 0c0.07,0 0.12,-0.06 0.12,-0.14l0 -0.44c0,-0.08 -0.05,-0.14 -0.12,-0.14l-3.81 0c-0.06,0 -0.11,0.06 -0.11,0.14z"/>
  <path class="fil1" d="M0.08 0.13l0 0.46c0,0.04 0.03,0.07 0.06,0.07l3.76 0c0.04,0 0.06,-0.03 0.06,-0.07l0 -0.46c0,-0.04 -0.02,-0.07 -0.06,-0.07l-3.76 0c-0.03,0 -0.06,0.03 -0.06,0.07z"/>
 </g>
</svg>
