<?xml version="1.0" encoding="UTF-8"?>
<!DOCTYPE svg PUBLIC "-//W3C//DTD SVG 1.1//EN" "http://www.w3.org/Graphics/SVG/1.1/DTD/svg11.dtd">
<!-- Creator: CorelDRAW 2019 (64-Bit) -->
<svg xmlns="http://www.w3.org/2000/svg" xml:space="preserve" width="67px" height="67px" version="1.1" style="shape-rendering:geometricPrecision; text-rendering:geometricPrecision; image-rendering:optimizeQuality; fill-rule:evenodd; clip-rule:evenodd"
viewBox="0 0 0.9 0.9"
 xmlns:xlink="http://www.w3.org/1999/xlink">
 <defs>
  <style type="text/css">
   <![CDATA[
    .fil2 {fill:#FEFEFE}
    .fil1 {fill:blue}
    .fil0 {fill:white}
   ]]>
  </style>
 </defs>
 <g id="Слой_x0020_1">
  <metadata id="CorelCorpID_0Corel-Layer"/>
  <g id="_1063355184">
   <circle class="fil0" transform="matrix(0.124722 0.0873313 -0.0873313 0.124722 0.451003 0.450995)" r="2.96"/>
   <g>
    <circle class="fil1" transform="matrix(0.112358 0.0786741 -0.0786741 0.112358 0.451004 0.450995)" r="2.96"/>
    <circle class="fil2" transform="matrix(0.0818749 0.0573294 -0.0573294 0.0818749 0.451004 0.450995)" r="0.94"/>
    <path class="fil2" d="M0.6 0.48c0.06,-0.06 0.08,-0.13 0.05,-0.21 -0.01,-0.01 -0.02,-0.03 0,-0.05 0.01,-0.02 0.03,-0.01 0.04,0 0.01,0 0.02,0.02 0.02,0.03 0.05,0.11 0.01,0.21 -0.1,0.3 -0.01,0.01 -0.03,0.01 -0.04,0 -0.01,-0.02 -0.01,-0.04 0,-0.05 0.01,-0.01 0.02,-0.01 0.03,-0.02z"/>
    <path class="fil2" d="M0.52 0.59c0.08,0.03 0.15,0.01 0.2,-0.05 0.01,-0.02 0.02,-0.04 0.05,-0.03 0.02,0 0.03,0.02 0.02,0.04 0,0 -0.02,0.02 -0.02,0.03 -0.08,0.09 -0.18,0.11 -0.31,0.06 -0.02,-0.01 -0.02,-0.02 -0.02,-0.04 0.01,-0.02 0.03,-0.03 0.04,-0.02 0.02,0.01 0.02,0.01 0.04,0.01z"/>
    <path class="fil2" d="M0.36 0.57c0.03,0.09 0.08,0.14 0.16,0.14 0.02,0 0.04,0 0.05,0.03 0.01,0.01 0,0.03 -0.02,0.03 -0.01,0.01 -0.03,0 -0.04,0 -0.12,-0.01 -0.19,-0.08 -0.22,-0.22 -0.01,-0.01 0.01,-0.03 0.02,-0.04 0.02,0 0.04,0.01 0.04,0.03 0,0.01 0,0.02 0.01,0.03z"/>
    <path class="fil2" d="M0.3 0.44c-0.07,0.06 -0.09,0.13 -0.05,0.2 0,0.02 0.02,0.04 0,0.06 -0.01,0.01 -0.03,0.01 -0.05,0 0,-0.01 -0.01,-0.03 -0.01,-0.04 -0.05,-0.11 -0.02,-0.21 0.09,-0.3 0.01,-0.01 0.03,-0.01 0.04,0.01 0.02,0.01 0.01,0.03 0,0.04 -0.01,0.01 -0.02,0.02 -0.02,0.03z"/>
    <path class="fil2" d="M0.39 0.31c-0.09,-0.03 -0.16,-0.01 -0.21,0.05 -0.01,0.02 -0.02,0.04 -0.05,0.03 -0.01,0 -0.02,-0.02 -0.02,-0.04 0.01,0 0.02,-0.02 0.03,-0.03 0.07,-0.09 0.17,-0.11 0.3,-0.06 0.02,0.01 0.03,0.03 0.02,0.04 -0.01,0.02 -0.02,0.03 -0.04,0.02 -0.01,0 -0.02,-0.01 -0.03,-0.01z"/>
    <path class="fil2" d="M0.55 0.33c-0.03,-0.08 -0.08,-0.13 -0.15,-0.14 -0.02,-0.01 -0.05,0 -0.06,-0.03 0,-0.02 0.01,-0.03 0.03,-0.04 0.01,0 0.03,0 0.04,0.01 0.12,0.01 0.19,0.09 0.21,0.23 0,0.01 -0.01,0.03 -0.03,0.03 -0.02,0.01 -0.03,-0.01 -0.04,-0.02 0,-0.01 0,-0.02 0,-0.04z"/>
   </g>
  </g>
 </g>
</svg>
