<?xml version="1.0" encoding="UTF-8"?>
<!DOCTYPE svg PUBLIC "-//W3C//DTD SVG 1.1//EN" "http://www.w3.org/Graphics/SVG/1.1/DTD/svg11.dtd">
<!-- Creator: CorelDRAW 2019 (64-Bit) -->
<svg xmlns="http://www.w3.org/2000/svg" xml:space="preserve" width="67px" height="67px" version="1.1" style="shape-rendering:geometricPrecision; text-rendering:geometricPrecision; image-rendering:optimizeQuality; fill-rule:evenodd; clip-rule:evenodd"
viewBox="0 0 0.87 0.87"
 xmlns:xlink="http://www.w3.org/1999/xlink">
 <defs>
  <style type="text/css">
   <![CDATA[
    .fil2 {fill:#FEFEFE}
    .fil1 {fill:#FF6600}
    .fil0 {fill:white}
   ]]>
  </style>
 </defs>
 <g id="Слой_x0020_1">
  <metadata id="CorelCorpID_0Corel-Layer"/>
  <g id="_1161897008">
   <circle class="fil0" transform="matrix(0.151117 0.0185552 -0.0185549 0.15112 0.434063 0.434068)" r="2.85"/>
   <g>
    <circle class="fil1" transform="matrix(0.136137 0.0167158 -0.0167155 0.136139 0.434063 0.434068)" r="2.85"/>
    <circle class="fil2" transform="matrix(0.0992022 0.0121807 -0.0121805 0.099204 0.434063 0.434068)" r="0.91"/>
    <path class="fil2" d="M0.57 0.39c0.03,-0.08 0.01,-0.15 -0.04,-0.2 -0.02,-0.01 -0.05,-0.02 -0.03,-0.05 0,-0.01 0.02,-0.02 0.04,-0.01 0,0 0.02,0.01 0.02,0.02 0.09,0.07 0.11,0.17 0.06,0.29 -0.01,0.02 -0.03,0.03 -0.04,0.02 -0.02,0 -0.02,-0.02 -0.02,-0.04 0.01,-0.01 0.01,-0.02 0.01,-0.03z"/>
    <path class="fil2" d="M0.55 0.53c0.09,-0.02 0.14,-0.07 0.15,-0.14 0.01,-0.02 0,-0.05 0.03,-0.05 0.02,-0.01 0.03,0.01 0.04,0.02 0,0.01 -0.01,0.03 -0.01,0.04 -0.02,0.11 -0.1,0.18 -0.23,0.19 -0.02,0 -0.03,-0.01 -0.04,-0.03 0,-0.01 0.01,-0.03 0.03,-0.03 0.01,0 0.02,0 0.03,0z"/>
    <path class="fil2" d="M0.41 0.58c0.06,0.06 0.13,0.08 0.2,0.05 0.02,-0.01 0.04,-0.03 0.05,-0.01 0.02,0.01 0.02,0.03 0,0.04 0,0.01 -0.02,0.02 -0.03,0.02 -0.11,0.05 -0.2,0.02 -0.29,-0.09 -0.01,-0.01 -0.01,-0.03 0,-0.04 0.02,-0.01 0.04,-0.01 0.05,0 0.01,0.01 0.01,0.02 0.02,0.03z"/>
    <path class="fil2" d="M0.3 0.49c-0.03,0.08 -0.01,0.15 0.05,0.2 0.01,0.01 0.04,0.02 0.03,0.05 -0.01,0.01 -0.03,0.02 -0.04,0.01 -0.01,0 -0.03,-0.01 -0.03,-0.02 -0.09,-0.07 -0.11,-0.17 -0.06,-0.29 0.01,-0.02 0.02,-0.03 0.04,-0.02 0.02,0.01 0.02,0.03 0.02,0.04 -0.01,0.01 -0.01,0.02 -0.01,0.03z"/>
    <path class="fil2" d="M0.32 0.34c-0.09,0.02 -0.14,0.06 -0.15,0.14 -0.01,0.02 0,0.05 -0.03,0.05 -0.02,0 -0.03,-0.01 -0.04,-0.03 0,0 0.01,-0.02 0.01,-0.03 0.02,-0.12 0.1,-0.18 0.23,-0.19 0.02,-0.01 0.03,0.01 0.04,0.02 0,0.02 -0.02,0.04 -0.03,0.04 -0.01,0 -0.02,0 -0.03,0z"/>
    <path class="fil2" d="M0.46 0.29c-0.06,-0.06 -0.12,-0.08 -0.19,-0.06 -0.02,0.01 -0.04,0.03 -0.06,0.01 -0.01,-0.02 -0.01,-0.04 0.01,-0.05 0,0 0.02,-0.01 0.03,-0.01 0.11,-0.04 0.2,-0.01 0.28,0.1 0.01,0.01 0.01,0.03 0,0.04 -0.02,0.01 -0.04,0.01 -0.05,0 0,-0.01 -0.01,-0.02 -0.02,-0.03z"/>
   </g>
  </g>
 </g>
</svg>
