<?xml version="1.0" encoding="UTF-8"?>
<!DOCTYPE svg PUBLIC "-//W3C//DTD SVG 1.1//EN" "http://www.w3.org/Graphics/SVG/1.1/DTD/svg11.dtd">
<!-- Creator: CorelDRAW 2019 (64-Bit) -->
<svg xmlns="http://www.w3.org/2000/svg" xml:space="preserve" width="67px" height="67px" version="1.1" style="shape-rendering:geometricPrecision; text-rendering:geometricPrecision; image-rendering:optimizeQuality; fill-rule:evenodd; clip-rule:evenodd"
viewBox="0 0 0.9 0.9"
 xmlns:xlink="http://www.w3.org/1999/xlink">
 <defs>
  <style type="text/css">
   <![CDATA[
    .fil2 {fill:#FEFEFE}
    .fil1 {fill:blue}
    .fil0 {fill:white}
   ]]>
  </style>
 </defs>
 <g id="Слой_x0020_1">
  <metadata id="CorelCorpID_0Corel-Layer"/>
  <g id="_1297976208">
   <circle class="fil0" transform="matrix(0.134421 0.0714717 -0.071473 0.134419 0.451004 0.450995)" r="2.96"/>
   <g>
    <circle class="fil1" transform="matrix(0.121096 0.0643866 -0.0643878 0.121094 0.451004 0.450995)" r="2.96"/>
    <circle class="fil2" transform="matrix(0.0882419 0.0469182 -0.046919 0.0882403 0.451004 0.450995)" r="0.94"/>
    <path class="fil2" d="M0.6 0.46c0.06,-0.07 0.07,-0.14 0.03,-0.21 -0.01,-0.02 -0.03,-0.03 -0.01,-0.06 0.01,-0.01 0.03,-0.01 0.04,0 0.01,0.01 0.02,0.02 0.02,0.03 0.06,0.11 0.04,0.21 -0.05,0.31 -0.02,0.01 -0.04,0.01 -0.05,0 -0.01,-0.01 -0.01,-0.03 0,-0.04 0.01,-0.01 0.01,-0.02 0.02,-0.03z"/>
    <path class="fil2" d="M0.53 0.58c0.09,0.02 0.16,-0.01 0.2,-0.07 0.01,-0.02 0.02,-0.05 0.04,-0.04 0.02,0 0.03,0.02 0.03,0.04 0,0 -0.01,0.02 -0.02,0.03 -0.06,0.1 -0.16,0.13 -0.3,0.1 -0.01,-0.01 -0.02,-0.02 -0.02,-0.04 0,-0.02 0.02,-0.03 0.04,-0.02 0.01,0 0.02,0 0.03,0z"/>
    <path class="fil2" d="M0.37 0.58c0.04,0.08 0.1,0.13 0.18,0.12 0.02,0 0.04,-0.01 0.06,0.02 0,0.01 -0.01,0.03 -0.02,0.04 -0.01,0 -0.03,0 -0.04,0 -0.12,0.01 -0.2,-0.06 -0.25,-0.19 0,-0.01 0,-0.03 0.02,-0.04 0.02,-0.01 0.04,0 0.04,0.02 0.01,0.01 0.01,0.02 0.01,0.03z"/>
    <path class="fil2" d="M0.3 0.45c-0.06,0.08 -0.07,0.15 -0.03,0.21 0.01,0.02 0.03,0.04 0.01,0.06 -0.01,0.02 -0.03,0.02 -0.04,0.01 -0.01,-0.01 -0.02,-0.03 -0.02,-0.04 -0.06,-0.1 -0.04,-0.2 0.05,-0.3 0.01,-0.02 0.03,-0.02 0.05,-0.01 0.01,0.02 0.01,0.04 0,0.05 -0.01,0.01 -0.02,0.01 -0.02,0.02z"/>
    <path class="fil2" d="M0.37 0.32c-0.09,-0.02 -0.15,0.01 -0.2,0.08 -0.01,0.01 -0.01,0.04 -0.04,0.03 -0.02,0 -0.03,-0.02 -0.02,-0.03 0,-0.01 0.01,-0.03 0.01,-0.04 0.07,-0.1 0.17,-0.13 0.3,-0.1 0.02,0.01 0.03,0.02 0.02,0.04 0,0.02 -0.02,0.03 -0.04,0.03 -0.01,-0.01 -0.02,-0.01 -0.03,-0.01z"/>
    <path class="fil2" d="M0.53 0.32c-0.03,-0.08 -0.09,-0.12 -0.17,-0.12 -0.02,0 -0.04,0 -0.05,-0.03 -0.01,-0.01 0,-0.03 0.02,-0.04 0.01,0 0.03,0 0.04,0 0.12,0 0.2,0.07 0.23,0.21 0.01,0.01 0,0.03 -0.02,0.04 -0.01,0 -0.03,-0.01 -0.04,-0.02 0,-0.02 0,-0.02 -0.01,-0.04z"/>
   </g>
  </g>
 </g>
</svg>
