<?xml version="1.0" encoding="UTF-8"?>
<!DOCTYPE svg PUBLIC "-//W3C//DTD SVG 1.1//EN" "http://www.w3.org/Graphics/SVG/1.1/DTD/svg11.dtd">
<!-- Creator: CorelDRAW 2019 (64-Bit) -->
<svg xmlns="http://www.w3.org/2000/svg" xml:space="preserve" width="735px" height="36px" version="1.1" style="shape-rendering:geometricPrecision; text-rendering:geometricPrecision; image-rendering:optimizeQuality; fill-rule:evenodd; clip-rule:evenodd"
viewBox="0 0 721.92 35.15"
 xmlns:xlink="http://www.w3.org/1999/xlink">
 <defs>
  <style type="text/css">
   <![CDATA[
    .fil1 {fill:#FEFEFE}
    .fil0 {fill:#00A0E3}
    .fil2 {fill:#1A1A1A}
   ]]>
  </style>
 </defs>
 <g id="Слой_x0020_1">
  <metadata id="CorelCorpID_0Corel-Layer"/>
  <path class="fil0" d="M312.17 0l-6.01 0 -306.16 0 0 18.19 210.37 0c4.48,0.07 8.73,3.51 8.94,8.81l0 8.15c2.89,-0.83 5.94,-1.28 9.1,-1.28 3.15,0 6.2,0.45 9.09,1.28l0 -8.35c0.31,-5.18 4.51,-8.54 8.93,-8.6l0 -0.01 61.22 0c4.48,0.07 8.73,3.51 8.94,8.81l0 8.15c2.88,-0.83 5.94,-1.28 9.09,-1.28 3.16,0 6.21,0.45 9.1,1.28l0 -8.35 0 -0.27 0 0 0 -0.05 0 -4.02c-0.57,-15.97 -8.29,-21.81 -22.61,-22.46z"/>
  <circle class="fil1" cx="176.05" cy="14.31" r="0.9"/>
  <circle class="fil1" cx="171.97" cy="7.55" r="1.33"/>
  <circle class="fil1" cx="186.99" cy="3.91" r="1.33"/>
  <circle class="fil1" cx="179.44" cy="8.94" r="2.31"/>
  <circle class="fil1" cx="191.59" cy="13.87" r="2.3"/>
  <circle class="fil1" cx="196.71" cy="6.58" r="0.64"/>
  <circle class="fil1" cx="200.99" cy="13.48" r="1.33"/>
  <circle class="fil1" cx="206.35" cy="5.3" r="1.68"/>
  <circle class="fil1" cx="233.46" cy="19.45" r="1.33"/>
  <circle class="fil1" cx="223.35" cy="18.19" r="1.33"/>
  <circle class="fil1" cx="229.28" cy="12.55" r="2.3"/>
  <circle class="fil1" cx="214.65" cy="14.77" r="0.64"/>
  <circle class="fil1" cx="241.15" cy="12.89" r="0.9"/>
  <circle class="fil1" cx="244.66" cy="6.28" r="2.31"/>
  <circle class="fil1" cx="223.74" cy="5.3" r="1.33"/>
  <circle class="fil1" cx="213.92" cy="7.55" r="1.33"/>
  <circle class="fil1" cx="233.49" cy="4.28" r="1.33"/>
  <circle class="fil1" cx="256.79" cy="13.79" r="1.68"/>
  <circle class="fil1" cx="249.4" cy="13.97" r="0.64"/>
  <circle class="fil1" cx="253.79" cy="3.84" r="1.33"/>
  <circle class="fil1" cx="270.29" cy="6.53" r="2.3"/>
  <circle class="fil1" cx="261.58" cy="6.13" r="0.64"/>
  <circle class="fil1" cx="273.35" cy="13.53" r="0.9"/>
  <circle class="fil1" cx="269.27" cy="6.76" r="1.33"/>
  <circle class="fil1" cx="280.01" cy="5.3" r="1.33"/>
  <circle class="fil1" cx="290.66" cy="10.01" r="2.3"/>
  <circle class="fil1" cx="291.8" cy="4.61" r="0.64"/>
  <circle class="fil1" cx="298.18" cy="14.97" r="1.33"/>
  <circle class="fil1" cx="303.64" cy="4.52" r="1.68"/>
  <circle class="fil1" cx="319.3" cy="24.95" r="1.33"/>
  <circle class="fil1" cx="320.65" cy="17.4" r="1.33"/>
  <circle class="fil1" cx="327.7" cy="23.27" r="0.64"/>
  <circle class="fil1" cx="309.88" cy="13.01" r="1.33"/>
  <circle class="fil1" cx="328.79" cy="16.54" r="2.3"/>
  <circle class="fil1" cx="316.98" cy="10.41" r="0.64"/>
  <circle class="fil1" cx="321.04" cy="4.52" r="1.33"/>
  <circle class="fil1" cx="312.97" cy="3.99" r="1.33"/>
  <circle class="fil1" cx="284.83" cy="14.84" r="0.64"/>
  <circle class="fil1" cx="223.74" cy="29.86" r="1.33"/>
  <circle class="fil1" cx="233.53" cy="29.33" r="1.68"/>
  <path class="fil2" d="M510.16 26.27l0 8.88c2.88,-0.83 5.94,-1.28 9.09,-1.28 3.16,0 6.21,0.45 9.1,1.28l0 -8.15 0.04 0c0.21,-5.3 4.46,-8.74 8.94,-8.8l0 -0.01 61.29 0c4.42,0.13 8.58,3.54 8.81,8.76l0 8.2c2.89,-0.83 5.94,-1.28 9.1,-1.28 3.16,0 6.21,0.45 9.1,1.28l0 -8.31c0.28,-5.21 4.49,-8.58 8.92,-8.65l60.24 0c4.48,0.07 8.73,3.51 8.94,8.81l0 8.15c2.88,-0.83 5.94,-1.28 9.09,-1.28 3.16,0 6.21,0.45 9.1,1.28l0 -8.62 0 -4.1c-0.06,-1.5 -0.17,-2.91 -0.35,-4.24l-0.01 -0.03 -0.01 -0.09 -0.02 -0.1 -0.01 -0.1 -0.04 -0.27 0 -0.02 -0.02 -0.09 -0.01 -0.1 -0.05 -0.28 -0.01 -0.09 0 -0.01 -0.02 -0.09c-0.05,-0.31 -0.11,-0.62 -0.17,-0.92l-0.01 0c-2.28,-11.13 -9.69,-15.44 -21.88,-16l-6.01 0 -381.13 0c14.32,0.65 22.04,6.49 22.61,22.46l0 4.02 0 0.05 0 0 0 0.27c0.31,-5.18 4.51,-8.54 8.93,-8.6l0 -0.01 60.23 0c4.48,0.07 8.73,3.51 8.94,8.81l0 8.15c2.89,-0.83 5.94,-1.28 9.1,-1.28 3.15,0 6.21,0.45 9.09,1.28l0 -8.35c0.31,-5.18 4.51,-8.54 8.93,-8.6l0 -0.01 61.27 0c4.27,0.06 8.34,3.2 8.89,8.08z"/>
 </g>
</svg>
