<?xml version="1.0" encoding="UTF-8"?>
<!DOCTYPE svg PUBLIC "-//W3C//DTD SVG 1.1//EN" "http://www.w3.org/Graphics/SVG/1.1/DTD/svg11.dtd">
<!-- Creator: CorelDRAW 2019 (64-Bit) -->
<svg xmlns="http://www.w3.org/2000/svg" xml:space="preserve" width="735px" height="36px" version="1.1" style="shape-rendering:geometricPrecision; text-rendering:geometricPrecision; image-rendering:optimizeQuality; fill-rule:evenodd; clip-rule:evenodd"
viewBox="0 0 213.37 10.39"
 xmlns:xlink="http://www.w3.org/1999/xlink">
 <defs>
  <style type="text/css">
   <![CDATA[
    .fil1 {fill:#FEFEFE}
    .fil2 {fill:#1A1A1A}
    .fil0 {fill:red}
   ]]>
  </style>
 </defs>
 <g id="Слой_x0020_1">
  <metadata id="CorelCorpID_0Corel-Layer"/>
  <path class="fil0" d="M92.27 0l-1.78 0 -90.49 0 0 5.38 62.18 0c1.32,0.02 2.58,1.03 2.64,2.6l0 2.41c0.85,-0.25 1.76,-0.38 2.69,-0.38 0.93,0 1.83,0.13 2.69,0.38l0 -2.47c0.09,-1.53 1.33,-2.52 2.64,-2.54l0 0 18.09 0c1.32,0.02 2.58,1.03 2.64,2.6l0 2.41c0.86,-0.25 1.76,-0.38 2.69,-0.38 0.93,0 1.84,0.13 2.69,0.38l0 -2.47 0 -0.08 0 0 0 -0.01 0 -1.19c-0.17,-4.72 -2.45,-6.45 -6.68,-6.64z"/>
  <circle class="fil1" cx="52.04" cy="4.23" r="0.27"/>
  <circle class="fil1" cx="50.83" cy="2.23" r="0.39"/>
  <circle class="fil1" cx="55.27" cy="1.15" r="0.39"/>
  <circle class="fil1" cx="53.04" cy="2.64" r="0.68"/>
  <circle class="fil1" cx="56.63" cy="4.1" r="0.68"/>
  <circle class="fil1" cx="58.14" cy="1.94" r="0.19"/>
  <circle class="fil1" cx="59.41" cy="3.99" r="0.39"/>
  <circle class="fil1" cx="60.99" cy="1.57" r="0.5"/>
  <circle class="fil1" cx="69" cy="5.75" r="0.39"/>
  <circle class="fil1" cx="66.02" cy="5.38" r="0.39"/>
  <circle class="fil1" cx="67.77" cy="3.71" r="0.68"/>
  <circle class="fil1" cx="63.44" cy="4.37" r="0.19"/>
  <circle class="fil1" cx="71.28" cy="3.81" r="0.27"/>
  <circle class="fil1" cx="72.31" cy="1.86" r="0.68"/>
  <circle class="fil1" cx="66.13" cy="1.57" r="0.39"/>
  <circle class="fil1" cx="63.23" cy="2.23" r="0.39"/>
  <circle class="fil1" cx="69.01" cy="1.26" r="0.39"/>
  <circle class="fil1" cx="75.9" cy="4.08" r="0.5"/>
  <circle class="fil1" cx="73.71" cy="4.13" r="0.19"/>
  <circle class="fil1" cx="75.01" cy="1.14" r="0.39"/>
  <circle class="fil1" cx="79.89" cy="1.93" r="0.68"/>
  <circle class="fil1" cx="77.31" cy="1.81" r="0.19"/>
  <circle class="fil1" cx="80.79" cy="4" r="0.27"/>
  <circle class="fil1" cx="79.59" cy="2" r="0.39"/>
  <circle class="fil1" cx="82.76" cy="1.57" r="0.39"/>
  <circle class="fil1" cx="85.91" cy="2.96" r="0.68"/>
  <circle class="fil1" cx="86.25" cy="1.36" r="0.19"/>
  <circle class="fil1" cx="88.13" cy="4.42" r="0.39"/>
  <circle class="fil1" cx="89.75" cy="1.33" r="0.5"/>
  <circle class="fil1" cx="94.37" cy="7.37" r="0.39"/>
  <circle class="fil1" cx="94.77" cy="5.14" r="0.39"/>
  <circle class="fil1" cx="96.86" cy="6.88" r="0.19"/>
  <circle class="fil1" cx="91.59" cy="3.84" r="0.39"/>
  <circle class="fil1" cx="97.18" cy="4.89" r="0.68"/>
  <circle class="fil1" cx="93.69" cy="3.08" r="0.19"/>
  <circle class="fil1" cx="94.89" cy="1.33" r="0.39"/>
  <circle class="fil1" cx="92.5" cy="1.18" r="0.39"/>
  <circle class="fil1" cx="84.19" cy="4.39" r="0.19"/>
  <circle class="fil1" cx="66.13" cy="8.83" r="0.39"/>
  <circle class="fil1" cx="69.02" cy="8.67" r="0.5"/>
  <path class="fil2" d="M150.78 7.77l0 2.62c0.86,-0.25 1.76,-0.38 2.69,-0.38 0.94,0 1.84,0.13 2.69,0.38l0 -2.41 0.01 0c0.07,-1.57 1.32,-2.58 2.65,-2.6l0 0 18.11 0c1.31,0.03 2.54,1.04 2.61,2.58l0 2.43c0.85,-0.25 1.75,-0.38 2.68,-0.38 0.94,0 1.84,0.13 2.69,0.38l0 -2.46c0.09,-1.54 1.33,-2.53 2.64,-2.55l17.81 0c1.32,0.02 2.58,1.03 2.64,2.6l0 2.41c0.85,-0.25 1.75,-0.38 2.69,-0.38 0.93,0 1.83,0.13 2.68,0.38l0 -2.55 0 -1.21c-0.01,-0.44 -0.05,-0.86 -0.1,-1.25l0 -0.01 -0.01 -0.03 0 -0.03 0 -0.03 -0.02 -0.08 0 0 0 -0.03 -0.01 -0.03 -0.01 -0.08 0 -0.03 0 0 -0.01 -0.03c-0.01,-0.09 -0.03,-0.18 -0.05,-0.27l0 0c-0.67,-3.29 -2.86,-4.57 -6.47,-4.73l-1.78 0 -112.64 0c4.23,0.19 6.51,1.92 6.68,6.64l0 1.19 0 0.01 0 0 0 0.08c0.09,-1.53 1.33,-2.52 2.64,-2.54l0 0 17.8 0c1.32,0.02 2.58,1.03 2.64,2.6l0 2.41c0.86,-0.25 1.76,-0.38 2.69,-0.38 0.93,0 1.84,0.13 2.69,0.38l0 -2.47c0.09,-1.53 1.33,-2.52 2.64,-2.54l0 0 18.11 0c1.26,0.01 2.46,0.94 2.62,2.39z"/>
 </g>
</svg>
