<?xml version="1.0" encoding="UTF-8"?>
<!DOCTYPE svg PUBLIC "-//W3C//DTD SVG 1.1//EN" "http://www.w3.org/Graphics/SVG/1.1/DTD/svg11.dtd">
<!-- Creator: CorelDRAW 2019 (64-Bit) -->
<svg xmlns="http://www.w3.org/2000/svg" xml:space="preserve" width="67px" height="67px" version="1.1" style="shape-rendering:geometricPrecision; text-rendering:geometricPrecision; image-rendering:optimizeQuality; fill-rule:evenodd; clip-rule:evenodd"
viewBox="0 0 6.77 6.77"
 xmlns:xlink="http://www.w3.org/1999/xlink">
 <defs>
  <style type="text/css">
   <![CDATA[
    .fil2 {fill:#FEFEFE}
    .fil1 {fill:#009846}
    .fil0 {fill:white}
   ]]>
  </style>
 </defs>
 <g id="Слой_x0020_1">
  <metadata id="CorelCorpID_0Corel-Layer"/>
  <g id="_1917727424">
   <circle class="fil0" transform="matrix(0.15112 0.0185549 -0.0185552 0.151117 3.38706 3.38699)" r="22.24"/>
   <g>
    <circle class="fil1" transform="matrix(0.136139 0.0167155 -0.0167158 0.136137 3.38706 3.38698)" r="22.24"/>
    <circle class="fil2" transform="matrix(0.099204 0.0121805 -0.0121807 0.0992022 3.38706 3.38698)" r="7.08"/>
    <path class="fil2" d="M4.47 3.05c0.2,-0.64 0.09,-1.16 -0.37,-1.54 -0.13,-0.1 -0.32,-0.17 -0.23,-0.38 0.04,-0.12 0.18,-0.18 0.31,-0.14 0.05,0.03 0.17,0.13 0.22,0.17 0.7,0.58 0.83,1.36 0.42,2.31 -0.04,0.12 -0.18,0.18 -0.31,0.13 -0.12,-0.05 -0.18,-0.19 -0.13,-0.31 0.03,-0.08 0.06,-0.15 0.09,-0.24z"/>
    <path class="fil2" d="M4.31 4.1c0.67,-0.15 1.07,-0.5 1.17,-1.08 0.03,-0.16 0,-0.36 0.22,-0.39 0.13,-0.02 0.25,0.07 0.27,0.21 0.01,0.05 -0.02,0.21 -0.04,0.27 -0.16,0.9 -0.78,1.39 -1.8,1.5 -0.14,0.02 -0.26,-0.08 -0.27,-0.21 -0.02,-0.13 0.08,-0.25 0.2,-0.27 0.09,-0.01 0.16,-0.01 0.25,-0.03z"/>
    <path class="fil2" d="M3.2 4.51c0.49,0.47 1,0.61 1.54,0.37 0.15,-0.07 0.3,-0.2 0.45,-0.03 0.09,0.1 0.08,0.25 -0.02,0.33 -0.05,0.04 -0.19,0.1 -0.25,0.13 -0.84,0.36 -1.59,0.12 -2.25,-0.67 -0.09,-0.1 -0.08,-0.25 0.02,-0.34 0.1,-0.09 0.26,-0.08 0.34,0.02 0.06,0.07 0.1,0.12 0.17,0.19z"/>
    <path class="fil2" d="M2.31 3.83c-0.2,0.65 -0.08,1.17 0.39,1.54 0.12,0.1 0.31,0.17 0.23,0.38 -0.05,0.12 -0.18,0.18 -0.31,0.14 -0.05,-0.02 -0.17,-0.12 -0.22,-0.17 -0.71,-0.57 -0.85,-1.35 -0.45,-2.3 0.04,-0.12 0.18,-0.19 0.31,-0.14 0.12,0.05 0.18,0.19 0.13,0.31 -0.03,0.09 -0.06,0.15 -0.08,0.24z"/>
    <path class="fil2" d="M2.47 2.67c-0.66,0.14 -1.07,0.49 -1.17,1.07 -0.03,0.16 0.01,0.36 -0.22,0.39 -0.13,0.02 -0.25,-0.07 -0.27,-0.2 -0.01,-0.06 0.03,-0.21 0.04,-0.28 0.17,-0.9 0.78,-1.39 1.81,-1.49 0.13,-0.02 0.25,0.07 0.27,0.2 0.02,0.14 -0.08,0.26 -0.21,0.27 -0.09,0.01 -0.16,0.02 -0.25,0.04z"/>
    <path class="fil2" d="M3.62 2.27c-0.47,-0.49 -0.97,-0.66 -1.53,-0.44 -0.15,0.05 -0.3,0.18 -0.44,0 -0.09,-0.1 -0.07,-0.25 0.03,-0.33 0.05,-0.04 0.2,-0.09 0.26,-0.11 0.86,-0.32 1.59,-0.04 2.21,0.78 0.08,0.11 0.07,0.26 -0.04,0.34 -0.1,0.09 -0.26,0.06 -0.34,-0.04 -0.05,-0.07 -0.09,-0.13 -0.15,-0.2z"/>
   </g>
  </g>
 </g>
</svg>
