<?xml version="1.0" encoding="UTF-8"?>
<!DOCTYPE svg PUBLIC "-//W3C//DTD SVG 1.1//EN" "http://www.w3.org/Graphics/SVG/1.1/DTD/svg11.dtd">
<!-- Creator: CorelDRAW 2019 (64-Bit) -->
<svg xmlns="http://www.w3.org/2000/svg" xml:space="preserve" width="67px" height="67px" version="1.1" style="shape-rendering:geometricPrecision; text-rendering:geometricPrecision; image-rendering:optimizeQuality; fill-rule:evenodd; clip-rule:evenodd"
viewBox="0 0 6.77 6.77"
 xmlns:xlink="http://www.w3.org/1999/xlink">
 <defs>
  <style type="text/css">
   <![CDATA[
    .fil2 {fill:#FEFEFE}
    .fil1 {fill:#009846}
    .fil0 {fill:white}
   ]]>
  </style>
 </defs>
 <g id="Слой_x0020_1">
  <metadata id="CorelCorpID_0Corel-Layer"/>
  <g id="_1390470192">
   <circle class="fil0" transform="matrix(0.147714 0.0368292 -0.0368292 0.147714 3.38706 3.38711)" r="22.24"/>
   <g>
    <circle class="fil1" transform="matrix(0.133071 0.0331783 -0.0331783 0.133071 3.38706 3.3871)" r="22.24"/>
    <circle class="fil2" transform="matrix(0.096968 0.0241768 -0.0241768 0.096968 3.38706 3.3871)" r="7.08"/>
    <path class="fil2" d="M4.5 3.19c0.28,-0.62 0.23,-1.15 -0.18,-1.58 -0.11,-0.11 -0.29,-0.2 -0.18,-0.41 0.06,-0.11 0.21,-0.15 0.32,-0.09 0.05,0.03 0.16,0.14 0.2,0.19 0.63,0.66 0.66,1.45 0.14,2.34 -0.06,0.12 -0.2,0.16 -0.32,0.1 -0.12,-0.07 -0.16,-0.21 -0.1,-0.33 0.05,-0.08 0.08,-0.13 0.12,-0.22z"/>
    <path class="fil2" d="M4.22 4.2c0.68,-0.06 1.12,-0.35 1.29,-0.92 0.04,-0.16 0.04,-0.36 0.27,-0.36 0.13,0 0.24,0.1 0.24,0.23 0,0.06 -0.05,0.21 -0.07,0.27 -0.28,0.88 -0.95,1.29 -1.98,1.27 -0.13,0 -0.24,-0.11 -0.24,-0.24 0,-0.13 0.11,-0.24 0.24,-0.24 0.09,0 0.16,0 0.25,-0.01z"/>
    <path class="fil2" d="M3.06 4.48c0.43,0.52 0.92,0.73 1.49,0.55 0.16,-0.04 0.32,-0.16 0.45,0.03 0.07,0.1 0.04,0.25 -0.06,0.33 -0.05,0.03 -0.2,0.07 -0.27,0.09 -0.87,0.26 -1.59,-0.07 -2.15,-0.94 -0.07,-0.11 -0.04,-0.26 0.06,-0.33 0.12,-0.08 0.27,-0.05 0.34,0.06 0.05,0.08 0.08,0.13 0.14,0.21z"/>
    <path class="fil2" d="M2.26 3.69c-0.27,0.63 -0.22,1.16 0.2,1.58 0.11,0.11 0.29,0.2 0.19,0.41 -0.07,0.11 -0.21,0.16 -0.33,0.1 -0.05,-0.03 -0.15,-0.15 -0.2,-0.19 -0.63,-0.66 -0.67,-1.45 -0.17,-2.35 0.07,-0.11 0.21,-0.16 0.33,-0.1 0.12,0.07 0.16,0.22 0.1,0.33 -0.05,0.08 -0.08,0.14 -0.12,0.22z"/>
    <path class="fil2" d="M2.56 2.56c-0.67,0.06 -1.11,0.36 -1.29,0.93 -0.04,0.15 -0.04,0.35 -0.26,0.35 -0.14,0.01 -0.24,-0.1 -0.25,-0.23 0,-0.06 0.05,-0.21 0.07,-0.27 0.28,-0.87 0.95,-1.28 1.98,-1.26 0.14,0 0.24,0.1 0.25,0.23 0,0.14 -0.11,0.25 -0.24,0.25 -0.09,0 -0.16,-0.01 -0.26,0z"/>
    <path class="fil2" d="M3.75 2.31c-0.4,-0.55 -0.88,-0.77 -1.46,-0.63 -0.15,0.04 -0.32,0.15 -0.44,-0.05 -0.07,-0.11 -0.04,-0.26 0.08,-0.33 0.05,-0.03 0.2,-0.06 0.26,-0.07 0.89,-0.21 1.59,0.15 2.1,1.05 0.07,0.11 0.04,0.26 -0.08,0.33 -0.11,0.07 -0.26,0.03 -0.33,-0.09 -0.04,-0.07 -0.08,-0.13 -0.13,-0.21z"/>
   </g>
  </g>
 </g>
</svg>
