<?xml version="1.0" encoding="UTF-8"?>
<!DOCTYPE svg PUBLIC "-//W3C//DTD SVG 1.1//EN" "http://www.w3.org/Graphics/SVG/1.1/DTD/svg11.dtd">
<!-- Creator: CorelDRAW 2019 (64-Bit) -->
<svg xmlns="http://www.w3.org/2000/svg" xml:space="preserve" width="735px" height="35px" version="1.1" style="shape-rendering:geometricPrecision; text-rendering:geometricPrecision; image-rendering:optimizeQuality; fill-rule:evenodd; clip-rule:evenodd"
viewBox="0 0 628.4 29.74"
 xmlns:xlink="http://www.w3.org/1999/xlink">
 <defs>
  <style type="text/css">
   <![CDATA[
    .fil3 {fill:#FEFEFE}
    .fil2 {fill:#00A0E3}
    .fil1 {fill:#1A1A1A}
    .fil0 {fill:#FF6600}
   ]]>
  </style>
 </defs>
 <g id="Слой_x0020_1">
  <metadata id="CorelCorpID_0Corel-Layer"/>
  <path class="fil0" d="M521 13.91c3.88,-0.08 7.56,-3.07 7.74,-7.66l0 -6.25c2.52,0.73 5.17,1.12 7.92,1.12 2.75,0 5.41,-0.39 7.92,-1.12l0 6.42 0 4.07c-0.58,13.68 -7.3,18.69 -19.67,19.25l-5.23 0 -519.68 0 0 -15.83 183.12 0c3.89,-0.06 7.59,-3.06 7.78,-7.67l0 0 0 -6.24c2.51,0.73 5.17,1.12 7.92,1.12 2.75,0 5.4,-0.39 7.92,-1.12l0 6.48c0.29,4.47 3.93,7.37 7.76,7.42l0 0.01 53.5 0c3.82,-0.16 7.4,-3.13 7.57,-7.66l0 -6.25c2.52,0.73 5.17,1.12 7.92,1.12 2.75,0 5.41,-0.39 7.92,-1.12l0 6.42c0.27,4.47 3.85,7.38 7.66,7.49l52.55 0c3.85,-0.06 7.51,-2.98 7.77,-7.49l0 -6.42c2.52,0.73 5.17,1.12 7.92,1.12 2.75,0 5.41,-0.39 7.92,-1.12l0 6.24c0.18,4.61 3.88,7.61 7.78,7.66l0 0.01 53.3 0c3.8,-0.06 7.42,-2.92 7.76,-7.34l0 -6.57c2.51,0.73 5.17,1.12 7.92,1.12 2.74,0 5.4,-0.39 7.91,-1.12l0 6.24 0.01 0c0.19,4.61 3.89,7.61 7.78,7.66l0 0.01 53.31 0z"/>
  <path class="fil1" d="M544.58 6.42c0.27,4.51 3.92,7.43 7.77,7.48l0 0.01 52.42 0c3.9,-0.06 7.6,-3.06 7.78,-7.67l0.01 0 0 -6.24c2.52,0.73 5.17,1.12 7.92,1.12 2.75,0 5.41,-0.39 7.92,-1.12l0 6.67 0 3.56c-0.05,1.3 -0.15,2.53 -0.3,3.68l-0.01 0.06 -0.02 0.1 -0.01 0.09 -0.01 0.09 -0.02 0.09 -0.01 0.08 0 0.01 -0.01 0.09 -0.02 0.09 -0.01 0.09 -0.02 0.09 -0.01 0.09 -0.01 0.04 -0.01 0.05 -0.01 0.09 -0.02 0.09 -0.01 0.08 -0.02 0.09 -0.02 0.09 -0.01 0.09 -0.02 0.08 -0.02 0.09 -0.02 0.09 -0.01 0.08 -0.01 0.05 -0.01 0.04 -0.02 0.08 -0.02 0.09 -0.02 0.08 -0.01 0.09c-2.07,9.26 -8.36,12.93 -18.61,13.47l-84.16 0c12.37,-0.56 19.09,-5.57 19.67,-19.25l0 -4.07z"/>
  <path class="fil2" d="M467.72 29.74l51.96 0 1.4 0 3.83 0c8.05,-0.36 13.7,-2.61 16.83,-7.9 -0.11,-0.19 -0.22,-0.39 -0.34,-0.57 -7.95,-3.18 -11.88,-2.77 -19.87,1.46 -8.34,4.42 -21.16,3.51 -29.93,0 -6.39,-2.55 -15.31,-5.14 -25.64,0 -6.19,3.08 -11.79,6.23 -21.38,0 -6.1,-3.96 -12.8,-3.32 -23.68,0.91 -9.76,3.79 -18.33,4.15 -29.66,-0.65 -6.93,-2.93 -19.01,-3.43 -27.78,0.45 -6.24,2.76 -14.61,5.21 -25.39,-0.09 -5.85,-2.87 -14.64,-4.5 -25.51,-0.08 -7.27,2.95 -16.44,4.01 -27.12,-0.1 -6.85,-2.63 -16.15,-5.38 -26.58,-0.09 -5.88,2.98 -14.5,6.33 -22.71,-0.07 -4.85,-3.78 -12.53,-4.94 -22.05,-0.08 -6.25,3.19 -14.39,4.05 -21.91,-0.08 -5.87,-3.22 -13.33,-4.65 -20.3,-0.07 -4.75,3.12 -11.77,3.84 -18.7,-0.06 -5.84,-3.28 -14.38,-5.11 -23.25,-0.08 -4.21,2.39 -13.33,5.2 -22.17,-0.08 -2.37,-1.41 -8.92,-4.53 -18.71,-0.06 -6.17,2.82 -13.95,5.95 -21.5,-0.08 -4.11,-3.27 -10.44,-5.79 -21.91,-0.07 -7.93,3.95 -16.08,2.29 -22.5,-0.08 -8.1,-3.33 -15.94,-4.41 -23.15,-0.08l0 7.55 5.8 0 177.32 0 31.39 0 53.29 0 31.38 0 52.43 0 31.39 0 53.34 0 31.38 0z"/>
  <circle class="fil3" cx="153.25" cy="26.37" r="0.79"/>
  <circle class="fil3" cx="181.57" cy="23.49" r="2"/>
  <circle class="fil3" cx="174.96" cy="25.64" r="1.16"/>
  <circle class="fil3" cx="203.31" cy="27.97" r="1.16"/>
  <circle class="fil3" cx="193.53" cy="26.99" r="1.16"/>
  <circle class="fil3" cx="186.84" cy="26.76" r="0.55"/>
  <circle class="fil3" cx="210.25" cy="27.79" r="0.79"/>
  <circle class="fil3" cx="223.53" cy="25.91" r="1.46"/>
  <circle class="fil3" cx="217.09" cy="26.07" r="0.55"/>
  <circle class="fil3" cx="237.48" cy="26.63" r="0.79"/>
  <circle class="fil3" cx="259.55" cy="26.94" r="1.16"/>
  <circle class="fil3" cx="285.26" cy="26.99" r="1.16"/>
  <circle class="fil3" cx="269.74" cy="25.23" r="1.16"/>
  <circle class="fil3" cx="278.12" cy="25.83" r="2"/>
  <circle class="fil3" cx="228.86" cy="24.14" r="0.79"/>
  <circle class="fil3" cx="313.69" cy="27.13" r="1.46"/>
  <circle class="fil3" cx="300.8" cy="27.83" r="0.55"/>
  <circle class="fil3" cx="247.46" cy="28.1" r="0.55"/>
  <circle class="fil3" cx="321.06" cy="26.7" r="0.79"/>
  <circle class="fil3" cx="324.74" cy="23.52" r="1.16"/>
  <circle class="fil3" cx="336.35" cy="25.98" r="2"/>
  <circle class="fil3" cx="328.61" cy="26.45" r="0.55"/>
  <circle class="fil3" cx="375.44" cy="27.21" r="1.16"/>
  <circle class="fil3" cx="367.09" cy="26.9" r="1.46"/>
  <circle class="fil3" cx="359.47" cy="27.71" r="1.16"/>
  <circle class="fil3" cx="344.51" cy="27.73" r="0.55"/>
  <circle class="fil3" cx="372.03" cy="24.14" r="0.79"/>
  <circle class="fil3" cx="391.34" cy="26.25" r="1.46"/>
  <circle class="fil3" cx="384.9" cy="26.4" r="0.55"/>
  <circle class="fil3" cx="379.93" cy="24.59" r="0.79"/>
  <circle class="fil3" cx="403.41" cy="28.07" r="0.55"/>
  <circle class="fil3" cx="428.1" cy="26.94" r="1.16"/>
  <circle class="fil3" cx="438.28" cy="25.23" r="1.16"/>
  <circle class="fil3" cx="443.57" cy="26.56" r="2"/>
  <circle class="fil3" cx="482.83" cy="24.45" r="1.46"/>
  <circle class="fil3" cx="472.22" cy="27.12" r="0.55"/>
  <circle class="fil3" cx="416.47" cy="26.83" r="0.55"/>
  <circle class="fil3" cx="462.81" cy="26.91" r="1.16"/>
  <circle class="fil3" cx="489.6" cy="26.7" r="0.79"/>
  <circle class="fil3" cx="495.88" cy="27.01" r="1.16"/>
  <circle class="fil3" cx="474.51" cy="22.73" r="1.16"/>
  <circle class="fil3" cx="532.08" cy="25" r="2"/>
  <circle class="fil3" cx="524.67" cy="25.91" r="0.55"/>
  <circle class="fil3" cx="515.37" cy="27.54" r="1.16"/>
  <circle class="fil3" cx="504.98" cy="27.56" r="0.55"/>
  <circle class="fil3" cx="161.89" cy="27.56" r="0.55"/>
  <circle class="fil3" cx="453.69" cy="27.59" r="0.55"/>
 </g>
</svg>
