<?xml version="1.0" encoding="UTF-8"?>
<!DOCTYPE svg PUBLIC "-//W3C//DTD SVG 1.1//EN" "http://www.w3.org/Graphics/SVG/1.1/DTD/svg11.dtd">
<!-- Creator: CorelDRAW 2019 (64-Bit) -->
<svg xmlns="http://www.w3.org/2000/svg" xml:space="preserve" width="735px" height="36px" version="1.1" style="shape-rendering:geometricPrecision; text-rendering:geometricPrecision; image-rendering:optimizeQuality; fill-rule:evenodd; clip-rule:evenodd"
viewBox="0 0 628.4 30.6"
 xmlns:xlink="http://www.w3.org/1999/xlink">
 <defs>
  <style type="text/css">
   <![CDATA[
    .fil2 {fill:#FEFEFE}
    .fil1 {fill:#00A0E3}
    .fil0 {fill:#B3B3B3}
   ]]>
  </style>
 </defs>
 <g id="Слой_x0020_1">
  <metadata id="CorelCorpID_0Corel-Layer"/>
  <path class="fil0" d="M444.07 22.87l0 7.73c2.51,-0.73 5.17,-1.12 7.92,-1.12 2.74,0 5.4,0.39 7.91,1.12l0 -7.09 0.04 -0.01c0.19,-4.61 3.89,-7.61 7.78,-7.66l0 0 53.36 0c3.84,0.11 7.47,3.07 7.66,7.62l0 7.14c2.52,-0.73 5.17,-1.12 7.92,-1.12 2.75,0 5.41,0.39 7.92,1.12l0 -7.24c0.25,-4.53 3.91,-7.47 7.77,-7.52l52.43 0c3.9,0.05 7.6,3.05 7.78,7.66l0 7.1c2.52,-0.73 5.17,-1.12 7.92,-1.12 2.75,0 5.41,0.39 7.92,1.12l0 -7.51 0 -3.56c-0.05,-1.31 -0.15,-2.54 -0.31,-3.69l0 -0.03 -0.01 -0.08 -0.01 -0.09 -0.02 -0.08 -0.03 -0.24 0 -0.02 -0.02 -0.08 -0.01 -0.08 -0.04 -0.25 -0.01 -0.08 -0.01 0 -0.01 -0.08c-0.05,-0.27 -0.1,-0.54 -0.15,-0.8l0 0c-1.99,-9.69 -8.44,-13.45 -19.05,-13.93l-5.23 0 -603.49 0 0 15.84 5.8 0 177.32 0c3.9,0.05 7.6,3.05 7.78,7.66l0 7.1c2.51,-0.73 5.17,-1.12 7.92,-1.12 2.75,0 5.4,0.39 7.92,1.12l0 -7.27c0.26,-4.51 3.92,-7.44 7.77,-7.49l0 0 53.29 0c3.89,0.05 7.59,3.05 7.77,7.66l0 7.1c2.52,-0.73 5.17,-1.12 7.92,-1.12 2.75,0 5.41,0.39 7.92,1.12l0 -7.27c0.27,-4.51 3.92,-7.44 7.77,-7.49l0 0 52.43 0c3.9,0.05 7.6,3.05 7.78,7.66l0 7.1c2.52,-0.73 5.17,-1.12 7.92,-1.12 2.75,0 5.41,0.39 7.92,1.12l0 -7.27c0.27,-4.51 3.92,-7.44 7.77,-7.49l0 0 53.34 0c3.71,0.05 7.25,2.78 7.73,7.03z"/>
  <path class="fil1" d="M444.07 22.87l0 7.73c2.51,-0.73 5.17,-1.12 7.92,-1.12 2.74,0 5.4,0.39 7.91,1.12l0 -7.09 0.04 -0.01c0.19,-4.61 3.89,-7.61 7.78,-7.66l0 0 53.36 0c3.84,0.11 7.47,3.07 7.66,7.62l0 7.14c2.52,-0.73 5.17,-1.12 7.92,-1.12 2.75,0 5.41,0.39 7.92,1.12l0 -7.24c0.25,-4.53 3.91,-7.47 7.77,-7.52l52.43 0c3.9,0.05 7.6,3.05 7.78,7.66l0 7.1c2.52,-0.73 5.17,-1.12 7.92,-1.12 2.75,0 5.41,0.39 7.92,1.12l0 -7.51 0 -3.56c-0.05,-1.31 -0.15,-2.54 -0.31,-3.69l0 -0.03 -0.01 -0.08 -0.01 -0.09 -0.02 -0.08 -0.03 -0.24 0 -0.02 -0.02 -0.08 -0.01 -0.08 -0.04 -0.25 -0.01 -0.08 -0.01 0 -0.01 -0.08c-0.05,-0.27 -0.1,-0.54 -0.15,-0.8l0 0c-0.04,-0.14 -0.05,-0.26 -0.08,-0.37 -0.14,-0.52 -0.15,-0.98 -0.91,-3.11 -0.04,-0.11 -0.13,-0.24 -0.21,-0.32 -3.18,-3.16 -9.39,-2.97 -13.77,-0.88 -7.84,3.74 -17.73,2.22 -21.33,-0.46 -10.01,-7.46 -17.16,-1.96 -22.92,0.04 -9.47,3.28 -12.42,4.25 -21.37,0 -9.02,-4.29 -16.8,-4.69 -25.65,0 -8.34,4.41 -21.16,3.5 -29.93,0 -6.39,-2.56 -15.31,-5.15 -25.64,0 -6.19,3.07 -11.79,6.22 -21.38,0 -6.1,-3.97 -12.8,-3.32 -23.68,0.9 -9.76,3.8 -18.33,4.16 -29.66,-0.64 -6.93,-2.94 -19.01,-3.43 -27.78,0.45 -6.24,2.75 -14.61,5.21 -25.39,-0.09 -5.85,-2.88 -14.64,-4.51 -25.51,-0.09 -7.27,2.95 -16.44,4.01 -27.12,-0.09 -6.85,-2.63 -16.15,-5.39 -26.58,-0.09 -5.88,2.98 -14.5,6.33 -22.71,-0.08 -4.85,-3.78 -12.53,-4.94 -22.05,-0.08 -6.25,3.2 -14.39,4.05 -21.91,-0.07 -5.87,-3.23 -13.33,-4.66 -20.3,-0.07 -4.75,3.12 -11.77,3.84 -18.7,-0.07 -5.84,-3.28 -14.38,-5.1 -23.25,-0.08 -4.21,2.39 -13.33,5.2 -22.17,-0.07 -2.37,-1.41 -8.92,-4.54 -18.71,-0.07 -6.17,2.82 -13.95,5.95 -21.5,-0.07 -4.11,-3.27 -10.44,-5.8 -21.91,-0.08 -7.93,3.95 -16.08,2.29 -22.5,-0.08 -8.1,-3.33 -15.94,-4.4 -23.15,-0.08l0 7.56 5.8 0 138.21 0 39.11 0c3.9,0.05 7.6,3.05 7.78,7.66l0 7.1c2.51,-0.73 5.17,-1.12 7.92,-1.12 2.75,0 5.4,0.39 7.92,1.12l0 -7.27c0.26,-4.51 3.92,-7.44 7.77,-7.49l0 0 53.29 0c3.89,0.05 7.59,3.05 7.77,7.66l0 7.1c2.52,-0.73 5.17,-1.12 7.92,-1.12 2.75,0 5.41,0.39 7.92,1.12l0 -7.27c0.27,-4.51 3.92,-7.44 7.77,-7.49l0 0 52.43 0c3.9,0.05 7.6,3.05 7.78,7.66l0 7.1c2.52,-0.73 5.17,-1.12 7.92,-1.12 2.75,0 5.41,0.39 7.92,1.12l0 -7.27c0.27,-4.51 3.92,-7.44 7.77,-7.49l0 0 53.34 0c3.71,0.05 7.25,2.78 7.73,7.03z"/>
  <circle class="fil2" cx="153.25" cy="12.46" r="0.79"/>
  <circle class="fil2" cx="181.57" cy="9.58" r="2"/>
  <circle class="fil2" cx="174.96" cy="11.74" r="1.16"/>
  <circle class="fil2" cx="203.22" cy="16.93" r="1.16"/>
  <circle class="fil2" cx="194.42" cy="15.84" r="1.16"/>
  <circle class="fil2" cx="186.84" cy="12.86" r="0.55"/>
  <circle class="fil2" cx="210.25" cy="13.89" r="0.79"/>
  <circle class="fil2" cx="223.53" cy="12.01" r="1.46"/>
  <circle class="fil2" cx="217.09" cy="12.16" r="0.55"/>
  <circle class="fil2" cx="237.48" cy="12.72" r="0.79"/>
  <circle class="fil2" cx="259.55" cy="13.03" r="1.16"/>
  <circle class="fil2" cx="278.88" cy="22.39" r="1.16"/>
  <circle class="fil2" cx="279.11" cy="15.15" r="1.16"/>
  <circle class="fil2" cx="285.86" cy="22.2" r="0.55"/>
  <circle class="fil2" cx="269.74" cy="11.32" r="1.16"/>
  <circle class="fil2" cx="288.2" cy="14.4" r="2"/>
  <circle class="fil2" cx="228.86" cy="10.24" r="0.79"/>
  <circle class="fil2" cx="313.69" cy="13.23" r="1.46"/>
  <circle class="fil2" cx="300.8" cy="13.93" r="0.55"/>
  <circle class="fil2" cx="247.46" cy="14.19" r="0.55"/>
  <circle class="fil2" cx="321.06" cy="12.8" r="0.79"/>
  <circle class="fil2" cx="324.74" cy="9.62" r="1.16"/>
  <circle class="fil2" cx="336.35" cy="12.07" r="2"/>
  <circle class="fil2" cx="328.61" cy="12.55" r="0.55"/>
  <circle class="fil2" cx="374.89" cy="16.47" r="1.16"/>
  <circle class="fil2" cx="368.29" cy="15.84" r="1.46"/>
  <circle class="fil2" cx="363.03" cy="20.81" r="0.55"/>
  <circle class="fil2" cx="359.47" cy="14.96" r="1.16"/>
  <circle class="fil2" cx="344.51" cy="13.83" r="0.55"/>
  <circle class="fil2" cx="372.03" cy="10.23" r="0.79"/>
  <circle class="fil2" cx="391.34" cy="12.34" r="1.46"/>
  <circle class="fil2" cx="384.9" cy="12.5" r="0.55"/>
  <circle class="fil2" cx="379.93" cy="10.69" r="0.79"/>
  <circle class="fil2" cx="403.41" cy="14.16" r="0.55"/>
  <circle class="fil2" cx="428.1" cy="13.03" r="1.16"/>
  <circle class="fil2" cx="446.48" cy="21.72" r="1.16"/>
  <circle class="fil2" cx="455.52" cy="17.44" r="1.16"/>
  <circle class="fil2" cx="454.92" cy="25.39" r="0.55"/>
  <circle class="fil2" cx="438.28" cy="11.32" r="1.16"/>
  <circle class="fil2" cx="446.85" cy="15.1" r="2"/>
  <circle class="fil2" cx="482.83" cy="10.55" r="1.46"/>
  <circle class="fil2" cx="472.22" cy="13.21" r="0.55"/>
  <circle class="fil2" cx="416.47" cy="12.92" r="0.55"/>
  <circle class="fil2" cx="462.81" cy="13.01" r="1.16"/>
  <circle class="fil2" cx="489.6" cy="12.8" r="0.79"/>
  <circle class="fil2" cx="495.88" cy="13.1" r="1.16"/>
  <circle class="fil2" cx="474.51" cy="8.83" r="1.16"/>
  <circle class="fil2" cx="533.86" cy="21.09" r="1.16"/>
  <circle class="fil2" cx="541.11" cy="24.67" r="1.46"/>
  <circle class="fil2" cx="539.79" cy="16.22" r="1.16"/>
  <circle class="fil2" cx="532.08" cy="11.1" r="2"/>
  <circle class="fil2" cx="524.67" cy="12" r="0.55"/>
  <circle class="fil2" cx="540.82" cy="10.43" r="0.79"/>
  <circle class="fil2" cx="515.37" cy="13.63" r="1.16"/>
  <circle class="fil2" cx="562.86" cy="13.5" r="1.46"/>
  <circle class="fil2" cx="548.7" cy="13.03" r="0.55"/>
  <circle class="fil2" cx="504.98" cy="13.65" r="0.55"/>
  <circle class="fil2" cx="591.16" cy="12.01" r="1.16"/>
  <circle class="fil2" cx="624.12" cy="13.1" r="1.46"/>
  <circle class="fil2" cx="616.39" cy="20.51" r="0.55"/>
  <circle class="fil2" cx="606.71" cy="13.1" r="1.16"/>
  <circle class="fil2" cx="613.72" cy="10.34" r="0.55"/>
  <circle class="fil2" cx="572.84" cy="11.02" r="2.01"/>
  <circle class="fil2" cx="616.73" cy="14.26" r="1.16"/>
  <circle class="fil2" cx="553.98" cy="13.43" r="1.16"/>
  <circle class="fil2" cx="582.43" cy="7.95" r="1.46"/>
  <circle class="fil2" cx="598.48" cy="13.1" r="0.55"/>
  <circle class="fil2" cx="581.45" cy="13.17" r="1.16"/>
  <circle class="fil2" cx="194.76" cy="25.99" r="1.16"/>
  <circle class="fil2" cx="203.28" cy="25.53" r="1.46"/>
  <circle class="fil2" cx="370.03" cy="25.99" r="1.16"/>
  <circle class="fil2" cx="454.92" cy="25.39" r="0.55"/>
  <circle class="fil2" cx="623.39" cy="25.69" r="1.16"/>
  <circle class="fil2" cx="161.89" cy="13.65" r="0.55"/>
 </g>
</svg>
