<?xml version="1.0" encoding="UTF-8"?>
<!DOCTYPE svg PUBLIC "-//W3C//DTD SVG 1.1//EN" "http://www.w3.org/Graphics/SVG/1.1/DTD/svg11.dtd">
<!-- Creator: CorelDRAW 2019 (64-Bit) -->
<svg xmlns="http://www.w3.org/2000/svg" xml:space="preserve" width="735px" height="36px" version="1.1" style="shape-rendering:geometricPrecision; text-rendering:geometricPrecision; image-rendering:optimizeQuality; fill-rule:evenodd; clip-rule:evenodd"
viewBox="0 0 230.78 11.24"
 xmlns:xlink="http://www.w3.org/1999/xlink">
 <defs>
  <style type="text/css">
   <![CDATA[
    .fil0 {fill:#1A1A1A}
    .fil1 {fill:#B3B3B3}
   ]]>
  </style>
 </defs>
 <g id="Слой_x0020_1">
  <metadata id="CorelCorpID_0Corel-Layer"/>
  <path class="fil0" d="M168.9 8.63l0.01 0c0.07,-1.69 1.43,-2.79 2.86,-2.81l0 0 19.59 0c1.41,0.04 2.75,1.13 2.82,2.79l0 2.63c0.92,-0.27 1.9,-0.41 2.91,-0.41 1,0 1.98,0.14 2.9,0.41l0 -2.66c0.1,-1.66 1.44,-2.74 2.86,-2.76l19.25 0c1.43,0.02 2.79,1.12 2.86,2.81l0 2.61c0.92,-0.27 1.9,-0.41 2.91,-0.41 1.01,0 1.98,0.14 2.91,0.41l0 -2.76 0 -1.31c-0.02,-0.48 -0.06,-0.93 -0.12,-1.35l0 -0.01 0 -0.03 -0.01 -0.04 0 -0.03 -0.01 -0.08 0 -0.01 -0.01 -0.03 0 -0.03 -0.02 -0.09 0 -0.03 0 0 -0.01 -0.03c-0.02,-0.1 -0.04,-0.2 -0.06,-0.3l0 0c-0.73,-3.55 -3.09,-4.93 -6.99,-5.11l-1.92 0 -59.92 0c4.55,0.22 7,2.08 7.19,7.17l0 1.31 0 0.15z"/>
  <path class="fil1" d="M163.08 8.4l0 2.84c0.92,-0.27 1.9,-0.41 2.91,-0.41 1.01,0 1.98,0.14 2.91,0.41l0 -2.61 0 -0.15 0 -1.31c-0.19,-5.09 -2.64,-6.95 -7.19,-7.17l-161.71 0 0 5.82 67.25 0c1.43,0.02 2.79,1.12 2.86,2.81l0 2.61c0.92,-0.27 1.9,-0.41 2.9,-0.41 1.01,0 1.99,0.14 2.91,0.41l0 -2.67c0.1,-1.66 1.44,-2.73 2.86,-2.75l0 0 19.57 0c1.43,0.02 2.79,1.12 2.85,2.81l0 2.61c0.93,-0.27 1.9,-0.41 2.91,-0.41 1.01,0 1.99,0.14 2.91,0.41l0 -2.67c0.1,-1.66 1.44,-2.73 2.85,-2.75l0 0 19.26 0c1.43,0.02 2.79,1.12 2.86,2.81l0 2.61c0.92,-0.27 1.89,-0.41 2.9,-0.41 1.01,0 1.99,0.14 2.91,0.41l0 -2.67c0.1,-1.66 1.44,-2.73 2.85,-2.75l0 0 19.59 0c1.37,0.01 2.67,1.02 2.84,2.58z"/>
 </g>
</svg>
