<?xml version="1.0" encoding="UTF-8"?>
<!DOCTYPE svg PUBLIC "-//W3C//DTD SVG 1.1//EN" "http://www.w3.org/Graphics/SVG/1.1/DTD/svg11.dtd">
<!-- Creator: CorelDRAW 2019 (64-Bit) -->
<svg xmlns="http://www.w3.org/2000/svg" xml:space="preserve" width="67px" height="67px" version="1.1" style="shape-rendering:geometricPrecision; text-rendering:geometricPrecision; image-rendering:optimizeQuality; fill-rule:evenodd; clip-rule:evenodd"
viewBox="0 0 6.77 6.77"
 xmlns:xlink="http://www.w3.org/1999/xlink">
 <defs>
  <style type="text/css">
   <![CDATA[
    .fil2 {fill:#FEFEFE}
    .fil1 {fill:#009846}
    .fil0 {fill:white}
   ]]>
  </style>
 </defs>
 <g id="Слой_x0020_1">
  <metadata id="CorelCorpID_0Corel-Layer"/>
  <g id="_1020296768">
   <circle class="fil0" transform="matrix(0.113157 0.101887 -0.101887 0.113157 3.38691 3.38696)" r="22.24"/>
   <g>
    <circle class="fil1" transform="matrix(0.10194 0.0917872 -0.0917872 0.10194 3.38691 3.38696)" r="22.24"/>
    <circle class="fil2" transform="matrix(0.0742832 0.0668849 -0.0668848 0.0742831 3.38691 3.38696)" r="7.08"/>
    <path class="fil2" d="M4.46 3.74c0.54,-0.42 0.75,-0.91 0.58,-1.48 -0.04,-0.16 -0.16,-0.32 0.03,-0.45 0.11,-0.07 0.26,-0.04 0.34,0.07 0.03,0.05 0.07,0.2 0.08,0.26 0.25,0.88 -0.1,1.59 -0.97,2.14 -0.11,0.07 -0.26,0.04 -0.33,-0.07 -0.08,-0.11 -0.04,-0.26 0.07,-0.33 0.07,-0.05 0.13,-0.09 0.2,-0.14z"/>
    <path class="fil2" d="M3.74 4.5c0.62,0.26 1.15,0.21 1.57,-0.21 0.12,-0.12 0.2,-0.3 0.41,-0.19 0.11,0.06 0.16,0.2 0.1,0.32 -0.03,0.05 -0.14,0.16 -0.19,0.2 -0.65,0.64 -1.43,0.69 -2.34,0.19 -0.12,-0.06 -0.16,-0.2 -0.1,-0.32 0.06,-0.12 0.21,-0.16 0.32,-0.1 0.08,0.04 0.14,0.07 0.23,0.11z"/>
    <path class="fil2" d="M2.59 4.2c0.13,0.66 0.47,1.07 1.05,1.19 0.16,0.03 0.36,0 0.39,0.23 0.01,0.13 -0.08,0.25 -0.21,0.26 -0.06,0.01 -0.21,-0.03 -0.28,-0.04 -0.89,-0.19 -1.37,-0.81 -1.46,-1.84 -0.01,-0.13 0.08,-0.25 0.21,-0.27 0.14,-0.01 0.26,0.09 0.27,0.22 0.01,0.09 0.01,0.16 0.03,0.25z"/>
    <path class="fil2" d="M2.25 3.13c-0.53,0.42 -0.74,0.91 -0.57,1.48 0.05,0.16 0.17,0.32 -0.02,0.45 -0.11,0.07 -0.26,0.05 -0.33,-0.06 -0.04,-0.05 -0.08,-0.2 -0.09,-0.27 -0.26,-0.88 0.08,-1.59 0.95,-2.14 0.11,-0.08 0.26,-0.05 0.33,0.06 0.08,0.11 0.04,0.26 -0.07,0.34 -0.07,0.05 -0.13,0.08 -0.2,0.14z"/>
    <path class="fil2" d="M3.05 2.27c-0.63,-0.26 -1.16,-0.21 -1.58,0.21 -0.11,0.12 -0.2,0.3 -0.4,0.19 -0.12,-0.06 -0.16,-0.2 -0.1,-0.32 0.02,-0.05 0.14,-0.16 0.18,-0.2 0.66,-0.64 1.44,-0.69 2.35,-0.19 0.11,0.06 0.16,0.21 0.1,0.32 -0.06,0.13 -0.21,0.17 -0.33,0.11 -0.08,-0.05 -0.14,-0.08 -0.22,-0.12z"/>
    <path class="fil2" d="M4.21 2.61c-0.09,-0.68 -0.41,-1.1 -0.99,-1.24 -0.16,-0.04 -0.35,-0.03 -0.37,-0.25 -0.01,-0.14 0.09,-0.25 0.22,-0.26 0.06,0 0.21,0.04 0.28,0.06 0.88,0.23 1.32,0.88 1.36,1.91 0.01,0.13 -0.09,0.25 -0.23,0.25 -0.13,0.01 -0.24,-0.09 -0.25,-0.22 0,-0.09 0,-0.16 -0.02,-0.25z"/>
   </g>
  </g>
 </g>
</svg>
