<?xml version="1.0" encoding="UTF-8"?>
<!DOCTYPE svg PUBLIC "-//W3C//DTD SVG 1.1//EN" "http://www.w3.org/Graphics/SVG/1.1/DTD/svg11.dtd">
<!-- Creator: CorelDRAW 2019 (64-Bit) -->
<svg xmlns="http://www.w3.org/2000/svg" xml:space="preserve" width="735px" height="35px" version="1.1" style="shape-rendering:geometricPrecision; text-rendering:geometricPrecision; image-rendering:optimizeQuality; fill-rule:evenodd; clip-rule:evenodd"
viewBox="0 0 213.4 10.1"
 xmlns:xlink="http://www.w3.org/1999/xlink">
 <defs>
  <style type="text/css">
   <![CDATA[
    .fil3 {fill:#FEFEFE}
    .fil2 {fill:#00A0E3}
    .fil0 {fill:#1A1A1A}
    .fil1 {fill:red}
   ]]>
  </style>
 </defs>
 <g id="Слой_x0020_1">
  <metadata id="CorelCorpID_0Corel-Layer"/>
  <path class="fil0" d="M176.93 4.72c1.32,-0.02 2.57,-1.04 2.63,-2.6l0 -2.12c0.85,0.25 1.75,0.38 2.69,0.38 0.93,0 1.83,-0.13 2.69,-0.38l0 2.18c0.09,1.53 1.33,2.52 2.63,2.54l0 0 17.8 0c1.33,-0.02 2.58,-1.03 2.65,-2.6l0 0 0 -2.12c0.85,0.25 1.76,0.38 2.69,0.38 0.93,0 1.83,-0.13 2.69,-0.38l0 2.26 0 1.21c-0.02,0.45 -0.05,0.86 -0.11,1.25l0 0.02 0 0.04 -0.01 0.03 0 0.03 -0.01 0.03 0 0.03 0 0 -0.01 0.03 0 0.03 -0.01 0.03 0 0.03 -0.01 0.03 0 0.02 0 0.01 -0.01 0.03 0 0.03 -0.01 0.03 0 0.03 -0.01 0.03 0 0.03 -0.01 0.03 -0.01 0.03 0 0.03 -0.01 0.03 0 0.02 0 0.01 -0.01 0.03 -0.01 0.03 0 0.02 -0.01 0.03c-0.7,3.15 -2.84,4.4 -6.32,4.58l-57.33 0c4.23,-0.19 6.51,-1.92 6.68,-6.63l0 -1.21 0 -0.14 0.01 0c0.06,1.56 1.32,2.58 2.64,2.6l0 0 18.1 0z"/>
  <path class="fil1" d="M149.48 10.1l-1.78 0 -147.7 0 0 -5.38 62.18 0c1.32,-0.02 2.58,-1.03 2.64,-2.6l0 0 0 -2.12c0.85,0.25 1.76,0.38 2.69,0.38 0.93,0 1.83,-0.13 2.69,-0.38l0 2.2c0.1,1.52 1.33,2.5 2.63,2.52l0 0 18.17 0c1.3,-0.05 2.51,-1.06 2.57,-2.6l0 -2.12c0.86,0.25 1.76,0.38 2.69,0.38 0.93,0 1.84,-0.13 2.69,-0.38l0 2.18c0.09,1.52 1.31,2.51 2.6,2.54l17.84 0c1.31,-0.02 2.55,-1.01 2.64,-2.54l0 -2.18c0.86,0.25 1.76,0.38 2.69,0.38 0.93,0 1.84,-0.13 2.69,-0.38l0 2.12c0.06,1.57 1.32,2.58 2.64,2.6l0 0 18.1 0c1.29,-0.02 2.52,-0.99 2.63,-2.49l0 -2.23c0.86,0.25 1.76,0.38 2.69,0.38 0.94,0 1.84,-0.13 2.69,-0.38l0 2.12 0 0.14 0 1.21c-0.17,4.71 -2.45,6.44 -6.68,6.63z"/>
  <path class="fil2" d="M153.78 8.93c-0.78,-0.1 -1.65,-0.45 -2.82,-1.21 -2.07,-1.35 -4.35,-1.13 -8.04,0.31 -3.32,1.29 -6.23,1.41 -10.07,-0.22 -2.36,-1 -6.46,-1.17 -9.44,0.15 -2.11,0.94 -4.96,1.77 -8.62,-0.03 -1.98,-0.98 -4.97,-1.53 -8.66,-0.03 -2.47,1 -5.58,1.36 -9.21,-0.03 -2.32,-0.89 -5.48,-1.83 -9.03,-0.03 -1.99,1.01 -4.92,2.15 -7.71,-0.03 -1.64,-1.28 -4.25,-1.67 -7.48,-0.02 -2.12,1.08 -4.89,1.37 -7.44,-0.03 -1.99,-1.09 -4.53,-1.58 -6.89,-0.02 -1.62,1.06 -4,1.3 -6.36,-0.02 -1.98,-1.12 -4.88,-1.74 -7.89,-0.03 -1.43,0.81 -4.53,1.76 -7.53,-0.03 -0.8,-0.48 -3.03,-1.54 -6.35,-0.02 -2.09,0.96 -4.73,2.02 -7.3,-0.02 -1.39,-1.12 -3.55,-1.97 -7.44,-0.03 -2.69,1.34 -5.46,0.78 -7.64,-0.03 -2.75,-1.13 -5.41,-1.49 -7.86,-0.02l0 2.56 1.97 0 46.93 0 13.28 0 10.66 0 18.09 0 10.66 0 17.8 0 10.66 0 17.65 0 0.46 0 1.32 0c1.78,-0.08 3.22,-0.44 4.3,-1.17z"/>
  <circle class="fil3" cx="52.04" cy="8.95" r="0.27"/>
  <circle class="fil3" cx="61.65" cy="7.98" r="0.68"/>
  <circle class="fil3" cx="59.41" cy="8.71" r="0.39"/>
  <circle class="fil3" cx="68.64" cy="9.51" r="0.39"/>
  <circle class="fil3" cx="64.93" cy="9.14" r="0.39"/>
  <circle class="fil3" cx="63.44" cy="9.09" r="0.19"/>
  <circle class="fil3" cx="71.39" cy="9.44" r="0.27"/>
  <circle class="fil3" cx="75.9" cy="8.8" r="0.5"/>
  <circle class="fil3" cx="73.71" cy="8.85" r="0.19"/>
  <circle class="fil3" cx="80.64" cy="9.04" r="0.27"/>
  <circle class="fil3" cx="88.13" cy="9.15" r="0.39"/>
  <circle class="fil3" cx="94.36" cy="9.04" r="0.39"/>
  <circle class="fil3" cx="91.59" cy="8.57" r="0.39"/>
  <circle class="fil3" cx="96.27" cy="8.97" r="0.68"/>
  <circle class="fil3" cx="77.71" cy="8.2" r="0.27"/>
  <circle class="fil3" cx="106.51" cy="9.21" r="0.5"/>
  <circle class="fil3" cx="102.14" cy="9.45" r="0.19"/>
  <circle class="fil3" cx="84.03" cy="9.54" r="0.19"/>
  <circle class="fil3" cx="109.02" cy="9.07" r="0.27"/>
  <circle class="fil3" cx="110.27" cy="7.99" r="0.39"/>
  <circle class="fil3" cx="112.14" cy="8.64" r="0.68"/>
  <circle class="fil3" cx="119.47" cy="9.52" r="0.19"/>
  <circle class="fil3" cx="125.26" cy="9.45" r="0.39"/>
  <circle class="fil3" cx="123.2" cy="9.34" r="0.5"/>
  <circle class="fil3" cx="116.52" cy="9.47" r="0.39"/>
  <circle class="fil3" cx="114.48" cy="9.34" r="0.19"/>
  <circle class="fil3" cx="126.32" cy="8.2" r="0.27"/>
  <circle class="fil3" cx="132.88" cy="8.91" r="0.5"/>
  <circle class="fil3" cx="130.69" cy="8.97" r="0.19"/>
  <circle class="fil3" cx="129.01" cy="8.35" r="0.27"/>
  <circle class="fil3" cx="136.98" cy="9.53" r="0.19"/>
  <circle class="fil3" cx="145.36" cy="9.15" r="0.39"/>
  <circle class="fil3" cx="150.59" cy="8.77" r="0.39"/>
  <circle class="fil3" cx="148.06" cy="8.08" r="0.68"/>
  <circle class="fil3" cx="141.41" cy="9.11" r="0.19"/>
  <circle class="fil3" cx="54.97" cy="9.36" r="0.19"/>
 </g>
</svg>
