<?xml version="1.0" encoding="UTF-8"?>
<!DOCTYPE svg PUBLIC "-//W3C//DTD SVG 1.1//EN" "http://www.w3.org/Graphics/SVG/1.1/DTD/svg11.dtd">
<!-- Creator: CorelDRAW 2019 (64-Bit) -->
<svg xmlns="http://www.w3.org/2000/svg" xml:space="preserve" width="735px" height="36px" version="1.1" style="shape-rendering:geometricPrecision; text-rendering:geometricPrecision; image-rendering:optimizeQuality; fill-rule:evenodd; clip-rule:evenodd"
viewBox="0 0 628.39 30.62"
 xmlns:xlink="http://www.w3.org/1999/xlink">
 <defs>
  <style type="text/css">
   <![CDATA[
    .fil2 {fill:#FEFEFE}
    .fil1 {fill:#00A0E3}
    .fil3 {fill:#1A1A1A}
    .fil0 {fill:#B3B3B3}
   ]]>
  </style>
 </defs>
 <g id="Слой_x0020_1">
  <metadata id="CorelCorpID_0Corel-Layer"/>
  <path class="fil0" d="M187.04 0l-5.23 0 -181.81 0 0 15.84 5.8 0 138.21 0 39.11 0c3.9,0.05 7.6,3.05 7.78,7.66l0 7.1c2.51,-0.73 5.17,-1.12 7.92,-1.12 2.75,0 5.4,0.39 7.92,1.12l0 -7.27 0 -0.26 -0.02 0.02 0.02 -0.43 0 -2.81c-0.41,-14.13 -7.14,-19.28 -19.7,-19.85z"/>
  <path class="fil1" d="M205.5 11.61c-4.66,0.74 -8.49,-0.02 -13.31,-2.66 -5.87,-3.23 -13.33,-4.66 -20.3,-0.07 -4.75,3.12 -11.77,3.84 -18.7,-0.07 -5.84,-3.28 -14.38,-5.1 -23.25,-0.08 -4.21,2.39 -13.33,5.2 -22.17,-0.07 -2.37,-1.41 -8.92,-4.54 -18.71,-0.07 -6.17,2.82 -13.95,5.95 -21.5,-0.07 -4.11,-3.27 -10.44,-5.8 -21.91,-0.08 -7.93,3.95 -16.08,2.29 -22.5,-0.08 -8.1,-3.33 -15.94,-4.4 -23.15,-0.08l0 7.56 183.12 0c3.9,0.05 7.6,3.05 7.78,7.66l0 7.1c2.51,-0.73 5.17,-1.12 7.92,-1.12 2.75,0 5.4,0.39 7.92,1.12l0 -7.27c0.14,-4.9 -0.26,-8.84 -1.24,-11.72z"/>
  <circle class="fil2" cx="153.25" cy="12.46" r="0.79"/>
  <circle class="fil2" cx="181.57" cy="9.58" r="2"/>
  <circle class="fil2" cx="174.96" cy="11.74" r="1.16"/>
  <circle class="fil2" cx="203.22" cy="16.93" r="1.16"/>
  <circle class="fil2" cx="194.42" cy="15.84" r="1.16"/>
  <circle class="fil2" cx="186.84" cy="12.86" r="0.55"/>
  <circle class="fil2" cx="194.76" cy="25.99" r="1.16"/>
  <circle class="fil2" cx="203.28" cy="25.53" r="1.46"/>
  <circle class="fil2" cx="161.89" cy="13.65" r="0.55"/>
  <path class="fil3" d="M444.06 22.89l0 7.73c2.51,-0.73 5.17,-1.12 7.92,-1.12 2.74,0 5.4,0.39 7.91,1.12l0 -7.1 0.04 0c0.18,-4.61 3.88,-7.61 7.78,-7.66l0 -0.01 53.36 0c3.84,0.11 7.46,3.08 7.66,7.62l0 7.15c2.52,-0.73 5.17,-1.12 7.92,-1.12 2.75,0 5.41,0.39 7.92,1.12l0 -7.24c0.25,-4.53 3.91,-7.47 7.77,-7.53l52.43 0c3.9,0.06 7.6,3.06 7.78,7.67l0 7.1c2.52,-0.73 5.17,-1.12 7.92,-1.12 2.75,0 5.4,0.39 7.92,1.12l0 -7.51 0 -3.56c-0.05,-1.31 -0.15,-2.54 -0.31,-3.7l0 -0.02 -0.01 -0.09 -0.02 -0.08 -0.01 -0.08 -0.03 -0.24 -0.01 -0.02 -0.01 -0.08 -0.01 -0.08 -0.04 -0.25 -0.02 -0.08 0 0 -0.01 -0.08c-0.05,-0.28 -0.1,-0.54 -0.15,-0.81l0 0c-1.99,-9.68 -8.44,-13.44 -19.05,-13.92l-5.23 0 -416.45 0c12.56,0.57 19.28,5.71 19.69,19.84l0 2.82 -0.01 0.43 0.01 -0.02 0 0.25c0.27,-4.51 3.93,-7.43 7.77,-7.48l0 -0.01 53.29 0c3.9,0.06 7.6,3.06 7.78,7.67l0 7.1c2.52,-0.73 5.17,-1.12 7.92,-1.12 2.75,0 5.41,0.39 7.92,1.12l0 -7.28c0.27,-4.51 3.92,-7.43 7.77,-7.48l0 -0.01 52.43 0c3.9,0.06 7.6,3.06 7.78,7.67l0 7.1c2.52,-0.73 5.17,-1.12 7.92,-1.12 2.75,0 5.41,0.39 7.92,1.12l0 -7.28c0.27,-4.51 3.92,-7.43 7.77,-7.48l0 -0.01 53.34 0c3.71,0.06 7.25,2.79 7.73,7.04z"/>
 </g>
</svg>
