<?xml version="1.0" encoding="UTF-8"?>
<!DOCTYPE svg PUBLIC "-//W3C//DTD SVG 1.1//EN" "http://www.w3.org/Graphics/SVG/1.1/DTD/svg11.dtd">
<!-- Creator: CorelDRAW 2019 (64-Bit) -->
<svg xmlns="http://www.w3.org/2000/svg" xml:space="preserve" width="735px" height="35px" version="1.1" style="shape-rendering:geometricPrecision; text-rendering:geometricPrecision; image-rendering:optimizeQuality; fill-rule:evenodd; clip-rule:evenodd"
viewBox="0 0 628.39 29.76"
 xmlns:xlink="http://www.w3.org/1999/xlink">
 <defs>
  <style type="text/css">
   <![CDATA[
    .fil3 {fill:#FEFEFE}
    .fil2 {fill:#00A0E3}
    .fil1 {fill:#1A1A1A}
    .fil0 {fill:#FF6600}
   ]]>
  </style>
 </defs>
 <g id="Слой_x0020_1">
  <metadata id="CorelCorpID_0Corel-Layer"/>
  <path class="fil0" d="M187.31 29.74l-187.31 0 0 -15.83 183.12 0c3.89,-0.06 7.59,-3.06 7.78,-7.67l0 0 0 -6.24c2.51,0.73 5.17,1.12 7.92,1.12 2.75,0 5.4,-0.39 7.92,-1.12l0 6.48 0 0.18 0 3.57c-0.5,13.79 -7.14,18.89 -19.43,19.51z"/>
  <path class="fil1" d="M520.99 13.93c3.88,-0.08 7.56,-3.07 7.74,-7.67l0 -6.24c2.52,0.73 5.17,1.12 7.92,1.12 2.75,0 5.41,-0.39 7.92,-1.12l0 6.42c0.27,4.51 3.92,7.43 7.77,7.48l0 0.01 52.42 0c3.9,-0.06 7.6,-3.06 7.78,-7.67l0.01 0 0 -6.24c2.52,0.73 5.17,1.12 7.92,1.12 2.75,0 5.4,-0.39 7.92,-1.12l0 6.67 0 3.56c-0.05,1.3 -0.15,2.52 -0.31,3.68l0 0.06 -0.02 0.09 -0.01 0.1 -0.01 0.09 -0.02 0.09 -0.01 0.08 0 0.01 -0.02 0.09 -0.01 0.09 -0.01 0.09 -0.02 0.09 -0.01 0.09 -0.01 0.04 -0.01 0.05 -0.01 0.09 -0.02 0.09 -0.02 0.08 -0.01 0.09 -0.02 0.09 -0.02 0.09 -0.01 0.08 -0.02 0.09 -0.02 0.09 -0.01 0.08 -0.01 0.05 -0.01 0.04 -0.02 0.08 -0.02 0.09 -0.02 0.08 -0.01 0.09c-2.07,9.26 -8.37,12.93 -18.61,13.47l-421.76 0c12.29,-0.62 18.93,-5.72 19.42,-19.51l0 -3.57 0 -0.18c0.3,4.47 3.94,7.37 7.77,7.42l0 0.01 53.5 0c3.82,-0.16 7.39,-3.13 7.57,-7.66l0 -6.25c2.52,0.73 5.17,1.12 7.92,1.12 2.75,0 5.41,-0.39 7.92,-1.12l0 6.42c0.26,4.47 3.85,7.38 7.66,7.49l52.55 0c3.85,-0.06 7.51,-2.98 7.77,-7.49l0 -6.42c2.52,0.73 5.17,1.12 7.92,1.12 2.75,0 5.41,-0.39 7.92,-1.12l0 6.24c0.18,4.61 3.88,7.61 7.78,7.66l0 0.01 53.3 0c3.8,-0.06 7.42,-2.92 7.76,-7.35l0 -6.56c2.51,0.73 5.17,1.12 7.92,1.12 2.74,0 5.4,-0.39 7.91,-1.12l0 6.24 0.01 0c0.19,4.61 3.89,7.61 7.78,7.66l0 0.01 53.31 0z"/>
  <path class="fil2" d="M200.53 25.7c-2.69,-0.27 -5.32,-1.19 -8.34,-2.85 -5.87,-3.22 -13.33,-4.65 -20.3,-0.07 -4.75,3.12 -11.77,3.84 -18.7,-0.06 -5.84,-3.28 -14.38,-5.11 -23.25,-0.08 -4.21,2.39 -13.33,5.2 -22.17,-0.08 -2.37,-1.41 -8.92,-4.53 -18.71,-0.06 -6.17,2.82 -13.95,5.95 -21.5,-0.08 -4.11,-3.27 -10.44,-5.79 -21.91,-0.07 -7.93,3.95 -16.08,2.29 -22.5,-0.08 -8.1,-3.33 -15.94,-4.41 -23.15,-0.08l0 7.55 181.82 0 0 0 0.03 0 1.27 0 3.91 0c5.73,-0.26 10.24,-1.46 13.5,-4.04z"/>
  <circle class="fil3" cx="153.25" cy="26.37" r="0.79"/>
  <circle class="fil3" cx="181.57" cy="23.49" r="2"/>
  <circle class="fil3" cx="174.96" cy="25.64" r="1.16"/>
  <circle class="fil3" cx="186.84" cy="26.76" r="0.55"/>
  <circle class="fil3" cx="161.89" cy="27.56" r="0.55"/>
 </g>
</svg>
