<?xml version="1.0" encoding="UTF-8"?>
<!DOCTYPE svg PUBLIC "-//W3C//DTD SVG 1.1//EN" "http://www.w3.org/Graphics/SVG/1.1/DTD/svg11.dtd">
<!-- Creator: CorelDRAW 2019 (64-Bit) -->
<svg xmlns="http://www.w3.org/2000/svg" xml:space="preserve" width="60px" height="36px" version="1.1" style="shape-rendering:geometricPrecision; text-rendering:geometricPrecision; image-rendering:optimizeQuality; fill-rule:evenodd; clip-rule:evenodd"
viewBox="0 0 0.78 0.46"
 xmlns:xlink="http://www.w3.org/1999/xlink">
 <defs>
  <style type="text/css">
   <![CDATA[
    .fil0 {fill:black}
    .fil1 {fill:#009846}
    .fil2 {fill:#B3B3B3}
    .fil3 {fill:white;fill-rule:nonzero}
   ]]>
  </style>
 </defs>
 <g id="Слой_x0020_1">
  <metadata id="CorelCorpID_0Corel-Layer"/>
  <path class="fil0" d="M0 0.01l0.52 0c0.03,0.13 0.13,0.24 0.26,0.3l0 0.15 -0.78 0 0 -0.45z"/>
  <rect class="fil1" x="0.04" y="0.29" width="0.15" height="0.05" rx="0.03" ry="0.02"/>
  <path class="fil2" d="M0.58 0.38c-0.03,0.05 -0.08,0.09 -0.15,0.08l0 0c-0.08,-0.01 -0.14,-0.08 -0.13,-0.16l0 0c0.01,-0.06 0.05,-0.11 0.11,-0.13l0 0c0.08,-0.02 0.13,-0.09 0.11,-0.17l0 0c0.03,0.13 0.12,0.25 0.24,0.3 -0.07,-0.03 -0.15,0.01 -0.18,0.08l0 0z"/>
  <rect class="fil0" transform="matrix(1.02736 0.0898822 -0.0898822 1.02736 0.339732 0.190847)" width="0.23" height="0.23" rx="0.11" ry="0.11"/>
  <polygon class="fil3" points="0.45,0.37 0.43,0.37 0.43,0.32 0.39,0.32 0.39,0.37 0.37,0.37 0.37,0.27 0.39,0.27 0.39,0.31 0.43,0.31 0.43,0.27 0.45,0.27 "/>
  <polygon id="1" class="fil3" points="0.49,0.35 0.52,0.35 0.52,0.37 0.46,0.37 0.46,0.35 0.5,0.31 0.46,0.31 0.46,0.29 0.52,0.29 0.52,0.31 "/>
 </g>
</svg>
