<?xml version="1.0" encoding="UTF-8"?>
<!DOCTYPE svg PUBLIC "-//W3C//DTD SVG 1.1//EN" "http://www.w3.org/Graphics/SVG/1.1/DTD/svg11.dtd">
<!-- Creator: CorelDRAW 2019 (64-Bit) -->
<svg xmlns="http://www.w3.org/2000/svg" xml:space="preserve" width="67px" height="67px" version="1.1" style="shape-rendering:geometricPrecision; text-rendering:geometricPrecision; image-rendering:optimizeQuality; fill-rule:evenodd; clip-rule:evenodd"
viewBox="0 0 0.99 0.99"
 xmlns:xlink="http://www.w3.org/1999/xlink">
 <defs>
  <style type="text/css">
   <![CDATA[
    .fil1 {fill:black}
    .fil0 {fill:#1A1A1A}
   ]]>
  </style>
 </defs>
 <g id="Слой_x0020_1">
  <metadata id="CorelCorpID_0Corel-Layer"/>
  <g id="_1063355088">
   <circle class="fil0" cx="0.49" cy="0.49" r="0.49"/>
   <g>
    <circle class="fil1" cx="0.49" cy="0.49" r="0.45"/>
    <circle class="fil0" cx="0.49" cy="0.49" r="0.1"/>
    <path class="fil0" d="M0.65 0.43c0.01,-0.1 -0.01,-0.17 -0.09,-0.22 -0.02,-0.01 -0.04,-0.02 -0.04,-0.05 0.01,-0.02 0.03,-0.03 0.05,-0.03 0,0.01 0.02,0.02 0.03,0.02 0.11,0.08 0.15,0.19 0.1,0.33 0,0.02 -0.02,0.03 -0.04,0.03 -0.02,-0.01 -0.03,-0.03 -0.02,-0.05 0,-0.01 0,-0.02 0.01,-0.03z"/>
    <path class="fil0" d="M0.64 0.58c0.1,-0.03 0.15,-0.09 0.15,-0.18 0,-0.02 -0.01,-0.05 0.03,-0.06 0.02,0 0.03,0.01 0.04,0.03 0,0.01 0,0.03 0,0.04 -0.01,0.13 -0.09,0.21 -0.24,0.25 -0.02,0 -0.03,-0.01 -0.04,-0.03 0,-0.02 0.01,-0.03 0.03,-0.04 0.01,0 0.02,0 0.03,-0.01z"/>
    <path class="fil0" d="M0.49 0.66c0.08,0.06 0.15,0.07 0.23,0.03 0.02,-0.02 0.04,-0.04 0.06,-0.02 0.02,0.02 0.02,0.04 0.01,0.05 -0.01,0.01 -0.03,0.02 -0.04,0.03 -0.11,0.06 -0.23,0.04 -0.34,-0.06 -0.01,-0.01 -0.01,-0.04 0,-0.05 0.01,-0.02 0.04,-0.02 0.05,0 0.01,0.01 0.02,0.01 0.03,0.02z"/>
    <path class="fil0" d="M0.35 0.58c-0.02,0.1 0.01,0.17 0.08,0.21 0.02,0.02 0.05,0.02 0.04,0.06 0,0.01 -0.02,0.03 -0.04,0.02 -0.01,0 -0.03,-0.01 -0.04,-0.02 -0.11,-0.07 -0.14,-0.18 -0.1,-0.32 0,-0.02 0.02,-0.03 0.04,-0.03 0.02,0 0.03,0.02 0.02,0.04 0,0.02 0,0.02 0,0.04z"/>
    <path class="fil0" d="M0.35 0.41c-0.09,0.03 -0.15,0.09 -0.15,0.17 0,0.03 0.01,0.06 -0.03,0.06 -0.02,0.01 -0.03,0 -0.04,-0.02 0,-0.01 0,-0.03 0,-0.04 0.01,-0.14 0.09,-0.22 0.24,-0.25 0.02,-0.01 0.03,0.01 0.04,0.02 0,0.02 -0.01,0.04 -0.03,0.05 -0.01,0 -0.02,0 -0.03,0.01z"/>
    <path class="fil0" d="M0.51 0.33c-0.08,-0.06 -0.15,-0.08 -0.23,-0.04 -0.02,0.01 -0.04,0.03 -0.07,0.01 -0.01,-0.01 -0.01,-0.03 0,-0.05 0.01,0 0.03,-0.01 0.04,-0.02 0.12,-0.06 0.23,-0.03 0.33,0.08 0.02,0.01 0.02,0.03 0,0.04 -0.01,0.02 -0.03,0.02 -0.05,0 0,0 -0.01,-0.01 -0.02,-0.02z"/>
   </g>
  </g>
 </g>
</svg>
