<?xml version="1.0" encoding="UTF-8"?>
<!DOCTYPE svg PUBLIC "-//W3C//DTD SVG 1.1//EN" "http://www.w3.org/Graphics/SVG/1.1/DTD/svg11.dtd">
<!-- Creator: CorelDRAW 2019 (64-Bit) -->
<svg xmlns="http://www.w3.org/2000/svg" xml:space="preserve" width="67px" height="67px" version="1.1" style="shape-rendering:geometricPrecision; text-rendering:geometricPrecision; image-rendering:optimizeQuality; fill-rule:evenodd; clip-rule:evenodd"
viewBox="0 0 0.87 0.87"
 xmlns:xlink="http://www.w3.org/1999/xlink">
 <defs>
  <style type="text/css">
   <![CDATA[
    .fil2 {fill:#FEFEFE}
    .fil1 {fill:#FF6600}
    .fil0 {fill:white}
   ]]>
  </style>
 </defs>
 <g id="Слой_x0020_1">
  <metadata id="CorelCorpID_0Corel-Layer"/>
  <g id="_1311510288">
   <circle class="fil0" transform="matrix(0.142119 0.0545536 -0.0545545 0.142117 0.434062 0.434053)" r="2.85"/>
   <g>
    <circle class="fil1" transform="matrix(0.128031 0.0491456 -0.0491465 0.128029 0.434062 0.434052)" r="2.85"/>
    <circle class="fil2" transform="matrix(0.0932955 0.0358122 -0.0358128 0.0932939 0.434062 0.434052)" r="0.91"/>
    <path class="fil2" d="M0.58 0.43c0.04,-0.08 0.05,-0.15 0,-0.21 -0.01,-0.01 -0.03,-0.03 -0.02,-0.05 0.01,-0.02 0.03,-0.02 0.05,-0.01 0,0.01 0.01,0.02 0.02,0.03 0.07,0.09 0.06,0.19 -0.02,0.3 -0.01,0.01 -0.03,0.02 -0.04,0.01 -0.02,-0.01 -0.02,-0.03 -0.01,-0.05 0.01,-0.01 0.01,-0.01 0.02,-0.02z"/>
    <path class="fil2" d="M0.53 0.55c0.08,0 0.14,-0.03 0.18,-0.1 0,-0.02 0.01,-0.04 0.04,-0.04 0.01,0 0.02,0.02 0.02,0.04 0,0 -0.01,0.02 -0.01,0.03 -0.05,0.11 -0.14,0.15 -0.27,0.13 -0.02,0 -0.03,-0.02 -0.03,-0.04 0,-0.01 0.02,-0.02 0.04,-0.02 0.01,0 0.02,0 0.03,0z"/>
    <path class="fil2" d="M0.38 0.57c0.04,0.07 0.1,0.1 0.18,0.09 0.02,0 0.04,-0.01 0.05,0.01 0.01,0.02 0,0.03 -0.01,0.04 -0.01,0.01 -0.03,0.01 -0.03,0.01 -0.12,0.02 -0.21,-0.03 -0.26,-0.15 -0.01,-0.02 -0.01,-0.04 0.01,-0.04 0.01,-0.01 0.03,-0.01 0.04,0.01 0.01,0.01 0.01,0.02 0.02,0.03z"/>
    <path class="fil2" d="M0.29 0.46c-0.05,0.07 -0.05,0.14 0,0.2 0.01,0.02 0.03,0.03 0.01,0.05 -0.01,0.02 -0.02,0.02 -0.04,0.01 0,0 -0.02,-0.02 -0.02,-0.03 -0.07,-0.09 -0.06,-0.19 0.01,-0.3 0.01,-0.01 0.03,-0.01 0.05,0 0.01,0.01 0.01,0.03 0,0.04 0,0.01 -0.01,0.02 -0.01,0.03z"/>
    <path class="fil2" d="M0.34 0.32c-0.08,-0.01 -0.15,0.02 -0.18,0.09 0,0.02 -0.01,0.05 -0.04,0.05 -0.01,-0.01 -0.02,-0.02 -0.02,-0.04 0,-0.01 0.01,-0.02 0.01,-0.03 0.05,-0.11 0.14,-0.15 0.27,-0.13 0.02,0 0.03,0.02 0.03,0.03 0,0.02 -0.02,0.03 -0.04,0.03 -0.01,0 -0.02,0 -0.03,0z"/>
    <path class="fil2" d="M0.5 0.3c-0.05,-0.07 -0.1,-0.11 -0.18,-0.1 -0.02,0 -0.04,0.01 -0.05,-0.01 -0.01,-0.02 0,-0.04 0.01,-0.04 0.01,-0.01 0.03,-0.01 0.04,-0.01 0.11,-0.01 0.2,0.04 0.25,0.17 0,0.01 0,0.03 -0.02,0.04 -0.01,0 -0.03,0 -0.04,-0.02 0,-0.01 -0.01,-0.02 -0.01,-0.03z"/>
   </g>
  </g>
 </g>
</svg>
