<?xml version="1.0" encoding="UTF-8"?>
<!DOCTYPE svg PUBLIC "-//W3C//DTD SVG 1.1//EN" "http://www.w3.org/Graphics/SVG/1.1/DTD/svg11.dtd">
<!-- Creator: CorelDRAW 2019 (64-Bit) -->
<svg xmlns="http://www.w3.org/2000/svg" xml:space="preserve" width="56px" height="361px" version="1.1" style="shape-rendering:geometricPrecision; text-rendering:geometricPrecision; image-rendering:optimizeQuality; fill-rule:evenodd; clip-rule:evenodd"
viewBox="0 0 1.43 9.19"
 xmlns:xlink="http://www.w3.org/1999/xlink">
 <defs>
  <style type="text/css">
   <![CDATA[
    .fil0 {fill:black}
    .fil1 {fill:red}
   ]]>
  </style>
 </defs>
 <g id="Слой_x0020_1">
  <metadata id="CorelCorpID_0Corel-Layer"/>
  <rect class="fil0" width="1.43" height="9.19"/>
  <path class="fil1" d="M0 8.45l0.04 0 0.25 0 0.04 0c0.03,0 0.04,0.03 0.04,0.06l0 0c0,0.04 -0.01,0.07 -0.04,0.07l-0.04 0 -0.25 0 -0.04 0 0 -0.07 0 0 0 -0.06z"/>
  <path class="fil1" d="M0 6.74l0.04 0 0.25 0 0.04 0c0.03,0 0.04,0.03 0.04,0.07l0 0c0,0.03 -0.01,0.06 -0.04,0.06l-0.04 0 -0.25 0 -0.04 0 0 -0.06 0 0 0 -0.07z"/>
  <path class="fil1" d="M0 0l0.04 0 0.25 0 0.04 0c0.03,0 0.04,0.03 0.04,0.06l0 0c0,0.04 -0.01,0.07 -0.04,0.07l-0.04 0 -0.25 0 -0.04 0 0 -0.07 0 0 0 -0.06z"/>
  <path class="fil1" d="M0 5.06l0.04 0 0.25 0 0.04 0c0.03,0 0.04,0.03 0.04,0.07l0 0c0,0.03 -0.01,0.06 -0.04,0.06l-0.04 0 -0.25 0 -0.04 0 0 -0.06 0 0 0 -0.07z"/>
  <path class="fil1" d="M0 3.38l0.04 0 0.25 0 0.04 0c0.03,0 0.04,0.03 0.04,0.06l0 0c0,0.04 -0.01,0.07 -0.04,0.07l-0.04 0 -0.25 0 -0.04 0 0 -0.07 0 0 0 -0.06z"/>
  <path class="fil1" d="M0 1.7l0.04 0 0.25 0 0.04 0c0.03,0 0.04,0.03 0.04,0.06l0 0c0,0.04 -0.01,0.07 -0.04,0.07l-0.04 0 -0.25 0 -0.04 0 0 -0.07 0 0 0 -0.06z"/>
 </g>
</svg>
