<?xml version="1.0" encoding="UTF-8"?>
<!DOCTYPE svg PUBLIC "-//W3C//DTD SVG 1.1//EN" "http://www.w3.org/Graphics/SVG/1.1/DTD/svg11.dtd">
<!-- Creator: CorelDRAW 2019 (64-Bit) -->
<svg xmlns="http://www.w3.org/2000/svg" xml:space="preserve" width="735px" height="35px" version="1.1" style="shape-rendering:geometricPrecision; text-rendering:geometricPrecision; image-rendering:optimizeQuality; fill-rule:evenodd; clip-rule:evenodd"
viewBox="0 0 721.92 34.17"
 xmlns:xlink="http://www.w3.org/1999/xlink">
 <defs>
  <style type="text/css">
   <![CDATA[
    .fil1 {fill:#FEFEFE}
    .fil0 {fill:#00A0E3}
    .fil2 {fill:#1A1A1A}
   ]]>
  </style>
 </defs>
 <g id="Слой_x0020_1">
  <metadata id="CorelCorpID_0Corel-Layer"/>
  <path class="fil0" d="M215.18 34.17l-215.18 0 0 -18.19 210.37 0c4.47,-0.07 8.73,-3.51 8.94,-8.81l0 0 0 -7.17c2.89,0.84 5.94,1.28 9.1,1.28 3.15,0 6.2,-0.44 9.09,-1.28l0 7.45 0 0.2 0 4.1c-0.57,15.84 -8.19,21.7 -22.32,22.42z"/>
  <circle class="fil1" cx="176.24" cy="19.49" r="0.9"/>
  <circle class="fil1" cx="172.16" cy="26.25" r="1.33"/>
  <circle class="fil1" cx="187.17" cy="29.9" r="1.33"/>
  <circle class="fil1" cx="179.63" cy="24.86" r="2.31"/>
  <circle class="fil1" cx="191.78" cy="19.94" r="2.3"/>
  <circle class="fil1" cx="196.89" cy="27.23" r="0.64"/>
  <circle class="fil1" cx="201.18" cy="20.32" r="1.33"/>
  <circle class="fil1" cx="206.53" cy="28.5" r="1.68"/>
  <circle class="fil1" cx="233.64" cy="14.35" r="1.33"/>
  <circle class="fil1" cx="223.54" cy="15.61" r="1.33"/>
  <circle class="fil1" cx="229.47" cy="21.26" r="2.3"/>
  <circle class="fil1" cx="214.83" cy="19.04" r="0.64"/>
  <circle class="fil1" cx="223.93" cy="28.5" r="1.33"/>
  <circle class="fil1" cx="214.11" cy="26.25" r="1.33"/>
  <circle class="fil1" cx="229" cy="5.87" r="1.68"/>
  <path class="fil2" d="M598.54 15.98c4.46,-0.09 8.69,-3.53 8.89,-8.8l0 -7.18c2.89,0.84 5.94,1.28 9.1,1.28 3.16,0 6.21,-0.44 9.1,-1.28l0 7.37c0.3,5.18 4.5,8.54 8.92,8.6l0 0.01 60.23 0c4.47,-0.07 8.72,-3.51 8.93,-8.81l0.02 0 0 -7.17c2.88,0.84 5.94,1.28 9.09,1.28 3.16,0 6.21,-0.44 9.1,-1.28l0 7.66 0 4.1c-0.06,1.49 -0.17,2.9 -0.35,4.22l-0.01 0.07 -0.02 0.11 -0.01 0.1 -0.02 0.11 -0.01 0.1 -0.01 0.09 -0.01 0.02 -0.01 0.1 -0.02 0.11 -0.02 0.1 -0.01 0.1 -0.02 0.11 -0.01 0.04 -0.01 0.06 -0.02 0.1 -0.01 0.1 -0.02 0.1 -0.02 0.1 -0.02 0.1 -0.02 0.1 -0.02 0.1 -0.02 0.1 -0.02 0.1 -0.02 0.1 -0.01 0.06 -0.01 0.04 -0.02 0.1 -0.02 0.1 -0.02 0.09 -0.02 0.1c-2.38,10.64 -9.61,14.86 -21.38,15.48l-484.53 0c14.13,-0.72 21.75,-6.58 22.32,-22.42l0 -4.1 0 -0.2c0.35,5.13 4.53,8.46 8.92,8.52l0 0.01 61.46 0c4.39,-0.18 8.5,-3.6 8.71,-8.8l0 -7.18c2.88,0.84 5.94,1.28 9.09,1.28 3.16,0 6.21,-0.44 9.1,-1.28l0 7.38c0.3,5.13 4.43,8.47 8.8,8.6l60.37 0c4.42,-0.07 8.62,-3.42 8.93,-8.6l0 -7.38c2.89,0.84 5.94,1.28 9.1,1.28 3.15,0 6.21,-0.44 9.09,-1.28l0 7.17c0.21,5.3 4.46,8.74 8.94,8.8l0 0.01 61.23 0c4.37,-0.07 8.53,-3.35 8.92,-8.44l0 -7.54c2.88,0.84 5.94,1.28 9.09,1.28 3.16,0 6.21,-0.44 9.1,-1.28l0 7.17 0.01 0c0.21,5.3 4.46,8.74 8.94,8.8l0 0.01 61.24 0z"/>
 </g>
</svg>
