<?xml version="1.0" encoding="UTF-8"?>
<!DOCTYPE svg PUBLIC "-//W3C//DTD SVG 1.1//EN" "http://www.w3.org/Graphics/SVG/1.1/DTD/svg11.dtd">
<!-- Creator: CorelDRAW 2019 (64-Bit) -->
<svg xmlns="http://www.w3.org/2000/svg" xml:space="preserve" width="67px" height="67px" version="1.1" style="shape-rendering:geometricPrecision; text-rendering:geometricPrecision; image-rendering:optimizeQuality; fill-rule:evenodd; clip-rule:evenodd"
viewBox="0 0 0.87 0.87"
 xmlns:xlink="http://www.w3.org/1999/xlink">
 <defs>
  <style type="text/css">
   <![CDATA[
    .fil2 {fill:#FEFEFE}
    .fil1 {fill:#FF6600}
    .fil0 {fill:white}
   ]]>
  </style>
 </defs>
 <g id="Слой_x0020_1">
  <metadata id="CorelCorpID_0Corel-Layer"/>
  <g id="_1303519248">
   <circle class="fil0" transform="matrix(0.099897 0.114918 -0.114918 0.099897 0.434075 0.434067)" r="2.85"/>
   <g>
    <circle class="fil1" transform="matrix(0.0899941 0.103526 -0.103526 0.0899941 0.434075 0.434067)" r="2.85"/>
    <circle class="fil2" transform="matrix(0.0655782 0.0754391 -0.0754391 0.0655782 0.434075 0.434067)" r="0.91"/>
    <path class="fil2" d="M0.57 0.5c0.07,-0.05 0.1,-0.11 0.09,-0.18 0,-0.02 -0.01,-0.05 0.01,-0.06 0.02,-0.01 0.04,0 0.04,0.01 0.01,0.01 0.01,0.03 0.01,0.04 0.02,0.11 -0.04,0.2 -0.16,0.26 -0.01,0 -0.03,0 -0.04,-0.02 -0.01,-0.01 0,-0.03 0.02,-0.04 0.01,-0.01 0.02,-0.01 0.03,-0.01z"/>
    <path class="fil2" d="M0.46 0.58c0.08,0.04 0.15,0.05 0.2,0 0.02,-0.01 0.04,-0.04 0.06,-0.02 0.01,0.01 0.02,0.03 0.01,0.04 -0.01,0.01 -0.02,0.02 -0.03,0.03 -0.09,0.07 -0.19,0.06 -0.3,-0.02 -0.01,-0.01 -0.02,-0.02 -0.01,-0.04 0.01,-0.01 0.03,-0.02 0.04,-0.01 0.01,0.01 0.02,0.02 0.03,0.02z"/>
    <path class="fil2" d="M0.32 0.52c0.01,0.09 0.04,0.15 0.12,0.17 0.02,0.01 0.04,0.01 0.04,0.04 0,0.01 -0.01,0.03 -0.03,0.03 -0.01,0 -0.03,-0.01 -0.03,-0.01 -0.12,-0.04 -0.17,-0.13 -0.16,-0.26 0,-0.02 0.01,-0.03 0.03,-0.03 0.02,0 0.03,0.02 0.03,0.03 0,0.01 0,0.02 0,0.03z"/>
    <path class="fil2" d="M0.29 0.38c-0.07,0.05 -0.1,0.11 -0.09,0.18 0,0.02 0.01,0.05 -0.01,0.06 -0.02,0.01 -0.04,0 -0.04,-0.01 -0.01,-0.01 -0.01,-0.03 -0.01,-0.04 -0.02,-0.11 0.03,-0.2 0.15,-0.26 0.02,0 0.04,0 0.05,0.02 0,0.01 0,0.03 -0.02,0.04 -0.01,0 -0.02,0.01 -0.03,0.01z"/>
    <path class="fil2" d="M0.41 0.29c-0.08,-0.05 -0.15,-0.05 -0.21,0 -0.01,0.01 -0.03,0.03 -0.05,0.02 -0.01,-0.01 -0.02,-0.03 -0.01,-0.05 0.01,0 0.02,-0.01 0.03,-0.02 0.09,-0.07 0.19,-0.06 0.3,0.01 0.01,0.01 0.02,0.03 0.01,0.05 -0.01,0.01 -0.03,0.01 -0.04,0 -0.01,0 -0.02,-0.01 -0.03,-0.01z"/>
    <path class="fil2" d="M0.55 0.35c0,-0.09 -0.03,-0.15 -0.11,-0.18 -0.01,0 -0.04,0 -0.04,-0.03 0,-0.02 0.02,-0.03 0.03,-0.03 0.01,0 0.03,0.01 0.04,0.01 0.11,0.04 0.15,0.13 0.14,0.26 0,0.02 -0.01,0.03 -0.03,0.03 -0.02,0 -0.03,-0.01 -0.03,-0.03 0,-0.01 0,-0.02 0,-0.03z"/>
   </g>
  </g>
 </g>
</svg>
