<?xml version="1.0" encoding="UTF-8"?>
<!DOCTYPE svg PUBLIC "-//W3C//DTD SVG 1.1//EN" "http://www.w3.org/Graphics/SVG/1.1/DTD/svg11.dtd">
<!-- Creator: CorelDRAW 2019 (64-Bit) -->
<svg xmlns="http://www.w3.org/2000/svg" xml:space="preserve" width="75px" height="75px" version="1.1" style="shape-rendering:geometricPrecision; text-rendering:geometricPrecision; image-rendering:optimizeQuality; fill-rule:evenodd; clip-rule:evenodd"
viewBox="0 0 75 75"
 xmlns:xlink="http://www.w3.org/1999/xlink">
 <defs>
  <style type="text/css">
   <![CDATA[
    .fil0 {fill:none}
    .fil1 {fill:#FEFEFE}
   ]]>
  </style>
 </defs>
 <g id="Слой_x0020_1">
  <metadata id="CorelCorpID_0Corel-Layer"/>
  <polygon class="fil0" points="0,0 75,0 75,75 0,75 "/>
  <path class="fil1" d="M65.63 15.62l0 20.6 -7.16 -7.19c-1.22,-1.22 -3.22,-1.22 -4.44,0l-10.28 10.31 -10.28 -10.28c-1.22,-1.22 -3.19,-1.22 -4.41,0l-10.31 10.28 -9.38 -9.4 0 -14.32c0,-3.43 2.82,-6.25 6.25,-6.25l43.76 0c3.43,0 6.25,2.82 6.25,6.25zm-9.38 20.07l9.38 9.4 0 14.29c0,3.43 -2.82,6.25 -6.25,6.25l-43.76 0c-3.43,0 -6.25,-2.82 -6.25,-6.25l0 -20.57 7.16 7.16c1.22,1.22 3.19,1.22 4.41,0l10.31 -10.31 10.28 10.28c1.22,1.22 3.19,1.22 4.41,0l10.31 -10.25 0 0z"/>
 </g>
</svg>
