<?xml version="1.0" encoding="UTF-8"?>
<svg version="1.1" xmlns="http://www.w3.org/2000/svg" width="780" height="81">
<path d="M0 0 C257.4 0 514.8 0 780 0 C780 26.73 780 53.46 780 81 C522.6 81 265.2 81 0 81 C0 54.27 0 27.54 0 0 Z " fill="#589969" transform="translate(0,0)"/>
<path d="M0 0 C87.25372669 -0.08941967 174.50658204 0.15637324 261.75991952 0.38708669 C275.65501514 0.42382236 289.55011193 0.46007903 303.44520973 0.49598128 C403.80578845 0.75535448 504.16627353 1.03633013 780 2 C780 12.56 780 23.12 780 34 C522.6 34 265.2 34 0 34 C0 22.78 0 11.56 0 0 Z " fill="#2E6B42" transform="translate(0,47)"/>
<path d="M0 0 C10.23 0 20.46 0 31 0 C29.97259133 6.164452 29.1886012 7.71398947 25 12 C20.73844248 14.57268565 16.85532224 14.62983655 12 14 C7.28680788 12.61669054 4.06405606 10.68393671 1.5 6.4375 C0 3 0 3 0 0 Z " fill="#A5B0AE" transform="translate(487,26)"/>
<path d="M0 0 C10.23 0 20.46 0 31 0 C29.97259133 6.164452 29.1886012 7.71398947 25 12 C20.73844248 14.57268565 16.85532224 14.62983655 12 14 C7.28680788 12.61669054 4.06405606 10.68393671 1.5 6.4375 C0 3 0 3 0 0 Z " fill="#A5B0AE" transform="translate(443,26)"/>
<path d="M0 0 C10.23 0 20.46 0 31 0 C29.97259133 6.164452 29.1886012 7.71398947 25 12 C20.73844248 14.57268565 16.85532224 14.62983655 12 14 C7.28680788 12.61669054 4.06405606 10.68393671 1.5 6.4375 C0 3 0 3 0 0 Z " fill="#A5B0AE" transform="translate(400,26)"/>
<path d="M0 0 C10.23 0 20.46 0 31 0 C29.97259133 6.164452 29.1886012 7.71398947 25 12 C20.73844248 14.57268565 16.85532224 14.62983655 12 14 C7.28680788 12.61669054 4.06405606 10.68393671 1.5 6.4375 C0 3 0 3 0 0 Z " fill="#A5B0AE" transform="translate(358,26)"/>
<path d="M0 0 C10.23 0 20.46 0 31 0 C29.97259133 6.164452 29.1886012 7.71398947 25 12 C20.73844248 14.57268565 16.85532224 14.62983655 12 14 C7.28680788 12.61669054 4.06405606 10.68393671 1.5 6.4375 C0 3 0 3 0 0 Z " fill="#A5B0AE" transform="translate(314,25)"/>
<path d="M0 0 C10.23 0 20.46 0 31 0 C29.97259133 6.164452 29.1886012 7.71398947 25 12 C20.73844248 14.57268565 16.85532224 14.62983655 12 14 C7.28680788 12.61669054 4.06405606 10.68393671 1.5 6.4375 C0 3 0 3 0 0 Z " fill="#A5B0AE" transform="translate(270,25)"/>
<path d="M0 0 C10.23 0 20.46 0 31 0 C29.97259133 6.164452 29.1886012 7.71398947 25 12 C20.73844248 14.57268565 16.85532224 14.62983655 12 14 C7.28680788 12.61669054 4.06405606 10.68393671 1.5 6.4375 C0 3 0 3 0 0 Z " fill="#A5B0AE" transform="translate(227,25)"/>
<path d="M0 0 C10.23 0 20.46 0 31 0 C29.97259133 6.164452 29.1886012 7.71398947 25 12 C20.73844248 14.57268565 16.85532224 14.62983655 12 14 C7.28680788 12.61669054 4.06405606 10.68393671 1.5 6.4375 C0 3 0 3 0 0 Z " fill="#A5B0AE" transform="translate(185,25)"/>
<path d="M0 0 C5.14886278 3.51058826 7.49101775 6.58008873 8.75 12.875 C-1.48 12.875 -11.71 12.875 -22.25 12.875 C-22.25 7.21658416 -22.25 7.21658416 -19.5 4.1875 C-18.98953125 3.60613281 -18.4790625 3.02476563 -17.953125 2.42578125 C-12.74147131 -2.31969241 -6.41137346 -2.21932158 0 0 Z " fill="#A5AFAE" transform="translate(161.25,9.125)"/>
<path d="M0 0 C5.14886278 3.51058826 7.49101775 6.58008873 8.75 12.875 C-1.48 12.875 -11.71 12.875 -22.25 12.875 C-22.25 7.21658416 -22.25 7.21658416 -19.5 4.1875 C-18.98953125 3.60613281 -18.4790625 3.02476563 -17.953125 2.42578125 C-12.74147131 -2.31969241 -6.41137346 -2.21932158 0 0 Z " fill="#A5AFAE" transform="translate(117.25,9.125)"/>
<path d="M0 0 C5.14886278 3.51058826 7.49101775 6.58008873 8.75 12.875 C-1.48 12.875 -11.71 12.875 -22.25 12.875 C-22.25 7.21658416 -22.25 7.21658416 -19.5 4.1875 C-18.98953125 3.60613281 -18.4790625 3.02476563 -17.953125 2.42578125 C-12.74147131 -2.31969241 -6.41137346 -2.21932158 0 0 Z " fill="#A5AFAE" transform="translate(74.25,9.125)"/>
<path d="M0 0 C5.14886278 3.51058826 7.49101775 6.58008873 8.75 12.875 C-1.48 12.875 -11.71 12.875 -22.25 12.875 C-22.25 7.21658416 -22.25 7.21658416 -19.5 4.1875 C-18.98953125 3.60613281 -18.4790625 3.02476563 -17.953125 2.42578125 C-12.74147131 -2.31969241 -6.41137346 -2.21932158 0 0 Z " fill="#A5AFAE" transform="translate(32.25,9.125)"/>
<path d="M0 0 C4.33030367 2.23981224 6.77385355 5.03829881 9 9.3125 C9 10.6325 9 11.9525 9 13.3125 C-1.23 13.3125 -11.46 13.3125 -22 13.3125 C-20.86601307 7.64256536 -20.86601307 7.64256536 -18.1875 4.625 C-17.68605469 4.04363281 -17.18460937 3.46226563 -16.66796875 2.86328125 C-11.99914081 -1.47752599 -5.94462891 -2.04346619 0 0 Z " fill="#A7B1B0" transform="translate(509,9.6875)"/>
<path d="M0 0 C4.33030367 2.23981224 6.77385355 5.03829881 9 9.3125 C9 10.6325 9 11.9525 9 13.3125 C-1.23 13.3125 -11.46 13.3125 -22 13.3125 C-20.86601307 7.64256536 -20.86601307 7.64256536 -18.1875 4.625 C-17.68605469 4.04363281 -17.18460937 3.46226563 -16.66796875 2.86328125 C-11.99914081 -1.47752599 -5.94462891 -2.04346619 0 0 Z " fill="#A7B1B0" transform="translate(465,9.6875)"/>
<path d="M0 0 C4.33030367 2.23981224 6.77385355 5.03829881 9 9.3125 C9 10.6325 9 11.9525 9 13.3125 C-1.23 13.3125 -11.46 13.3125 -22 13.3125 C-20.86601307 7.64256536 -20.86601307 7.64256536 -18.1875 4.625 C-17.68605469 4.04363281 -17.18460937 3.46226563 -16.66796875 2.86328125 C-11.99914081 -1.47752599 -5.94462891 -2.04346619 0 0 Z " fill="#A7B1B0" transform="translate(422,9.6875)"/>
<path d="M0 0 C4.33030367 2.23981224 6.77385355 5.03829881 9 9.3125 C9 10.6325 9 11.9525 9 13.3125 C-1.23 13.3125 -11.46 13.3125 -22 13.3125 C-20.86601307 7.64256536 -20.86601307 7.64256536 -18.1875 4.625 C-17.68605469 4.04363281 -17.18460937 3.46226563 -16.66796875 2.86328125 C-11.99914081 -1.47752599 -5.94462891 -2.04346619 0 0 Z " fill="#A7B1B0" transform="translate(380,9.6875)"/>
<path d="M0 0 C4.33030367 2.23981224 6.77385355 5.03829881 9 9.3125 C9 10.6325 9 11.9525 9 13.3125 C-1.23 13.3125 -11.46 13.3125 -22 13.3125 C-20.86601307 7.64256536 -20.86601307 7.64256536 -18.1875 4.625 C-17.68605469 4.04363281 -17.18460937 3.46226563 -16.66796875 2.86328125 C-11.99914081 -1.47752599 -5.94462891 -2.04346619 0 0 Z " fill="#A7B1B0" transform="translate(336,8.6875)"/>
<path d="M0 0 C4.33030367 2.23981224 6.77385355 5.03829881 9 9.3125 C9 10.6325 9 11.9525 9 13.3125 C-1.23 13.3125 -11.46 13.3125 -22 13.3125 C-20.86601307 7.64256536 -20.86601307 7.64256536 -18.1875 4.625 C-17.68605469 4.04363281 -17.18460937 3.46226563 -16.66796875 2.86328125 C-11.99914081 -1.47752599 -5.94462891 -2.04346619 0 0 Z " fill="#A7B1B0" transform="translate(292,8.6875)"/>
<path d="M0 0 C4.33030367 2.23981224 6.77385355 5.03829881 9 9.3125 C9 10.6325 9 11.9525 9 13.3125 C-1.23 13.3125 -11.46 13.3125 -22 13.3125 C-20.86601307 7.64256536 -20.86601307 7.64256536 -18.1875 4.625 C-17.68605469 4.04363281 -17.18460938 3.46226563 -16.66796875 2.86328125 C-11.99914081 -1.47752599 -5.94462891 -2.04346619 0 0 Z " fill="#A7B1B0" transform="translate(249,8.6875)"/>
<path d="M0 0 C4.33030367 2.23981224 6.77385355 5.03829881 9 9.3125 C9 10.6325 9 11.9525 9 13.3125 C-1.23 13.3125 -11.46 13.3125 -22 13.3125 C-20.86601307 7.64256536 -20.86601307 7.64256536 -18.1875 4.625 C-17.68605469 4.04363281 -17.18460938 3.46226563 -16.66796875 2.86328125 C-11.99914081 -1.47752599 -5.94462891 -2.04346619 0 0 Z " fill="#A7B1B0" transform="translate(207,8.6875)"/>
<path d="M0 0 C10.23 0 20.46 0 31 0 C28.74728682 7.88449612 28.74728682 7.88449612 25.5 10.375 C24.58734375 11.09816406 24.58734375 11.09816406 23.65625 11.8359375 C19.93359624 14.45233094 16.41793962 14.43939725 12 14 C6.85599049 12.37106366 3.81575195 10.65682053 1 6 C0.67 4.02 0.34 2.04 0 0 Z " fill="#A7B2B0" transform="translate(139,25)"/>
<path d="M0 0 C10.23 0 20.46 0 31 0 C28.74728682 7.88449612 28.74728682 7.88449612 25.5 10.375 C24.58734375 11.09816406 24.58734375 11.09816406 23.65625 11.8359375 C19.93359624 14.45233094 16.41793962 14.43939725 12 14 C6.85599049 12.37106366 3.81575195 10.65682053 1 6 C0.67 4.02 0.34 2.04 0 0 Z " fill="#A7B2B0" transform="translate(95,25)"/>
<path d="M0 0 C10.23 0 20.46 0 31 0 C28.74728682 7.88449612 28.74728682 7.88449612 25.5 10.375 C24.58734375 11.09816406 24.58734375 11.09816406 23.65625 11.8359375 C19.93359624 14.45233094 16.41793962 14.43939725 12 14 C6.85599049 12.37106366 3.81575195 10.65682053 1 6 C0.67 4.02 0.34 2.04 0 0 Z " fill="#A7B2B0" transform="translate(52,25)"/>
<path d="M0 0 C10.23 0 20.46 0 31 0 C28.74728682 7.88449612 28.74728682 7.88449612 25.5 10.375 C24.58734375 11.09816406 24.58734375 11.09816406 23.65625 11.8359375 C19.93359624 14.45233094 16.41793962 14.43939725 12 14 C6.85599049 12.37106366 3.81575195 10.65682053 1 6 C0.67 4.02 0.34 2.04 0 0 Z " fill="#A7B2B0" transform="translate(10,25)"/>
<path d="M0 0 C10.23 0 20.46 0 31 0 C29.85300239 5.73498805 28.11617176 8.07551271 24 12 C19.43005772 15.04662819 14.15748717 14.01277388 9 13 C3.9163293 11.01073755 2.28827167 7.74604495 0 3 C0 2.01 0 1.02 0 0 Z " fill="#A7B2B0" transform="translate(659,29)"/>
<path d="M0 0 C10.23 0 20.46 0 31 0 C29.85300239 5.73498805 28.11617176 8.07551271 24 12 C19.43005772 15.04662819 14.15748717 14.01277388 9 13 C3.9163293 11.01073755 2.28827167 7.74604495 0 3 C0 2.01 0 1.02 0 0 Z " fill="#A7B2B0" transform="translate(615,29)"/>
<path d="M0 0 C10.23 0 20.46 0 31 0 C29.85300239 5.73498805 28.11617176 8.07551271 24 12 C19.43005772 15.04662819 14.15748717 14.01277388 9 13 C3.9163293 11.01073755 2.28827167 7.74604495 0 3 C0 2.01 0 1.02 0 0 Z " fill="#A7B2B0" transform="translate(572,29)"/>
<path d="M0 0 C10.23 0 20.46 0 31 0 C29.85300239 5.73498805 28.11617176 8.07551271 24 12 C19.43005772 15.04662819 14.15748717 14.01277388 9 13 C3.9163293 11.01073755 2.28827167 7.74604495 0 3 C0 2.01 0 1.02 0 0 Z " fill="#A7B2B0" transform="translate(530,29)"/>
<path d="M0 0 C10.23 0 20.46 0 31 0 C29.85300239 5.73498805 28.11617176 8.07551271 24 12 C19.43005772 15.04662819 14.15748717 14.01277388 9 13 C3.9163293 11.01073755 2.28827167 7.74604495 0 3 C0 2.01 0 1.02 0 0 Z " fill="#A7B2B0" transform="translate(743,28)"/>
<path d="M0 0 C10.23 0 20.46 0 31 0 C29.85300239 5.73498805 28.11617176 8.07551271 24 12 C19.43005772 15.04662819 14.15748717 14.01277388 9 13 C3.9163293 11.01073755 2.28827167 7.74604495 0 3 C0 2.01 0 1.02 0 0 Z " fill="#A7B2B0" transform="translate(701,28)"/>
<path d="M0 0 C4.74226217 2.00284022 7.89394595 5.29234978 10 10 C10 10.99 10 11.98 10 13 C-0.23 13 -10.46 13 -21 13 C-19.92481213 7.62406065 -18.65022428 5.91095459 -15 2 C-10.30988304 -1.12674464 -5.4863094 -0.69554763 0 0 Z " fill="#A6B1B0" transform="translate(680,12)"/>
<path d="M0 0 C4.74226217 2.00284022 7.89394595 5.29234978 10 10 C10 10.99 10 11.98 10 13 C-0.23 13 -10.46 13 -21 13 C-19.92481213 7.62406065 -18.65022428 5.91095459 -15 2 C-10.30988304 -1.12674464 -5.4863094 -0.69554763 0 0 Z " fill="#A6B1B0" transform="translate(636,12)"/>
<path d="M0 0 C4.74226217 2.00284022 7.89394595 5.29234978 10 10 C10 10.99 10 11.98 10 13 C-0.23 13 -10.46 13 -21 13 C-19.92481213 7.62406065 -18.65022428 5.91095459 -15 2 C-10.30988304 -1.12674464 -5.4863094 -0.69554763 0 0 Z " fill="#A6B1B0" transform="translate(593,12)"/>
<path d="M0 0 C4.74226217 2.00284022 7.89394595 5.29234978 10 10 C10 10.99 10 11.98 10 13 C-0.23 13 -10.46 13 -21 13 C-19.92481213 7.62406065 -18.65022428 5.91095459 -15 2 C-10.30988304 -1.12674464 -5.4863094 -0.69554763 0 0 Z " fill="#A6B1B0" transform="translate(551,12)"/>
<path d="M0 0 C4.74226217 2.00284022 7.89394595 5.29234978 10 10 C10 10.99 10 11.98 10 13 C-0.23 13 -10.46 13 -21 13 C-19.92481213 7.62406065 -18.65022428 5.91095459 -15 2 C-10.30988304 -1.12674464 -5.4863094 -0.69554763 0 0 Z " fill="#A6B1B0" transform="translate(764,11)"/>
<path d="M0 0 C4.74226217 2.00284022 7.89394595 5.29234978 10 10 C10 10.99 10 11.98 10 13 C-0.23 13 -10.46 13 -21 13 C-19.92481213 7.62406065 -18.65022428 5.91095459 -15 2 C-10.30988304 -1.12674464 -5.4863094 -0.69554763 0 0 Z " fill="#A6B1B0" transform="translate(722,11)"/>
<path d="M0 0 C0.33 0 0.66 0 1 0 C1 9.9 1 19.8 1 30 C-4.61 30 -10.22 30 -16 30 C-11.00106237 19.78940399 -5.64946942 9.86415295 0 0 Z " fill="#FFFFFF" transform="translate(779,51)"/>
<path d="M0 0 C2.52269944 3.36359926 4.03659005 6.00278299 5.69921875 9.7890625 C6.18583984 10.89507812 6.67246094 12.00109375 7.17382812 13.140625 C7.9230957 14.86539063 7.9230957 14.86539063 8.6875 16.625 C9.19861328 17.78257813 9.70972656 18.94015625 10.23632812 20.1328125 C14 28.73549107 14 28.73549107 14 31 C9.38 31 4.76 31 0 31 C0 20.77 0 10.54 0 0 Z " fill="#FFFFFF" transform="translate(0,50)"/>
<path d="M0 0 C5.28 0 10.56 0 16 0 C20 8.625 20 8.625 20 12 C14.72 12 9.44 12 4 12 C0 2.25 0 2.25 0 0 Z " fill="#000101" transform="translate(611,63)"/>
<path d="M0 0 C5.28 0 10.56 0 16 0 C20 9.75 20 9.75 20 12 C14.72 12 9.44 12 4 12 C0 3.375 0 3.375 0 0 Z " fill="#000201" transform="translate(279,63)"/>
<path d="M0 0 C5.28 0 10.56 0 16 0 C20 9.75 20 9.75 20 12 C14.72 12 9.44 12 4 12 C0 3.375 0 3.375 0 0 Z " fill="#000201" transform="translate(151,63)"/>
<path d="M0 0 C5.28 0 10.56 0 16 0 C20 9.75 20 9.75 20 12 C14.72 12 9.44 12 4 12 C0 3.375 0 3.375 0 0 Z " fill="#000201" transform="translate(109,63)"/>
<path d="M0 0 C5.28 0 10.56 0 16 0 C20 9.75 20 9.75 20 12 C14.72 12 9.44 12 4 12 C0 3.375 0 3.375 0 0 Z " fill="#000201" transform="translate(66,63)"/>
<path d="M0 0 C5.28 0 10.56 0 16 0 C17.32 3.96 18.64 7.92 20 12 C14.39 12 8.78 12 3 12 C0 3.375 0 3.375 0 0 Z " fill="#000101" transform="translate(737,63)"/>
<path d="M0 0 C5.28 0 10.56 0 16 0 C20 9.75 20 9.75 20 12 C14.72 12 9.44 12 4 12 C0 2.25 0 2.25 0 0 Z " fill="#000100" transform="translate(693,63)"/>
<path d="M0 0 C5.28 0 10.56 0 16 0 C20 9.75 20 9.75 20 12 C14.72 12 9.44 12 4 12 C0 2.25 0 2.25 0 0 Z " fill="#000100" transform="translate(652,63)"/>
<path d="M0 0 C5.28 0 10.56 0 16 0 C20 8.625 20 8.625 20 12 C14.72 12 9.44 12 4 12 C0 2.25 0 2.25 0 0 Z " fill="#000100" transform="translate(569,63)"/>
<path d="M0 0 C5.28 0 10.56 0 16 0 C20 8.625 20 8.625 20 12 C14.72 12 9.44 12 4 12 C0 2.25 0 2.25 0 0 Z " fill="#000100" transform="translate(527,63)"/>
<path d="M0 0 C5.28 0 10.56 0 16 0 C20 8.625 20 8.625 20 12 C14.72 12 9.44 12 4 12 C0 2.25 0 2.25 0 0 Z " fill="#000100" transform="translate(486,63)"/>
<path d="M0 0 C5.28 0 10.56 0 16 0 C20 8.625 20 8.625 20 12 C14.72 12 9.44 12 4 12 C2.68 8.04 1.36 4.08 0 0 Z " fill="#000101" transform="translate(405,63)"/>
<path d="M0 0 C5.28 0 10.56 0 16 0 C20 8.625 20 8.625 20 12 C14.72 12 9.44 12 4 12 C2.68 8.04 1.36 4.08 0 0 Z " fill="#000101" transform="translate(363,63)"/>
<path d="M0 0 C5.28 0 10.56 0 16 0 C20 8.625 20 8.625 20 12 C14.72 12 9.44 12 4 12 C2.68 8.04 1.36 4.08 0 0 Z " fill="#000101" transform="translate(322,63)"/>
<path d="M0 0 C5.28 0 10.56 0 16 0 C20 9.75 20 9.75 20 12 C14.72 12 9.44 12 4 12 C0 2.25 0 2.25 0 0 Z " fill="#000100" transform="translate(236,63)"/>
<path d="M0 0 C5.28 0 10.56 0 16 0 C17.32 3.96 18.64 7.92 20 12 C14.39 12 8.78 12 3 12 C0 3.375 0 3.375 0 0 Z " fill="#000101" transform="translate(195,63)"/>
<path d="M0 0 C5.28 0 10.56 0 16 0 C20 9.75 20 9.75 20 12 C14.72 12 9.44 12 4 12 C0 2.25 0 2.25 0 0 Z " fill="#000100" transform="translate(24,63)"/>
<path d="M0 0 C5.28 0 10.56 0 16 0 C17.32 3.96 18.64 7.92 20 12 C14.39 12 8.78 12 3 12 C0 3.375 0 3.375 0 0 Z " fill="#000100" transform="translate(446,63)"/>
<path d="M0 0 C2.3125 1.625 2.3125 1.625 3.3125 3.625 C2.60996094 3.30402344 1.90742187 2.98304687 1.18359375 2.65234375 C-3.710272 0.90120539 -8.56574383 0.93886487 -13.6875 1.625 C-17.673869 3.53815223 -20.03459281 6.57055949 -21.6875 10.625 C-22.4059572 16.363327 -22.24624293 20.88000943 -18.6875 25.625 C-18.6875 26.285 -18.6875 26.945 -18.6875 27.625 C-17.6975 27.955 -16.7075 28.285 -15.6875 28.625 C-16.3475 28.955 -17.0075 29.285 -17.6875 29.625 C-21.78732641 26.7440409 -24.01397044 24.38134717 -25.6875 19.625 C-26.61271576 12.79871298 -25.86590401 8.12290002 -21.6875 2.625 C-15.77493676 -3.13974916 -7.37209001 -2.74891492 0 0 Z " fill="#244633" transform="translate(681.6875,11.375)"/>
<path d="M0 0 C2.3125 1.625 2.3125 1.625 3.3125 3.625 C2.60996094 3.30402344 1.90742187 2.98304687 1.18359375 2.65234375 C-3.710272 0.90120539 -8.56574383 0.93886487 -13.6875 1.625 C-17.673869 3.53815223 -20.03459281 6.57055949 -21.6875 10.625 C-22.4059572 16.363327 -22.24624293 20.88000943 -18.6875 25.625 C-18.6875 26.285 -18.6875 26.945 -18.6875 27.625 C-17.6975 27.955 -16.7075 28.285 -15.6875 28.625 C-16.3475 28.955 -17.0075 29.285 -17.6875 29.625 C-21.78732641 26.7440409 -24.01397044 24.38134717 -25.6875 19.625 C-26.61271576 12.79871298 -25.86590401 8.12290002 -21.6875 2.625 C-15.77493676 -3.13974916 -7.37209001 -2.74891492 0 0 Z " fill="#244633" transform="translate(637.6875,11.375)"/>
<path d="M0 0 C2.3125 1.625 2.3125 1.625 3.3125 3.625 C2.60996094 3.30402344 1.90742187 2.98304687 1.18359375 2.65234375 C-3.710272 0.90120539 -8.56574383 0.93886487 -13.6875 1.625 C-17.673869 3.53815223 -20.03459281 6.57055949 -21.6875 10.625 C-22.4059572 16.363327 -22.24624293 20.88000943 -18.6875 25.625 C-18.6875 26.285 -18.6875 26.945 -18.6875 27.625 C-17.6975 27.955 -16.7075 28.285 -15.6875 28.625 C-16.3475 28.955 -17.0075 29.285 -17.6875 29.625 C-21.78732641 26.7440409 -24.01397044 24.38134717 -25.6875 19.625 C-26.61271576 12.79871298 -25.86590401 8.12290002 -21.6875 2.625 C-15.77493676 -3.13974916 -7.37209001 -2.74891492 0 0 Z " fill="#244633" transform="translate(594.6875,11.375)"/>
<path d="M0 0 C2.3125 1.625 2.3125 1.625 3.3125 3.625 C2.60996094 3.30402344 1.90742187 2.98304687 1.18359375 2.65234375 C-3.710272 0.90120539 -8.56574383 0.93886487 -13.6875 1.625 C-17.673869 3.53815223 -20.03459281 6.57055949 -21.6875 10.625 C-22.4059572 16.363327 -22.24624293 20.88000943 -18.6875 25.625 C-18.6875 26.285 -18.6875 26.945 -18.6875 27.625 C-17.6975 27.955 -16.7075 28.285 -15.6875 28.625 C-16.3475 28.955 -17.0075 29.285 -17.6875 29.625 C-21.78732641 26.7440409 -24.01397044 24.38134717 -25.6875 19.625 C-26.61271576 12.79871298 -25.86590401 8.12290002 -21.6875 2.625 C-15.77493676 -3.13974916 -7.37209001 -2.74891492 0 0 Z " fill="#244633" transform="translate(552.6875,11.375)"/>
<path d="M0 0 C2.3125 1.625 2.3125 1.625 3.3125 3.625 C2.60996094 3.30402344 1.90742187 2.98304687 1.18359375 2.65234375 C-3.710272 0.90120539 -8.56574383 0.93886487 -13.6875 1.625 C-17.673869 3.53815223 -20.03459281 6.57055949 -21.6875 10.625 C-22.4059572 16.363327 -22.24624293 20.88000943 -18.6875 25.625 C-18.6875 26.285 -18.6875 26.945 -18.6875 27.625 C-17.6975 27.955 -16.7075 28.285 -15.6875 28.625 C-16.3475 28.955 -17.0075 29.285 -17.6875 29.625 C-21.78732641 26.7440409 -24.01397044 24.38134717 -25.6875 19.625 C-26.61271576 12.79871298 -25.86590401 8.12290002 -21.6875 2.625 C-15.77493676 -3.13974916 -7.37209001 -2.74891492 0 0 Z " fill="#244633" transform="translate(765.6875,10.375)"/>
<path d="M0 0 C2.3125 1.625 2.3125 1.625 3.3125 3.625 C2.60996094 3.30402344 1.90742187 2.98304687 1.18359375 2.65234375 C-3.710272 0.90120539 -8.56574383 0.93886487 -13.6875 1.625 C-17.673869 3.53815223 -20.03459281 6.57055949 -21.6875 10.625 C-22.4059572 16.363327 -22.24624293 20.88000943 -18.6875 25.625 C-18.6875 26.285 -18.6875 26.945 -18.6875 27.625 C-17.6975 27.955 -16.7075 28.285 -15.6875 28.625 C-16.3475 28.955 -17.0075 29.285 -17.6875 29.625 C-21.78732641 26.7440409 -24.01397044 24.38134717 -25.6875 19.625 C-26.61271576 12.79871298 -25.86590401 8.12290002 -21.6875 2.625 C-15.77493676 -3.13974916 -7.37209001 -2.74891492 0 0 Z " fill="#244633" transform="translate(723.6875,10.375)"/>
<path d="M0 0 C0.61875 0.33 1.2375 0.66 1.875 1 C-1.04336585 1.97278862 -2.45630745 2.00300799 -5.4375 1.8125 C-10.11783947 1.77451023 -12.54852675 2.83939574 -16.125 6 C-19.78298398 10.13929766 -20.76452942 13.37302053 -20.51953125 18.75390625 C-19.65760231 23.66092745 -16.91687017 27.77691036 -13.125 31 C-18.46139126 29.369436 -20.76890486 26.50877601 -23.375 21.6875 C-24.64645914 17.13143808 -25.06560389 13.22434655 -23.21484375 8.84765625 C-17.82469726 -0.45944556 -10.23405347 -3.27489711 0 0 Z " fill="#224531" transform="translate(508.125,8)"/>
<path d="M0 0 C0.61875 0.33 1.2375 0.66 1.875 1 C-1.04336585 1.97278862 -2.45630745 2.00300799 -5.4375 1.8125 C-10.11783947 1.77451023 -12.54852675 2.83939574 -16.125 6 C-19.78298398 10.13929766 -20.76452942 13.37302053 -20.51953125 18.75390625 C-19.65760231 23.66092745 -16.91687017 27.77691036 -13.125 31 C-18.46139126 29.369436 -20.76890486 26.50877601 -23.375 21.6875 C-24.64645914 17.13143808 -25.06560389 13.22434655 -23.21484375 8.84765625 C-17.82469726 -0.45944556 -10.23405347 -3.27489711 0 0 Z " fill="#224531" transform="translate(464.125,8)"/>
<path d="M0 0 C0.61875 0.33 1.2375 0.66 1.875 1 C-1.04336585 1.97278862 -2.45630745 2.00300799 -5.4375 1.8125 C-10.11783947 1.77451023 -12.54852675 2.83939574 -16.125 6 C-19.78298398 10.13929766 -20.76452942 13.37302053 -20.51953125 18.75390625 C-19.65760231 23.66092745 -16.91687017 27.77691036 -13.125 31 C-18.46139126 29.369436 -20.76890486 26.50877601 -23.375 21.6875 C-24.64645914 17.13143808 -25.06560389 13.22434655 -23.21484375 8.84765625 C-17.82469726 -0.45944556 -10.23405347 -3.27489711 0 0 Z " fill="#224531" transform="translate(421.125,8)"/>
<path d="M0 0 C0.61875 0.33 1.2375 0.66 1.875 1 C-1.04336585 1.97278862 -2.45630745 2.00300799 -5.4375 1.8125 C-10.11783947 1.77451023 -12.54852675 2.83939574 -16.125 6 C-19.78298398 10.13929766 -20.76452942 13.37302053 -20.51953125 18.75390625 C-19.65760231 23.66092745 -16.91687017 27.77691036 -13.125 31 C-18.46139126 29.369436 -20.76890486 26.50877601 -23.375 21.6875 C-24.64645914 17.13143808 -25.06560389 13.22434655 -23.21484375 8.84765625 C-17.82469726 -0.45944556 -10.23405347 -3.27489711 0 0 Z " fill="#224531" transform="translate(379.125,8)"/>
<path d="M0 0 C0.61875 0.33 1.2375 0.66 1.875 1 C-1.04336585 1.97278862 -2.45630745 2.00300799 -5.4375 1.8125 C-10.11783947 1.77451023 -12.54852675 2.83939574 -16.125 6 C-19.78298398 10.13929766 -20.76452942 13.37302053 -20.51953125 18.75390625 C-19.65760231 23.66092745 -16.91687017 27.77691036 -13.125 31 C-18.46139126 29.369436 -20.76890486 26.50877601 -23.375 21.6875 C-24.64645914 17.13143808 -25.06560389 13.22434655 -23.21484375 8.84765625 C-17.82469726 -0.45944556 -10.23405347 -3.27489711 0 0 Z " fill="#224531" transform="translate(335.125,7)"/>
<path d="M0 0 C0.61875 0.33 1.2375 0.66 1.875 1 C-1.04336585 1.97278862 -2.45630745 2.00300799 -5.4375 1.8125 C-10.11783947 1.77451023 -12.54852675 2.83939574 -16.125 6 C-19.78298398 10.13929766 -20.76452942 13.37302053 -20.51953125 18.75390625 C-19.65760231 23.66092745 -16.91687017 27.77691036 -13.125 31 C-18.46139126 29.369436 -20.76890486 26.50877601 -23.375 21.6875 C-24.64645914 17.13143808 -25.06560389 13.22434655 -23.21484375 8.84765625 C-17.82469726 -0.45944556 -10.23405347 -3.27489711 0 0 Z " fill="#224531" transform="translate(291.125,7)"/>
<path d="M0 0 C0.61875 0.33 1.2375 0.66 1.875 1 C-1.04336585 1.97278862 -2.45630745 2.00300799 -5.4375 1.8125 C-10.11783947 1.77451023 -12.54852675 2.83939574 -16.125 6 C-19.78298398 10.13929766 -20.76452942 13.37302053 -20.51953125 18.75390625 C-19.65760231 23.66092745 -16.91687017 27.77691036 -13.125 31 C-18.46139126 29.369436 -20.76890486 26.50877601 -23.375 21.6875 C-24.64645914 17.13143808 -25.06560389 13.22434655 -23.21484375 8.84765625 C-17.82469726 -0.45944556 -10.23405347 -3.27489711 0 0 Z " fill="#224531" transform="translate(248.125,7)"/>
<path d="M0 0 C0.61875 0.33 1.2375 0.66 1.875 1 C-1.04336585 1.97278862 -2.45630745 2.00300799 -5.4375 1.8125 C-10.11783947 1.77451023 -12.54852675 2.83939574 -16.125 6 C-19.78298398 10.13929766 -20.76452942 13.37302053 -20.51953125 18.75390625 C-19.65760231 23.66092745 -16.91687017 27.77691036 -13.125 31 C-18.46139126 29.369436 -20.76890486 26.50877601 -23.375 21.6875 C-24.64645914 17.13143808 -25.06560389 13.22434655 -23.21484375 8.84765625 C-17.82469726 -0.45944556 -10.23405347 -3.27489711 0 0 Z " fill="#224531" transform="translate(206.125,7)"/>
<path d="M0 0 C0.78375 0.495 1.5675 0.99 2.375 1.5 C1.385 1.995 1.385 1.995 0.375 2.5 C-0.615 2.17 -1.605 1.84 -2.625 1.5 C-7.2291409 0.96504268 -10.70567654 1.06635686 -14.9375 3.0625 C-19.16730114 6.89883126 -21.2616977 10.27981927 -22.1875 15.9375 C-21.44261365 20.65511352 -19.32358687 23.65119577 -16.625 27.5 C-16.295 28.16 -15.965 28.82 -15.625 29.5 C-20.01355677 27.77592413 -22.53986937 24.67026127 -24.625 20.5 C-25.31068776 15.43526089 -25.7924543 10.55266689 -23.203125 6 C-16.74562003 -1.50615963 -9.43894162 -3.90576895 0 0 Z " fill="#224431" transform="translate(160.625,7.5)"/>
<path d="M0 0 C0.78375 0.495 1.5675 0.99 2.375 1.5 C1.385 1.995 1.385 1.995 0.375 2.5 C-0.615 2.17 -1.605 1.84 -2.625 1.5 C-7.2291409 0.96504268 -10.70567654 1.06635686 -14.9375 3.0625 C-19.16730114 6.89883126 -21.2616977 10.27981927 -22.1875 15.9375 C-21.44261365 20.65511352 -19.32358687 23.65119577 -16.625 27.5 C-16.295 28.16 -15.965 28.82 -15.625 29.5 C-20.01355677 27.77592413 -22.53986937 24.67026127 -24.625 20.5 C-25.31068776 15.43526089 -25.7924543 10.55266689 -23.203125 6 C-16.74562003 -1.50615963 -9.43894162 -3.90576895 0 0 Z " fill="#224431" transform="translate(116.625,7.5)"/>
<path d="M0 0 C0.78375 0.495 1.5675 0.99 2.375 1.5 C1.385 1.995 1.385 1.995 0.375 2.5 C-0.615 2.17 -1.605 1.84 -2.625 1.5 C-7.2291409 0.96504268 -10.70567654 1.06635686 -14.9375 3.0625 C-19.16730114 6.89883126 -21.2616977 10.27981927 -22.1875 15.9375 C-21.44261365 20.65511352 -19.32358687 23.65119577 -16.625 27.5 C-16.295 28.16 -15.965 28.82 -15.625 29.5 C-20.01355677 27.77592413 -22.53986937 24.67026127 -24.625 20.5 C-25.31068776 15.43526089 -25.7924543 10.55266689 -23.203125 6 C-16.74562003 -1.50615963 -9.43894162 -3.90576895 0 0 Z " fill="#224431" transform="translate(73.625,7.5)"/>
<path d="M0 0 C0.78375 0.495 1.5675 0.99 2.375 1.5 C1.385 1.995 1.385 1.995 0.375 2.5 C-0.615 2.17 -1.605 1.84 -2.625 1.5 C-7.2291409 0.96504268 -10.70567654 1.06635686 -14.9375 3.0625 C-19.16730114 6.89883126 -21.2616977 10.27981927 -22.1875 15.9375 C-21.44261365 20.65511352 -19.32358687 23.65119577 -16.625 27.5 C-16.295 28.16 -15.965 28.82 -15.625 29.5 C-20.01355677 27.77592413 -22.53986937 24.67026127 -24.625 20.5 C-25.31068776 15.43526089 -25.7924543 10.55266689 -23.203125 6 C-16.74562003 -1.50615963 -9.43894162 -3.90576895 0 0 Z " fill="#224431" transform="translate(31.625,7.5)"/>
<path d="M0 0 C0.33 0.66 0.66 1.32 1 2 C11.23 2 21.46 2 32 2 C32 2.99 32 3.98 32 5 C21.77 5 11.54 5 1 5 C0.67 5.66 0.34 6.32 0 7 C0 4.69 0 2.38 0 0 Z " fill="#575958" transform="translate(138,20)"/>
<path d="M0 0 C0.33 0.66 0.66 1.32 1 2 C11.23 2 21.46 2 32 2 C32 2.99 32 3.98 32 5 C21.77 5 11.54 5 1 5 C0.67 5.66 0.34 6.32 0 7 C0 4.69 0 2.38 0 0 Z " fill="#575958" transform="translate(94,20)"/>
<path d="M0 0 C0.33 0.66 0.66 1.32 1 2 C11.23 2 21.46 2 32 2 C32 2.99 32 3.98 32 5 C21.77 5 11.54 5 1 5 C0.67 5.66 0.34 6.32 0 7 C0 4.69 0 2.38 0 0 Z " fill="#575958" transform="translate(51,20)"/>
<path d="M0 0 C0.33 0.66 0.66 1.32 1 2 C11.23 2 21.46 2 32 2 C32 2.99 32 3.98 32 5 C21.77 5 11.54 5 1 5 C0.67 5.66 0.34 6.32 0 7 C0 4.69 0 2.38 0 0 Z " fill="#575958" transform="translate(9,20)"/>
<path d="M0 0 C10.23 0 20.46 0 31 0 C31 0.99 31 1.98 31 3 C20.77 3 10.54 3 0 3 C0 2.01 0 1.02 0 0 Z " fill="#595B5A" transform="translate(659,26)"/>
<path d="M0 0 C10.23 0 20.46 0 31 0 C31 0.99 31 1.98 31 3 C20.77 3 10.54 3 0 3 C0 2.01 0 1.02 0 0 Z " fill="#595B5A" transform="translate(615,26)"/>
<path d="M0 0 C10.23 0 20.46 0 31 0 C31 0.99 31 1.98 31 3 C20.77 3 10.54 3 0 3 C0 2.01 0 1.02 0 0 Z " fill="#595B5A" transform="translate(572,26)"/>
<path d="M0 0 C10.23 0 20.46 0 31 0 C31 0.99 31 1.98 31 3 C20.77 3 10.54 3 0 3 C0 2.01 0 1.02 0 0 Z " fill="#595B5A" transform="translate(530,26)"/>
<path d="M0 0 C10.23 0 20.46 0 31 0 C31 0.99 31 1.98 31 3 C20.77 3 10.54 3 0 3 C0 2.01 0 1.02 0 0 Z " fill="#595B5A" transform="translate(743,25)"/>
<path d="M0 0 C10.23 0 20.46 0 31 0 C31 0.99 31 1.98 31 3 C20.77 3 10.54 3 0 3 C0 2.01 0 1.02 0 0 Z " fill="#595B5A" transform="translate(701,25)"/>
<path d="M0 0 C10.23 0 20.46 0 31 0 C31 0.99 31 1.98 31 3 C20.77 3 10.54 3 0 3 C0 2.01 0 1.02 0 0 Z " fill="#595959" transform="translate(487,23)"/>
<path d="M0 0 C10.23 0 20.46 0 31 0 C31 0.99 31 1.98 31 3 C20.77 3 10.54 3 0 3 C0 2.01 0 1.02 0 0 Z " fill="#595959" transform="translate(443,23)"/>
<path d="M0 0 C10.23 0 20.46 0 31 0 C31 0.99 31 1.98 31 3 C20.77 3 10.54 3 0 3 C0 2.01 0 1.02 0 0 Z " fill="#595959" transform="translate(400,23)"/>
<path d="M0 0 C10.23 0 20.46 0 31 0 C31 0.99 31 1.98 31 3 C20.77 3 10.54 3 0 3 C0 2.01 0 1.02 0 0 Z " fill="#595959" transform="translate(358,23)"/>
<path d="M0 0 C10.23 0 20.46 0 31 0 C31 0.99 31 1.98 31 3 C20.77 3 10.54 3 0 3 C0 2.01 0 1.02 0 0 Z " fill="#595959" transform="translate(314,22)"/>
<path d="M0 0 C10.23 0 20.46 0 31 0 C31 0.99 31 1.98 31 3 C20.77 3 10.54 3 0 3 C0 2.01 0 1.02 0 0 Z " fill="#595959" transform="translate(270,22)"/>
<path d="M0 0 C10.23 0 20.46 0 31 0 C31 0.99 31 1.98 31 3 C20.77 3 10.54 3 0 3 C0 2.01 0 1.02 0 0 Z " fill="#595959" transform="translate(227,22)"/>
<path d="M0 0 C10.23 0 20.46 0 31 0 C31 0.99 31 1.98 31 3 C20.77 3 10.54 3 0 3 C0 2.01 0 1.02 0 0 Z " fill="#595959" transform="translate(185,22)"/>
<path d="M0 0 C4 4.75 4 4.75 4 7 C4.99 7.33 5.98 7.66 7 8 C6.01 8.495 6.01 8.495 5 9 C0.125 5.375 0.125 5.375 -1 2 C-0.67 1.34 -0.34 0.68 0 0 Z " fill="#30513E" transform="translate(659,32)"/>
<path d="M0 0 C4 4.75 4 4.75 4 7 C4.99 7.33 5.98 7.66 7 8 C6.01 8.495 6.01 8.495 5 9 C0.125 5.375 0.125 5.375 -1 2 C-0.67 1.34 -0.34 0.68 0 0 Z " fill="#30513E" transform="translate(615,32)"/>
<path d="M0 0 C4 4.75 4 4.75 4 7 C4.99 7.33 5.98 7.66 7 8 C6.01 8.495 6.01 8.495 5 9 C0.125 5.375 0.125 5.375 -1 2 C-0.67 1.34 -0.34 0.68 0 0 Z " fill="#30513E" transform="translate(572,32)"/>
<path d="M0 0 C4 4.75 4 4.75 4 7 C4.99 7.33 5.98 7.66 7 8 C6.01 8.495 6.01 8.495 5 9 C0.125 5.375 0.125 5.375 -1 2 C-0.67 1.34 -0.34 0.68 0 0 Z " fill="#30513E" transform="translate(530,32)"/>
<path d="M0 0 C4 4.75 4 4.75 4 7 C4.99 7.33 5.98 7.66 7 8 C6.01 8.495 6.01 8.495 5 9 C0.125 5.375 0.125 5.375 -1 2 C-0.67 1.34 -0.34 0.68 0 0 Z " fill="#30513E" transform="translate(743,31)"/>
<path d="M0 0 C4 4.75 4 4.75 4 7 C4.99 7.33 5.98 7.66 7 8 C6.01 8.495 6.01 8.495 5 9 C0.125 5.375 0.125 5.375 -1 2 C-0.67 1.34 -0.34 0.68 0 0 Z " fill="#30513E" transform="translate(701,31)"/>
<path d="M0 0 C3.7952131 1.49097658 5.61042731 3.75700849 8 7 C4.66272214 5.82744291 2.22562513 4.81131596 0 2 C0 1.34 0 0.68 0 0 Z " fill="#2B503A" transform="translate(487,32)"/>
<path d="M0 0 C3.7952131 1.49097658 5.61042731 3.75700849 8 7 C4.66272214 5.82744291 2.22562513 4.81131596 0 2 C0 1.34 0 0.68 0 0 Z " fill="#2B503A" transform="translate(443,32)"/>
<path d="M0 0 C3.7952131 1.49097658 5.61042731 3.75700849 8 7 C4.66272214 5.82744291 2.22562513 4.81131596 0 2 C0 1.34 0 0.68 0 0 Z " fill="#2B503A" transform="translate(400,32)"/>
<path d="M0 0 C3.7952131 1.49097658 5.61042731 3.75700849 8 7 C4.66272214 5.82744291 2.22562513 4.81131596 0 2 C0 1.34 0 0.68 0 0 Z " fill="#2B503A" transform="translate(358,32)"/>
<path d="M0 0 C3.7952131 1.49097658 5.61042731 3.75700849 8 7 C4.66272214 5.82744291 2.22562513 4.81131596 0 2 C0 1.34 0 0.68 0 0 Z " fill="#2B503A" transform="translate(314,31)"/>
<path d="M0 0 C3.7952131 1.49097658 5.61042731 3.75700849 8 7 C4.66272214 5.82744291 2.22562513 4.81131596 0 2 C0 1.34 0 0.68 0 0 Z " fill="#2B503A" transform="translate(270,31)"/>
<path d="M0 0 C3.7952131 1.49097658 5.61042731 3.75700849 8 7 C4.66272214 5.82744291 2.22562513 4.81131596 0 2 C0 1.34 0 0.68 0 0 Z " fill="#2B503A" transform="translate(227,31)"/>
<path d="M0 0 C3.7952131 1.49097658 5.61042731 3.75700849 8 7 C4.66272214 5.82744291 2.22562513 4.81131596 0 2 C0 1.34 0 0.68 0 0 Z " fill="#2B503A" transform="translate(185,31)"/>
</svg>
