<?xml version="1.0" encoding="UTF-8"?>
<svg version="1.1" xmlns="http://www.w3.org/2000/svg" width="780" height="81">
<path d="M0 0 C257.4 0 514.8 0 780 0 C780 26.73 780 53.46 780 81 C522.6 81 265.2 81 0 81 C0 54.27 0 27.54 0 0 Z " fill="#589969" transform="translate(0,0)"/>
<path d="M0 0 C0.95569328 0.00015598 1.91138657 0.00031196 2.89604026 0.00047267 C3.99628513 -0.00177462 5.09653 -0.00402192 6.23011562 -0.00633731 C8.06956801 -0.00239679 8.06956801 -0.00239679 9.94618106 0.00162334 C11.24062914 0.00046949 12.53507723 -0.00068435 13.86875102 -0.00187316 C17.49448601 -0.00496242 21.12019326 -0.00175042 24.7459262 0.00240497 C28.67801312 0.00582204 32.61009706 0.00347166 36.54218453 0.00182748 C43.44445901 -0.00025229 50.34672491 0.00140776 57.2489984 0.00546569 C67.51254174 0.01148306 77.77607962 0.01180314 88.03962441 0.0109237 C105.30176268 0.00960754 122.56389714 0.01295976 139.8260343 0.01894111 C156.926197 0.02485119 174.02635811 0.02870565 191.12652182 0.02979392 C192.71933116 0.02989703 192.71933116 0.02989703 194.34431847 0.03000222 C199.73668391 0.03034054 205.12904936 0.03064193 210.52141481 0.0309291 C248.74966916 0.03303143 286.97792143 0.03977414 325.20617461 0.04923171 C362.35233335 0.058411 399.49849152 0.06549713 436.64465117 0.06973952 C438.36112412 0.06993681 438.36112412 0.06993681 440.1122733 0.07013809 C451.60359802 0.07145657 463.09492274 0.07273239 474.58624746 0.07397695 C497.99694566 0.0765134 521.40764382 0.07933465 544.81834197 0.08232803 C545.89480919 0.08246532 546.97127642 0.08260261 548.08036386 0.08274406 C620.0069859 0.09195005 691.93360673 0.10787254 763.86022734 0.12467116 C763.86022734 10.68467116 763.86022734 21.24467116 763.86022734 32.12467116 C708.05677958 32.29848691 652.25330405 32.46165026 596.44979798 32.61562682 C593.18472779 32.62463805 589.91965765 32.63366735 586.6545875 32.64269704 C472.5250802 32.95795042 358.39599235 33.1792789 158.23775595 33.18782968 C154.97345372 33.18716878 151.70915148 33.18652621 148.44484925 33.18588561 C93.91663753 33.17506367 39.38843152 33.15534497 -15.13977266 33.12467116 C-14.51547713 28.33087229 -13.64826465 24.42791026 -11.67102266 20.00748366 C-11.18246797 18.90662429 -10.69391328 17.80576491 -10.19055391 16.67154616 C-9.67879609 15.54232741 -9.16703828 14.41310866 -8.63977266 13.24967116 C-8.12801484 12.09724929 -7.61625703 10.94482741 -7.08899141 9.75748366 C-2.80097817 0.16319547 -2.80097817 0.16319547 0 0 Z " fill="#2D6A42" transform="translate(16.139772657305002,-0.12467116490006447)"/>
<path d="M0 0 C4.01441781 2.67057219 6.19888364 5.50552706 7.89453125 10.09375 C7.89453125 11.08375 7.89453125 12.07375 7.89453125 13.09375 C-2.33546875 13.09375 -12.56546875 13.09375 -23.10546875 13.09375 C-21.97759324 5.19862145 -21.97759324 5.19862145 -18.73046875 2.71875 C-18.12460938 2.23664062 -17.51875 1.75453125 -16.89453125 1.2578125 C-12.10473913 -1.8586898 -5.22834539 -2.25041954 0 0 Z " fill="#A5B0AE" transform="translate(162.10546875,42.90625)"/>
<path d="M0 0 C4.01441781 2.67057219 6.19888364 5.50552706 7.89453125 10.09375 C7.89453125 11.08375 7.89453125 12.07375 7.89453125 13.09375 C-2.33546875 13.09375 -12.56546875 13.09375 -23.10546875 13.09375 C-21.97759324 5.19862145 -21.97759324 5.19862145 -18.73046875 2.71875 C-18.12460938 2.23664062 -17.51875 1.75453125 -16.89453125 1.2578125 C-12.10473913 -1.8586898 -5.22834539 -2.25041954 0 0 Z " fill="#A5B0AE" transform="translate(118.10546875,42.90625)"/>
<path d="M0 0 C4.01441781 2.67057219 6.19888364 5.50552706 7.89453125 10.09375 C7.89453125 11.08375 7.89453125 12.07375 7.89453125 13.09375 C-2.33546875 13.09375 -12.56546875 13.09375 -23.10546875 13.09375 C-21.97759324 5.19862145 -21.97759324 5.19862145 -18.73046875 2.71875 C-18.12460937 2.23664062 -17.51875 1.75453125 -16.89453125 1.2578125 C-12.10473913 -1.8586898 -5.22834539 -2.25041954 0 0 Z " fill="#A5B0AE" transform="translate(75.10546875,42.90625)"/>
<path d="M0 0 C4.01441781 2.67057219 6.19888364 5.50552706 7.89453125 10.09375 C7.89453125 11.08375 7.89453125 12.07375 7.89453125 13.09375 C-2.33546875 13.09375 -12.56546875 13.09375 -23.10546875 13.09375 C-21.97759324 5.19862145 -21.97759324 5.19862145 -18.73046875 2.71875 C-18.12460937 2.23664062 -17.51875 1.75453125 -16.89453125 1.2578125 C-12.10473913 -1.8586898 -5.22834539 -2.25041954 0 0 Z " fill="#A5B0AE" transform="translate(33.10546875,42.90625)"/>
<path d="M0 0 C10.23 0 20.46 0 31 0 C29.86601307 5.66993464 29.86601307 5.66993464 27.1875 8.6875 C26.68605469 9.26886719 26.18460938 9.85023437 25.66796875 10.44921875 C21.62048942 14.21233185 17.81138536 14.43038939 12.47265625 14.3203125 C7.92859806 13.73166673 5.27075933 11.31457862 2.1875 8.125 C1 6 1 6 0 0 Z " fill="#A5AFAE" transform="translate(743,56)"/>
<path d="M0 0 C10.23 0 20.46 0 31 0 C29.86601307 5.66993464 29.86601307 5.66993464 27.1875 8.6875 C26.68605469 9.26886719 26.18460938 9.85023437 25.66796875 10.44921875 C21.62048942 14.21233185 17.81138536 14.43038939 12.47265625 14.3203125 C7.92859806 13.73166673 5.27075933 11.31457862 2.1875 8.125 C1 6 1 6 0 0 Z " fill="#A5AFAE" transform="translate(701,56)"/>
<path d="M0 0 C10.23 0 20.46 0 31 0 C29.86601307 5.66993464 29.86601307 5.66993464 27.1875 8.6875 C26.68605469 9.26886719 26.18460938 9.85023437 25.66796875 10.44921875 C21.62048942 14.21233185 17.81138536 14.43038939 12.47265625 14.3203125 C7.92859806 13.73166673 5.27075933 11.31457862 2.1875 8.125 C1 6 1 6 0 0 Z " fill="#A5AFAE" transform="translate(659,55)"/>
<path d="M0 0 C10.23 0 20.46 0 31 0 C29.86601307 5.66993464 29.86601307 5.66993464 27.1875 8.6875 C26.68605469 9.26886719 26.18460938 9.85023437 25.66796875 10.44921875 C21.62048942 14.21233185 17.81138536 14.43038939 12.47265625 14.3203125 C7.92859806 13.73166673 5.27075933 11.31457862 2.1875 8.125 C1 6 1 6 0 0 Z " fill="#A5AFAE" transform="translate(615,55)"/>
<path d="M0 0 C10.23 0 20.46 0 31 0 C29.86601307 5.66993464 29.86601307 5.66993464 27.1875 8.6875 C26.68605469 9.26886719 26.18460938 9.85023437 25.66796875 10.44921875 C21.62048942 14.21233185 17.81138536 14.43038939 12.47265625 14.3203125 C7.92859806 13.73166673 5.27075933 11.31457862 2.1875 8.125 C1 6 1 6 0 0 Z " fill="#A5AFAE" transform="translate(572,55)"/>
<path d="M0 0 C10.23 0 20.46 0 31 0 C29.86601307 5.66993464 29.86601307 5.66993464 27.1875 8.6875 C26.68605469 9.26886719 26.18460938 9.85023437 25.66796875 10.44921875 C21.62048942 14.21233185 17.81138536 14.43038939 12.47265625 14.3203125 C7.92859806 13.73166673 5.27075933 11.31457862 2.1875 8.125 C1 6 1 6 0 0 Z " fill="#A5AFAE" transform="translate(530,55)"/>
<path d="M0 0 C3.54908941 1.94195458 5.22869548 3.3662079 7.3125 6.8125 C7.6425 8.7925 7.9725 10.7725 8.3125 12.8125 C-1.9175 12.8125 -12.1475 12.8125 -22.6875 12.8125 C-21.46760471 5.49312827 -21.46760471 5.49312827 -17.6875 1.8125 C-11.48780087 -1.57978821 -6.72479233 -2.16561109 0 0 Z " fill="#A7B1B0" transform="translate(765.6875,40.1875)"/>
<path d="M0 0 C3.54908941 1.94195458 5.22869548 3.3662079 7.3125 6.8125 C7.6425 8.7925 7.9725 10.7725 8.3125 12.8125 C-1.9175 12.8125 -12.1475 12.8125 -22.6875 12.8125 C-21.46760471 5.49312827 -21.46760471 5.49312827 -17.6875 1.8125 C-11.48780087 -1.57978821 -6.72479233 -2.16561109 0 0 Z " fill="#A7B1B0" transform="translate(723.6875,40.1875)"/>
<path d="M0 0 C3.54908941 1.94195458 5.22869548 3.3662079 7.3125 6.8125 C7.6425 8.7925 7.9725 10.7725 8.3125 12.8125 C-1.9175 12.8125 -12.1475 12.8125 -22.6875 12.8125 C-21.46760471 5.49312827 -21.46760471 5.49312827 -17.6875 1.8125 C-11.48780087 -1.57978821 -6.72479233 -2.16561109 0 0 Z " fill="#A7B1B0" transform="translate(681.6875,39.1875)"/>
<path d="M0 0 C3.54908941 1.94195458 5.22869548 3.3662079 7.3125 6.8125 C7.6425 8.7925 7.9725 10.7725 8.3125 12.8125 C-1.9175 12.8125 -12.1475 12.8125 -22.6875 12.8125 C-21.46760471 5.49312827 -21.46760471 5.49312827 -17.6875 1.8125 C-11.48780087 -1.57978821 -6.72479233 -2.16561109 0 0 Z " fill="#A7B1B0" transform="translate(637.6875,39.1875)"/>
<path d="M0 0 C3.54908941 1.94195458 5.22869548 3.3662079 7.3125 6.8125 C7.6425 8.7925 7.9725 10.7725 8.3125 12.8125 C-1.9175 12.8125 -12.1475 12.8125 -22.6875 12.8125 C-21.46760471 5.49312827 -21.46760471 5.49312827 -17.6875 1.8125 C-11.48780087 -1.57978821 -6.72479233 -2.16561109 0 0 Z " fill="#A7B1B0" transform="translate(594.6875,39.1875)"/>
<path d="M0 0 C3.54908941 1.94195458 5.22869548 3.3662079 7.3125 6.8125 C7.6425 8.7925 7.9725 10.7725 8.3125 12.8125 C-1.9175 12.8125 -12.1475 12.8125 -22.6875 12.8125 C-21.46760471 5.49312827 -21.46760471 5.49312827 -17.6875 1.8125 C-11.48780087 -1.57978821 -6.72479233 -2.16561109 0 0 Z " fill="#A7B1B0" transform="translate(552.6875,39.1875)"/>
<path d="M0 0 C10.23 0 20.46 0 31 0 C29.06799258 5.79602227 27.50467745 9.85906733 22.1328125 13.140625 C18.12625294 14.75498966 14.22321552 14.73337276 10 14 C5.44946533 11.67952868 1.85401487 8.85751896 0 4 C0 2.68 0 1.36 0 0 Z " fill="#A6B0AF" transform="translate(139,59)"/>
<path d="M0 0 C10.23 0 20.46 0 31 0 C29.06799258 5.79602227 27.50467745 9.85906733 22.1328125 13.140625 C18.12625294 14.75498966 14.22321552 14.73337276 10 14 C5.44946533 11.67952868 1.85401487 8.85751896 0 4 C0 2.68 0 1.36 0 0 Z " fill="#A6B0AF" transform="translate(95,59)"/>
<path d="M0 0 C10.23 0 20.46 0 31 0 C29.06799258 5.79602227 27.50467745 9.85906733 22.1328125 13.140625 C18.12625294 14.75498966 14.22321552 14.73337276 10 14 C5.44946533 11.67952868 1.85401487 8.85751896 0 4 C0 2.68 0 1.36 0 0 Z " fill="#A6B0AF" transform="translate(52,59)"/>
<path d="M0 0 C10.23 0 20.46 0 31 0 C29.06799258 5.79602227 27.50467745 9.85906733 22.1328125 13.140625 C18.12625294 14.75498966 14.22321552 14.73337276 10 14 C5.44946533 11.67952868 1.85401487 8.85751896 0 4 C0 2.68 0 1.36 0 0 Z " fill="#A6B0AF" transform="translate(10,59)"/>
<path d="M0 0 C9.9 0 19.8 0 30 0 C28.86601307 5.66993464 28.86601307 5.66993464 26.1875 8.6875 C25.68605469 9.26886719 25.18460937 9.85023437 24.66796875 10.44921875 C20.84148851 14.00685963 17.3069657 14.44105827 12.24609375 14.31640625 C7.55454984 13.6555105 4.81122245 10.83257041 1.625 7.5625 C0 5 0 5 0 0 Z " fill="#A6B0AF" transform="translate(315,59)"/>
<path d="M0 0 C9.9 0 19.8 0 30 0 C28.86601307 5.66993464 28.86601307 5.66993464 26.1875 8.6875 C25.68605469 9.26886719 25.18460937 9.85023437 24.66796875 10.44921875 C20.84148851 14.00685963 17.3069657 14.44105827 12.24609375 14.31640625 C7.55454984 13.6555105 4.81122245 10.83257041 1.625 7.5625 C0 5 0 5 0 0 Z " fill="#A6B0AF" transform="translate(271,59)"/>
<path d="M0 0 C9.9 0 19.8 0 30 0 C28.86601307 5.66993464 28.86601307 5.66993464 26.1875 8.6875 C25.68605469 9.26886719 25.18460938 9.85023437 24.66796875 10.44921875 C20.84148851 14.00685963 17.3069657 14.44105827 12.24609375 14.31640625 C7.55454984 13.6555105 4.81122245 10.83257041 1.625 7.5625 C0 5 0 5 0 0 Z " fill="#A6B0AF" transform="translate(228,59)"/>
<path d="M0 0 C9.9 0 19.8 0 30 0 C28.86601307 5.66993464 28.86601307 5.66993464 26.1875 8.6875 C25.68605469 9.26886719 25.18460938 9.85023437 24.66796875 10.44921875 C20.84148851 14.00685963 17.3069657 14.44105827 12.24609375 14.31640625 C7.55454984 13.6555105 4.81122245 10.83257041 1.625 7.5625 C0 5 0 5 0 0 Z " fill="#A6B0AF" transform="translate(186,59)"/>
<path d="M0 0 C9.9 0 19.8 0 30 0 C28.86601307 5.66993464 28.86601307 5.66993464 26.1875 8.6875 C25.68605469 9.26886719 25.18460938 9.85023437 24.66796875 10.44921875 C20.84148851 14.00685963 17.3069657 14.44105827 12.24609375 14.31640625 C7.55454984 13.6555105 4.81122245 10.83257041 1.625 7.5625 C0 5 0 5 0 0 Z " fill="#A6B0AF" transform="translate(488,58)"/>
<path d="M0 0 C9.9 0 19.8 0 30 0 C28.86601307 5.66993464 28.86601307 5.66993464 26.1875 8.6875 C25.68605469 9.26886719 25.18460937 9.85023437 24.66796875 10.44921875 C20.84148851 14.00685963 17.3069657 14.44105827 12.24609375 14.31640625 C7.55454984 13.6555105 4.81122245 10.83257041 1.625 7.5625 C0 5 0 5 0 0 Z " fill="#A6B0AF" transform="translate(444,58)"/>
<path d="M0 0 C9.9 0 19.8 0 30 0 C28.86601307 5.66993464 28.86601307 5.66993464 26.1875 8.6875 C25.68605469 9.26886719 25.18460937 9.85023437 24.66796875 10.44921875 C20.84148851 14.00685963 17.3069657 14.44105827 12.24609375 14.31640625 C7.55454984 13.6555105 4.81122245 10.83257041 1.625 7.5625 C0 5 0 5 0 0 Z " fill="#A6B0AF" transform="translate(401,58)"/>
<path d="M0 0 C9.9 0 19.8 0 30 0 C28.86601307 5.66993464 28.86601307 5.66993464 26.1875 8.6875 C25.68605469 9.26886719 25.18460937 9.85023437 24.66796875 10.44921875 C20.84148851 14.00685963 17.3069657 14.44105827 12.24609375 14.31640625 C7.55454984 13.6555105 4.81122245 10.83257041 1.625 7.5625 C0 5 0 5 0 0 Z " fill="#A6B0AF" transform="translate(359,58)"/>
<path d="M0 0 C2.86372462 2.4546211 4.98472098 4.79110937 7.1875 7.875 C7.1875 9.195 7.1875 10.515 7.1875 11.875 C-3.0425 11.875 -13.2725 11.875 -23.8125 11.875 C-21.83998703 5.95746109 -20.27037568 2.96428488 -14.95703125 -0.24609375 C-10.22717864 -2.18455794 -4.68693418 -1.87477367 0 0 Z " fill="#A7B2B0" transform="translate(337.8125,43.125)"/>
<path d="M0 0 C2.86372462 2.4546211 4.98472098 4.79110937 7.1875 7.875 C7.1875 9.195 7.1875 10.515 7.1875 11.875 C-3.0425 11.875 -13.2725 11.875 -23.8125 11.875 C-21.83998703 5.95746109 -20.27037568 2.96428488 -14.95703125 -0.24609375 C-10.22717864 -2.18455794 -4.68693418 -1.87477367 0 0 Z " fill="#A7B2B0" transform="translate(293.8125,43.125)"/>
<path d="M0 0 C2.86372462 2.4546211 4.98472098 4.79110937 7.1875 7.875 C7.1875 9.195 7.1875 10.515 7.1875 11.875 C-3.0425 11.875 -13.2725 11.875 -23.8125 11.875 C-21.83998703 5.95746109 -20.27037568 2.96428488 -14.95703125 -0.24609375 C-10.22717864 -2.18455794 -4.68693418 -1.87477367 0 0 Z " fill="#A7B2B0" transform="translate(250.8125,43.125)"/>
<path d="M0 0 C2.86372462 2.4546211 4.98472098 4.79110937 7.1875 7.875 C7.1875 9.195 7.1875 10.515 7.1875 11.875 C-3.0425 11.875 -13.2725 11.875 -23.8125 11.875 C-21.83998703 5.95746109 -20.27037568 2.96428488 -14.95703125 -0.24609375 C-10.22717864 -2.18455794 -4.68693418 -1.87477367 0 0 Z " fill="#A7B2B0" transform="translate(208.8125,43.125)"/>
<path d="M0 0 C2.86372462 2.4546211 4.98472098 4.79110937 7.1875 7.875 C7.1875 9.195 7.1875 10.515 7.1875 11.875 C-3.0425 11.875 -13.2725 11.875 -23.8125 11.875 C-21.83998703 5.95746109 -20.27037568 2.96428488 -14.95703125 -0.24609375 C-10.22717864 -2.18455794 -4.68693418 -1.87477367 0 0 Z " fill="#A7B2B0" transform="translate(510.8125,42.125)"/>
<path d="M0 0 C2.86372462 2.4546211 4.98472098 4.79110937 7.1875 7.875 C7.1875 9.195 7.1875 10.515 7.1875 11.875 C-3.0425 11.875 -13.2725 11.875 -23.8125 11.875 C-21.83998703 5.95746109 -20.27037568 2.96428488 -14.95703125 -0.24609375 C-10.22717864 -2.18455794 -4.68693418 -1.87477367 0 0 Z " fill="#A7B2B0" transform="translate(466.8125,42.125)"/>
<path d="M0 0 C2.86372462 2.4546211 4.98472098 4.79110937 7.1875 7.875 C7.1875 9.195 7.1875 10.515 7.1875 11.875 C-3.0425 11.875 -13.2725 11.875 -23.8125 11.875 C-21.83998703 5.95746109 -20.27037568 2.96428488 -14.95703125 -0.24609375 C-10.22717864 -2.18455794 -4.68693418 -1.87477367 0 0 Z " fill="#A7B2B0" transform="translate(423.8125,42.125)"/>
<path d="M0 0 C2.86372462 2.4546211 4.98472098 4.79110937 7.1875 7.875 C7.1875 9.195 7.1875 10.515 7.1875 11.875 C-3.0425 11.875 -13.2725 11.875 -23.8125 11.875 C-21.83998703 5.95746109 -20.27037568 2.96428488 -14.95703125 -0.24609375 C-10.22717864 -2.18455794 -4.68693418 -1.87477367 0 0 Z " fill="#A7B2B0" transform="translate(381.8125,42.125)"/>
<path d="M0 0 C5.61 0 11.22 0 17 0 C17 9.57 17 19.14 17 29 C14.1344564 26.1344564 12.59772185 23.78173723 10.64453125 20.2734375 C10.02255859 19.1596875 9.40058594 18.0459375 8.75976562 16.8984375 C8.44048096 16.32061523 8.12119629 15.74279297 7.79223633 15.14746094 C6.81040003 13.3712009 5.82089651 11.59938756 4.83007812 9.828125 C0 1.14506485 0 1.14506485 0 0 Z " fill="#FFFFFF" transform="translate(763,0)"/>
<path d="M0 0 C4.62 0 9.24 0 14 0 C10.07953013 10.53626276 5.631324 20.76052188 1 31 C0.67 31 0.34 31 0 31 C0 20.77 0 10.54 0 0 Z " fill="#FFFFFF" transform="translate(0,0)"/>
<path d="M0 0 C5.28 0 10.56 0 16 0 C15 5 15 5 12 12 C6.72 12 1.44 12 -4 12 C-1.125 2.25 -1.125 2.25 0 0 Z " fill="#010302" transform="translate(615,6)"/>
<path d="M0 0 C5.28 0 10.56 0 16 0 C13.125 10.875 13.125 10.875 12 12 C9.30345146 12.07319621 6.63308542 12.09242537 3.9375 12.0625 C2.79958008 12.05573242 2.79958008 12.05573242 1.63867188 12.04882812 C-0.24091871 12.0370068 -2.12046899 12.01907078 -4 12 C-3.52309796 10.37433394 -3.04340334 8.74948689 -2.5625 7.125 C-2.29566406 6.22007813 -2.02882813 5.31515625 -1.75390625 4.3828125 C-1 2 -1 2 0 0 Z " fill="#010302" transform="translate(573,6)"/>
<path d="M0 0 C5.28 0 10.56 0 16 0 C13.125 10.875 13.125 10.875 12 12 C9.30345146 12.07319621 6.63308542 12.09242537 3.9375 12.0625 C2.79958008 12.05573242 2.79958008 12.05573242 1.63867188 12.04882812 C-0.24091871 12.0370068 -2.12046899 12.01907078 -4 12 C-3.52309796 10.37433394 -3.04340334 8.74948689 -2.5625 7.125 C-2.29566406 6.22007813 -2.02882813 5.31515625 -1.75390625 4.3828125 C-1 2 -1 2 0 0 Z " fill="#010302" transform="translate(531,6)"/>
<path d="M0 0 C5.28 0 10.56 0 16 0 C13.125 10.875 13.125 10.875 12 12 C9.30345146 12.07319621 6.63308542 12.09242537 3.9375 12.0625 C2.79958008 12.05573242 2.79958008 12.05573242 1.63867188 12.04882812 C-0.24091871 12.0370068 -2.12046899 12.01907078 -4 12 C-3.52309796 10.37433394 -3.04340334 8.74948689 -2.5625 7.125 C-2.29566406 6.22007813 -2.02882813 5.31515625 -1.75390625 4.3828125 C-1 2 -1 2 0 0 Z " fill="#010302" transform="translate(490,6)"/>
<path d="M0 0 C5.61 0 11.22 0 17 0 C15.68 3.96 14.36 7.92 13 12 C7.72 12 2.44 12 -3 12 C-2 6 -2 6 0 0 Z " fill="#010302" transform="translate(282,6)"/>
<path d="M0 0 C5.28 0 10.56 0 16 0 C13.125 9.75 13.125 9.75 12 12 C6.72 12 1.44 12 -4 12 C-3 6 -3 6 0 0 Z " fill="#010302" transform="translate(240,6)"/>
<path d="M0 0 C5.28 0 10.56 0 16 0 C13.125 9.75 13.125 9.75 12 12 C6.72 12 1.44 12 -4 12 C-3 7 -3 7 0 0 Z " fill="#010302" transform="translate(28,6)"/>
<path d="M0 0 C5.28 0 10.56 0 16 0 C13.125 9.75 13.125 9.75 12 12 C6.72 12 1.44 12 -4 12 C-3 7 -3 7 0 0 Z " fill="#010302" transform="translate(697,6)"/>
<path d="M0 0 C5.28 0 10.56 0 16 0 C13.125 9.75 13.125 9.75 12 12 C6.72 12 1.44 12 -4 12 C-3 7 -3 7 0 0 Z " fill="#010302" transform="translate(656,6)"/>
<path d="M0 0 C5.28 0 10.56 0 16 0 C15 5 15 5 12 12 C6.72 12 1.44 12 -4 12 C-1.125 2.25 -1.125 2.25 0 0 Z " fill="#010302" transform="translate(409,6)"/>
<path d="M0 0 C5.28 0 10.56 0 16 0 C15 5 15 5 12 12 C6.72 12 1.44 12 -4 12 C-1.125 2.25 -1.125 2.25 0 0 Z " fill="#010302" transform="translate(367,6)"/>
<path d="M0 0 C5.28 0 10.56 0 16 0 C15 5 15 5 12 12 C6.72 12 1.44 12 -4 12 C-1.125 2.25 -1.125 2.25 0 0 Z " fill="#010302" transform="translate(326,6)"/>
<path d="M0 0 C5.28 0 10.56 0 16 0 C14.125 8.625 14.125 8.625 13 12 C7.72 12 2.44 12 -3 12 C-2 5 -2 5 0 0 Z " fill="#010302" transform="translate(198,6)"/>
<path d="M0 0 C5.61 0 11.22 0 17 0 C15.68 3.96 14.36 7.92 13 12 C7.72 12 2.44 12 -3 12 C-1.125 3.375 -1.125 3.375 0 0 Z " fill="#010302" transform="translate(154,6)"/>
<path d="M0 0 C5.61 0 11.22 0 17 0 C15.68 3.96 14.36 7.92 13 12 C7.72 12 2.44 12 -3 12 C-1.125 3.375 -1.125 3.375 0 0 Z " fill="#010302" transform="translate(112,6)"/>
<path d="M0 0 C5.61 0 11.22 0 17 0 C15.68 3.96 14.36 7.92 13 12 C7.72 12 2.44 12 -3 12 C-1.125 3.375 -1.125 3.375 0 0 Z " fill="#010302" transform="translate(69,6)"/>
<path d="M0 0 C5.28 0 10.56 0 16 0 C14.125 8.625 14.125 8.625 13 12 C7.72 12 2.44 12 -3 12 C-2 6 -2 6 0 0 Z " fill="#010302" transform="translate(740,6)"/>
<path d="M0 0 C5.28 0 10.56 0 16 0 C14.125 8.625 14.125 8.625 13 12 C7.72 12 2.44 12 -3 12 C-2 6 -2 6 0 0 Z " fill="#010301" transform="translate(449,6)"/>
<path d="M0 0 C0.66 0.33 1.32 0.66 2 1 C1.21625 1.5775 0.4325 2.155 -0.375 2.75 C-3.49234346 5.42200868 -4.78175755 7.2824036 -5.30078125 11.3671875 C-5.32541254 16.63828456 -5.16893157 20.5634958 -2 25 C1.55714527 28.29686635 4.26200952 29.26100324 9 29.375 C12.96026118 29.21946104 16.31920521 28.54980833 20 27 C16.9579765 30.25181822 15.05930549 31.80279806 10.51171875 32.23828125 C4.45343647 32.39748922 0.70043536 32.2418563 -4 28 C-8.53672319 22.97282025 -9.35816104 19.10864202 -9.28125 12.50390625 C-8.71796174 7.48907603 -5.92501663 4.798878 -2.25 1.625 C-1.5075 1.08875 -0.765 0.5525 0 0 Z " fill="#234632" transform="translate(749,40)"/>
<path d="M0 0 C0.66 0.33 1.32 0.66 2 1 C1.21625 1.5775 0.4325 2.155 -0.375 2.75 C-3.49234346 5.42200868 -4.78175755 7.2824036 -5.30078125 11.3671875 C-5.32541254 16.63828456 -5.16893157 20.5634958 -2 25 C1.55714527 28.29686635 4.26200952 29.26100324 9 29.375 C12.96026118 29.21946104 16.31920521 28.54980833 20 27 C16.9579765 30.25181822 15.05930549 31.80279806 10.51171875 32.23828125 C4.45343647 32.39748922 0.70043536 32.2418563 -4 28 C-8.53672319 22.97282025 -9.35816104 19.10864202 -9.28125 12.50390625 C-8.71796174 7.48907603 -5.92501663 4.798878 -2.25 1.625 C-1.5075 1.08875 -0.765 0.5525 0 0 Z " fill="#234632" transform="translate(707,40)"/>
<path d="M0 0 C0.66 0.33 1.32 0.66 2 1 C1.21625 1.5775 0.4325 2.155 -0.375 2.75 C-3.49234346 5.42200868 -4.78175755 7.2824036 -5.30078125 11.3671875 C-5.32541254 16.63828456 -5.16893157 20.5634958 -2 25 C1.55714527 28.29686635 4.26200952 29.26100324 9 29.375 C12.96026118 29.21946104 16.31920521 28.54980833 20 27 C16.9579765 30.25181822 15.05930549 31.80279806 10.51171875 32.23828125 C4.45343647 32.39748922 0.70043536 32.2418563 -4 28 C-8.53672319 22.97282025 -9.35816104 19.10864202 -9.28125 12.50390625 C-8.71796174 7.48907603 -5.92501663 4.798878 -2.25 1.625 C-1.5075 1.08875 -0.765 0.5525 0 0 Z " fill="#234632" transform="translate(665,39)"/>
<path d="M0 0 C0.66 0.33 1.32 0.66 2 1 C1.21625 1.5775 0.4325 2.155 -0.375 2.75 C-3.49234346 5.42200868 -4.78175755 7.2824036 -5.30078125 11.3671875 C-5.32541254 16.63828456 -5.16893157 20.5634958 -2 25 C1.55714527 28.29686635 4.26200952 29.26100324 9 29.375 C12.96026118 29.21946104 16.31920521 28.54980833 20 27 C16.9579765 30.25181822 15.05930549 31.80279806 10.51171875 32.23828125 C4.45343647 32.39748922 0.70043536 32.2418563 -4 28 C-8.53672319 22.97282025 -9.35816104 19.10864202 -9.28125 12.50390625 C-8.71796174 7.48907603 -5.92501663 4.798878 -2.25 1.625 C-1.5075 1.08875 -0.765 0.5525 0 0 Z " fill="#234632" transform="translate(621,39)"/>
<path d="M0 0 C0.66 0.33 1.32 0.66 2 1 C1.21625 1.5775 0.4325 2.155 -0.375 2.75 C-3.49234346 5.42200868 -4.78175755 7.2824036 -5.30078125 11.3671875 C-5.32541254 16.63828456 -5.16893157 20.5634958 -2 25 C1.55714527 28.29686635 4.26200952 29.26100324 9 29.375 C12.96026118 29.21946104 16.31920521 28.54980833 20 27 C16.9579765 30.25181822 15.05930549 31.80279806 10.51171875 32.23828125 C4.45343647 32.39748922 0.70043536 32.2418563 -4 28 C-8.53672319 22.97282025 -9.35816104 19.10864202 -9.28125 12.50390625 C-8.71796174 7.48907603 -5.92501663 4.798878 -2.25 1.625 C-1.5075 1.08875 -0.765 0.5525 0 0 Z " fill="#234632" transform="translate(578,39)"/>
<path d="M0 0 C0.66 0.33 1.32 0.66 2 1 C1.21625 1.5775 0.4325 2.155 -0.375 2.75 C-3.49234346 5.42200868 -4.78175755 7.2824036 -5.30078125 11.3671875 C-5.32541254 16.63828456 -5.16893157 20.5634958 -2 25 C1.55714527 28.29686635 4.26200952 29.26100324 9 29.375 C12.96026118 29.21946104 16.31920521 28.54980833 20 27 C16.9579765 30.25181822 15.05930549 31.80279806 10.51171875 32.23828125 C4.45343647 32.39748922 0.70043536 32.2418563 -4 28 C-8.53672319 22.97282025 -9.35816104 19.10864202 -9.28125 12.50390625 C-8.71796174 7.48907603 -5.92501663 4.798878 -2.25 1.625 C-1.5075 1.08875 -0.765 0.5525 0 0 Z " fill="#234632" transform="translate(536,39)"/>
<path d="M0 0 C0.66 0.33 1.32 0.66 2 1 C1.21625 1.721875 0.4325 2.44375 -0.375 3.1875 C-4.42042428 7.52188316 -5.49299424 11.02156625 -5.3125 17.01171875 C-4.58097207 21.66606523 -1.70867012 24.37373338 1.6875 27.375 C7.09325393 30.02687928 12.28539393 29.59026368 18 28 C14.86041598 31.28229238 12.92662048 32.19180784 8.375 32.375 C2.77512998 32.30216932 -0.86857034 30.76017216 -5 27 C-8.6380438 22.85838517 -9.65618698 18.66144 -9.38671875 13.20703125 C-8.51128598 8.21087454 -6.04073682 4.92247128 -2.25 1.5625 C-1.5075 1.046875 -0.765 0.53125 0 0 Z " fill="#214530" transform="translate(320,43)"/>
<path d="M0 0 C0.66 0.33 1.32 0.66 2 1 C1.21625 1.721875 0.4325 2.44375 -0.375 3.1875 C-4.42042428 7.52188316 -5.49299424 11.02156625 -5.3125 17.01171875 C-4.58097207 21.66606523 -1.70867012 24.37373338 1.6875 27.375 C7.09325393 30.02687928 12.28539393 29.59026368 18 28 C14.86041598 31.28229238 12.92662048 32.19180784 8.375 32.375 C2.77512998 32.30216932 -0.86857034 30.76017216 -5 27 C-8.6380438 22.85838517 -9.65618698 18.66144 -9.38671875 13.20703125 C-8.51128598 8.21087454 -6.04073682 4.92247128 -2.25 1.5625 C-1.5075 1.046875 -0.765 0.53125 0 0 Z " fill="#214530" transform="translate(276,43)"/>
<path d="M0 0 C0.66 0.33 1.32 0.66 2 1 C1.21625 1.721875 0.4325 2.44375 -0.375 3.1875 C-4.42042428 7.52188316 -5.49299424 11.02156625 -5.3125 17.01171875 C-4.58097207 21.66606523 -1.70867012 24.37373338 1.6875 27.375 C7.09325393 30.02687928 12.28539393 29.59026368 18 28 C14.86041598 31.28229238 12.92662048 32.19180784 8.375 32.375 C2.77512998 32.30216932 -0.86857034 30.76017216 -5 27 C-8.6380438 22.85838517 -9.65618698 18.66144 -9.38671875 13.20703125 C-8.51128598 8.21087454 -6.04073682 4.92247128 -2.25 1.5625 C-1.5075 1.046875 -0.765 0.53125 0 0 Z " fill="#214530" transform="translate(233,43)"/>
<path d="M0 0 C0.66 0.33 1.32 0.66 2 1 C1.21625 1.721875 0.4325 2.44375 -0.375 3.1875 C-4.42042428 7.52188316 -5.49299424 11.02156625 -5.3125 17.01171875 C-4.58097207 21.66606523 -1.70867012 24.37373338 1.6875 27.375 C7.09325393 30.02687928 12.28539393 29.59026368 18 28 C14.86041598 31.28229238 12.92662048 32.19180784 8.375 32.375 C2.77512998 32.30216932 -0.86857034 30.76017216 -5 27 C-8.6380438 22.85838517 -9.65618698 18.66144 -9.38671875 13.20703125 C-8.51128598 8.21087454 -6.04073682 4.92247128 -2.25 1.5625 C-1.5075 1.046875 -0.765 0.53125 0 0 Z " fill="#214530" transform="translate(191,43)"/>
<path d="M0 0 C0.66 0.33 1.32 0.66 2 1 C1.21625 1.721875 0.4325 2.44375 -0.375 3.1875 C-4.42042428 7.52188316 -5.49299424 11.02156625 -5.3125 17.01171875 C-4.58097207 21.66606523 -1.70867012 24.37373338 1.6875 27.375 C7.09325393 30.02687928 12.28539393 29.59026368 18 28 C14.86041598 31.28229238 12.92662048 32.19180784 8.375 32.375 C2.77512998 32.30216932 -0.86857034 30.76017216 -5 27 C-8.6380438 22.85838517 -9.65618698 18.66144 -9.38671875 13.20703125 C-8.51128598 8.21087454 -6.04073682 4.92247128 -2.25 1.5625 C-1.5075 1.046875 -0.765 0.53125 0 0 Z " fill="#214530" transform="translate(493,42)"/>
<path d="M0 0 C0.66 0.33 1.32 0.66 2 1 C1.21625 1.721875 0.4325 2.44375 -0.375 3.1875 C-4.42042428 7.52188316 -5.49299424 11.02156625 -5.3125 17.01171875 C-4.58097207 21.66606523 -1.70867012 24.37373338 1.6875 27.375 C7.09325393 30.02687928 12.28539393 29.59026368 18 28 C14.86041598 31.28229238 12.92662048 32.19180784 8.375 32.375 C2.77512998 32.30216932 -0.86857034 30.76017216 -5 27 C-8.6380438 22.85838517 -9.65618698 18.66144 -9.38671875 13.20703125 C-8.51128598 8.21087454 -6.04073682 4.92247128 -2.25 1.5625 C-1.5075 1.046875 -0.765 0.53125 0 0 Z " fill="#214530" transform="translate(449,42)"/>
<path d="M0 0 C0.66 0.33 1.32 0.66 2 1 C1.21625 1.721875 0.4325 2.44375 -0.375 3.1875 C-4.42042428 7.52188316 -5.49299424 11.02156625 -5.3125 17.01171875 C-4.58097207 21.66606523 -1.70867012 24.37373338 1.6875 27.375 C7.09325393 30.02687928 12.28539393 29.59026368 18 28 C14.86041598 31.28229238 12.92662048 32.19180784 8.375 32.375 C2.77512998 32.30216932 -0.86857034 30.76017216 -5 27 C-8.6380438 22.85838517 -9.65618698 18.66144 -9.38671875 13.20703125 C-8.51128598 8.21087454 -6.04073682 4.92247128 -2.25 1.5625 C-1.5075 1.046875 -0.765 0.53125 0 0 Z " fill="#214530" transform="translate(406,42)"/>
<path d="M0 0 C0.66 0.33 1.32 0.66 2 1 C1.21625 1.721875 0.4325 2.44375 -0.375 3.1875 C-4.42042428 7.52188316 -5.49299424 11.02156625 -5.3125 17.01171875 C-4.58097207 21.66606523 -1.70867012 24.37373338 1.6875 27.375 C7.09325393 30.02687928 12.28539393 29.59026368 18 28 C14.86041598 31.28229238 12.92662048 32.19180784 8.375 32.375 C2.77512998 32.30216932 -0.86857034 30.76017216 -5 27 C-8.6380438 22.85838517 -9.65618698 18.66144 -9.38671875 13.20703125 C-8.51128598 8.21087454 -6.04073682 4.92247128 -2.25 1.5625 C-1.5075 1.046875 -0.765 0.53125 0 0 Z " fill="#214530" transform="translate(364,42)"/>
<path d="M0 0 C0.66 0.33 1.32 0.66 2 1 C1.21625 1.721875 0.4325 2.44375 -0.375 3.1875 C-3.83757166 6.89739821 -4.77936883 9.32950686 -5.4375 14.3125 C-4.75112475 20.09766285 -2.07656107 24.10142988 2.1875 28 C7.6087797 29.92756612 13.50585208 29.57338185 19 28 C16.46274815 30.77889489 14.55547376 31.83668864 10.73046875 32.23828125 C4.91872264 32.4079021 1.54019896 31.99969908 -3 28 C-7.83095727 22.51621067 -8.34558791 19.19691447 -8.28515625 11.98828125 C-7.80237441 6.92899209 -5.5383259 4.28193825 -1.75 1.125 C-1.1725 0.75375 -0.595 0.3825 0 0 Z " fill="#1F432E" transform="translate(144,43)"/>
<path d="M0 0 C0.66 0.33 1.32 0.66 2 1 C1.21625 1.721875 0.4325 2.44375 -0.375 3.1875 C-3.83757166 6.89739821 -4.77936883 9.32950686 -5.4375 14.3125 C-4.75112475 20.09766285 -2.07656107 24.10142988 2.1875 28 C7.6087797 29.92756612 13.50585208 29.57338185 19 28 C16.46274815 30.77889489 14.55547376 31.83668864 10.73046875 32.23828125 C4.91872264 32.4079021 1.54019896 31.99969908 -3 28 C-7.83095727 22.51621067 -8.34558791 19.19691447 -8.28515625 11.98828125 C-7.80237441 6.92899209 -5.5383259 4.28193825 -1.75 1.125 C-1.1725 0.75375 -0.595 0.3825 0 0 Z " fill="#1F432E" transform="translate(100,43)"/>
<path d="M0 0 C0.66 0.33 1.32 0.66 2 1 C1.21625 1.721875 0.4325 2.44375 -0.375 3.1875 C-3.83757166 6.89739821 -4.77936883 9.32950686 -5.4375 14.3125 C-4.75112475 20.09766285 -2.07656107 24.10142988 2.1875 28 C7.6087797 29.92756612 13.50585208 29.57338185 19 28 C16.46274815 30.77889489 14.55547376 31.83668864 10.73046875 32.23828125 C4.91872264 32.4079021 1.54019896 31.99969908 -3 28 C-7.83095727 22.51621067 -8.34558791 19.19691447 -8.28515625 11.98828125 C-7.80237441 6.92899209 -5.5383259 4.28193825 -1.75 1.125 C-1.1725 0.75375 -0.595 0.3825 0 0 Z " fill="#1F432E" transform="translate(57,43)"/>
<path d="M0 0 C0.66 0.33 1.32 0.66 2 1 C1.21625 1.721875 0.4325 2.44375 -0.375 3.1875 C-3.83757166 6.89739821 -4.77936883 9.32950686 -5.4375 14.3125 C-4.75112475 20.09766285 -2.07656107 24.10142988 2.1875 28 C7.6087797 29.92756612 13.50585208 29.57338185 19 28 C16.46274815 30.77889489 14.55547376 31.83668864 10.73046875 32.23828125 C4.91872264 32.4079021 1.54019896 31.99969908 -3 28 C-7.83095727 22.51621067 -8.34558791 19.19691447 -8.28515625 11.98828125 C-7.80237441 6.92899209 -5.5383259 4.28193825 -1.75 1.125 C-1.1725 0.75375 -0.595 0.3825 0 0 Z " fill="#1F432E" transform="translate(15,43)"/>
<path d="M0 0 C0.33 0.66 0.66 1.32 1 2 C11.23 2 21.46 2 32 2 C32 2.99 32 3.98 32 5 C21.77 5 11.54 5 1 5 C0.67 5.66 0.34 6.32 0 7 C0 4.69 0 2.38 0 0 Z " fill="#575958" transform="translate(138,54)"/>
<path d="M0 0 C0.33 0.66 0.66 1.32 1 2 C11.23 2 21.46 2 32 2 C32 2.99 32 3.98 32 5 C21.77 5 11.54 5 1 5 C0.67 5.66 0.34 6.32 0 7 C0 4.69 0 2.38 0 0 Z " fill="#575958" transform="translate(94,54)"/>
<path d="M0 0 C0.33 0.66 0.66 1.32 1 2 C11.23 2 21.46 2 32 2 C32 2.99 32 3.98 32 5 C21.77 5 11.54 5 1 5 C0.67 5.66 0.34 6.32 0 7 C0 4.69 0 2.38 0 0 Z " fill="#575958" transform="translate(51,54)"/>
<path d="M0 0 C0.33 0.66 0.66 1.32 1 2 C11.23 2 21.46 2 32 2 C32 2.99 32 3.98 32 5 C21.77 5 11.54 5 1 5 C0.67 5.66 0.34 6.32 0 7 C0 4.69 0 2.38 0 0 Z " fill="#575958" transform="translate(9,54)"/>
<path d="M0 0 C10.23 0 20.46 0 31 0 C31 0.99 31 1.98 31 3 C21.1 3 11.2 3 1 3 C0.67 3.99 0.34 4.98 0 6 C0 4.02 0 2.04 0 0 Z " fill="#5A5C5B" transform="translate(314,56)"/>
<path d="M0 0 C10.23 0 20.46 0 31 0 C31 0.99 31 1.98 31 3 C21.1 3 11.2 3 1 3 C0.67 3.99 0.34 4.98 0 6 C0 4.02 0 2.04 0 0 Z " fill="#5A5C5B" transform="translate(270,56)"/>
<path d="M0 0 C10.23 0 20.46 0 31 0 C31 0.99 31 1.98 31 3 C21.1 3 11.2 3 1 3 C0.67 3.99 0.34 4.98 0 6 C0 4.02 0 2.04 0 0 Z " fill="#5A5C5B" transform="translate(227,56)"/>
<path d="M0 0 C10.23 0 20.46 0 31 0 C31 0.99 31 1.98 31 3 C21.1 3 11.2 3 1 3 C0.67 3.99 0.34 4.98 0 6 C0 4.02 0 2.04 0 0 Z " fill="#5A5C5B" transform="translate(185,56)"/>
<path d="M0 0 C10.23 0 20.46 0 31 0 C31 0.99 31 1.98 31 3 C21.1 3 11.2 3 1 3 C0.67 3.99 0.34 4.98 0 6 C0 4.02 0 2.04 0 0 Z " fill="#5A5C5B" transform="translate(487,55)"/>
<path d="M0 0 C10.23 0 20.46 0 31 0 C31 0.99 31 1.98 31 3 C21.1 3 11.2 3 1 3 C0.67 3.99 0.34 4.98 0 6 C0 4.02 0 2.04 0 0 Z " fill="#5A5C5B" transform="translate(443,55)"/>
<path d="M0 0 C10.23 0 20.46 0 31 0 C31 0.99 31 1.98 31 3 C21.1 3 11.2 3 1 3 C0.67 3.99 0.34 4.98 0 6 C0 4.02 0 2.04 0 0 Z " fill="#5A5C5B" transform="translate(400,55)"/>
<path d="M0 0 C10.23 0 20.46 0 31 0 C31 0.99 31 1.98 31 3 C21.1 3 11.2 3 1 3 C0.67 3.99 0.34 4.98 0 6 C0 4.02 0 2.04 0 0 Z " fill="#5A5C5B" transform="translate(358,55)"/>
<path d="M0 0 C10.23 0 20.46 0 31 0 C31 0.99 31 1.98 31 3 C20.77 3 10.54 3 0 3 C0 2.01 0 1.02 0 0 Z " fill="#595959" transform="translate(743,53)"/>
<path d="M0 0 C10.23 0 20.46 0 31 0 C31 0.99 31 1.98 31 3 C20.77 3 10.54 3 0 3 C0 2.01 0 1.02 0 0 Z " fill="#595959" transform="translate(701,53)"/>
<path d="M0 0 C10.23 0 20.46 0 31 0 C31 0.99 31 1.98 31 3 C20.77 3 10.54 3 0 3 C0 2.01 0 1.02 0 0 Z " fill="#595959" transform="translate(659,52)"/>
<path d="M0 0 C10.23 0 20.46 0 31 0 C31 0.99 31 1.98 31 3 C20.77 3 10.54 3 0 3 C0 2.01 0 1.02 0 0 Z " fill="#595959" transform="translate(615,52)"/>
<path d="M0 0 C10.23 0 20.46 0 31 0 C31 0.99 31 1.98 31 3 C20.77 3 10.54 3 0 3 C0 2.01 0 1.02 0 0 Z " fill="#595959" transform="translate(572,52)"/>
<path d="M0 0 C10.23 0 20.46 0 31 0 C31 0.99 31 1.98 31 3 C20.77 3 10.54 3 0 3 C0 2.01 0 1.02 0 0 Z " fill="#595959" transform="translate(530,52)"/>
<path d="M0 0 C0.66 0.33 1.32 0.66 2 1 C1.21625 1.721875 0.4325 2.44375 -0.375 3.1875 C-2.88576404 5.87760433 -3.70317426 7.66530524 -5 11 C-5.99 11.33 -6.98 11.66 -8 12 C-7.58388059 7.1452735 -5.54108048 5.19560921 -2 2 C-1.34 1.34 -0.68 0.68 0 0 Z " fill="#274B36" transform="translate(144,43)"/>
<path d="M0 0 C0.66 0.33 1.32 0.66 2 1 C1.21625 1.721875 0.4325 2.44375 -0.375 3.1875 C-2.88576404 5.87760433 -3.70317426 7.66530524 -5 11 C-5.99 11.33 -6.98 11.66 -8 12 C-7.58388059 7.1452735 -5.54108048 5.19560921 -2 2 C-1.34 1.34 -0.68 0.68 0 0 Z " fill="#274B36" transform="translate(100,43)"/>
<path d="M0 0 C0.66 0.33 1.32 0.66 2 1 C1.21625 1.721875 0.4325 2.44375 -0.375 3.1875 C-2.88576404 5.87760433 -3.70317426 7.66530524 -5 11 C-5.99 11.33 -6.98 11.66 -8 12 C-7.58388059 7.1452735 -5.54108048 5.19560921 -2 2 C-1.34 1.34 -0.68 0.68 0 0 Z " fill="#274B36" transform="translate(57,43)"/>
<path d="M0 0 C0.66 0.33 1.32 0.66 2 1 C1.21625 1.721875 0.4325 2.44375 -0.375 3.1875 C-2.88576404 5.87760433 -3.70317426 7.66530524 -5 11 C-5.99 11.33 -6.98 11.66 -8 12 C-7.58388059 7.1452735 -5.54108048 5.19560921 -2 2 C-1.34 1.34 -0.68 0.68 0 0 Z " fill="#274B36" transform="translate(15,43)"/>
<path d="M0 0 C0.66 0.33 1.32 0.66 2 1 C1.21625 1.721875 0.4325 2.44375 -0.375 3.1875 C-2.84412438 5.83299041 -3.93260278 7.60373611 -5 11 C-5.99 10.67 -6.98 10.34 -8 10 C-6.5682479 4.98886765 -4.01554307 3.05530451 0 0 Z " fill="#2C4E3B" transform="translate(320,43)"/>
<path d="M0 0 C0.66 0.33 1.32 0.66 2 1 C1.21625 1.721875 0.4325 2.44375 -0.375 3.1875 C-2.84412438 5.83299041 -3.93260278 7.60373611 -5 11 C-5.99 10.67 -6.98 10.34 -8 10 C-6.5682479 4.98886765 -4.01554307 3.05530451 0 0 Z " fill="#2C4E3B" transform="translate(276,43)"/>
<path d="M0 0 C0.66 0.33 1.32 0.66 2 1 C1.21625 1.721875 0.4325 2.44375 -0.375 3.1875 C-2.84412438 5.83299041 -3.93260278 7.60373611 -5 11 C-5.99 10.67 -6.98 10.34 -8 10 C-6.5682479 4.98886765 -4.01554307 3.05530451 0 0 Z " fill="#2C4E3B" transform="translate(233,43)"/>
<path d="M0 0 C0.66 0.33 1.32 0.66 2 1 C1.21625 1.721875 0.4325 2.44375 -0.375 3.1875 C-2.84412438 5.83299041 -3.93260278 7.60373611 -5 11 C-5.99 10.67 -6.98 10.34 -8 10 C-6.5682479 4.98886765 -4.01554307 3.05530451 0 0 Z " fill="#2C4E3B" transform="translate(191,43)"/>
<path d="M0 0 C0.66 0.33 1.32 0.66 2 1 C1.21625 1.721875 0.4325 2.44375 -0.375 3.1875 C-2.84412438 5.83299041 -3.93260278 7.60373611 -5 11 C-5.99 10.67 -6.98 10.34 -8 10 C-6.5682479 4.98886765 -4.01554307 3.05530451 0 0 Z " fill="#2C4E3B" transform="translate(493,42)"/>
<path d="M0 0 C0.66 0.33 1.32 0.66 2 1 C1.21625 1.721875 0.4325 2.44375 -0.375 3.1875 C-2.84412438 5.83299041 -3.93260278 7.60373611 -5 11 C-5.99 10.67 -6.98 10.34 -8 10 C-6.5682479 4.98886765 -4.01554307 3.05530451 0 0 Z " fill="#2C4E3B" transform="translate(449,42)"/>
<path d="M0 0 C0.66 0.33 1.32 0.66 2 1 C1.21625 1.721875 0.4325 2.44375 -0.375 3.1875 C-2.84412438 5.83299041 -3.93260278 7.60373611 -5 11 C-5.99 10.67 -6.98 10.34 -8 10 C-6.5682479 4.98886765 -4.01554307 3.05530451 0 0 Z " fill="#2C4E3B" transform="translate(406,42)"/>
<path d="M0 0 C0.66 0.33 1.32 0.66 2 1 C1.21625 1.721875 0.4325 2.44375 -0.375 3.1875 C-2.84412438 5.83299041 -3.93260278 7.60373611 -5 11 C-5.99 10.67 -6.98 10.34 -8 10 C-6.5682479 4.98886765 -4.01554307 3.05530451 0 0 Z " fill="#2C4E3B" transform="translate(364,42)"/>
</svg>
