<?xml version="1.0" encoding="UTF-8"?>
<!DOCTYPE svg PUBLIC "-//W3C//DTD SVG 1.1//EN" "http://www.w3.org/Graphics/SVG/1.1/DTD/svg11.dtd">
<!-- Creator: CorelDRAW 2019 (64-Bit) -->
<svg xmlns="http://www.w3.org/2000/svg" xml:space="preserve" width="75px" height="75px" version="1.1" style="shape-rendering:geometricPrecision; text-rendering:geometricPrecision; image-rendering:optimizeQuality; fill-rule:evenodd; clip-rule:evenodd"
viewBox="0 0 75 75"
 xmlns:xlink="http://www.w3.org/1999/xlink">
 <defs>
  <style type="text/css">
   <![CDATA[
    .fil0 {fill:none}
    .fil1 {fill:#FEFEFE}
   ]]>
  </style>
 </defs>
 <g id="Слой_x0020_1">
  <metadata id="CorelCorpID_0Corel-Layer"/>
  <polygon class="fil0" points="0,0 75,0 75,75 0,75 "/>
  <path class="fil1" d="M9.37 53.12l0 6.26 18.75 0 0 -6.26 -18.75 0zm0 -37.5l0 6.26 31.26 0 0 -6.26 -31.26 0zm31.26 50.01l0 -6.25 25 0 0 -6.26 -25 0 0 -6.25 -6.26 0.01 0 18.75 6.26 0zm-18.75 -37.51l0 6.25 -12.51 0 0 6.26 12.51 0 0 6.25 6.24 0 0 -18.76 -6.24 0zm43.75 12.51l0 -6.26 -31.26 0 0 6.26 31.26 0zm-18.75 -12.51l6.24 0 0 -6.24 12.51 0 0 -6.26 -12.51 0 0 -6.25 -6.24 0 0 18.75z"/>
 </g>
</svg>
