<?xml version="1.0" encoding="UTF-8"?>
<!DOCTYPE svg PUBLIC "-//W3C//DTD SVG 1.1//EN" "http://www.w3.org/Graphics/SVG/1.1/DTD/svg11.dtd">
<!-- Creator: CorelDRAW 2020 (64-Bit) -->
<svg xmlns="http://www.w3.org/2000/svg" xml:space="preserve" width="75px" height="75px" version="1.1" style="shape-rendering:geometricPrecision; text-rendering:geometricPrecision; image-rendering:optimizeQuality; fill-rule:evenodd; clip-rule:evenodd"
viewBox="0 0 75 75"
 xmlns:xlink="http://www.w3.org/1999/xlink"
 xmlns:xodm="http://www.corel.com/coreldraw/odm/2003">
 <defs>
  <style type="text/css">
   <![CDATA[
    .fil0 {fill:none}
    .fil1 {fill:#FEFEFE;fill-rule:nonzero}
   ]]>
  </style>
 </defs>
 <g id="Слой_x0020_1">
  <metadata id="CorelCorpID_0Corel-Layer"/>
  <polygon class="fil0" points="0,0 75,0 75,75 0,75 "/>
  <path class="fil1" d="M40.63 9.37c-15.54,0 -28.13,12.6 -28.13,28.13l-9.37 0 12.15 12.16 0.22 0.43 12.62 -12.59 -9.37 0c0,-12.09 9.78,-21.88 21.88,-21.88 12.09,0 21.87,9.79 21.87,21.88 0,12.09 -9.78,21.88 -21.87,21.88 -6.04,0 -11.51,-2.47 -15.44,-6.44l-4.44 4.44c5.09,5.09 12.09,8.25 19.88,8.25 15.53,0 28.12,-12.6 28.12,-28.13 0,-15.53 -12.59,-28.13 -28.12,-28.13zm-3.13 15.63l0 15.63 13.37 7.93 2.25 -3.78 -10.93 -6.5 0 -13.28 -4.69 0z"/>
 </g>
</svg>
