<?xml version="1.0" encoding="UTF-8"?>
<!DOCTYPE svg PUBLIC "-//W3C//DTD SVG 1.1//EN" "http://www.w3.org/Graphics/SVG/1.1/DTD/svg11.dtd">
<!-- Creator: CorelDRAW 2019 (64-Bit) -->
<svg xmlns="http://www.w3.org/2000/svg" xml:space="preserve" width="75px" height="75px" version="1.1" style="shape-rendering:geometricPrecision; text-rendering:geometricPrecision; image-rendering:optimizeQuality; fill-rule:evenodd; clip-rule:evenodd"
viewBox="0 0 75 75"
 xmlns:xlink="http://www.w3.org/1999/xlink">
 <defs>
  <style type="text/css">
   <![CDATA[
    .fil0 {fill:none}
    .fil1 {fill:#FEFEFE}
   ]]>
  </style>
 </defs>
 <g id="Слой_x0020_1">
  <metadata id="CorelCorpID_0Corel-Layer"/>
  <polygon class="fil0" points="0,0 75,0 75,75 0,75 "/>
  <path class="fil1" d="M37.5 9.37c-15.53,0 -28.13,12.6 -28.13,28.13l-9.37 0 12.5 12.5 12.5 -12.5 -9.38 0c0,-12.09 9.79,-21.88 21.88,-21.88 12.09,0 21.88,9.79 21.88,21.88 0,12.09 -9.79,21.88 -21.88,21.88 -4.72,0 -9.09,-1.54 -12.69,-4.07l-4.43 4.5c4.74,3.63 10.68,5.82 17.12,5.82 15.53,0 28.13,-12.6 28.13,-28.13 0,-15.53 -12.6,-28.13 -28.13,-28.13z"/>
  <polygon class="fil1" points="39.83,23.59 39.83,36.87 50.77,43.37 48.52,47.15 35.15,39.21 35.15,23.59 "/>
 </g>
</svg>
