<?xml version="1.0" encoding="UTF-8"?>
<!DOCTYPE svg PUBLIC "-//W3C//DTD SVG 1.1//EN" "http://www.w3.org/Graphics/SVG/1.1/DTD/svg11.dtd">
<!-- Creator: CorelDRAW 2019 (64-Bit) -->
<svg xmlns="http://www.w3.org/2000/svg" xml:space="preserve" width="75px" height="75px" version="1.1" style="shape-rendering:geometricPrecision; text-rendering:geometricPrecision; image-rendering:optimizeQuality; fill-rule:evenodd; clip-rule:evenodd"
viewBox="0 0 75 75"
 xmlns:xlink="http://www.w3.org/1999/xlink">
 <defs>
  <style type="text/css">
   <![CDATA[
    .fil0 {fill:none}
    .fil1 {fill:#FEFEFE}
   ]]>
  </style>
 </defs>
 <g id="Слой_x0020_1">
  <metadata id="CorelCorpID_0Corel-Layer"/>
  <polygon class="fil0" points="0,0 75,0 75,75 0,75 "/>
  <path class="fil1" d="M18.75 6.25l0 18.75 0.03 0 -0.03 0.03 12.5 12.47 -12.5 12.5 0.03 0.03 -0.03 0 0 18.72 37.5 0 0 -18.72 -0.03 0 0.03 -0.03 -12.5 -12.5 12.5 -12.47 -0.03 -0.03 0.03 0 0 -18.75 -37.5 0zm31.25 45.31l0 10.94 -25 0 0 -10.94 12.5 -12.5 12.5 12.5 0 0zm-12.5 -15.62l-12.5 -12.5 0 -10.94 25 0 0 10.94 -12.5 12.5 0 0z"/>
 </g>
</svg>
