<?xml version="1.0" encoding="UTF-8"?>
<!DOCTYPE svg PUBLIC "-//W3C//DTD SVG 1.1//EN" "http://www.w3.org/Graphics/SVG/1.1/DTD/svg11.dtd">
<!-- Creator: CorelDRAW 2019 (64-Bit) -->
<svg xmlns="http://www.w3.org/2000/svg" xml:space="preserve" width="234px" height="234px" version="1.1" style="shape-rendering:geometricPrecision; text-rendering:geometricPrecision; image-rendering:optimizeQuality; fill-rule:evenodd; clip-rule:evenodd"
viewBox="0 0 234 234"
 xmlns:xlink="http://www.w3.org/1999/xlink">
 <defs>
  <style type="text/css">
   <![CDATA[
    .fil0 {fill:none}
    .fil1 {fill:#FEFEFE}
   ]]>
  </style>
 </defs>
 <g id="Слой_x0020_1">
  <metadata id="CorelCorpID_0Corel-Layer"/>
  <polygon class="fil0" points="0,0 234,0 234,234 0,234 "/>
  <g>
   <path class="fil1" d="M157.23 99.06c-11.85,-1.15 -22.44,5.98 -24.84,17.72 0,3.56 14.15,8.28 27.15,8.28 13,0 24.74,-8.28 24.74,-10.59 0,-2.41 -8.18,-14.15 -27.05,-15.41l0 0zm-80.2 0c-18.87,1.26 -27.15,11.84 -27.15,15.31 0,2.41 12.89,10.69 24.74,10.69 11.84,0 27.15,-4.72 27.15,-8.28 -2.41,-11.74 -14.15,-18.87 -24.74,-17.72l0 0zm91.94 64.89c-20.02,0 -33.02,-23.59 -51.89,-23.59 -18.88,0 -33.02,23.59 -51.9,23.59 -24.74,0 -42.46,-22.43 -42.46,-62.48 0,-24.74 7.13,-31.87 38.9,-31.87 31.77,0 40.15,13 55.46,13 15.31,0 24.74,-13 55.46,-13 30.71,0 38.89,8.28 38.89,31.87 0,40.05 -17.72,62.48 -42.46,62.48z"/>
  </g>
 </g>
</svg>
