<?xml version="1.0" encoding="UTF-8"?>
<!DOCTYPE svg PUBLIC "-//W3C//DTD SVG 1.1//EN" "http://www.w3.org/Graphics/SVG/1.1/DTD/svg11.dtd">
<!-- Creator: CorelDRAW 2019 (64-Bit) -->
<svg xmlns="http://www.w3.org/2000/svg" xml:space="preserve" width="75px" height="75px" version="1.1" style="shape-rendering:geometricPrecision; text-rendering:geometricPrecision; image-rendering:optimizeQuality; fill-rule:evenodd; clip-rule:evenodd"
viewBox="0 0 75 75"
 xmlns:xlink="http://www.w3.org/1999/xlink">
 <defs>
  <style type="text/css">
   <![CDATA[
    .fil0 {fill:none}
    .fil1 {fill:#FEFEFE}
   ]]>
  </style>
 </defs>
 <g id="Слой_x0020_1">
  <metadata id="CorelCorpID_0Corel-Layer"/>
  <polygon class="fil0" points="0,0 75,0 75,75 0,75 "/>
  <path class="fil1" d="M67.04 28.93c-4.71,-16.31 -21.77,-25.69 -38.08,-20.98 -16.31,4.72 -25.73,21.75 -21.01,38.06 4.72,16.34 21.78,25.75 38.09,21.04 5.81,-1.68 10.74,-4.93 14.47,-9.15l-0.02 0 -6.56 -2.08c-2.67,2.4 -5.92,4.25 -9.6,5.32 -13.06,3.77 -26.69,-3.75 -30.47,-16.81 -3.77,-13.06 3.75,-26.69 16.81,-30.47 13.06,-3.77 26.69,3.75 30.47,16.81 1.11,3.86 1.24,7.78 0.53,11.47l5.12 4.34 0.09 0.09c1.72,-5.54 1.89,-11.64 0.16,-17.64z"/>
  <path class="fil1" d="M32.54 34.52c-0.83,1.44 -1.06,3.14 -0.63,4.75 0.43,1.6 1.48,2.96 2.91,3.79l30.21 10.22 -23.96 -21.04c-1.43,-0.84 -3.14,-1.07 -4.74,-0.64 -1.6,0.43 -2.97,1.48 -3.79,2.92l0 0 0 0z"/>
 </g>
</svg>
