<?xml version="1.0" encoding="UTF-8"?>
<!DOCTYPE svg PUBLIC "-//W3C//DTD SVG 1.1//EN" "http://www.w3.org/Graphics/SVG/1.1/DTD/svg11.dtd">
<!-- Creator: CorelDRAW 2019 (64-Bit) -->
<svg xmlns="http://www.w3.org/2000/svg" xml:space="preserve" width="75px" height="75px" version="1.1" style="shape-rendering:geometricPrecision; text-rendering:geometricPrecision; image-rendering:optimizeQuality; fill-rule:evenodd; clip-rule:evenodd"
viewBox="0 0 75 75"
 xmlns:xlink="http://www.w3.org/1999/xlink">
 <defs>
  <style type="text/css">
   <![CDATA[
    .fil0 {fill:none}
    .fil1 {fill:#FEFEFE}
   ]]>
  </style>
 </defs>
 <g id="Слой_x0020_1">
  <metadata id="CorelCorpID_0Corel-Layer"/>
  <polygon class="fil0" points="0,0 75,0 75,75 0,75 "/>
  <path class="fil1" d="M37.5 12.5c-15.62,0 -28.97,9.72 -34.37,23.44 5.4,13.72 18.75,23.44 34.37,23.44 15.62,0 28.97,-9.72 34.37,-23.44 -5.4,-13.72 -18.75,-23.44 -34.37,-23.44zm0 39.06c-8.63,0 -15.62,-7 -15.62,-15.62 0,-8.63 7,-15.63 15.62,-15.63 8.62,0 15.62,7 15.62,15.63 0,8.62 -7,15.62 -15.62,15.62zm0 -25c-5.19,0 -9.38,4.19 -9.38,9.38 0,5.19 4.19,9.37 9.38,9.37 5.19,0 9.38,-4.18 9.38,-9.37 0,-5.19 -4.19,-9.38 -9.38,-9.38z"/>
 </g>
</svg>
