<?xml version="1.0" encoding="UTF-8"?>
<!DOCTYPE svg PUBLIC "-//W3C//DTD SVG 1.1//EN" "http://www.w3.org/Graphics/SVG/1.1/DTD/svg11.dtd">
<!-- Creator: CorelDRAW 2019 (64-Bit) -->
<svg xmlns="http://www.w3.org/2000/svg" xml:space="preserve" width="75px" height="75px" version="1.1" style="shape-rendering:geometricPrecision; text-rendering:geometricPrecision; image-rendering:optimizeQuality; fill-rule:evenodd; clip-rule:evenodd"
viewBox="0 0 75 75"
 xmlns:xlink="http://www.w3.org/1999/xlink">
 <defs>
  <style type="text/css">
   <![CDATA[
    .fil0 {fill:none}
    .fil1 {fill:#FEFEFE}
   ]]>
  </style>
 </defs>
 <g id="Слой_x0020_1">
  <metadata id="CorelCorpID_0Corel-Layer"/>
  <polygon class="fil0" points="0,0 75,0 75,75 0,75 "/>
  <path class="fil1" d="M37.5 31.25c-3.44,0 -6.25,2.81 -6.25,6.25 0,3.44 2.81,6.25 6.25,6.25 3.44,0 6.25,-2.81 6.25,-6.25 0,-3.44 -2.81,-6.25 -6.25,-6.25zm21.88 -21.88l-43.76 0c-3.46,0 -6.25,2.82 -6.25,6.25l0 43.76c0,3.43 2.79,6.25 6.25,6.25l43.76 0c3.46,0 6.25,-2.82 6.25,-6.25l0 -43.76c0,-3.43 -2.79,-6.25 -6.25,-6.25zm-5.47 28.13c0,0.72 -0.07,1.44 -0.16,2.12l4.63 3.63c0.4,0.34 0.53,0.94 0.25,1.41l-4.38 7.56c-0.28,0.47 -0.84,0.66 -1.34,0.47l-5.44 -2.19c-1.13,0.88 -2.38,1.59 -3.69,2.16l-0.81 5.78c-0.09,0.53 -0.56,0.94 -1.09,0.94l-8.75 0c-0.54,0 -1.01,-0.41 -1.1,-0.91l-0.81 -5.78c-1.35,-0.56 -2.56,-1.28 -3.69,-2.16l-5.44 2.19c-0.5,0.19 -1.06,0 -1.34,-0.47l-4.38 -7.56c-0.28,-0.47 -0.15,-1.07 0.26,-1.41l4.62 -3.62c-0.09,-0.72 -0.16,-1.44 -0.16,-2.16 0,-0.72 0.07,-1.44 0.16,-2.13l-4.62 -3.62c-0.41,-0.34 -0.54,-0.94 -0.26,-1.41l4.38 -7.56c0.28,-0.47 0.84,-0.66 1.34,-0.47l5.44 2.19c1.13,-0.88 2.38,-1.59 3.69,-2.16l0.81 -5.78c0.09,-0.53 0.56,-0.94 1.1,-0.94l8.74 0c0.54,0 1.01,0.41 1.1,0.91l0.81 5.78c1.35,0.56 2.56,1.28 3.69,2.16l5.44 -2.19c0.5,-0.19 1.06,0 1.34,0.47l4.38 7.56c0.28,0.47 0.15,1.07 -0.26,1.41l-4.62 3.62c0.09,0.72 0.16,1.44 0.16,2.16l0 0z"/>
 </g>
</svg>
