<?xml version="1.0" encoding="UTF-8"?>
<!DOCTYPE svg PUBLIC "-//W3C//DTD SVG 1.1//EN" "http://www.w3.org/Graphics/SVG/1.1/DTD/svg11.dtd">
<!-- Creator: CorelDRAW 2019 (64-Bit) -->
<svg xmlns="http://www.w3.org/2000/svg" xml:space="preserve" width="75px" height="75px" version="1.1" style="shape-rendering:geometricPrecision; text-rendering:geometricPrecision; image-rendering:optimizeQuality; fill-rule:evenodd; clip-rule:evenodd"
viewBox="0 0 75 75"
 xmlns:xlink="http://www.w3.org/1999/xlink">
 <defs>
  <style type="text/css">
   <![CDATA[
    .fil0 {fill:none}
    .fil1 {fill:#FEFEFE}
   ]]>
  </style>
 </defs>
 <g id="Слой_x0020_1">
  <metadata id="CorelCorpID_0Corel-Layer"/>
  <path class="fil0" d="M0 0l75 0 0 75 -75 0 0 -75zm0 0l75 0 0 75 -75 0 0 -75zm0 0l75 0 0 75 -75 0 0 -75zm0 0l75 0 0 75 -75 0 0 -75z"/>
  <path class="fil1" d="M50.44 39.06c0,3.13 -0.32,5.78 -0.94,7.97 -0.62,2.19 -1.5,3.97 -2.59,5.31 -1.13,1.38 -2.47,2.35 -4.07,2.97 -1.59,0.63 -3.34,0.94 -5.31,0.94 -1.94,0 -3.69,-0.31 -5.28,-0.94 -1.59,-0.62 -2.97,-1.59 -4.09,-2.97 -1.13,-1.37 -2.04,-3.15 -2.66,-5.31 -0.62,-2.19 -0.94,-4.84 -0.94,-7.97l0 -6.37c0,-3.13 0.32,-5.78 0.94,-7.97 0.62,-2.19 1.5,-3.94 2.63,-5.28 1.12,-1.35 2.5,-2.32 4.09,-2.91 1.56,-0.59 3.34,-0.91 5.28,-0.91 1.97,0 3.72,0.32 5.31,0.91 1.6,0.59 2.97,1.56 4.1,2.91 1.12,1.34 2,3.09 2.62,5.28 0.63,2.19 0.94,4.81 0.94,7.97l0 6.37 -0.03 0zm-6.6 -7.37c0,-2 -0.15,-3.69 -0.4,-5.06 -0.28,-1.38 -0.69,-2.47 -1.25,-3.32 -0.53,-0.84 -1.22,-1.43 -2,-1.81 -0.78,-0.41 -1.69,-0.59 -2.69,-0.59 -1,0 -1.91,0.18 -2.69,0.56 -0.78,0.37 -1.47,0.97 -2,1.81 -0.53,0.84 -0.96,1.94 -1.25,3.31 -0.28,1.38 -0.4,3.07 -0.4,5.07l0 8.34c0,2 0.15,3.69 0.44,5.06 0.28,1.41 0.71,2.53 1.25,3.41 0.53,0.87 1.21,1.5 1.99,1.9 0.79,0.41 1.69,0.6 2.72,0.6 1.03,0 1.94,-0.19 2.72,-0.6 0.78,-0.4 1.44,-1.03 1.97,-1.9 0.53,-0.88 0.94,-2 1.22,-3.41 0.28,-1.41 0.41,-3.09 0.41,-5.06l0 -8.31 -0.04 0z"/>
 </g>
</svg>
