<?xml version="1.0" encoding="UTF-8"?>
<!DOCTYPE svg PUBLIC "-//W3C//DTD SVG 1.1//EN" "http://www.w3.org/Graphics/SVG/1.1/DTD/svg11.dtd">
<!-- Creator: CorelDRAW 2019 (64-Bit) -->
<svg xmlns="http://www.w3.org/2000/svg" xml:space="preserve" width="75px" height="75px" version="1.1" style="shape-rendering:geometricPrecision; text-rendering:geometricPrecision; image-rendering:optimizeQuality; fill-rule:evenodd; clip-rule:evenodd"
viewBox="0 0 75 75"
 xmlns:xlink="http://www.w3.org/1999/xlink">
 <defs>
  <style type="text/css">
   <![CDATA[
    .fil0 {fill:none}
    .fil1 {fill:#FEFEFE}
   ]]>
  </style>
 </defs>
 <g id="Слой_x0020_1">
  <metadata id="CorelCorpID_0Corel-Layer"/>
  <polygon class="fil0" points="0,0 75,0 75,75 0,75 "/>
  <path class="fil1" d="M48.59 17.34l-14.22 -14.21 0 9.59c-12.31,1.53 -21.87,12.03 -21.87,24.78 0,12.75 9.53,23.25 21.87,24.78l0 -6.31c-8.87,-1.5 -15.62,-9.19 -15.62,-18.47 0,-9.28 6.75,-16.97 15.62,-18.47l0 12.22 14.22 -13.91zm13.69 17.03c-0.53,-4.34 -2.25,-8.53 -5.06,-12.15l-4.44 4.44c1.69,2.34 2.75,5 3.19,7.71l6.31 0zm-21.65 21.57l0 6.31c4.34,-0.53 8.56,-2.22 12.18,-5.03l-4.5 -4.5c-2.34,1.69 -4.97,2.78 -7.68,3.22zm12.15 -7.56l4.44 4.4c2.81,-3.62 4.53,-7.81 5.06,-12.15l-6.31 0c-0.44,2.71 -1.5,5.37 -3.19,7.75z"/>
 </g>
</svg>
