<?xml version="1.0" encoding="UTF-8"?>
<!DOCTYPE svg PUBLIC "-//W3C//DTD SVG 1.1//EN" "http://www.w3.org/Graphics/SVG/1.1/DTD/svg11.dtd">
<!-- Creator: CorelDRAW 2019 (64-Bit) -->
<svg xmlns="http://www.w3.org/2000/svg" xml:space="preserve" width="75px" height="75px" version="1.1" style="shape-rendering:geometricPrecision; text-rendering:geometricPrecision; image-rendering:optimizeQuality; fill-rule:evenodd; clip-rule:evenodd"
viewBox="0 0 75 75"
 xmlns:xlink="http://www.w3.org/1999/xlink">
 <defs>
  <style type="text/css">
   <![CDATA[
    .fil0 {fill:none}
    .fil1 {fill:#FEFEFE}
   ]]>
  </style>
 </defs>
 <g id="Слой_x0020_1">
  <metadata id="CorelCorpID_0Corel-Layer"/>
  <rect class="fil0" width="75" height="75"/>
  <path class="fil1" d="M40.63 29.69l15.62 0 0 -6.25 -15.62 0 0 6.25zm0 21.87l15.62 0 0 -6.25 -15.62 0 0 6.25zm18.75 14.07l-43.76 0c-3.43,0 -6.25,-2.82 -6.25,-6.25l0 -43.76c0,-3.43 2.82,-6.25 6.25,-6.25l43.76 0c3.43,0 6.25,2.82 6.25,6.25l0 43.76c0,3.43 -2.82,6.25 -6.25,6.25zm-40.63 -31.26l15.62 0 0 -15.62 -15.62 0 0 15.62zm3.13 -12.49l9.37 0 0 9.37 -9.37 0 0 -9.37zm-3.13 34.37l15.62 0 0 -15.62 -15.62 0 0 15.62zm3.13 -12.5l9.37 0 0 9.38 -9.37 -0.01 0 -9.37z"/>
 </g>
</svg>
