<?xml version="1.0" encoding="UTF-8"?>
<!DOCTYPE svg PUBLIC "-//W3C//DTD SVG 1.1//EN" "http://www.w3.org/Graphics/SVG/1.1/DTD/svg11.dtd">
<!-- Creator: CorelDRAW 2019 (64-Bit) -->
<svg xmlns="http://www.w3.org/2000/svg" xml:space="preserve" width="75px" height="75px" version="1.1" style="shape-rendering:geometricPrecision; text-rendering:geometricPrecision; image-rendering:optimizeQuality; fill-rule:evenodd; clip-rule:evenodd"
viewBox="0 0 75 75"
 xmlns:xlink="http://www.w3.org/1999/xlink">
 <defs>
  <style type="text/css">
   <![CDATA[
    .fil0 {fill:none}
    .fil1 {fill:#FEFEFE}
   ]]>
  </style>
 </defs>
 <g id="Слой_x0020_1">
  <metadata id="CorelCorpID_0Corel-Layer"/>
  <polygon class="fil0" points="0,0 75,0 75,75 0,75 "/>
  <path class="fil1" d="M37.5 18.75l0 9.38 12.5 -12.5 -12.5 -12.5 0 9.37c-13.81,0 -25,11.19 -25,25 0,4.91 1.44,9.47 3.87,13.31l4.57 -4.56c-1.41,-2.59 -2.19,-5.59 -2.19,-8.75 0,-10.34 8.41,-18.75 18.75,-18.75zm21.13 5.44l-4.57 4.56c1.38,2.63 2.19,5.59 2.19,8.75 0,10.34 -8.41,18.75 -18.75,18.75l0 -9.38 -12.5 12.5 12.5 12.5 0 -9.37c13.81,0 25,-11.19 25,-25 0,-4.91 -1.44,-9.47 -3.87,-13.31l0 0z"/>
 </g>
</svg>
