<?xml version="1.0" encoding="UTF-8"?>
<!DOCTYPE svg PUBLIC "-//W3C//DTD SVG 1.1//EN" "http://www.w3.org/Graphics/SVG/1.1/DTD/svg11.dtd">
<!-- Creator: CorelDRAW 2019 (64-Bit) -->
<svg xmlns="http://www.w3.org/2000/svg" xml:space="preserve" width="75px" height="75px" version="1.1" style="shape-rendering:geometricPrecision; text-rendering:geometricPrecision; image-rendering:optimizeQuality; fill-rule:evenodd; clip-rule:evenodd"
viewBox="0 0 75 75"
 xmlns:xlink="http://www.w3.org/1999/xlink">
 <defs>
  <style type="text/css">
   <![CDATA[
    .fil0 {fill:none}
    .fil1 {fill:#FEFEFE}
   ]]>
  </style>
 </defs>
 <g id="Слой_x0020_1">
  <metadata id="CorelCorpID_0Corel-Layer"/>
  <polygon class="fil0" points="0,0 75,0 75,75 0,75 "/>
  <path class="fil1" d="M33.87 47.22c1.17,1.17 2.76,1.83 4.42,1.83 1.66,0 3.25,-0.66 4.42,-1.83l17.69 -26.53 -26.53 17.69c-1.18,1.17 -1.84,2.76 -1.84,4.42 0,1.66 0.66,3.25 1.84,4.42l0 0z"/>
  <path class="fil1" d="M63.69 26.78l-3.85 5.78c1.74,3.48 2.66,7.32 2.66,11.21 0,4.38 -1.16,8.69 -3.34,12.48l-43.32 0c-2.18,-3.79 -3.34,-8.11 -3.34,-12.49 0,-13.8 11.2,-25 25,-25 3.88,0 7.72,0.91 11.19,2.64l5.78 -3.84c-5.03,-3.22 -10.89,-4.94 -16.87,-4.94 -17.25,0 -31.25,13.99 -31.25,31.25 0,5.43 1.43,10.78 4.12,15.5 1.11,1.92 3.16,3.12 5.37,3.13l43.28 0c0.01,0 0.02,0 0.03,0 2.23,0 4.3,-1.19 5.41,-3.13 2.74,-4.74 4.19,-10.14 4.19,-15.62 0,-6.03 -1.75,-11.94 -5.03,-17l-0.03 0.03z"/>
 </g>
</svg>
