<?xml version="1.0" encoding="UTF-8"?>
<!DOCTYPE svg PUBLIC "-//W3C//DTD SVG 1.1//EN" "http://www.w3.org/Graphics/SVG/1.1/DTD/svg11.dtd">
<!-- Creator: CorelDRAW 2019 (64-Bit) -->
<svg xmlns="http://www.w3.org/2000/svg" xml:space="preserve" width="234px" height="234px" version="1.1" style="shape-rendering:geometricPrecision; text-rendering:geometricPrecision; image-rendering:optimizeQuality; fill-rule:evenodd; clip-rule:evenodd"
viewBox="0 0 234 234"
 xmlns:xlink="http://www.w3.org/1999/xlink">
 <defs>
  <style type="text/css">
   <![CDATA[
    .fil0 {fill:none}
    .fil1 {fill:#FEFEFE}
   ]]>
  </style>
 </defs>
 <g id="Слой_x0020_1">
  <metadata id="CorelCorpID_0Corel-Layer"/>
  <polygon class="fil0" points="0,0 234,0 234,234 0,234 "/>
  <g>
   <path class="fil1" d="M83.98 140.7l-13.57 13.56 -13.18 -13.18c-8.27,10.68 -13.86,23.48 -15.59,37.52l18.67 0 0 19.25 -38.48 0 0 -9.62c0,-46.57 33.09,-85.34 76.96,-94.29l0 -19.24 -76.96 -30.79 0 -19.24 192.41 0 0 19.24 -76.96 30.79 0 19.24c43.87,8.95 76.96,47.72 76.96,94.29l0 9.62 -38.48 0 0 -19.25 18.66 0c-1.73,-14.04 -7.31,-26.84 -15.58,-37.52l-13.18 13.18 -13.57 -13.56 13.18 -13.28c-10.68,-8.27 -23.57,-13.85 -37.62,-15.58l0 18.66 -19.24 0 0 -18.66c-14.04,1.73 -26.93,7.31 -37.61,15.58l13.18 13.28 0 0zm34.05 28.28c56.62,-0.02 -40.06,0 0,0z"/>
  </g>
  <path class="fil1" d="M120.24 206.46c-10.62,-0.18 -19.09,-8.95 -18.9,-19.58 0.18,-10.62 8.95,-19.08 19.58,-18.9 3.08,0.06 5.94,0.78 8.42,2.17l36.74 17.87 -37.34 16.57c-2.53,1.3 -5.42,1.92 -8.5,1.87z"/>
 </g>
</svg>
