<?xml version="1.0" encoding="UTF-8"?>
<!DOCTYPE svg PUBLIC "-//W3C//DTD SVG 1.1//EN" "http://www.w3.org/Graphics/SVG/1.1/DTD/svg11.dtd">
<!-- Creator: CorelDRAW 2019 (64-Bit) -->
<svg xmlns="http://www.w3.org/2000/svg" xml:space="preserve" width="75px" height="75px" version="1.1" style="shape-rendering:geometricPrecision; text-rendering:geometricPrecision; image-rendering:optimizeQuality; fill-rule:evenodd; clip-rule:evenodd"
viewBox="0 0 75 75"
 xmlns:xlink="http://www.w3.org/1999/xlink">
 <defs>
  <style type="text/css">
   <![CDATA[
    .fil0 {fill:none}
    .fil1 {fill:#FEFEFE}
   ]]>
  </style>
 </defs>
 <g id="Слой_x0020_1">
  <metadata id="CorelCorpID_0Corel-Layer"/>
  <polygon class="fil0" points="0,0 75,0 75,75 0,75 "/>
  <path class="fil1" d="M46.88 3.13l-18.76 0 0 6.25 18.76 -0.01 0 -6.24zm-12.51 40.62l6.26 0 0 -18.75 -6.26 0 0 18.75zm25.1 -20.66l4.44 -4.43c-1.35,-1.6 -2.82,-3.1 -4.41,-4.41l-4.44 4.44c-4.84,-3.88 -10.94,-6.19 -17.56,-6.19 -15.53,0 -28.13,12.59 -28.13,28.13 0,15.53 12.57,28.12 28.13,28.12 15.56,0 28.13,-12.59 28.13,-28.12 0,-6.63 -2.32,-12.72 -6.16,-17.54l0 0zm-21.97 39.41c-12.09,0 -21.88,-9.78 -21.88,-21.87 0,-12.1 9.79,-21.88 21.88,-21.88 12.09,0 21.88,9.78 21.88,21.88 0,12.09 -9.79,21.87 -21.88,21.87z"/>
 </g>
</svg>
