<?xml version="1.0" encoding="UTF-8"?>
<!DOCTYPE svg PUBLIC "-//W3C//DTD SVG 1.1//EN" "http://www.w3.org/Graphics/SVG/1.1/DTD/svg11.dtd">
<!-- Creator: CorelDRAW 2019 (64-Bit) -->
<svg xmlns="http://www.w3.org/2000/svg" xml:space="preserve" width="75px" height="75px" version="1.1" style="shape-rendering:geometricPrecision; text-rendering:geometricPrecision; image-rendering:optimizeQuality; fill-rule:evenodd; clip-rule:evenodd"
viewBox="0 0 75 75"
 xmlns:xlink="http://www.w3.org/1999/xlink">
 <defs>
  <style type="text/css">
   <![CDATA[
    .fil0 {fill:none}
    .fil1 {fill:#FEFEFE}
   ]]>
  </style>
 </defs>
 <g id="Слой_x0020_1">
  <metadata id="CorelCorpID_0Corel-Layer"/>
  <polygon class="fil0" points="0,0 75,0 75,75 0,75 "/>
  <path class="fil1" d="M20.69 33.72c4.5,8.84 11.75,16.06 20.59,20.59l6.88 -6.87c0.84,-0.85 2.09,-1.13 3.18,-0.75 3.5,1.15 7.29,1.78 11.16,1.78 1.72,0 3.13,1.41 3.13,3.12l0 10.91c0,1.72 -1.41,3.13 -3.13,3.13 -29.34,0 -53.12,-23.79 -53.12,-53.13 0,-1.72 1.4,-3.12 3.12,-3.12l10.94 -0.01c1.72,0 3.12,1.41 3.12,3.13 0,3.91 0.63,7.66 1.78,11.16 0.35,1.09 0.1,2.31 -0.78,3.18l-6.87 6.88 0 0z"/>
 </g>
</svg>
