<?xml version="1.0" encoding="UTF-8"?>
<!DOCTYPE svg PUBLIC "-//W3C//DTD SVG 1.1//EN" "http://www.w3.org/Graphics/SVG/1.1/DTD/svg11.dtd">
<!-- Creator: CorelDRAW 2019 (64-Bit) -->
<svg xmlns="http://www.w3.org/2000/svg" xml:space="preserve" width="75px" height="75px" version="1.1" style="shape-rendering:geometricPrecision; text-rendering:geometricPrecision; image-rendering:optimizeQuality; fill-rule:evenodd; clip-rule:evenodd"
viewBox="0 0 75 75"
 xmlns:xlink="http://www.w3.org/1999/xlink">
 <defs>
  <style type="text/css">
   <![CDATA[
    .fil0 {fill:none}
    .fil1 {fill:#FEFEFE}
   ]]>
  </style>
 </defs>
 <g id="Слой_x0020_1">
  <metadata id="CorelCorpID_0Corel-Layer"/>
  <polygon class="fil0" points="0,0 75,0 75,75 0,75 "/>
  <path class="fil1" d="M46.88 28.12l-18.76 0 0 18.75 18.76 0.01 0 -18.76zm-6.25 12.51l-6.26 0 0 -6.26 6.26 0 0 6.26zm25 -6.26l0 -6.25 -6.25 0 0 -6.24c0,-3.44 -2.82,-6.26 -6.26,-6.26l-6.24 0 0 -6.25 -6.25 0 0 6.25 -6.26 0 0 -6.25 -6.25 0 0 6.25 -6.24 0c-3.44,0 -6.26,2.82 -6.26,6.26l0 6.25 -6.25 -0.01 0 6.25 6.25 0 0 6.26 -6.25 0 0 6.25 6.25 0 0 6.25c0,3.43 2.82,6.25 6.26,6.25l6.24 0 0 6.25 6.25 0 0 -6.25 6.26 0 0 6.25 6.25 0 0 -6.25 6.24 0c3.44,0 6.26,-2.82 6.26,-6.26l0 -6.25 6.25 0.01 0 -6.25 -6.25 0 0 -6.26 6.25 0zm-12.51 18.75l-31.24 0 0 -31.24 31.24 0 0 31.24z"/>
 </g>
</svg>
