<?xml version="1.0" encoding="UTF-8"?>
<!DOCTYPE svg PUBLIC "-//W3C//DTD SVG 1.1//EN" "http://www.w3.org/Graphics/SVG/1.1/DTD/svg11.dtd">
<!-- Creator: CorelDRAW 2019 (64-Bit) -->
<svg xmlns="http://www.w3.org/2000/svg" xml:space="preserve" width="75px" height="75px" version="1.1" style="shape-rendering:geometricPrecision; text-rendering:geometricPrecision; image-rendering:optimizeQuality; fill-rule:evenodd; clip-rule:evenodd"
viewBox="0 0 75 75"
 xmlns:xlink="http://www.w3.org/1999/xlink">
 <defs>
  <style type="text/css">
   <![CDATA[
    .fil0 {fill:none}
    .fil1 {fill:#FEFEFE}
   ]]>
  </style>
 </defs>
 <g id="Слой_x0020_1">
  <metadata id="CorelCorpID_0Corel-Layer"/>
  <polygon class="fil0" points="0,0 75,0 75,75 0,75 "/>
  <path class="fil1" d="M37.47 6.25c-17.25,0 -31.22,14 -31.22,31.25 0,17.25 13.97,31.25 31.22,31.25 17.28,0 31.28,-14 31.28,-31.25 0,-17.25 -14,-31.25 -31.28,-31.25zm21.65 18.75l-9.21 0c-1,-3.91 -2.44,-7.66 -4.32,-11.12 5.75,1.96 10.53,5.96 13.53,11.12zm-21.62 -12.38c2.59,3.75 4.63,7.91 5.97,12.38l-11.94 0c1.34,-4.47 3.38,-8.63 5.97,-12.38zm-24.19 31.13c-0.5,-2 -0.81,-4.09 -0.81,-6.25 0,-2.16 0.31,-4.25 0.81,-6.25l10.56 0c-0.25,2.06 -0.43,4.13 -0.43,6.25 0,2.12 0.19,4.19 0.43,6.25l-10.56 0zm2.57 6.25l9.21 0c1,3.91 2.44,7.66 4.32,11.12 -5.75,-1.96 -10.53,-5.93 -13.53,-11.12zm9.21 -25l-9.21 0c3,-5.19 7.78,-9.16 13.53,-11.12 -1.88,3.46 -3.32,7.21 -4.32,11.12zm12.41 37.38c-2.59,-3.75 -4.63,-7.91 -5.97,-12.38l11.94 0c-1.34,4.47 -3.38,8.63 -5.97,12.38zm7.31 -18.63l-14.62 0c-0.28,-2.06 -0.5,-4.13 -0.5,-6.25 0,-2.12 0.22,-4.22 0.5,-6.25l14.62 0c0.28,2.03 0.5,4.13 0.5,6.25 0,2.12 -0.22,4.19 -0.5,6.25zm0.78 17.38c1.88,-3.47 3.32,-7.22 4.32,-11.13l9.21 0c-3,5.16 -7.78,9.16 -13.53,11.12l0 0.01zm5.54 -17.38c0.25,-2.06 0.43,-4.13 0.43,-6.25 0,-2.12 -0.19,-4.19 -0.43,-6.25l10.56 0c0.5,2 0.81,4.09 0.81,6.25 0,2.16 -0.31,4.25 -0.81,6.25l-10.56 0z"/>
 </g>
</svg>
