<?xml version="1.0" encoding="utf-8"?>
<!-- Generator: Adobe Illustrator 25.2.3, SVG Export Plug-In . SVG Version: 6.00 Build 0)  -->
<!DOCTYPE svg PUBLIC "-//W3C//DTD SVG 1.1//EN" "http://www.w3.org/Graphics/SVG/1.1/DTD/svg11.dtd" [
	<!ENTITY ns_extend "http://ns.adobe.com/Extensibility/1.0/">
	<!ENTITY ns_ai "http://ns.adobe.com/AdobeIllustrator/10.0/">
	<!ENTITY ns_graphs "http://ns.adobe.com/Graphs/1.0/">
	<!ENTITY ns_vars "http://ns.adobe.com/Variables/1.0/">
	<!ENTITY ns_imrep "http://ns.adobe.com/ImageReplacement/1.0/">
	<!ENTITY ns_sfw "http://ns.adobe.com/SaveForWeb/1.0/">
	<!ENTITY ns_custom "http://ns.adobe.com/GenericCustomNamespace/1.0/">
	<!ENTITY ns_adobe_xpath "http://ns.adobe.com/XPath/1.0/">
]>
<svg version="1.1" id="Слой_1" xmlns:x="&ns_extend;" xmlns:i="&ns_ai;" xmlns:graph="&ns_graphs;"
	 xmlns="http://www.w3.org/2000/svg" xmlns:xlink="http://www.w3.org/1999/xlink" x="0px" y="0px" viewBox="0 0 75 75"
	 style="enable-background:new 0 0 75 75;" xml:space="preserve">
<style type="text/css">
	.st0{fill:none;}
	.st1{fill-rule:evenodd;clip-rule:evenodd;fill:#353535;}
</style>
<metadata  id="CorelCorpID_0Corel-Layer">
	<sfw  xmlns="&ns_sfw;">
		<slices></slices>
		<sliceSourceBounds  bottomLeftOrigin="true" height="508.1" width="271.5" x="-196.5" y="0"></sliceSourceBounds>
	</sfw>
</metadata>
<g id="Слой_x0020_1">
	<polygon class="st0" points="0,0 75,0 75,75 0,75 	"/>
	<polygon class="st1" points="34,58.5 41,58.5 41,70 34,70 	"/>
	<path class="st1" d="M54.9,55c0.1,0.2,0.1,0.4,0.1,0.6v3.7c0,1.5-1.5,2.7-3.3,2.7H23.3c-1.8,0-3.3-1.2-3.3-2.7v-3.7
		c0-0.2,0-0.4,0.1-0.6C20.1,55,54.9,55,54.9,55z"/>
	<polygon class="st1" points="19,23 56,23 56,51 19,51 	"/>
	<path class="st1" d="M19,19h37c-0.6-6.7-2.9-11.3-7.6-13H26.9C21.5,8.3,19.2,12.9,19,19z"/>
</g>
<g id="Слой_x0020_1_1_">
	<polygon class="st0" points="-196.5,-433.1 37.5,-433.1 37.5,-199.1 -196.5,-199.1 	"/>
	<g>
		<path class="st1" d="M-133.8-357.8l-19.3-19.2l12.8-12.8l19.2,19.3L-133.8-357.8C-133.8-357.8-133.8-357.8-133.8-357.8z
			 M-70.4-411.2v27.2h-18.1v-27.2H-70.4L-70.4-411.2z M-5.9-376.9l-19.3,19.2l-12.7-12.7l19.2-19.3L-5.9-376.9
			C-5.9-376.9-5.9-376.9-5.9-376.9z M-147.4-325.2v18.1h-27.2v-18.1H-147.4L-147.4-325.2z M-11.6-325.2h27.2v18.1h-27.2V-325.2
			L-11.6-325.2z M-133.8-239.2h108.6c10,0,18.1,8.1,18.1,18.1l-144.8,0C-151.9-231.1-143.8-239.2-133.8-239.2L-133.8-239.2z
			 M-79.5-374.9c30,0,54.3,24.3,54.3,54.3v72.4h-108.6v-72.4C-133.8-350.6-109.5-375-79.5-374.9z"/>
	</g>
</g>
</svg>
