<?xml version="1.0" encoding="utf-8"?>
<!-- Generator: Adobe Illustrator 25.2.3, SVG Export Plug-In . SVG Version: 6.00 Build 0)  -->
<!DOCTYPE svg PUBLIC "-//W3C//DTD SVG 1.1//EN" "http://www.w3.org/Graphics/SVG/1.1/DTD/svg11.dtd" [
	<!ENTITY ns_extend "http://ns.adobe.com/Extensibility/1.0/">
	<!ENTITY ns_ai "http://ns.adobe.com/AdobeIllustrator/10.0/">
	<!ENTITY ns_graphs "http://ns.adobe.com/Graphs/1.0/">
	<!ENTITY ns_vars "http://ns.adobe.com/Variables/1.0/">
	<!ENTITY ns_imrep "http://ns.adobe.com/ImageReplacement/1.0/">
	<!ENTITY ns_sfw "http://ns.adobe.com/SaveForWeb/1.0/">
	<!ENTITY ns_custom "http://ns.adobe.com/GenericCustomNamespace/1.0/">
	<!ENTITY ns_adobe_xpath "http://ns.adobe.com/XPath/1.0/">
]>
<svg version="1.1" id="Слой_1" xmlns:x="&ns_extend;" xmlns:i="&ns_ai;" xmlns:graph="&ns_graphs;"
	 xmlns="http://www.w3.org/2000/svg" xmlns:xlink="http://www.w3.org/1999/xlink" x="0px" y="0px" viewBox="0 0 75 75"
	 style="enable-background:new 0 0 75 75;" xml:space="preserve">
<style type="text/css">
	.st0{fill:none;}
	.st1{fill-rule:evenodd;clip-rule:evenodd;fill:#353535;}
</style>
<metadata  id="CorelCorpID_0Corel-Layer">
	<sfw  xmlns="&ns_sfw;">
		<slices></slices>
		<sliceSourceBounds  bottomLeftOrigin="true" height="75" width="75" x="0" y="0"></sliceSourceBounds>
	</sfw>
</metadata>
<g id="Слой_x0020_1">
	<polygon class="st0" points="0,0 75,0 75,75 0,75 	"/>
	<path class="st1" d="M65.6,15.6v20.6L58.5,29c-1.2-1.2-3.2-1.2-4.4,0L43.8,39.3L33.5,29.1c-1.2-1.2-3.2-1.2-4.4,0L18.8,39.3
		l-9.4-9.4V15.6c0-3.4,2.8-6.3,6.3-6.3h43.8C62.8,9.4,65.6,12.2,65.6,15.6z M56.2,35.7l9.4,9.4v14.3c0,3.4-2.8,6.3-6.3,6.3H15.6
		c-3.4,0-6.3-2.8-6.3-6.3V38.8l7.2,7.2c1.2,1.2,3.2,1.2,4.4,0l10.3-10.3l10.3,10.3c1.2,1.2,3.2,1.2,4.4,0L56.2,35.7
		C56.3,35.7,56.3,35.7,56.2,35.7z"/>
</g>
</svg>
