<?xml version="1.0" encoding="UTF-8"?>
<!DOCTYPE svg PUBLIC "-//W3C//DTD SVG 1.1//EN" "http://www.w3.org/Graphics/SVG/1.1/DTD/svg11.dtd">
<!-- Creator: CorelDRAW 2019 (64-Bit) -->
<svg xmlns="http://www.w3.org/2000/svg" xml:space="preserve" width="234px" height="234px" version="1.1" style="shape-rendering:geometricPrecision; text-rendering:geometricPrecision; image-rendering:optimizeQuality; fill-rule:evenodd; clip-rule:evenodd"
viewBox="0 0 234 234"
 xmlns:xlink="http://www.w3.org/1999/xlink">
 <defs>
  <style type="text/css">
   <![CDATA[
    .fil0 {fill:none}
    .fil1 {fill:#FEFEFE}
   ]]>
  </style>
 </defs>
 <g id="Слой_x0020_1">
  <metadata id="CorelCorpID_0Corel-Layer"/>
  <polygon class="fil0" points="0,0 234,0 234,234 0,234 "/>
  <g>
   <path class="fil1" d="M62.69 75.36l-19.28 -19.19 12.76 -12.76 19.19 19.28 -12.67 12.67 0 0zm63.36 -53.41l0 27.16 -18.1 0 0 -27.16 18.1 0 0 0zm64.54 34.22l-19.28 19.19 -12.67 -12.67 19.19 -19.28 12.76 12.76 0 0zm-141.48 51.78l0 18.1 -27.16 0 0 -18.1 27.16 0 0 0zm135.78 0l27.16 0 0 18.1 -27.16 0 0 -18.1 0 0zm-122.2 85.99l108.62 0c10,0 18.11,8.11 18.11,18.1l-144.84 0.01c0.01,-10 8.11,-18.11 18.11,-18.11l0 0zm54.31 -135.78c29.99,0 54.31,24.32 54.31,54.31l0 72.42 -108.62 0 0 -72.42c0,-29.99 24.32,-54.31 54.31,-54.31z"/>
  </g>
 </g>
</svg>
