<?xml version="1.0" encoding="UTF-8"?>
<!DOCTYPE svg PUBLIC "-//W3C//DTD SVG 1.1//EN" "http://www.w3.org/Graphics/SVG/1.1/DTD/svg11.dtd">
<!-- Creator: CorelDRAW 2019 (64-Bit) -->
<svg xmlns="http://www.w3.org/2000/svg" xml:space="preserve" width="75px" height="75px" version="1.1" style="shape-rendering:geometricPrecision; text-rendering:geometricPrecision; image-rendering:optimizeQuality; fill-rule:evenodd; clip-rule:evenodd"
viewBox="0 0 75 75"
 xmlns:xlink="http://www.w3.org/1999/xlink">
 <defs>
  <style type="text/css">
   <![CDATA[
    .fil0 {fill:none}
    .fil1 {fill:#FEFEFE}
   ]]>
  </style>
 </defs>
 <g id="Слой_x0020_1">
  <metadata id="CorelCorpID_0Corel-Layer"/>
  <polygon class="fil0" points="0,0 75,0 75,75 0,75 "/>
  <path class="fil1" d="M62.5 12.5l-50 0c-3.44,0 -6.25,2.81 -6.25,6.25l0 37.5c0,3.44 2.81,6.25 6.25,6.25l50 0c3.44,0 6.25,-2.81 6.25,-6.25l0 -37.5c0,-3.44 -2.81,-6.25 -6.25,-6.25l0 0zm-1.25 13.28l-20.44 12.78c-2.03,1.28 -4.59,1.28 -6.62,0l-20.44 -12.78c-0.78,-0.5 -1.25,-1.34 -1.25,-2.25 0,-2.09 2.28,-3.34 4.06,-2.25l20.94 13.09 20.94 -13.09c1.78,-1.09 4.06,0.16 4.06,2.25 0,0.91 -0.47,1.75 -1.25,2.25l0 0z"/>
 </g>
</svg>
