<?xml version="1.0" encoding="UTF-8"?>
<!DOCTYPE svg PUBLIC "-//W3C//DTD SVG 1.1//EN" "http://www.w3.org/Graphics/SVG/1.1/DTD/svg11.dtd">
<!-- Creator: CorelDRAW 2019 (64-Bit) -->
<svg xmlns="http://www.w3.org/2000/svg" xml:space="preserve" width="75px" height="75px" version="1.1" style="shape-rendering:geometricPrecision; text-rendering:geometricPrecision; image-rendering:optimizeQuality; fill-rule:evenodd; clip-rule:evenodd"
viewBox="0 0 75 75"
 xmlns:xlink="http://www.w3.org/1999/xlink">
 <defs>
  <style type="text/css">
   <![CDATA[
    .fil0 {fill:none}
    .fil1 {fill:#FEFEFE}
   ]]>
  </style>
 </defs>
 <g id="Слой_x0020_1">
  <metadata id="CorelCorpID_0Corel-Layer"/>
  <g id="_1616365568">
   <rect class="fil0" width="75" height="75"/>
  </g>
  <g id="_1616363840">
   <g>
    <g>
     <path class="fil1" d="M65.63 31.63l-21.19 0 8.56 -8.82c-8.53,-8.43 -22.34,-8.75 -30.87,-0.31 -8.54,8.47 -8.54,22.13 0,30.59 8.53,8.47 22.34,8.47 30.87,0 4.25,-4.18 6.38,-9.09 6.38,-15.28l6.25 0c0,6.19 -2.75,14.22 -8.25,19.66 -10.97,10.87 -28.79,10.87 -39.75,0 -10.94,-10.84 -11.04,-28.47 -0.07,-39.31 10.97,-10.85 28.57,-10.85 39.53,0l8.54 -8.79 0 22.26zm-26.57 -6.63l0 13.28 10.94 6.5 -2.25 3.78 -13.38 -7.93 0 -15.63 4.69 0z"/>
    </g>
   </g>
  </g>
 </g>
</svg>
