<?xml version="1.0" encoding="UTF-8"?>
<!DOCTYPE svg PUBLIC "-//W3C//DTD SVG 1.1//EN" "http://www.w3.org/Graphics/SVG/1.1/DTD/svg11.dtd">
<!-- Creator: CorelDRAW 2019 (64-Bit) -->
<svg xmlns="http://www.w3.org/2000/svg" xml:space="preserve" width="75px" height="75px" version="1.1" style="shape-rendering:geometricPrecision; text-rendering:geometricPrecision; image-rendering:optimizeQuality; fill-rule:evenodd; clip-rule:evenodd"
viewBox="0 0 75 75"
 xmlns:xlink="http://www.w3.org/1999/xlink">
 <defs>
  <style type="text/css">
   <![CDATA[
    .fil0 {fill:none}
    .fil1 {fill:#FEFEFE}
   ]]>
  </style>
 </defs>
 <g id="Слой_x0020_1">
  <metadata id="CorelCorpID_0Corel-Layer"/>
  <polygon class="fil0" points="0,0 75,0 75,75 0,75 "/>
  <path class="fil1" d="M70.94 59.38l-28.44 -28.44c2.81,-7.19 1.25,-15.63 -4.69,-21.56 -6.25,-6.25 -15.62,-7.5 -23.12,-4.07l13.43 13.44 -9.37 9.37 -13.75 -13.43c-3.75,7.5 -2.19,16.87 4.06,23.12 5.94,5.94 14.38,7.5 21.56,4.69l28.44 28.44c1.25,1.25 3.13,1.25 4.38,0l7.18 -7.19c1.57,-1.25 1.57,-3.44 0.32,-4.37l0 0z"/>
 </g>
</svg>
