<?xml version="1.0" encoding="UTF-8"?>
<!DOCTYPE svg PUBLIC "-//W3C//DTD SVG 1.1//EN" "http://www.w3.org/Graphics/SVG/1.1/DTD/svg11.dtd">
<!-- Creator: CorelDRAW 2019 (64-Bit) -->
<svg xmlns="http://www.w3.org/2000/svg" xml:space="preserve" width="75px" height="75px" version="1.1" style="shape-rendering:geometricPrecision; text-rendering:geometricPrecision; image-rendering:optimizeQuality; fill-rule:evenodd; clip-rule:evenodd"
viewBox="0 0 75 75"
 xmlns:xlink="http://www.w3.org/1999/xlink">
 <defs>
  <style type="text/css">
   <![CDATA[
    .fil0 {fill:none}
    .fil1 {fill:#FEFEFE}
   ]]>
  </style>
 </defs>
 <g id="Слой_x0020_1">
  <metadata id="CorelCorpID_0Corel-Layer"/>
  <polygon class="fil0" points="0,0 75,0 75,75 0,75 "/>
  <path class="fil1" d="M34.37 53.12c0,1.72 1.41,3.13 3.13,3.13 1.72,0 3.13,-1.41 3.13,-3.13 0,-1.71 -1.41,-3.12 -3.13,-3.12 -1.72,0 -3.13,1.41 -3.13,3.12zm0 -43.75l0 12.5 6.26 0.01 0 -6c10.59,1.53 18.75,10.59 18.75,21.62 0,12.09 -9.79,21.88 -21.88,21.88 -12.09,0 -21.88,-9.79 -21.88,-21.88 0,-5.25 1.85,-10.06 4.94,-13.81l16.94 16.94 4.41 -4.41 -21.25 -21.25 0 0.06c-6.85,5.13 -11.29,13.25 -11.29,22.47 0,15.53 12.57,28.13 28.13,28.13 15.53,0 28.13,-12.6 28.13,-28.13 0,-15.53 -12.6,-28.13 -28.13,-28.13l-3.13 0zm21.88 28.13c0,-1.72 -1.41,-3.13 -3.13,-3.13 -1.71,0 -3.12,1.41 -3.12,3.13 0,1.72 1.41,3.13 3.12,3.13 1.72,0 3.13,-1.41 3.13,-3.13zm-37.5 0c0,1.72 1.41,3.13 3.13,3.13 1.71,0 3.12,-1.41 3.12,-3.13 0,-1.72 -1.41,-3.13 -3.12,-3.13 -1.72,0 -3.13,1.41 -3.13,3.13z"/>
 </g>
</svg>
