<?xml version="1.0" encoding="UTF-8"?>
<!DOCTYPE svg PUBLIC "-//W3C//DTD SVG 1.1//EN" "http://www.w3.org/Graphics/SVG/1.1/DTD/svg11.dtd">
<!-- Creator: CorelDRAW 2019 (64-Bit) -->
<svg xmlns="http://www.w3.org/2000/svg" xml:space="preserve" width="234px" height="234px" version="1.1" style="shape-rendering:geometricPrecision; text-rendering:geometricPrecision; image-rendering:optimizeQuality; fill-rule:evenodd; clip-rule:evenodd"
viewBox="0 0 234 234"
 xmlns:xlink="http://www.w3.org/1999/xlink">
 <defs>
  <style type="text/css">
   <![CDATA[
    .str0 {stroke:white;stroke-width:9.98;stroke-miterlimit:22.9256}
    .fil0 {fill:none}
    .fil1 {fill:#FEFEFE}
   ]]>
  </style>
 </defs>
 <g id="Слой_x0020_1">
  <metadata id="CorelCorpID_0Corel-Layer"/>
  <polygon class="fil0" points="0,0 234,0 234,234 0,234 "/>
  <path class="fil1 str0" d="M112.53 180.37c-1.79,9.84 -5.36,16.99 -11.62,21.46 -6.26,4.47 -14.3,5.36 -24.13,3.57 -3.58,-0.89 -10.73,-1.78 -13.41,-3.57l4.47 -13.41c2.68,0.89 8.04,2.68 10.72,2.68 9.83,1.79 15.2,-2.68 16.99,-13.41l21.45 -121.57c1.79,-10.72 6.26,-17.87 12.51,-23.24 6.26,-4.47 15.2,-6.25 25.03,-4.47 3.58,0.9 10.73,1.79 16.09,4.47l-4.47 12.52c-1.78,-0.89 -8.04,-1.79 -10.72,-2.68 -11.62,-1.79 -17.88,3.57 -20.56,16.98l-22.35 120.67z"/>
 </g>
</svg>
