<?xml version="1.0" encoding="UTF-8"?>
<!DOCTYPE svg PUBLIC "-//W3C//DTD SVG 1.1//EN" "http://www.w3.org/Graphics/SVG/1.1/DTD/svg11.dtd">
<!-- Creator: CorelDRAW 2019 (64-Bit) -->
<svg xmlns="http://www.w3.org/2000/svg" xml:space="preserve" width="75px" height="75px" version="1.1" style="shape-rendering:geometricPrecision; text-rendering:geometricPrecision; image-rendering:optimizeQuality; fill-rule:evenodd; clip-rule:evenodd"
viewBox="0 0 75 75"
 xmlns:xlink="http://www.w3.org/1999/xlink">
 <defs>
  <style type="text/css">
   <![CDATA[
    .fil0 {fill:none}
    .fil1 {fill:#FEFEFE}
   ]]>
  </style>
 </defs>
 <g id="Слой_x0020_1">
  <metadata id="CorelCorpID_0Corel-Layer"/>
  <polygon class="fil0" points="0,0 75,0 75,75 0,75 "/>
  <polygon class="fil0" points="0,0 75,0 75,75 0,75 "/>
  <path class="fil1" d="M53.12 25l-12.49 12.5 0 9.94c3.62,1.31 6.25,4.75 6.25,8.81 0,5.19 -4.19,9.38 -9.38,9.38 -5.19,0 -9.38,-4.19 -9.38,-9.38 0,-4.06 2.63,-7.5 6.25,-8.81l0 -9.94 -12.49 -12.5 -12.51 0 0 -15.62 15.63 -0.01 0 9.54 12.5 13.12 12.5 -13.12 0 -9.54 15.63 0 0 15.63 -12.51 0z"/>
 </g>
</svg>
