<?xml version="1.0" encoding="UTF-8"?>
<!DOCTYPE svg PUBLIC "-//W3C//DTD SVG 1.1//EN" "http://www.w3.org/Graphics/SVG/1.1/DTD/svg11.dtd">
<!-- Creator: CorelDRAW 2019 (64-Bit) -->
<svg xmlns="http://www.w3.org/2000/svg" xml:space="preserve" width="75px" height="75px" version="1.1" style="shape-rendering:geometricPrecision; text-rendering:geometricPrecision; image-rendering:optimizeQuality; fill-rule:evenodd; clip-rule:evenodd"
viewBox="0 0 75 75"
 xmlns:xlink="http://www.w3.org/1999/xlink">
 <defs>
  <style type="text/css">
   <![CDATA[
    .fil0 {fill:none}
    .fil1 {fill:#FEFEFE}
   ]]>
  </style>
 </defs>
 <g id="Слой_x0020_1">
  <metadata id="CorelCorpID_0Corel-Layer"/>
  <polygon class="fil0" points="0,0 75,0 75,75 0,75 "/>
  <path class="fil1" d="M39.53 31.25c-2.56,-7.28 -9.5,-12.5 -17.65,-12.5 -10.35,0 -18.75,8.41 -18.75,18.75 0,10.34 8.4,18.75 18.75,18.75 8.15,0 15.09,-5.22 17.65,-12.5l13.59 0 0 12.5 12.51 0 0 -12.5 6.24 0 0 -12.5 -32.34 0zm-17.65 12.5c-3.44,0 -6.26,-2.81 -6.26,-6.25 0,-3.44 2.82,-6.25 6.26,-6.25 3.43,0 6.25,2.81 6.25,6.25 0,3.44 -2.82,6.25 -6.25,6.25z"/>
 </g>
</svg>
