<?xml version="1.0" encoding="UTF-8"?>
<!DOCTYPE svg PUBLIC "-//W3C//DTD SVG 1.1//EN" "http://www.w3.org/Graphics/SVG/1.1/DTD/svg11.dtd">
<!-- Creator: CorelDRAW 2019 (64-Bit) -->
<svg xmlns="http://www.w3.org/2000/svg" xml:space="preserve" width="75px" height="75px" version="1.1" style="shape-rendering:geometricPrecision; text-rendering:geometricPrecision; image-rendering:optimizeQuality; fill-rule:evenodd; clip-rule:evenodd"
viewBox="0 0 75 75"
 xmlns:xlink="http://www.w3.org/1999/xlink">
 <defs>
  <style type="text/css">
   <![CDATA[
    .fil0 {fill:none}
    .fil1 {fill:#FEFEFE}
   ]]>
  </style>
 </defs>
 <g id="Слой_x0020_1">
  <metadata id="CorelCorpID_0Corel-Layer"/>
  <polygon class="fil0" points="0,0 75,0 75,75 0,75 "/>
  <path class="fil1" d="M59.81 40.44c0.13,-0.94 0.19,-1.91 0.19,-2.94 0,-1 -0.06,-2 -0.22,-2.94l6.35 -4.93c0.56,-0.44 0.71,-1.29 0.37,-1.91l-6 -10.38c-0.37,-0.68 -1.16,-0.9 -1.84,-0.68l-7.47 3c-1.56,-1.19 -3.22,-2.19 -5.06,-2.94l-1.13 -7.94c-0.13,-0.75 -0.75,-1.28 -1.5,-1.28l-12 0c-0.75,0 -1.34,0.53 -1.47,1.28l-1.12 7.94c-1.85,0.75 -3.54,1.78 -5.07,2.94l-7.47 -3c-0.68,-0.25 -1.46,0 -1.84,0.68l-5.97 10.38c-0.37,0.65 -0.25,1.47 0.38,1.91l6.34 4.93c-0.15,0.94 -0.28,1.97 -0.28,2.94 0,0.97 0.06,2 0.22,2.94l-6.35 4.93c-0.56,0.44 -0.71,1.29 -0.37,1.91l6 10.38c0.37,0.68 1.16,0.9 1.84,0.68l7.47 -3c1.56,1.19 3.22,2.19 5.06,2.94l1.13 7.94c0.16,0.75 0.75,1.28 1.5,1.28l12 0c0.75,0 1.37,-0.53 1.47,-1.28l1.12 -7.94c1.85,-0.75 3.54,-1.75 5.07,-2.94l7.47 3c0.68,0.25 1.47,0 1.84,-0.68l6 -10.38c0.38,-0.69 0.22,-1.47 -0.38,-1.9l-6.28 -4.94zm-22.31 8.31c-6.19,0 -11.25,-5.06 -11.25,-11.25 0,-6.19 5.06,-11.25 11.25,-11.25 6.19,0 11.25,5.06 11.25,11.25 0,6.19 -5.06,11.25 -11.25,11.25z"/>
 </g>
</svg>
