<?xml version="1.0" encoding="UTF-8"?>
<!DOCTYPE svg PUBLIC "-//W3C//DTD SVG 1.1//EN" "http://www.w3.org/Graphics/SVG/1.1/DTD/svg11.dtd">
<!-- Creator: CorelDRAW 2019 (64-Bit) -->
<svg xmlns="http://www.w3.org/2000/svg" xml:space="preserve" width="234px" height="234px" version="1.1" style="shape-rendering:geometricPrecision; text-rendering:geometricPrecision; image-rendering:optimizeQuality; fill-rule:evenodd; clip-rule:evenodd"
viewBox="0 0 234 234"
 xmlns:xlink="http://www.w3.org/1999/xlink">
 <defs>
  <style type="text/css">
   <![CDATA[
    .fil0 {fill:none}
    .fil1 {fill:#FEFEFE}
    .fil2 {fill:white;fill-rule:nonzero}
   ]]>
  </style>
 </defs>
 <g id="Слой_x0020_1">
  <metadata id="CorelCorpID_0Corel-Layer"/>
  <polygon class="fil0" points="0,0 234,0 234,234 0,234 "/>
  <path class="fil1" d="M159.93 203.16c-28.72,0 -40.11,-40.6 -52.17,-83.48 -8.71,-31.02 -19.63,-69.69 -33.98,-69.69 -32.46,0 -33.51,66.34 -33.51,67.01l-19.14 0c0,-3.54 0.57,-86.16 52.65,-86.16 28.72,0 40.3,40.69 52.36,83.67 8.23,29.29 19.44,69.5 33.79,69.5 32.94,0 33.79,-66.35 33.79,-67.01l19.15 0c0,3.54 -0.58,86.16 -52.94,86.16l0 0z"/>
  <g>
   <path class="fil2" d="M193.72 117.01l-42.7 21.34 0 -42.69 42.7 21.35zm-48.45 3.49l0 -6.97 7.99 0 0 6.97 -7.99 0zm-15.97 0l0 -6.97 7.99 0 0 6.97 -7.99 0zm-15.97 0l0 -6.97 7.98 0 0 6.97 -7.98 0zm-15.98 0l0 -6.97 7.99 0 0 6.97 -7.99 0zm-15.97 0l0 -6.97 7.99 0 0 6.97 -7.99 0zm-41.11 -3.49l42.69 -21.35 0 42.69 -42.69 -21.34z"/>
  </g>
 </g>
</svg>
