<?xml version="1.0" encoding="UTF-8"?>
<!DOCTYPE svg PUBLIC "-//W3C//DTD SVG 1.1//EN" "http://www.w3.org/Graphics/SVG/1.1/DTD/svg11.dtd">
<!-- Creator: CorelDRAW 2019 (64-Bit) -->
<svg xmlns="http://www.w3.org/2000/svg" xml:space="preserve" width="75px" height="75px" version="1.1" style="shape-rendering:geometricPrecision; text-rendering:geometricPrecision; image-rendering:optimizeQuality; fill-rule:evenodd; clip-rule:evenodd"
viewBox="0 0 75 75"
 xmlns:xlink="http://www.w3.org/1999/xlink">
 <defs>
  <style type="text/css">
   <![CDATA[
    .fil0 {fill:none}
    .fil1 {fill:#FEFEFE}
   ]]>
  </style>
 </defs>
 <g id="Слой_x0020_1">
  <metadata id="CorelCorpID_0Corel-Layer"/>
  <polygon class="fil0" points="0,0 75,0 75,75 0,75 "/>
  <path class="fil1" d="M62.5 48.44c-3.91,0 -7.66,-0.63 -11.16,-1.78 -1.09,-0.35 -2.31,-0.1 -3.18,0.75l-6.88 6.87c-8.84,-4.5 -16.09,-11.72 -20.59,-20.56l6.87 -6.91c0.88,-0.84 1.13,-2.06 0.78,-3.15 -1.15,-3.5 -1.78,-7.25 -1.78,-11.16 0,-1.72 -1.4,-3.13 -3.12,-3.13l-10.94 0c-1.72,0 -3.13,1.41 -3.13,3.13 0,29.34 23.79,53.12 53.13,53.12 1.72,0 3.12,-1.4 3.12,-3.12l0 -10.94c0,-1.72 -1.4,-3.12 -3.12,-3.12l0 0zm-25 -39.07l0 31.25 9.38 -9.37 18.75 0 0 -21.88 -28.13 0z"/>
 </g>
</svg>
