<?xml version="1.0" encoding="UTF-8"?>
<!DOCTYPE svg PUBLIC "-//W3C//DTD SVG 1.1//EN" "http://www.w3.org/Graphics/SVG/1.1/DTD/svg11.dtd">
<!-- Creator: CorelDRAW 2019 (64-Bit) -->
<svg xmlns="http://www.w3.org/2000/svg" xml:space="preserve" width="234px" height="234px" version="1.1" style="shape-rendering:geometricPrecision; text-rendering:geometricPrecision; image-rendering:optimizeQuality; fill-rule:evenodd; clip-rule:evenodd"
viewBox="0 0 234 234"
 xmlns:xlink="http://www.w3.org/1999/xlink">
 <defs>
  <style type="text/css">
   <![CDATA[
    .str0 {stroke:white;stroke-width:15.97;stroke-miterlimit:22.9256}
    .fil0 {fill:none}
    .fil1 {fill:white;fill-rule:nonzero}
   ]]>
  </style>
 </defs>
 <g id="Слой_x0020_1">
  <metadata id="CorelCorpID_0Corel-Layer"/>
  <polygon class="fil0" points="0,0 234,0 234,234 0,234 "/>
  <g>
   <path class="fil1" d="M198.81 80.53l0 -9.56 8.7 0 0 9.56 -8.7 0zm-17.41 0l0 -9.56 8.7 0 0 9.56 -8.7 0zm-17.41 0l0 -9.56 8.71 0 0 9.56 -8.71 0zm-17.4 0l0 -9.56 8.7 0 0 9.56 -8.7 0zm-17.41 0l0 -9.56 8.7 0 0 9.56 -8.7 0zm-17.41 0l0 -9.56 8.7 0 0 9.56 -8.7 0zm-17.41 0l0 -9.56 8.7 0 0 9.56 -8.7 0zm-17.41 0l0 -9.56 8.7 0 0 9.56 -8.7 0zm-17.41 0l0 -9.56 8.7 0 0 9.56 -8.7 0zm-17.41 0l0 -9.56 8.7 0 0 9.56 -8.7 0z"/>
  </g>
  <path class="fil0 str0" d="M30.7 75.73c26.39,0 41.48,0.02 67.87,0.02 8.72,0 21.26,10.21 24.35,21.4 12.14,43.85 23.5,60.64 39.2,71.17 9.18,6.17 20.58,8.05 30.38,8.05l15.01 0"/>
 </g>
</svg>
