<?xml version="1.0" encoding="UTF-8"?>
<!DOCTYPE svg PUBLIC "-//W3C//DTD SVG 1.1//EN" "http://www.w3.org/Graphics/SVG/1.1/DTD/svg11.dtd">
<!-- Creator: CorelDRAW 2019 (64-Bit) -->
<svg xmlns="http://www.w3.org/2000/svg" xml:space="preserve" width="234px" height="234px" version="1.1" style="shape-rendering:geometricPrecision; text-rendering:geometricPrecision; image-rendering:optimizeQuality; fill-rule:evenodd; clip-rule:evenodd"
viewBox="0 0 234 234"
 xmlns:xlink="http://www.w3.org/1999/xlink">
 <defs>
  <style type="text/css">
   <![CDATA[
    .fil0 {fill:none}
    .fil1 {fill:#FEFEFE}
    .fil2 {fill:white;fill-rule:nonzero}
   ]]>
  </style>
 </defs>
 <g id="Слой_x0020_1">
  <metadata id="CorelCorpID_0Corel-Layer"/>
  <polygon class="fil0" points="0,0 234,0 234,234 0,234 "/>
  <path class="fil1" d="M159.93 203.16c-28.72,0 -40.11,-40.6 -52.17,-83.48 -8.71,-31.02 -19.63,-69.69 -33.98,-69.69 -32.46,0 -33.51,66.34 -33.51,67.01l-19.14 0c0,-3.54 0.57,-86.16 52.65,-86.16 28.72,0 40.3,40.69 52.36,83.67 8.23,29.29 19.44,69.5 33.79,69.5 32.94,0 33.79,-66.35 33.79,-67.01l19.15 0c0,3.54 -0.58,86.16 -52.94,86.16l0 0z"/>
  <g>
   <path class="fil2" d="M61.51 38.68l0 7.98 -8 0 0 -7.98 8 0zm16.02 0l0 7.98 -8.01 0 0 -7.98 8.01 0zm16.01 0l0 7.98 -8.01 0 0 -7.98 8.01 0zm16.01 0l0 7.98 -8.01 0 0 -7.98 8.01 0zm16.01 0l0 7.98 -8.01 0 0 -7.98 8.01 0zm16.01 0l0 7.98 -8 0 0 -7.98 8 0zm16.01 0l0 7.98 -8 0 0 -7.98 8 0zm16.01 0l0 7.98 -8 0 0 -7.98 8 0zm16.02 0l0 7.98 -8.01 0 0 -7.98 8.01 0zm13.68 7.98l-5.68 0 0 -7.98 5.68 0 0 7.98z"/>
  </g>
  <g>
   <path class="fil2" d="M164.16 182.83l-18.33 -36.67 36.68 0 -18.35 36.67zm3 -99.24l0 64.49 -5.99 0 0 -64.49 5.99 0zm-3 -34.76l18.35 36.68 -36.68 0 18.33 -36.68z"/>
  </g>
 </g>
</svg>
