<?xml version="1.0" encoding="UTF-8"?>
<!DOCTYPE svg PUBLIC "-//W3C//DTD SVG 1.1//EN" "http://www.w3.org/Graphics/SVG/1.1/DTD/svg11.dtd">
<!-- Creator: CorelDRAW 2019 (64-Bit) -->
<svg xmlns="http://www.w3.org/2000/svg" xml:space="preserve" width="234px" height="234px" version="1.1" style="shape-rendering:geometricPrecision; text-rendering:geometricPrecision; image-rendering:optimizeQuality; fill-rule:evenodd; clip-rule:evenodd"
viewBox="0 0 234 234"
 xmlns:xlink="http://www.w3.org/1999/xlink">
 <defs>
  <style type="text/css">
   <![CDATA[
    .fil0 {fill:none}
    .fil1 {fill:#FEFEFE}
   ]]>
  </style>
 </defs>
 <g id="Слой_x0020_1">
  <metadata id="CorelCorpID_0Corel-Layer"/>
  <polygon class="fil0" points="0,0 234,0 234,234 0,234 "/>
  <g>
   <path class="fil1" d="M19.84 51.41l0 77.74 19.43 0 0 -19.44 58.3 0 19.43 -19.43 -19.43 -19.43 -58.3 0 0 -19.44 -19.43 0 0 0zm174.89 0l0 19.44 -77.73 0 19.43 19.43 -19.43 19.43 77.73 0 0 19.44 19.43 0 0 -77.74 -19.43 0 0 0zm-77.73 77.74c0,0 -19.43,21.08 -19.43,34 0,10.73 8.7,19.44 19.43,19.44 10.73,0 19.43,-8.71 19.43,-19.44 0,-12.92 -19.43,-34 -19.43,-34z"/>
  </g>
 </g>
</svg>
