<?xml version="1.0" encoding="UTF-8"?>
<!DOCTYPE svg PUBLIC "-//W3C//DTD SVG 1.1//EN" "http://www.w3.org/Graphics/SVG/1.1/DTD/svg11.dtd">
<!-- Creator: CorelDRAW 2019 (64-Bit) -->
<svg xmlns="http://www.w3.org/2000/svg" xml:space="preserve" width="234px" height="234px" version="1.1" style="shape-rendering:geometricPrecision; text-rendering:geometricPrecision; image-rendering:optimizeQuality; fill-rule:evenodd; clip-rule:evenodd"
viewBox="0 0 234 234"
 xmlns:xlink="http://www.w3.org/1999/xlink">
 <defs>
  <style type="text/css">
   <![CDATA[
    .fil0 {fill:none}
    .fil1 {fill:#FEFEFE}
   ]]>
  </style>
 </defs>
 <g id="Слой_x0020_1">
  <metadata id="CorelCorpID_0Corel-Layer"/>
  <polygon class="fil0" points="0,0 234,0 234,234 0,234 "/>
  <path class="fil1" d="M160.25 203.8c-28.93,0 -40.41,-40.9 -52.56,-84.1 -8.77,-31.25 -19.77,-70.21 -34.23,-70.21 -32.7,0 -33.76,66.84 -33.76,67.51l-19.28 0c0,-3.57 0.57,-86.8 53.04,-86.8 28.93,0 40.6,40.99 52.75,84.29 8.29,29.51 19.58,70.02 34.04,70.02 33.18,0 34.04,-66.84 34.04,-67.51l19.29 0c0,3.57 -0.58,86.8 -53.33,86.8z"/>
 </g>
</svg>
